# ProBuilder 4.1.0
# https://unity3d.com/unity/features/worldbuilding/probuilder
# 9/09/2019 1:01:30 PM

mtllib ./Arch6.mtl
o Arch6

g Arch6
v -29.98 2.253906 15.75
v -33.31484 2.253906 15.75
v -29.98 3.253906 15.75
v -32.51427 3.253906 15.75
v -41.15012 2.48909 15.75
v -41.15012 2.48909 14.75
v -41.26131 3.336009 15.75
v -41.26131 3.336009 14.75
v -33.31484 2.253906 14.75
v -29.98 2.253906 14.75
v -32.51427 3.253906 14.75
v -29.98 3.253906 14.75
v -33.31491 5.188076 15.75
v -33.31491 5.188076 14.75
v -32.51435 6.188076 15.75
v -32.51435 6.188076 14.75
v -34.50733 6.24323 15.75
v -34.50733 6.24323 14.75
v -34.57518 7.522409 15.75
v -34.57518 7.522409 14.75
v -35.49973 5.238318 15.75
v -35.49973 5.238318 14.75
v -36.41163 6.137947 15.75
v -36.41163 6.137947 14.75
v -35.62145 2.489142 15.75
v -35.62145 2.489142 14.75
v -36.29005 3.336061 15.75
v -36.29005 3.336061 14.75

vt 0 0
vt -3.334839 0
vt 0 1
vt -2.534275 1
vt 0 1.687214
vt -1 1.687214
vt 0 2.541401
vt -1 2.541401
vt 3.334839 0
vt 2.534275 1
vt 1 0
vt 1 1
vt 2.534275 0
vt 0 -1
vt 2.534275 -1
vt -3.334839 -1
vt -1 8.671208E-05
vt 0 2.934257
vt -1 2.934257
vt -2.534351 3.93417
vt -3.334915 2.93417
vt 3.334915 2.93417
vt 2.534351 3.93417
vt 1 3.934236
vt 0 3.934236
vt -4.441943 0
vt -4.441943 -1
vt -6.034176 0
vt -6.034176 -1
vt -4.595177 5.268503
vt -4.527332 3.989324
vt 4.527332 3.989324
vt 4.595177 5.268503
vt 4.265574 -1
vt 4.265574 0
vt 6.72066 -1
vt 6.72066 0
vt 0 -0.3426895
vt 1 -0.3426895
vt 0 -1.755028
vt 1 -1.755028
vt -6.431633 3.884041
vt -5.51973 2.984412
vt 5.51973 2.984412
vt 6.431633 3.884041
vt 0.4977702 -1
vt 0.4977702 0
vt 2.79762 -1
vt 2.79762 0
vt 0 2.737345
vt 1 2.737345
vt 0 -0.01452392
vt 1 -0.01452392
vt -6.310051 1.082155
vt -5.641449 0.2352362
vt 5.641449 0.2352362
vt 6.310051 1.082155
vt -1 4.159214
vt 0 4.159214
vt -1 1.354692
vt 0 1.354692
vt -5.641447 0
vt -5.641447 -1
vt -11.17012 0
vt -11.17012 -1
vt -11.28131 1.082103
vt -11.17012 0.235184
vt 11.17012 0.235184
vt 11.28131 1.082103
vt 6.31004 -1
vt 6.31004 0
vt 11.2813 -1
vt 11.2813 0

vn 0 0 1
vn -0.9914915 -0.1301715 0
vn 0 0 -1
vn 1 0 0
vn 0 1 0
vn 0 -1 0
vn -1 -2.600188E-05 0
vn -0.6626878 -0.7488958 0
vn 0.5434976 0.8394108 0
vn 0.7115234 -0.7026625 0
vn -0.6019796 0.7985115 0
vn 0.9990214 -0.04423152 0
vn -0.9990599 -0.04335213 0

usemtl ProBuilderDefault
f 3/3/1 4/4/1 2/2/1 1/1/1
f 7/7/2 8/8/2 6/6/2 5/5/2
f 11/10/3 12/3/3 10/1/3 9/9/3
f 12/12/4 3/3/4 1/1/4 10/11/4
f 12/14/5 11/15/5 4/13/5 3/1/5
f 1/1/6 2/2/6 9/16/6 10/14/6
f 13/18/7 14/19/7 9/17/7 2/1/7
f 15/20/1 13/21/1 2/2/1 4/4/1
f 14/22/3 16/23/3 11/10/3 9/9/3
f 16/24/4 15/25/4 4/3/4 11/12/4
f 17/28/8 18/29/8 14/27/8 13/26/8
f 19/30/1 17/31/1 13/21/1 15/20/1
f 18/32/3 20/33/3 16/23/3 14/22/3
f 20/36/9 19/37/9 15/35/9 16/34/9
f 21/40/10 22/41/10 18/39/10 17/38/10
f 23/42/1 21/43/1 17/31/1 19/30/1
f 22/44/3 24/45/3 20/33/3 18/32/3
f 24/48/11 23/49/11 19/47/11 20/46/11
f 25/52/12 26/53/12 22/51/12 21/50/12
f 27/54/1 25/55/1 21/43/1 23/42/1
f 26/56/3 28/57/3 24/45/3 22/44/3
f 28/60/13 27/61/13 23/59/13 24/58/13
f 5/64/6 6/65/6 26/63/6 25/62/6
f 7/66/1 5/67/1 25/55/1 27/54/1
f 6/68/3 8/69/3 28/57/3 26/56/3
f 8/72/5 7/73/5 27/71/5 28/70/5

