# ProBuilder 4.1.0
# https://unity3d.com/unity/features/worldbuilding/probuilder
# 9/09/2019 1:00:56 PM

mtllib ./Arch3.mtl
o Arch3

g Arch3
v 39.48273 0.98 13.16895
v 38.73 0.98 13.16895
v 39.48273 1.98 13.16895
v 38.73 1.98 13.16895
v 38.73 0.98 12.43139
v 38.73 1.98 12.57546
v 39.48273 0.98 12.43139
v 39.48273 1.98 12.57546
v 39.48273 0.8657048 10.34929
v 38.73 0.8657048 10.34929
v 39.48273 0.8447006 10.90861
v 38.73 0.8447006 10.90861
v 39.48273 3.47923 13.16895
v 38.73 3.47923 13.16895
v 39.48273 3.47923 12.48405
v 38.73 3.47923 12.48405
v 39.48273 1.130081 15.4343
v 38.73 1.130081 15.4343
v 39.48273 1.147019 15.83946
v 38.73 1.147019 15.83946
v 39.48273 4.460585 12.46569
v 39.48273 4.460585 13.16895
v 38.73 4.460585 13.16895
v 38.73 4.460585 12.46569
v 39.48273 5.644176 12.8997
v 38.73 5.644176 12.8997
v 39.48273 5.644176 12.33998
v 38.73 5.644176 12.33998
v 39.48273 4.286945 14.26031
v 38.73 4.286945 14.26031
v 39.48273 4.692459 14.26031
v 38.73 4.692459 14.26031
v 39.48273 4.075477 15.22223
v 38.73 4.075477 15.22223
v 39.48273 4.441405 15.39698
v 38.73 4.441405 15.39698
v 39.48273 3.316921 15.43585
v 38.73 3.316921 15.43585
v 39.48273 3.369891 15.83788
v 38.73 3.369891 15.83788
v 39.48273 6.547377 12.24245
v 38.73 6.547377 12.24245
v 39.48273 6.040342 12.00538
v 38.73 6.040342 12.00538
v 39.48273 6.515498 11.00937
v 38.73 6.515498 11.00937
v 39.48273 6.072307 11.35122
v 38.73 6.072307 11.35122
v 39.48273 5.510797 10.63129
v 38.73 5.510797 10.63129
v 39.48273 5.489792 11.19062
v 38.73 5.489792 11.19062
v 39.48273 1.276476 10.34929
v 38.73 1.276476 10.34929
v 39.48273 1.255472 10.90862
v 38.73 1.255472 10.90862

vt -0.2472725 0
vt -1 0
vt -0.2472725 1
vt -1 1
vt 0 0
vt -0.7375584 0
vt 0 1
vt -0.5934858 1
vt 1 -0.1051759
vt 0.2472725 -0.1051759
vt 1 0.9051492
vt 0.2472725 0.9051492
vt 0.7375584 0
vt 0.5934858 1
vt -0.2472725 -2.813381
vt -1 -2.813381
vt -0.2472725 -2.253663
vt -1 -2.253663
vt -0.2472725 -0.7375584
vt -1 -0.7375584
vt -0.2472725 2.49923
vt -1 2.49923
vt 0.6848927 2.49923
vt 0 2.49923
vt -0.6848927 2.49923
vt 1 1.034264
vt 0.2472725 1.034264
vt 1 2.536278
vt 0.2472725 2.536278
vt -0.2472725 2.269645
vt -1 2.269645
vt -0.2472725 2.675158
vt -1 2.675158
vt 0.7032557 3.480585
vt 0 3.480585
vt -0.7032557 3.480585
vt 1 2.511606
vt 0.2472725 2.511606
vt 1 3.493132
vt 0.2472725 3.493132
vt -0.2472725 3.393878
vt -1 3.393878
vt -0.2472725 4.607707
vt -1 4.607707
vt 0.8289652 4.664176
vt 0.2692471 4.664176
vt -0.2692471 4.664176
vt -0.8289652 4.664176
vt 1 3.535393
vt 0.2472725 3.535393
vt 1 4.725641
vt 0.2472725 4.725641
vt -0.2472725 1.486779
vt -1 1.486779
vt -0.2472725 2.844524
vt -1 2.844524
vt -1.09136 3.712459
vt -1.09136 3.306945
vt 1.09136 3.306945
vt 1.09136 3.712459
vt 1 0.7233505
vt 0.2472725 0.7233505
vt 1 1.839071
vt 0.2472725 1.839071
vt -0.2472725 0.3558661
vt -1 0.3558661
vt -0.2472725 1.340761
vt -1 1.340761
vt -2.228036 3.461405
vt -2.053285 3.095477
vt 2.053285 3.095477
vt 2.228036 3.461405
vt 1 0.2650147
vt 0.2472725 0.2650147
vt 1 1.429085
vt 0.2472725 1.429085
vt 0.2472725 2.423012
vt 1 2.423012
vt 0.2472725 1.634952
vt 1 1.634952
vt -2.668939 2.389891
vt -2.2669 2.336921
vt 2.2669 2.336921
vt 2.668939 2.389891
vt -1 2.353193
vt -0.2472725 2.353193
vt -1 1.194514
vt -0.2472725 1.194514
vt 0.2472725 2.338524
vt 1 2.338524
vt 0.2472725 0.151683
vt 1 0.151683
vt -2.670512 0.1670189
vt -2.265353 0.1500807
vt 2.265353 0.1500807
vt 2.670512 0.1670189
vt -1 2.388001
vt -0.2472725 2.388001
vt -1 0.1651284
vt -0.2472725 0.1651284
vt -0.2472725 3.929761
vt -1 3.929761
vt -0.2472725 5.046788
vt -1 5.046788
vt 1.163565 5.060342
vt 0.9264975 5.567377
vt -0.9264975 5.567377
vt -1.163565 5.060342
vt 1 4.098197
vt 0.2472725 4.098197
vt 1 4.616757
vt 0.2472725 4.616757
vt 0.2472725 -0.7823045
vt 1 -0.7823045
vt 0.2472725 -2.015798
vt 1 -2.015798
vt 1.817722 5.092307
vt 2.159579 5.535498
vt -2.159579 5.535498
vt -1.817722 5.092307
vt -1 -1.409148
vt -0.2472725 -1.409148
vt -1 -2.064087
vt -0.2472725 -2.064087
vt 0.2472725 4.42023
vt 1 4.42023
vt 0.2472725 3.346747
vt 1 3.346747
vt 1.97833 4.509792
vt 2.537654 4.530797
vt -2.537654 4.530797
vt -1.97833 4.509792
vt -1 4.425988
vt -0.2472725 4.425988
vt -1 3.821739
vt -0.2472725 3.821739
vt 0.2472725 4.352152
vt 1 4.352152
vt 0.2472725 0.108452
vt 1 0.108452
vt 2.260328 0.2754722
vt 2.819653 0.2964764
vt -2.819653 0.2964764
vt -2.260328 0.2754722
vt -1 4.368362
vt -0.2472725 4.368362
vt -1 0.1246619
vt -0.2472725 0.1246619
vt 0.2472725 0.2964502
vt 1 0.2964502
vt 0.2472725 -0.1143214
vt 1 -0.1143214
vt 2.260332 -0.1352994
vt 2.819656 -0.1142952
vt -2.819656 -0.1142952
vt -2.260332 -0.1352994
vt -1 0.2754512
vt -0.2472725 0.2754512
vt -1 -0.1353204
vt -0.2472725 -0.1353204

vn 0 0 1
vn -1 0 0
vn 0 0.1426002 -0.9897804
vn 1 0 0
vn 0 -0.9992957 -0.03752637
vn 0 -1 0
vn 0 -0.06085618 -0.9981465
vn 0 -0.9991273 0.04176984
vn 0 -0.01870861 -0.999825
vn 0 0.2218163 0.9750885
vn 0 -0.1056163 -0.994407
vn 0 -0.8038036 0.5948949
vn 0 0.9781662 -0.2078244
vn 0 -0.9766774 -0.2147119
vn 0 0.9764666 0.2156689
vn 0 -0.271065 -0.9625611
vn 0 0.380522 0.9247718
vn 0 0.0007073491 -0.9999998
vn 0 0.0007078958 0.9999998
vn 0 0.5883924 0.8085756
vn 0 -0.6452469 -0.7639741
vn 0 0.999666 -0.02584404
vn 0 -0.9988083 -0.04880507
vn 0 0.3521944 -0.9359269
vn 0 -0.2657963 0.9640292
vn 0 0.06645112 -0.9977897
vn 0 -0.06645112 0.9977897
vn 0 9.286662E-06 -1

usemtl ProBuilderDefault
f 3/3/1 4/4/1 2/2/1 1/1/1
f 4/7/2 6/8/2 5/6/2 2/5/2
f 6/11/3 8/12/3 7/10/3 5/9/3
f 8/14/4 3/7/4 1/5/4 7/13/4
f 11/17/5 12/18/5 10/16/5 9/15/5
f 1/1/6 2/2/6 5/20/6 7/19/6
f 13/21/1 14/22/1 4/4/1 3/3/1
f 15/23/4 13/24/4 3/7/4 8/14/4
f 14/24/2 16/25/2 6/8/2 4/7/2
f 16/28/7 15/29/7 8/27/7 6/26/7
f 19/32/8 20/33/8 18/31/8 17/30/8
f 21/34/4 22/35/4 13/24/4 15/23/4
f 23/35/2 24/36/2 16/25/2 14/24/2
f 24/39/9 21/40/9 15/38/9 16/37/9
f 25/43/10 26/44/10 23/42/10 22/41/10
f 27/45/4 25/46/4 22/35/4 21/34/4
f 26/47/2 28/48/2 24/36/2 23/35/2
f 28/51/11 27/52/11 21/50/11 24/49/11
f 29/55/12 30/56/12 14/54/12 13/53/12
f 31/57/4 29/58/4 13/24/4 22/35/4
f 30/59/2 32/60/2 23/35/2 14/24/2
f 32/63/13 31/64/13 22/62/13 23/61/13
f 33/67/14 34/68/14 30/66/14 29/65/14
f 35/69/4 33/70/4 29/58/4 31/57/4
f 34/71/2 36/72/2 32/60/2 30/59/2
f 36/75/15 35/76/15 31/74/15 32/73/15
f 37/79/16 38/80/16 34/78/16 33/77/16
f 39/81/4 37/82/4 33/70/4 35/69/4
f 38/83/2 40/84/2 36/72/2 34/71/2
f 40/87/17 39/88/17 35/86/17 36/85/17
f 17/91/18 18/92/18 38/90/18 37/89/18
f 19/93/4 17/94/4 37/82/4 39/81/4
f 18/95/2 20/96/2 40/84/2 38/83/2
f 20/99/19 19/100/19 39/98/19 40/97/19
f 41/103/20 42/104/20 26/102/20 25/101/20
f 43/105/4 41/106/4 25/46/4 27/45/4
f 42/107/2 44/108/2 28/48/2 26/47/2
f 44/111/21 43/112/21 27/110/21 28/109/21
f 45/115/22 46/116/22 42/114/22 41/113/22
f 47/117/4 45/118/4 41/106/4 43/105/4
f 46/119/2 48/120/2 44/108/2 42/107/2
f 48/123/23 47/124/23 43/122/23 44/121/23
f 49/127/24 50/128/24 46/126/24 45/125/24
f 51/129/4 49/130/4 45/118/4 47/117/4
f 50/131/2 52/132/2 48/120/2 46/119/2
f 52/135/25 51/136/25 47/134/25 48/133/25
f 53/139/26 54/140/26 50/138/26 49/137/26
f 55/141/4 53/142/4 49/130/4 51/129/4
f 54/143/2 56/144/2 52/132/2 50/131/2
f 56/147/27 55/148/27 51/146/27 52/145/27
f 9/151/28 10/152/28 54/150/28 53/149/28
f 11/153/4 9/154/4 53/142/4 55/141/4
f 10/155/2 12/156/2 56/144/2 54/143/2
f 12/159/1 11/160/1 55/158/1 56/157/1

