# ProBuilder 4.1.0
# https://unity3d.com/unity/features/worldbuilding/probuilder
# 9/09/2019 1:00:43 PM

mtllib ./Arch2.mtl
o Arch2

g Arch2
v 30.33876 1.19 13.3684
v 29.53 1.19 13.3684
v 30.33876 2.19 13.3684
v 29.53 2.19 13.3684
v 29.53 1.19 12.73828
v 29.53 2.19 12.73828
v 30.33876 1.19 12.73828
v 30.33876 2.19 12.73828
v 30.33876 4.920711 13.60526
v 29.53 4.920711 13.60526
v 30.33876 4.920711 12.50142
v 29.53 4.920711 12.50142
v 30.33876 4.246521 13.60526
v 29.53 4.246521 13.60526
v 30.33876 4.133999 12.50142
v 29.53 4.133999 12.50142
v 30.33876 1.611454 15.66821
v 29.53 1.611454 15.66821
v 30.33876 1.679993 16.60378
v 29.53 1.679993 16.60378
v 29.53 1.508817 10.53653
v 30.33876 1.508817 10.53653
v 29.53 1.561659 9.948168
v 30.33876 1.561659 9.948168
v 30.33876 4.776667 14.72816
v 29.53 4.776667 14.72816
v 30.33876 5.450856 14.72816
v 29.53 5.450856 14.72816
v 29.53 4.664145 11.70799
v 30.33876 4.664145 11.70799
v 29.53 5.450856 11.70799
v 30.33876 5.450856 11.70799
v 30.33876 4.152911 15.75468
v 29.53 4.152911 15.75468
v 30.33876 4.607775 16.51718
v 29.53 4.607775 16.51718
v 29.53 4.211333 10.5366
v 30.33876 4.211333 10.5366
v 29.53 4.733584 9.948235
v 30.33876 4.733584 9.948235

vt -0.1912403 0
vt -1 0
vt -0.1912403 1
vt -1 1
vt -0.3698845 0
vt -0.3698845 1
vt 1 0
vt 0.1912403 0
vt 1 1
vt 0.1912403 1
vt 0.3698845 0
vt 0.3698845 1
vt 0.1912403 -0.1330204
vt 1 -0.1330204
vt 0.1912403 -1.236864
vt 1 -1.236864
vt -0.1912403 -1
vt -1 -1
vt -0.1912403 -0.3698845
vt -1 -0.3698845
vt -0.1912403 0.95111
vt -1 0.95111
vt -0.1912403 3.021227
vt -1 3.021227
vt 1.236864 2.943999
vt 0.1330204 3.056521
vt -0.1330204 3.056521
vt -1.236864 2.943999
vt 1 1.113608
vt 0.1912403 1.113608
vt 1 3.071984
vt 0.1912403 3.071984
vt -0.1912403 1.955565
vt -1 1.955565
vt -0.1912403 2.893643
vt -1 2.893643
vt 1.236864 3.730711
vt 0.1330204 3.730711
vt -0.1330204 3.730711
vt -1.236864 3.730711
vt -1 -3.217435
vt -0.1912403 -3.217435
vt -1 -3.808165
vt -0.1912403 -3.808165
vt -0.1912403 1.184642
vt -1 1.184642
vt -0.1912403 2.426395
vt -1 2.426395
vt -0.9898767 4.260856
vt -0.9898767 3.586667
vt 0.9898767 3.586667
vt 0.9898767 4.260856
vt 1 1.472475
vt 0.1912403 1.472475
vt 1 2.714229
vt 0.1912403 2.714229
vt -1 -2.664005
vt -0.1912403 -2.664005
vt -1 -3.618248
vt -0.1912403 -3.618248
vt -2.030292 4.260856
vt -2.030292 3.474145
vt 2.030292 3.474145
vt 2.030292 4.260856
vt 0.1912403 -3.101075
vt 1 -3.101075
vt 0.1912403 -4.055319
vt 1 -4.055319
vt -0.1912403 -1.016565
vt -1 -1.016565
vt -0.1912403 0.1846101
vt -1 0.1846101
vt -2.778898 3.417775
vt -2.0164 2.962911
vt 2.0164 2.962911
vt 2.778898 3.417775
vt 1 -0.9209263
vt 0.1912403 -0.9209263
vt 1 1.056795
vt 0.1912403 1.056795
vt 0.1912403 3.029763
vt 1 3.029763
vt 0.1912403 0.4868355
vt 1 0.4868355
vt -2.865501 0.4899931
vt -1.929931 0.421454
vt 1.929931 0.421454
vt 2.865501 0.4899931
vt -1 3.334118
vt -0.1912403 3.334118
vt -1 0.405055
vt -0.1912403 0.405055
vt -1 -0.6411004
vt -0.1912403 -0.6411004
vt -1 -1.896967
vt -0.1912403 -1.896967
vt -3.790047 3.543584
vt -3.201685 3.021333
vt 3.201685 3.021333
vt 3.790047 3.543584
vt 0.1912403 -0.2718605
vt 1 -0.2718605
vt 0.1912403 -2.172181
vt 1 -2.172181
vt -1 0.3187374
vt -0.1912403 0.3187374
vt -3.790113 0.3716594
vt -3.201752 0.3188165
vt 3.201752 0.3188165
vt 3.790113 0.3716594
vt 0.1912403 3.543504
vt 1 3.543504
vt 0.1912403 0.3715796
vt 1 0.3715796

vn 0 0 1
vn -1 0 0
vn 0 0 -1
vn 1 0 0
vn 0 1 0
vn 0 -1 0
vn 0 -0.1144206 0.9934324
vn 0 -0.1209492 -0.9926587
vn 0 -0.9973273 0.07306339
vn 0 -0.995991 -0.08945349
vn 0 -0.9042833 0.426933
vn 0 0.9042833 -0.426933
vn 0 -0.8314723 -0.5555661
vn 0 0.8314723 0.5555661
vn 0 -0.8545993 -0.519288
vn 0 0.904587 0.426289
vn 0 0.03400397 -0.9994217
vn 0 0.02956685 0.9995628
vn 0 -0.9327372 0.3605572
vn 0 0.9260308 -0.3774481

usemtl ProBuilderDefault
f 3/3/1 4/4/1 2/2/1 1/1/1
f 4/6/2 6/4/2 5/2/2 2/5/2
f 6/9/3 8/10/3 7/8/3 5/7/3
f 8/9/4 3/12/4 1/11/4 7/7/4
f 11/15/5 12/16/5 10/14/5 9/13/5
f 1/19/6 2/20/6 5/18/6 7/17/6
f 13/23/7 14/24/7 4/22/7 3/21/7
f 15/25/4 13/26/4 3/12/4 8/9/4
f 14/27/2 16/28/2 6/4/2 4/6/2
f 16/31/8 15/32/8 8/30/8 6/29/8
f 19/35/9 20/36/9 18/34/9 17/33/9
f 11/37/4 9/38/4 13/26/4 15/25/4
f 10/39/2 12/40/2 16/28/2 14/27/2
f 23/43/10 24/44/10 22/42/10 21/41/10
f 25/47/11 26/48/11 14/46/11 13/45/11
f 27/49/4 25/50/4 13/26/4 9/38/4
f 26/51/2 28/52/2 10/39/2 14/27/2
f 28/55/12 27/56/12 9/54/12 10/53/12
f 29/59/13 30/60/13 15/58/13 16/57/13
f 31/61/2 29/62/2 16/28/2 12/40/2
f 30/63/4 32/64/4 11/37/4 15/25/4
f 32/67/14 31/68/14 12/66/14 11/65/14
f 33/71/15 34/72/15 26/70/15 25/69/15
f 35/73/4 33/74/4 25/50/4 27/49/4
f 34/75/2 36/76/2 28/52/2 26/51/2
f 36/79/16 35/80/16 27/78/16 28/77/16
f 17/83/17 18/84/17 34/82/17 33/81/17
f 19/85/4 17/86/4 33/74/4 35/73/4
f 18/87/2 20/88/2 36/76/2 34/75/2
f 20/91/18 19/92/18 35/90/18 36/89/18
f 37/95/19 38/96/19 30/94/19 29/93/19
f 39/97/2 37/98/2 29/62/2 31/61/2
f 38/99/4 40/100/4 32/64/4 30/63/4
f 40/103/20 39/104/20 31/102/20 32/101/20
f 21/105/1 22/106/1 38/23/1 37/24/1
f 23/107/2 21/108/2 37/98/2 39/97/2
f 22/109/4 24/110/4 40/100/4 38/99/4
f 24/113/3 23/114/3 39/112/3 40/111/3

