# ProBuilder 4.1.0
# https://unity3d.com/unity/features/worldbuilding/probuilder
# 9/09/2019 1:01:07 PM

mtllib ./Arch4.mtl
o Arch4

g Arch4
v 24.79 2.35 -1.14
v 23.79 2.35 -1.14
v 24.79 4.875316 -1.14
v 23.79 4.875316 -1.14
v 23.79 2.35 -2.14
v 23.79 4.875316 -2.14
v 24.79 2.35 -2.14
v 24.79 4.875316 -2.14
v 24.79 2.216124 1.356828
v 23.79 2.216124 1.356828
v 24.79 2.116467 2.351851
v 23.79 2.116467 2.351851
v 24.79 2.069514 -2.14
v 23.79 2.069514 -2.14
v 24.79 2.069514 -1.14
v 23.79 2.069514 -1.14
v 24.79 6.391349 -0.1490444
v 23.79 6.391349 -0.1490444
v 24.79 7.014184 -0.9313973
v 23.79 7.014184 -0.9313973
v 24.79 6.494783 0.4534277
v 23.79 6.494783 0.4534277
v 24.79 7.396229 0.8863186
v 23.79 7.396229 0.8863186
v 24.79 5.784097 1.434497
v 23.79 5.784097 1.434497
v 24.79 6.327308 2.274093
v 23.79 6.327308 2.274093
v 24.79 2.496609 1.356838
v 23.79 2.496609 1.356838
v 24.79 2.396952 2.351861
v 23.79 2.396952 2.351861

vt 0 0
vt -1 0
vt 0 2.525316
vt -1 2.525316
vt 1 0
vt 1 2.525316
vt 0 2.49774
vt -1 2.49774
vt 0 3.497741
vt -1 3.497741
vt 0 -1
vt -1 -1
vt 0 2.113802
vt -1 2.113802
vt 0 3.924975
vt -1 3.924975
vt -0.2086027 4.664184
vt -0.9909556 4.041349
vt 0.9909556 4.041349
vt 0.2086027 4.664184
vt 1 1.706631
vt 0 1.706631
vt 1 4.163351
vt 0 4.163351
vt 0 1.660492
vt -1 1.660492
vt 0 2.271778
vt -1 2.271778
vt -2.026319 5.046229
vt -1.593428 4.144783
vt 1.593428 4.144783
vt 2.026319 5.046229
vt 1 1.163494
vt 0 1.163494
vt 1 3.020925
vt 0 3.020925
vt 0 -1.141108
vt -1 -1.141108
vt 0 0.07032543
vt -1 0.07032543
vt -3.414093 3.977308
vt -2.574497 3.434097
vt 2.574497 3.434097
vt 3.414093 3.977308
vt 1 -1.473953
vt 0 -1.473953
vt 1 0.2777637
vt 0 0.2777637
vt 0 3.493938
vt 1 3.493938
vt 0 0.2055331
vt 1 0.2055331
vt -3.49186 0.04695249
vt -2.496838 0.1466091
vt 2.496838 0.1466091
vt 3.49186 0.04695249
vt -1 3.908991
vt 0 3.908991
vt -1 -0.02213412
vt 0 -0.02213412
vt 0 0.1466982
vt 1 0.1466982
vt 0 -0.1337873
vt 1 -0.1337873
vt -3.49185 -0.233533
vt -2.496828 -0.1338764
vt 2.496828 -0.1338764
vt 3.49185 -0.233533
vt -1 0.04707715
vt 0 0.04707715
vt -1 -0.2334084
vt 0 -0.2334084
vt 0 -0.280486
vt 1 -0.280486
vt -1 -0.280486

vn 0 0 1
vn -1 0 0
vn 0 0 -1
vn 1 0 0
vn 0 -0.9950219 -0.09965654
vn 0 -1 0
vn 0 -0.5471346 0.8370445
vn 0 0.4919577 -0.8706191
vn 0 -0.9855805 0.1692072
vn 0 0.9786183 -0.2056848
vn 0 -0.8098415 -0.5866487
vn 0 0.792237 0.6102135
vn 0 0.02361583 -0.9997211
vn 0 0.01978241 0.9998043

usemtl ProBuilderDefault
f 3/3/1 4/4/1 2/2/1 1/1/1
f 4/3/2 6/4/2 5/2/2 2/1/2
f 6/6/3 8/3/3 7/1/3 5/5/3
f 8/6/4 3/3/4 1/1/4 7/5/4
f 11/9/5 12/10/5 10/8/5 9/7/5
f 15/1/6 16/2/6 14/12/6 13/11/6
f 17/15/7 18/16/7 4/14/7 3/13/7
f 19/17/4 17/18/4 3/3/4 8/6/4
f 18/19/2 20/20/2 6/4/2 4/3/2
f 20/23/8 19/24/8 8/22/8 6/21/8
f 21/27/9 22/28/9 18/26/9 17/25/9
f 23/29/4 21/30/4 17/18/4 19/17/4
f 22/31/2 24/32/2 20/20/2 18/19/2
f 24/35/10 23/36/10 19/34/10 20/33/10
f 25/39/11 26/40/11 22/38/11 21/37/11
f 27/41/4 25/42/4 21/30/4 23/29/4
f 26/43/2 28/44/2 24/32/2 22/31/2
f 28/47/12 27/48/12 23/46/12 24/45/12
f 29/51/13 30/52/13 26/50/13 25/49/13
f 31/53/4 29/54/4 25/42/4 27/41/4
f 30/55/2 32/56/2 28/44/2 26/43/2
f 32/59/14 31/60/14 27/58/14 28/57/14
f 9/63/3 10/64/3 30/62/3 29/61/3
f 11/65/4 9/66/4 29/54/4 31/53/4
f 10/67/2 12/68/2 32/56/2 30/55/2
f 12/71/1 11/72/1 31/70/1 32/69/1
f 13/73/3 14/74/3 5/5/3 7/1/3
f 15/73/4 13/74/4 7/5/4 1/1/4
f 14/75/2 16/73/2 2/1/2 5/2/2
f 16/75/1 15/73/1 1/1/1 2/2/1

