# ProBuilder 4.1.0
# https://unity3d.com/unity/features/worldbuilding/probuilder
# 9/09/2019 1:01:19 PM

mtllib ./Arch5.mtl
o Arch5

g Arch5
v -8.015515 8.673124 -27.04137
v -8.69108 8.673124 -27.04137
v -8.015515 11.76241 -27.04137
v -8.69108 11.76241 -27.04137
v -8.69108 8.673124 -27.32842
v -8.69108 11.76241 -27.32842
v -8.015515 8.673124 -27.32842
v -8.015515 11.76241 -27.32842
v -8.456127 8.566798 -24.22799
v -8.69108 8.566798 -24.22799
v -8.456127 8.591496 -23.9498
v -8.69108 8.591496 -23.9498
v -8.456127 8.533815 -27.32842
v -8.69108 8.533815 -27.32842
v -8.456127 8.533815 -27.04137
v -8.69108 8.533815 -27.04137
v -8.015515 12.2376 -26.47334
v -8.69108 12.2376 -26.47334
v -8.015515 12.4915 -26.60724
v -8.69108 12.4915 -26.60724
v -8.015515 12.22723 -24.61499
v -8.69108 12.22723 -24.61499
v -8.015515 12.50197 -24.53184
v -8.69108 12.50197 -24.53184
v -8.015515 11.70117 -24.22803
v -8.69108 11.70117 -24.22803
v -8.015515 11.77192 -23.94983
v -8.69108 11.77192 -23.94983
v -8.015515 8.706107 -24.228
v -8.69108 8.706107 -24.228
v -8.015515 8.730805 -23.94981
v -8.69108 8.730805 -23.94981

vt 1.334485 1.373124
vt 0.6589203 1.373124
vt 1.334485 4.462415
vt 0.6589203 4.462415
vt -0.719368 1.373124
vt -1.006418 1.373124
vt -0.719368 4.462415
vt -1.006418 4.462415
vt -0.6589203 1.373124
vt -1.334485 1.373124
vt -0.6589203 4.462415
vt -1.334485 4.462415
vt 1.006418 1.373124
vt 0.719368 1.373124
vt 1.006418 4.462415
vt 0.719368 4.462415
vt 0.8938732 2.197832
vt 0.6589203 2.197832
vt 0.8938732 2.47712
vt 0.6589203 2.47712
vt 0.8938732 -1.006418
vt 0.6589203 -1.006418
vt 0.8938732 -0.719368
vt 0.6589203 -0.719368
vt 1.334485 2.311514
vt 0.6589203 2.311514
vt 1.334485 3.052088
vt 0.6589203 3.052088
vt 0.285244 5.191504
vt 0.1513443 4.937598
vt -0.1513443 4.937598
vt -0.285244 5.191504
vt -0.6589203 2.464828
vt -1.334485 2.464828
vt -0.6589203 3.490335
vt -1.334485 3.490335
vt 1.334485 -0.1789
vt 0.6589203 -0.1789
vt 1.334485 1.679487
vt 0.6589203 1.679487
vt -1.790159 5.20197
vt -1.707014 4.927226
vt 1.707014 4.927226
vt 1.790159 5.20197
vt -0.6589203 -0.2590615
vt -1.334485 -0.2590615
vt -0.6589203 1.816368
vt -1.334485 1.816368
vt -1.334485 2.957578
vt -0.6589203 2.957578
vt -1.334485 2.30453
vt -0.6589203 2.30453
vt -2.372169 4.471921
vt -2.093975 4.401172
vt 2.093975 4.401172
vt 2.372169 4.471921
vt 0.6589203 2.951635
vt 1.334485 2.951635
vt 0.6589203 2.017982
vt 1.334485 2.017982
vt -1.334485 4.401155
vt -0.6589203 4.401155
vt -1.334485 1.40609
vt -0.6589203 1.40609
vt -2.372194 1.430805
vt -2.094 1.406107
vt 2.094 1.406107
vt 2.372194 1.430805
vt 0.6589203 4.471901
vt 1.334485 4.471901
vt 0.6589203 1.430786
vt 1.334485 1.430786
vt -0.8938732 1.233815
vt -0.6589203 1.233815
vt 1.686348 -0.719368
vt 1.686348 -1.006418
vt 1.224238 -0.719368
vt 1.224238 -1.006418
vt -1.006418 1.233815
vt -0.719368 1.233815
vt 0.6589203 1.233815
vt 0.8938732 1.233815
vt -1.334485 1.405964
vt -0.6589203 1.405964
vt -0.8938732 1.266655
vt -0.6589203 1.266655
vt 1.703738 2.444879
vt 1.696292 2.165689
vt 1.241628 2.444888
vt 1.234182 2.165699
vt 2.094009 1.266798
vt 2.372204 1.291496
vt 0.6589203 1.291334
vt 0.8938732 1.291334

vn 0 0 1
vn -1 0 0
vn 0 0 -1
vn 1 0 0
vn 0 -0.9960821 0.08843273
vn 0 -1 0
vn 0 -0.7670043 0.6416419
vn 0 0.7032369 -0.7109556
vn 0 -0.9999844 -0.00558127
vn 0 0.9999873 -0.005042629
vn 0 -0.5925458 -0.8055368
vn 0 0.623369 0.7819278
vn 0.3014626 -0.953478 0
vn 0.30039 -0.9500796 0.0843486

usemtl ProBuilderDefault
f 3/3/1 4/4/1 2/2/1 1/1/1
f 4/7/2 6/8/2 5/6/2 2/5/2
f 6/11/3 8/12/3 7/10/3 5/9/3
f 8/15/4 3/16/4 1/14/4 7/13/4
f 11/19/5 12/20/5 10/18/5 9/17/5
f 15/23/6 16/24/6 14/22/6 13/21/6
f 17/27/7 18/28/7 4/26/7 3/25/7
f 19/29/4 17/30/4 3/16/4 8/15/4
f 18/31/2 20/32/2 6/8/2 4/7/2
f 20/35/8 19/36/8 8/34/8 6/33/8
f 21/39/9 22/40/9 18/38/9 17/37/9
f 23/41/4 21/42/4 17/30/4 19/29/4
f 22/43/2 24/44/2 20/32/2 18/31/2
f 24/47/10 23/48/10 19/46/10 20/45/10
f 25/51/11 26/52/11 22/50/11 21/49/11
f 27/53/4 25/54/4 21/42/4 23/41/4
f 26/55/2 28/56/2 24/44/2 22/43/2
f 28/59/12 27/60/12 23/58/12 24/57/12
f 29/63/3 30/64/3 26/62/3 25/61/3
f 31/65/4 29/66/4 25/54/4 27/53/4
f 30/67/2 32/68/2 28/56/2 26/55/2
f 32/71/1 31/72/1 27/70/1 28/69/1
f 13/73/3 14/74/3 5/9/3 7/10/3
f 15/77/13 13/78/13 7/76/13 1/75/13
f 14/79/2 16/80/2 2/5/2 5/6/2
f 16/81/1 15/82/1 1/1/1 2/2/1
f 9/85/3 10/86/3 30/84/3 29/83/3
f 11/89/14 9/90/14 29/88/14 31/87/14
f 10/91/2 12/92/2 32/68/2 30/67/2
f 12/93/1 11/94/1 31/72/1 32/71/1

