# ProBuilder 4.1.0
# https://unity3d.com/unity/features/worldbuilding/probuilder
# 12/09/2019 12:37:14 AM

mtllib ./Building1.mtl
o Building1

g Building1
v -171.7185 7.59957 5.94701
v -176.5001 7.59957 5.94701
v -170.8084 10.60196 7.002749
v -177.4102 10.60196 7.002749
v -176.5001 7.59957 0.3998998
v -177.4102 10.60196 -0.6558396
v -171.7185 7.59957 0.3998998
v -170.8084 10.60196 -0.6558396
v -172.1475 13.00232 5.449334
v -176.0711 13.00232 5.449334
v -172.1475 13.00232 0.8975757
v -176.0711 13.00232 0.8975757
v -170.9712 -14.14906 -0.4670178
v -177.2474 -14.14906 -0.4670178
v -170.9712 -14.14906 6.813927
v -177.2474 -14.14906 6.813927
v -170.8085 11.3698 7.002611
v -177.41 11.3698 7.002611
v -170.8085 11.3698 -0.6557013
v -177.41 11.3698 -0.6557013
v -171.2785 3.92282 -0.1105143
v -176.9401 3.92282 -0.1105143
v -171.2785 2.917286 -0.1105143
v -176.9401 2.917286 -0.1105143
v -171.2785 3.92282 6.457424
v -171.2785 2.917286 6.457424
v -176.9401 3.92282 6.457424
v -176.9401 2.917286 6.457424
v -171.7186 0.5638218 0.4
v -176.5 0.5638218 0.4
v -170.9712 -3.953132 -0.4670178
v -177.2474 -3.953132 -0.4670178
v -171.7186 0.5638218 5.946909
v -170.9712 -3.953132 6.813927
v -176.5 0.5638218 5.946909
v -177.2474 -3.953132 6.813927
v -171.7186 6.276284 5.946909
v -171.7186 6.276284 0.4
v -170.5709 4.492173 7.278316
v -170.5709 4.492173 -0.9314066
v -170.5709 2.347933 7.278316
v -177.6477 2.347933 7.278316
v -170.5709 2.347933 -0.9314066
v -176.5 6.276284 0.4
v -177.6477 4.492173 -0.9314066
v -177.6477 2.347933 -0.9314066
v -176.5 6.276284 5.946909
v -177.6477 4.492173 7.278316
v -170.9712 -12.41122 -0.4670178
v -177.2474 -12.41122 -0.4670178
v -170.9712 -12.41122 6.813927
v -177.2474 -12.41122 6.813927

vt 3.78154 4.137604
vt -1.000107 4.137604
vt 4.691589 7.3202
vt -1.910156 7.3202
vt 4.547009 2.957343
vt -1.0001 2.957343
vt 5.602749 6.094623
vt -2.05584 6.094623
vt 1.000107 2.961014
vt -3.78154 2.961014
vt 1.910156 6.14361
vt -4.691589 6.14361
vt 1.0001 3.76417
vt -4.547009 3.76417
vt 2.05584 6.90145
vt -5.602749 6.90145
vt -3.352524 4.049334
vt 0.5710907 4.049334
vt -3.352524 -0.5024242
vt 0.5710907 -0.5024242
vt 4.528809 -1.867018
vt -1.747375 -1.867018
vt 4.528809 5.413927
vt -1.747375 5.413927
vt 4.691452 0.8886805
vt -1.910019 0.8886805
vt 3.352524 3.142081
vt -0.5710907 3.142081
vt 2.055701 2.09506
vt -5.602611 2.09506
vt 0.5024242 4.206427
vt -4.049334 4.206427
vt 5.602611 3.858912
vt -2.055701 3.858912
vt 4.049334 5.970279
vt -0.5024242 5.970279
vt 1.910019 3.333578
vt -4.691452 3.333578
vt 0.5710907 5.586978
vt -3.352524 5.586978
vt -4.221542 -0.8896801
vt 1.440109 -0.8896801
vt -4.221542 -1.895214
vt 1.440109 -1.895214
vt -5.057424 -0.8896801
vt 1.510514 -0.8896801
vt -5.057424 -1.895214
vt 1.510514 -1.895214
vt -1.510514 -0.8896801
vt 5.057424 -0.8896801
vt -1.510514 -1.895214
vt 5.057424 -1.895214
vt -1.440109 -0.8896801
vt 4.221542 -0.8896801
vt -1.440109 -1.895214
vt 4.221542 -1.895214
vt -3.781433 -4.361014
vt 1 -4.361014
vt -4.528809 -8.960426
vt 1.747375 -8.960426
vt -4.546909 -4.808971
vt 1 -4.808971
vt -5.413927 -9.387338
vt 1.867018 -9.387338
vt -1 -4.354928
vt 4.546909 -4.354928
vt -1.867018 -8.933294
vt 5.413927 -8.933294
vt -1 -5.029629
vt 3.781433 -5.029629
vt -1.747375 -9.629041
vt 4.528809 -9.629041
vt -4.546909 -0.814758
vt 1 -0.814758
vt -5.878316 -2.936144
vt 2.331407 -2.936144
vt 3.781433 -0.6856387
vt -1 -0.6856387
vt 4.929138 1.5405
vt -2.147705 1.5405
vt 1 -1.52737
vt -4.546909 -1.52737
vt 2.331407 0.5940156
vt -5.878316 0.5940156
vt -3.781433 0.5750524
vt 1 0.5750524
vt -4.929138 -1.651087
vt 2.147705 -1.651087
vt 1 -2.80697
vt -3.781433 -2.80697
vt 2.147705 -0.5808312
vt -4.929138 -0.5808312
vt -1 0.6900434
vt 4.546909 0.6900434
vt -2.331407 -1.431343
vt 5.878316 -1.431343
vt 4.546909 -3.032172
vt -1 -3.032172
vt 5.878316 -0.9107862
vt -2.331407 -0.9107862
vt -1 -1.546279
vt 3.781433 -1.546279
vt -2.147705 -3.772418
vt 4.929138 -3.772418
vt 3.63951 5.878316
vt 3.63951 -2.331407
vt 2.731294 5.057424
vt 2.731294 -1.510514
vt -4.929138 6.234827
vt 2.147705 6.234827
vt -4.221542 5.235813
vt 1.440109 5.235813
vt -5.385339 -2.331407
vt -5.385339 5.878316
vt -4.477123 -1.510514
vt -4.477123 5.057424
vt 4.929138 -1.733165
vt -2.147705 -1.733165
vt 4.221542 -0.7341516
vt -1.440109 -0.7341516
vt 2.147705 -3.32032
vt -4.929138 -3.32032
vt 1.440109 -2.321306
vt -4.221542 -2.321306
vt -1.472479 -2.331407
vt -1.472479 5.878316
vt -0.5642637 -1.510514
vt -0.5642637 5.057424
vt 3.218308 5.878316
vt 3.218308 -2.331407
vt 2.310093 5.057424
vt 2.310093 -1.510514
vt -2.147705 4.647671
vt 4.929138 4.647671
vt -1.440109 3.648658
vt 4.221542 3.648658
vt 1 1.46386
vt -3.781433 1.46386
vt 1.000107 2.787146
vt -3.78154 2.787146
vt -2.055701 6.556954
vt 5.602611 6.556954
vt -2.05584 5.789117
vt 5.602749 5.789117
vt -4.691452 6.556926
vt 1.910019 6.556926
vt -4.691589 5.789088
vt 1.910156 5.789088
vt 1 1.464089
vt -4.546909 1.464089
vt -4.547009 2.787375
vt -5.602611 6.556457
vt 2.055701 6.556457
vt -5.602749 5.788619
vt 2.05584 5.788619
vt 3.781433 1.464128
vt -1 1.464128
vt 3.78154 2.787414
vt -1.000107 2.787414
vt -1.910019 6.556287
vt 4.691452 6.556287
vt -1.910156 5.788449
vt 4.691589 5.788449
vt 4.546909 1.463865
vt -1 1.463865
vt 4.547009 2.787151
vt -4.528809 -8.765632
vt 1.747375 -8.765632
vt -4.528809 -17.22372
vt 1.747375 -17.22372
vt -5.413927 -8.765632
vt 1.867018 -8.765632
vt -5.413927 -17.22372
vt 1.867018 -17.22372
vt -1.867018 -8.765632
vt 5.413927 -8.765632
vt -1.867018 -17.22372
vt 5.413927 -17.22372
vt -1.747375 -8.765632
vt 4.528809 -8.765632
vt -1.747375 -17.22372
vt 4.528809 -17.22372
vt -4.528809 -18.96156
vt 1.747375 -18.96156
vt -5.413927 -18.96156
vt 1.867018 -18.96156
vt -1.867018 -18.96156
vt 5.413927 -18.96156
vt -1.747375 -18.96156
vt 4.528809 -18.96156

vn 0 -0.3317227 0.943377
vn -0.9570037 -0.290076 0
vn 0 -0.3317227 -0.943377
vn 0.9570037 -0.290076 0
vn 0 1 0
vn 0 -1 0
vn 0 0.6893037 0.7244725
vn 0.7732082 0.6341523 0
vn -0.7732082 0.6341523 0
vn 0 0.6893037 -0.7244725
vn 0 0 -1
vn 1 0 0
vn -1 0 0
vn 0 0 1
vn 0 0.1885062 -0.9820719
vn 0.9865863 0.1632406 0
vn -0.9865863 0.1632406 0
vn 0 0.1885062 0.9820719
vn 0.8410119 0.5410166 0
vn 0 -0.5980788 0.8014373
vn 0.8410119 -0.5410167 0
vn 0 0.5980788 -0.8014373
vn 0 -0.5980788 -0.8014373
vn -0.8410119 0.5410166 0
vn -0.8410119 -0.5410167 0
vn 0 0.5980788 0.8014373
vn 0.6268924 -0.7791058 0
vn 0 0.8217031 0.5699157
vn 0.6268924 0.7791058 0
vn 0 -0.8217031 -0.5699157
vn 0 0.8217031 -0.5699157
vn -0.6268924 -0.7791058 0
vn -0.6268924 0.7791058 0
vn 0 -0.8217031 0.5699157

usemtl ProBuilderDefault
f 3/3/1 4/4/1 2/2/1 1/1/1
f 4/7/2 6/8/2 5/6/2 2/5/2
f 6/11/3 8/12/3 7/10/3 5/9/3
f 8/15/4 3/16/4 1/14/4 7/13/4
f 11/19/5 12/20/5 10/18/5 9/17/5
f 15/23/6 16/24/6 14/22/6 13/21/6
f 9/27/7 10/28/7 18/26/7 17/25/7
f 11/31/8 9/32/8 17/30/8 19/29/8
f 10/35/9 12/36/9 20/34/9 18/33/9
f 12/39/10 11/40/10 19/38/10 20/37/10
f 23/43/11 24/44/11 22/42/11 21/41/11
f 26/47/12 23/48/12 21/46/12 25/45/12
f 24/51/13 28/52/13 27/50/13 22/49/13
f 28/55/14 26/56/14 25/54/14 27/53/14
f 31/59/15 32/60/15 30/58/15 29/57/15
f 34/63/16 31/64/16 29/62/16 33/61/16
f 32/67/17 36/68/17 35/66/17 30/65/17
f 36/71/18 34/72/18 33/70/18 35/69/18
f 39/75/19 40/76/19 38/74/19 37/73/19
f 41/79/20 42/80/20 35/78/20 33/77/20
f 43/83/21 41/84/21 33/82/21 29/81/21
f 40/87/22 45/88/22 44/86/22 38/85/22
f 46/91/23 43/92/23 29/90/23 30/89/23
f 45/95/24 48/96/24 47/94/24 44/93/24
f 42/99/25 46/100/25 30/98/25 35/97/25
f 48/103/26 39/104/26 37/102/26 47/101/26
f 25/107/27 21/108/27 40/106/27 39/105/27
f 26/111/28 28/112/28 42/110/28 41/109/28
f 23/115/29 26/116/29 41/114/29 43/113/29
f 21/119/30 22/120/30 45/118/30 40/117/30
f 24/123/31 23/124/31 43/122/31 46/121/31
f 22/127/32 27/128/32 48/126/32 45/125/32
f 28/131/33 24/132/33 46/130/33 42/129/33
f 27/135/34 25/136/34 39/134/34 48/133/34
f 5/139/11 7/140/11 38/138/11 44/137/11
f 6/143/13 4/144/13 18/142/13 20/141/13
f 8/147/11 6/148/11 20/146/11 19/145/11
f 7/139/12 1/151/12 37/150/12 38/149/12
f 3/154/12 8/155/12 19/153/12 17/152/12
f 1/158/14 2/159/14 47/157/14 37/156/14
f 4/162/14 3/163/14 17/161/14 18/160/14
f 2/166/13 5/159/13 44/165/13 47/164/13
f 49/169/11 50/170/11 32/168/11 31/167/11
f 51/173/12 49/174/12 31/172/12 34/171/12
f 50/177/13 52/178/13 36/176/13 32/175/13
f 52/181/14 51/182/14 34/180/14 36/179/14
f 13/183/11 14/184/11 50/170/11 49/169/11
f 15/185/12 13/186/12 49/174/12 51/173/12
f 14/187/13 16/188/13 52/178/13 50/177/13
f 16/189/14 15/190/14 51/182/14 52/181/14

