# ProBuilder 4.1.0
# https://unity3d.com/unity/features/worldbuilding/probuilder
# 12/09/2019 12:38:13 AM

mtllib ./Building3.mtl
o Building3

g Building3
v -201.8646 -7.824628 19.16666
v -206.1354 -7.824628 19.16666
v -201.9544 -4.189851 19.07688
v -206.0456 -4.189851 19.07688
v -206.1354 -7.824628 14.89584
v -206.0456 -4.189851 14.98562
v -201.8646 -7.824628 14.89584
v -201.9544 -4.189851 14.98562
v -203.0838 20.76089 17.94746
v -204.9162 20.76089 17.94746
v -203.0838 20.76089 16.11504
v -204.9162 20.76089 16.11504
v -200.3336 -14.1738 13.36489
v -207.6664 -14.1738 13.36489
v -200.3336 -14.1738 20.69761
v -207.6664 -14.1738 20.69761
v -200.3336 -12.66636 13.36489
v -207.6664 -12.66636 13.36489
v -200.3336 -12.66636 20.69761
v -207.6664 -12.66636 20.69761
v -200.4878 0.6518707 20.54345
v -207.5122 0.6518707 20.54345
v -202.4405 7.435574 18.59074
v -205.5595 7.435574 18.59074
v -200.4878 0.6518707 13.51905
v -202.4405 7.435574 15.47176
v -207.5122 0.6518707 13.51905
v -205.5595 7.435574 15.47176
v -201.7246 13.11315 19.30667
v -206.2754 13.11315 19.30667
v -201.7246 13.11315 14.75584
v -206.2754 13.11315 14.75584
v -202.4405 14.66035 23.12161
v -205.5595 14.66035 23.12161
v -202.4405 17.21209 23.12161
v -205.5595 17.21209 23.12161
v -197.519 14.66035 15.47176
v -197.519 14.66035 18.59074
v -197.519 17.21209 15.47176
v -197.519 17.21209 18.59074
v -210.481 14.66035 18.59074
v -210.481 14.66035 15.47176
v -210.481 17.21209 18.59074
v -210.481 17.21209 15.47176
v -205.5595 14.66035 10.94089
v -202.4405 14.66035 10.94089
v -205.5595 17.21209 10.94089
v -202.4405 17.21209 10.94089
v -202.0115 18.22689 19.01978
v -205.9885 18.22689 19.01978
v -202.4405 19.74329 18.59074
v -205.5595 19.74329 18.59074
v -202.0115 18.22689 15.04272
v -202.4405 19.74329 15.47176
v -205.9885 18.22689 15.04272
v -205.5595 19.74329 15.47176
v -207.3365 -9.518167 13.69478
v -200.6635 -9.518167 13.69478
v -207.1962 -2.496315 13.83506
v -207.1962 -2.496315 20.22744
v -200.8038 -2.496315 13.83506
v -200.6635 -9.518167 20.36772
v -200.8038 -2.496315 20.22744
v -207.3365 -9.518167 20.36772

vt 1.635406 1.634479
vt -2.635406 1.634479
vt 1.545639 5.270365
vt -2.545639 5.270365
vt 1.635406 1.609795
vt -2.635408 1.609795
vt 1.545628 5.24568
vt -2.545628 5.24568
vt 2.635406 1.609785
vt -1.635406 1.609785
vt 2.545639 5.245671
vt -1.545639 5.245671
vt 2.635408 1.634484
vt -1.635406 1.634484
vt 2.545628 5.27037
vt -1.545628 5.27037
vt -0.416214 0.4162083
vt 1.416214 0.4162083
vt -0.416214 -1.416208
vt 1.416214 -1.416208
vt 3.166351 -4.166355
vt -4.166351 -4.166355
vt 3.166351 3.166355
vt -4.166351 3.166355
vt -3.166351 -3.166355
vt 4.166351 -3.166355
vt -3.166351 -4.673799
vt 4.166351 -4.673799
vt -4.166355 -3.166355
vt 3.166355 -3.166355
vt -4.166355 -4.673799
vt 3.166355 -4.673799
vt 3.012192 8.922502
vt -4.012192 8.922502
vt 1.059494 15.98166
vt -2.059494 15.98166
vt 4.012199 8.92251
vt -3.012199 8.92251
vt 2.059492 15.98166
vt -1.059492 15.98166
vt 3.012199 8.645891
vt -4.012199 8.645891
vt 1.059492 15.70504
vt -2.059492 15.70504
vt 4.012192 8.645881
vt -3.012192 8.645881
vt 2.059494 15.70504
vt -1.059494 15.70504
vt 1.059494 16.93507
vt -2.059494 16.93507
vt 1.775421 22.6576
vt -2.775421 22.6576
vt 2.059492 16.93506
vt -1.059492 16.93506
vt 2.775414 22.6576
vt -1.775415 22.6576
vt 1.059492 17.06017
vt -2.059492 17.06017
vt 1.775415 22.78271
vt -2.775414 22.78271
vt 2.059494 17.06017
vt -1.059494 17.06017
vt 2.775421 22.78271
vt -1.775421 22.78271
vt 1.059494 24.16035
vt -2.059494 24.16035
vt 1.059494 26.71209
vt -2.059494 26.71209
vt 2.059492 24.16035
vt -1.059492 24.16035
vt 2.059492 26.71209
vt -1.059492 26.71209
vt 1.488541 26.27432
vt -2.488541 26.27432
vt 1.059494 27.85025
vt -2.059494 27.85025
vt 2.488534 26.27429
vt -1.488533 26.27429
vt 2.059492 27.85022
vt -1.059492 27.85022
vt 1.488533 26.00204
vt -2.488534 26.00204
vt 1.059492 27.57797
vt -2.059492 27.57797
vt 2.488541 26.00207
vt -1.488541 26.00207
vt 2.059494 27.578
vt -1.059494 27.578
vt -2.775421 -11.07064
vt 1.775421 -11.07064
vt -2.059494 -15.1874
vt 1.059494 -15.1874
vt -2.173913 27.50074
vt -2.424523 22.37706
vt -6.297636 26.48396
vt -6.297636 23.93718
vt 2.457399 22.42567
vt 2.219845 27.54998
vt 6.33767 23.97607
vt 6.33767 26.52254
vt -1.488541 4.243248
vt 2.488541 4.243248
vt -1.059494 0.01774892
vt 2.059494 0.01774892
vt 1.775421 10.14396
vt -2.775421 10.14396
vt 1.059494 14.26071
vt -2.059494 14.26071
vt -1.30034 27.56999
vt -1.550952 22.44631
vt -5.424059 26.55322
vt -5.424059 24.00643
vt 1.310965 22.37253
vt 1.073409 27.49683
vt 5.19123 23.92292
vt 5.19123 26.4694
vt 2.488541 -5.213985
vt -1.488541 -5.213985
vt 2.059494 -0.9884893
vt -1.059494 -0.9884893
vt -10.41227 1.775415
vt -10.41227 -2.775414
vt -14.89347 1.059492
vt -14.89347 -2.059492
vt -2.311621 27.56584
vt -2.56555 22.44232
vt -6.824132 26.5491
vt -6.824132 24.00223
vt 2.343601 22.36752
vt 2.101356 27.4916
vt 6.608593 23.91785
vt 6.608593 26.46443
vt -3.681873 -2.488534
vt -3.681873 1.488533
vt 0.9238253 -2.059492
vt 0.9238253 1.059492
vt 9.473765 -2.775414
vt 9.473765 1.775415
vt 13.95496 -2.059492
vt 13.95496 1.059492
vt -1.208658 27.51118
vt -1.462588 22.38766
vt -5.72117 26.49443
vt -5.72117 23.94757
vt 1.499188 22.43957
vt 1.256943 27.56365
vt 5.76418 23.9899
vt 5.76418 26.53648
vt 4.657297 1.488533
vt 4.657297 -2.488534
vt 0.05159858 1.059492
vt 0.05159858 -2.059492
vt 1.059494 24.1523
vt -2.059494 24.1523
vt 0.416214 25.35618
vt -1.416214 25.35618
vt 2.059492 24.15235
vt -1.059492 24.15235
vt 1.416208 25.35622
vt -0.4162083 25.35622
vt 1.059492 23.61801
vt -2.059492 23.61801
vt 0.4162083 24.82189
vt -1.416208 24.82189
vt 2.059494 23.61796
vt -1.059494 23.61796
vt 1.416214 24.82184
vt -0.416214 24.82184
vt 4.166351 -3.583306
vt -3.166351 -3.583306
vt 3.836472 -0.417882
vt -2.836472 -0.417882
vt -4.012199 10.50182
vt 3.012199 10.50182
vt -3.696193 7.337814
vt 2.696192 7.337814
vt -3.012192 10.50183
vt 4.012192 10.50183
vt -2.696198 7.337825
vt 3.696198 7.337825
vt 4.166355 -3.479091
vt -3.166355 -3.479091
vt 3.836474 -0.3136671
vt -2.836473 -0.3136671
vt -3.012199 10.40195
vt 4.012199 10.40195
vt -2.696192 7.237942
vt 3.696193 7.237942
vt 3.166351 -3.479093
vt -4.166351 -3.479093
vt 2.836472 -0.313669
vt -3.836472 -0.313669
vt -4.012192 10.40196
vt 3.012192 10.40196
vt -3.696198 7.23795
vt 2.696198 7.23795
vt 3.166355 -3.583304
vt -4.166355 -3.583304
vt 2.836473 -0.4178806
vt -3.836474 -0.4178806
vt 3.836472 -2.234183
vt -2.836472 -2.234183
vt 2.635406 -0.1579759
vt -1.635406 -0.1579759
vt -3.696193 7.870313
vt 2.696192 7.870313
vt -2.545628 5.822913
vt 1.545628 5.822913
vt -2.696198 7.870307
vt 3.696198 7.870307
vt -1.545639 5.822904
vt 2.545639 5.822904
vt 3.836474 -1.65569
vt -2.836473 -1.65569
vt 2.635408 0.4205166
vt -1.635406 0.4205166
vt -2.696192 7.308352
vt 3.696193 7.308352
vt -1.545628 5.260952
vt 2.545628 5.260952
vt 2.836472 -1.655693
vt -3.836472 -1.655693
vt 1.635406 0.4205149
vt -2.635406 0.4205149
vt -3.696198 7.308345
vt 2.696198 7.308345
vt -2.545639 5.260942
vt 1.545639 5.260942
vt 2.836473 -2.23418
vt -3.836474 -2.23418
vt 1.635406 -0.1579735
vt -2.635408 -0.1579735

vn 0 0.02469245 0.9996951
vn -0.9996952 0.0246893 0
vn 0 0.02469297 -0.9996951
vn 0.9996952 0.0246893 0
vn 0 1 0
vn 0 -1 0
vn 0 0 -1
vn 1 0 0
vn -1 0 0
vn 0 0 1
vn 0 0.2766205 0.9609793
vn 0.9609796 0.2766192 0
vn -0.9609796 0.2766192 0
vn 0 0.2766205 -0.9609793
vn 0 -0.1251059 0.9921433
vn 0.9921433 -0.1251066 0
vn -0.9921433 -0.1251066 0
vn 0 -0.1251056 -0.9921435
vn 0 0.2722471 0.9622273
vn 0.9622265 0.2722505 0
vn -0.9622265 0.2722505 0
vn 0 0.2722477 -0.9622272
vn 0 -0.9266887 -0.3758298
vn -0.9909329 0.06227031 -0.1190563
vn -0.986888 0.03113515 -0.15175
vn -0.982843 0 -0.1844438
vn 0.985213 0.06418232 -0.1588586
vn 0.9898935 0.03209116 -0.1314449
vn 0.994574 0 -0.1040313
vn 0 0.9707328 -0.2401621
vn 0 -0.9266886 0.3758303
vn 0.9909329 0.06227039 0.1190564
vn 0.9868879 0.03113519 0.1517502
vn 0.982843 0 0.1844441
vn -0.9852129 0.06418242 0.1588588
vn -0.9898934 0.03209121 0.1314451
vn -0.994574 0 0.1040313
vn 0 0.9707327 0.2401623
vn -0.3452647 -0.9385054 0
vn -0.1087026 0.06175838 0.9921541
vn -0.1382592 0.03087919 0.9889863
vn -0.1678157 0 0.9858184
vn -0.144724 0.06351367 -0.9874315
vn -0.1198965 0.03175684 -0.9914511
vn -0.09506908 0 -0.9954707
vn -0.2203368 0.9754239 0
vn 0.3452647 -0.9385054 0
vn 0.1087027 0.06175783 -0.9921541
vn 0.138259 0.03087891 -0.9889863
vn 0.1678153 0 -0.9858184
vn 0.1447242 0.06351425 0.9874315
vn 0.1198965 0.03175712 0.991451
vn 0.09506886 0 0.9954706
vn 0.2203368 0.9754239 0
vn 0 0.5343416 0.8452686
vn 0.84527 0.5343394 0
vn -0.84527 0.5343394 0
vn 0 0.5343416 -0.8452686
vn 0 0.1042138 -0.9945549
vn -0.9950004 -0.09987161 0
vn 0 -0.09987548 -0.9949999
vn 0.9945549 0.1042135 0
vn 0.9950004 -0.09987161 0
vn 0 0.1042141 0.9945549
vn 0 -0.09987579 0.9949999
vn -0.9945549 0.1042135 0
vn 0 0.5784905 -0.8156891
vn -0.8271639 -0.5619608 0
vn 0 -0.561963 -0.8271623
vn 0.8156894 0.5784902 0
vn 0.8271639 -0.5619608 0
vn 0 0.5784908 0.815689
vn 0 -0.5619627 0.8271626
vn -0.8156894 0.5784902 0

usemtl ProBuilderDefault
f 3/3/1 4/4/1 2/2/1 1/1/1
f 4/7/2 6/8/2 5/6/2 2/5/2
f 6/11/3 8/12/3 7/10/3 5/9/3
f 8/15/4 3/16/4 1/14/4 7/13/4
f 11/19/5 12/20/5 10/18/5 9/17/5
f 15/23/6 16/24/6 14/22/6 13/21/6
f 13/27/7 14/28/7 18/26/7 17/25/7
f 15/27/8 13/28/8 17/26/8 19/25/8
f 14/31/9 16/32/9 20/30/9 18/29/9
f 16/31/10 15/32/10 19/30/10 20/29/10
f 23/35/11 24/36/11 22/34/11 21/33/11
f 26/39/12 23/40/12 21/38/12 25/37/12
f 24/43/13 28/44/13 27/42/13 22/41/13
f 28/47/14 26/48/14 25/46/14 27/45/14
f 29/51/15 30/52/15 24/50/15 23/49/15
f 31/55/16 29/56/16 23/54/16 26/53/16
f 30/59/17 32/60/17 28/58/17 24/57/17
f 32/63/18 31/64/18 26/62/18 28/61/18
f 35/67/10 36/68/10 34/66/10 33/65/10
f 39/71/8 40/72/8 38/70/8 37/69/8
f 43/67/9 44/68/9 42/66/9 41/65/9
f 47/71/7 48/72/7 46/70/7 45/69/7
f 51/75/19 52/76/19 50/74/19 49/73/19
f 54/79/20 51/80/20 49/78/20 53/77/20
f 52/83/21 56/84/21 55/82/21 50/81/21
f 56/87/22 54/88/22 53/86/22 55/85/22
f 45/91/23 46/92/23 31/90/23 32/89/23
f 47/95/25 45/96/26 32/94/25 55/93/24
f 46/99/28 48/100/29 53/98/28 31/97/27
f 48/103/30 47/104/30 55/102/30 53/101/30
f 33/107/31 34/108/31 30/106/31 29/105/31
f 35/111/33 33/112/34 29/110/33 49/109/32
f 34/115/36 36/116/37 50/114/36 30/113/35
f 36/119/38 35/120/38 49/118/38 50/117/38
f 41/123/39 42/124/39 32/122/39 30/121/39
f 43/127/41 41/128/42 30/126/41 50/125/40
f 42/131/44 44/132/45 55/130/44 32/129/43
f 44/135/46 43/136/46 50/134/46 55/133/46
f 37/139/47 38/140/47 29/138/47 31/137/47
f 39/143/49 37/144/50 31/142/49 53/141/48
f 38/147/52 40/148/53 49/146/52 29/145/51
f 40/151/54 39/152/54 53/150/54 49/149/54
f 9/155/55 10/156/55 52/154/55 51/153/55
f 11/159/56 9/160/56 51/158/56 54/157/56
f 10/163/57 12/164/57 56/162/57 52/161/57
f 12/167/58 11/168/58 54/166/58 56/165/58
f 57/171/59 58/172/59 17/170/59 18/169/59
f 59/175/60 60/176/60 22/174/60 27/173/60
f 61/179/61 59/180/61 27/178/61 25/177/61
f 58/183/62 62/184/62 19/182/62 17/181/62
f 63/187/63 61/188/63 25/186/63 21/185/63
f 62/191/64 64/192/64 20/190/64 19/189/64
f 60/195/65 63/196/65 21/194/65 22/193/65
f 64/199/66 57/200/66 18/198/66 20/197/66
f 5/203/67 7/204/67 58/202/67 57/201/67
f 6/207/68 4/208/68 60/206/68 59/205/68
f 8/211/69 6/212/69 59/210/69 61/209/69
f 7/215/70 1/216/70 62/214/70 58/213/70
f 3/219/71 8/220/71 61/218/71 63/217/71
f 1/223/72 2/224/72 64/222/72 62/221/72
f 4/227/73 3/228/73 63/226/73 60/225/73
f 2/231/74 5/232/74 57/230/74 64/229/74

