# ProBuilder 4.1.0
# https://unity3d.com/unity/features/worldbuilding/probuilder
# 12/09/2019 12:37:37 AM

mtllib ./Building2.mtl
o Building2

g Building2
v -175.2162 -2.730408 26.98376
v -182.3838 -2.730408 26.98376
v -175.8879 2.352456 26.3121
v -181.7121 2.352456 26.3121
v -182.3838 -2.730408 19.81624
v -181.7121 2.352456 20.4879
v -175.2162 -2.730408 19.81624
v -175.8879 2.352456 20.4879
v -176.5326 14.84642 25.66743
v -181.0674 14.84642 25.66743
v -176.5326 14.84642 21.13257
v -181.0674 14.84642 21.13257
v -175.2162 -13.44629 19.81624
v -182.3838 -13.44629 19.81624
v -175.2162 -13.44629 26.98376
v -182.3838 -13.44629 26.98376
v -173.8727 3.365129 28.32727
v -183.7273 3.365129 28.32727
v -173.8727 3.365129 18.47273
v -183.7273 3.365129 18.47273
v -173.8727 4.64386 28.32727
v -183.7273 4.64386 28.32727
v -173.8727 4.64386 18.47273
v -183.7273 4.64386 18.47273
v -175.0062 5.462279 27.19384
v -182.5938 5.462279 27.19384
v -175.0062 5.462279 19.60616
v -182.5938 5.462279 19.60616
v -175.0062 6.894424 27.19384
v -182.5938 6.894424 27.19384
v -175.0062 6.894424 19.60616
v -182.5938 6.894424 19.60616
v -176.5327 7.968566 25.66735
v -181.0674 7.968566 25.66735
v -176.5327 7.968566 21.13265
v -181.0674 7.968566 21.13265
v -176.5327 11.49734 25.66735
v -181.0674 11.49734 25.66735
v -176.5327 11.49734 21.13265
v -181.0674 11.49734 21.13265
v -174.9141 12.51828 27.28593
v -182.6859 12.51828 27.28593
v -174.9141 12.51828 19.51407
v -182.6859 12.51828 19.51407
v -175.2162 -11.79121 19.81624
v -182.3838 -11.79121 19.81624
v -175.2162 -11.79121 26.98376
v -182.3838 -11.79121 26.98376

vt 3.083755 -2.060349
vt -4.083755 -2.060349
vt 2.412094 3.066699
vt -3.412094 3.066699
vt 3.083755 -2.191354
vt -4.083755 -2.191354
vt 2.412096 2.935694
vt -3.412096 2.935694
vt 4.083755 -2.191353
vt -3.083755 -2.191353
vt 3.412094 2.935696
vt -2.412094 2.935696
vt 4.083755 -2.060351
vt -3.083755 -2.060351
vt 3.412096 3.066698
vt -2.412096 3.066698
vt -1.767441 1.767429
vt 2.767441 1.767429
vt -1.767441 -2.767429
vt 2.767441 -2.767429
vt 3.083755 -4.083755
vt -4.083755 -4.083755
vt 3.083755 3.083755
vt -4.083755 3.083755
vt 2.412094 3.687354
vt -3.412094 3.687354
vt 4.427261 5.942663
vt -5.427261 5.942663
vt 3.687353 -3.412096
vt 3.687353 2.412096
vt 5.942659 -5.427267
vt 5.942659 4.427267
vt -4.580876 2.412096
vt -4.580876 -3.412096
vt -6.836182 4.427267
vt -6.836182 -5.427267
vt -3.412094 -4.580877
vt 2.412094 -4.580877
vt -5.427261 -6.836186
vt 4.427261 -6.836186
vt 4.427261 4.424769
vt -5.427261 4.424769
vt 4.427261 5.703501
vt -5.427261 5.703501
vt 5.427267 4.424769
vt -4.427267 4.424769
vt 5.427267 5.703501
vt -4.427267 5.703501
vt -4.427261 0.2504558
vt 5.427261 0.2504558
vt -3.293839 -1.14757
vt 4.293839 -1.14757
vt -0.2504281 -5.427267
vt -0.2504281 4.427267
vt 1.147591 -4.293837
vt 1.147591 3.293837
vt 1.061163 4.427267
vt 1.061163 -5.427267
vt -0.3368563 3.293837
vt -0.3368563 -4.293837
vt 5.427261 -1.061193
vt -4.427261 -1.061193
vt 4.293839 0.3368329
vt -3.293839 0.3368329
vt 3.293839 6.52192
vt -4.293839 6.52192
vt 3.293839 7.954065
vt -4.293839 7.954065
vt 4.293837 6.52192
vt -3.293837 6.52192
vt 4.293837 7.954065
vt -3.293837 7.954065
vt -3.293839 -1.883586
vt 4.293839 -1.883586
vt -1.767349 -3.750121
vt 2.767349 -3.750121
vt 1.883588 -4.293837
vt 1.883588 3.293837
vt 3.750123 -2.767345
vt 3.750123 1.767345
vt -1.065768 3.293837
vt -1.065768 -4.293837
vt -2.932302 1.767345
vt -2.932302 -2.767345
vt 4.293839 1.065765
vt -3.293839 1.065765
vt 2.767349 2.932301
vt -1.767349 2.932301
vt 1.767349 9.028207
vt -2.767349 9.028207
vt 1.767349 12.55698
vt -2.767349 12.55698
vt 2.767345 9.028207
vt -1.767345 9.028207
vt 2.767345 12.55698
vt -1.767345 12.55698
vt 1.767349 8.193933
vt -2.767349 8.193933
vt 3.385941 10.1076
vt -4.385941 10.1076
vt 8.19392 -2.767345
vt 8.19392 1.767345
vt 10.10759 -4.385931
vt 10.10759 3.385931
vt -9.039723 1.767345
vt -9.039723 -2.767345
vt -10.9534 3.385931
vt -10.9534 -4.385931
vt -2.767349 -9.039735
vt 1.767349 -9.039735
vt -4.385941 -10.9534
vt 3.385941 -10.9534
vt 3.385941 9.215885
vt -4.385941 9.215885
vt 1.767441 12.05134
vt -2.767441 12.05134
vt 4.385931 9.215884
vt -3.385931 9.215884
vt 2.767429 12.05134
vt -1.767429 12.05134
vt 3.385931 8.645077
vt -4.385931 8.645077
vt 1.767429 11.48053
vt -2.767429 11.48053
vt 4.385941 8.645077
vt -3.385941 8.645077
vt 2.767441 11.48053
vt -1.767441 11.48053
vt -3.083755 -1.670767
vt 4.083755 -1.670767
vt -3.083755 -10.73157
vt 4.083755 -10.73157
vt -4.083755 -1.670767
vt 3.083755 -1.670767
vt -4.083755 -10.73157
vt 3.083755 -10.73157
vt -3.083755 -12.38665
vt 4.083755 -12.38665
vt -4.083755 -12.38665
vt 3.083755 -12.38665

vn 0 0.1310031 0.991382
vn -0.9913819 0.1310035 0
vn 0 0.1310031 -0.991382
vn 0.9913819 0.1310035 0
vn 0 1 0
vn 0 -1 0
vn 0 -0.8935231 0.4490173
vn 0.4490179 -0.8935227 0
vn -0.4490179 -0.8935227 0
vn 0 -0.8935231 -0.4490173
vn 0 0 1
vn 1 0 0
vn -1 0 0
vn 0 0 -1
vn 0 0.8107367 0.585411
vn 0.5854136 0.8107348 0
vn -0.5854136 0.8107348 0
vn 0 0.8107367 -0.585411
vn 0 0.8178205 0.5754734
vn 0.5754738 0.8178202 0
vn -0.5754738 0.8178202 0
vn 0 0.8178205 -0.5754734
vn 0 -0.8458022 0.5334966
vn 0.5334953 -0.8458031 0
vn -0.5334953 -0.8458031 0
vn 0 -0.8458022 -0.5334966
vn 0 0.5708084 0.8210833
vn 0.8210837 0.5708079 0
vn -0.8210837 0.5708079 0
vn 0 0.5708084 -0.8210833

usemtl ProBuilderDefault
f 3/3/1 4/4/1 2/2/1 1/1/1
f 4/7/2 6/8/2 5/6/2 2/5/2
f 6/11/3 8/12/3 7/10/3 5/9/3
f 8/15/4 3/16/4 1/14/4 7/13/4
f 11/19/5 12/20/5 10/18/5 9/17/5
f 15/23/6 16/24/6 14/22/6 13/21/6
f 17/27/7 18/28/7 4/26/7 3/25/7
f 19/31/8 17/32/8 3/30/8 8/29/8
f 18/35/9 20/36/9 6/34/9 4/33/9
f 20/39/10 19/40/10 8/38/10 6/37/10
f 21/43/11 22/44/11 18/42/11 17/41/11
f 23/47/12 21/48/12 17/46/12 19/45/12
f 22/43/13 24/44/13 20/42/13 18/41/13
f 24/47/14 23/48/14 19/46/14 20/45/14
f 25/51/15 26/52/15 22/50/15 21/49/15
f 27/55/16 25/56/16 21/54/16 23/53/16
f 26/59/17 28/60/17 24/58/17 22/57/17
f 28/63/18 27/64/18 23/62/18 24/61/18
f 29/67/11 30/68/11 26/66/11 25/65/11
f 31/71/12 29/72/12 25/70/12 27/69/12
f 30/67/13 32/68/13 28/66/13 26/65/13
f 32/71/14 31/72/14 27/70/14 28/69/14
f 33/75/19 34/76/19 30/74/19 29/73/19
f 35/79/20 33/80/20 29/78/20 31/77/20
f 34/83/21 36/84/21 32/82/21 30/81/21
f 36/87/22 35/88/22 31/86/22 32/85/22
f 37/91/11 38/92/11 34/90/11 33/89/11
f 39/95/12 37/96/12 33/94/12 35/93/12
f 38/91/13 40/92/13 36/90/13 34/89/13
f 40/95/14 39/96/14 35/94/14 36/93/14
f 41/99/23 42/100/23 38/98/23 37/97/23
f 43/103/24 41/104/24 37/102/24 39/101/24
f 42/107/25 44/108/25 40/106/25 38/105/25
f 44/111/26 43/112/26 39/110/26 40/109/26
f 9/115/27 10/116/27 42/114/27 41/113/27
f 11/119/28 9/120/28 41/118/28 43/117/28
f 10/123/29 12/124/29 44/122/29 42/121/29
f 12/127/30 11/128/30 43/126/30 44/125/30
f 45/131/14 46/132/14 5/130/14 7/129/14
f 47/131/12 45/132/12 7/130/12 1/129/12
f 46/135/13 48/136/13 2/134/13 5/133/13
f 48/135/11 47/136/11 1/134/11 2/133/11
f 13/137/14 14/138/14 46/132/14 45/131/14
f 15/137/12 13/138/12 45/132/12 47/131/12
f 14/139/13 16/140/13 48/136/13 46/135/13
f 16/139/11 15/140/11 47/136/11 48/135/11

