# ProBuilder 4.1.0
# https://unity3d.com/unity/features/worldbuilding/probuilder
# 11/09/2019 10:44:37 PM

mtllib ./Catwalk2.mtl
o Catwalk2

g Catwalk2
v 2.717751 2.454662 4.378755
v -3.632334 2.454662 4.378755
v 2.717751 2.490636 3.130815
v -3.632334 2.490636 3.130815
v -3.632334 -0.2032862 1.767733
v -3.632334 -0.2032862 -2.767733
v -3.632334 1.118031 1.767733
v -3.632334 1.118031 -2.767733
v -3.632334 3.623778 -5.384498
v 2.717751 3.623778 -5.384498
v -3.632334 3.671996 -4.06583
v 2.717751 3.671996 -4.06583
v 2.717751 -0.2032862 -2.767733
v 2.717751 -0.2032862 1.767733
v 2.717751 1.118031 -2.767733
v 2.717751 1.118031 1.767733
v 2.717751 1.868198 4.378729
v -3.632334 1.868198 4.378729
v 2.717751 2.197486 3.13079
v -3.632334 2.197486 3.13079
v -3.632334 1.880131 -5.384466
v 2.717751 1.880131 -5.384466
v -3.632334 2.321479 -4.065798
v 2.717751 2.321479 -4.065798

vt -2.717751 4.306205
vt 3.632334 4.306205
vt -2.717751 3.057747
vt 3.632334 3.057747
vt 1.767733 -0.2032862
vt -2.767733 -0.2032862
vt 1.767733 1.118031
vt -2.767733 1.118031
vt 3.632334 -5.248486
vt -2.717751 -5.248486
vt 3.632334 -3.928937
vt -2.717751 -3.928937
vt 2.767733 -0.2032862
vt -1.767733 -0.2032862
vt 2.767733 1.118031
vt -1.767733 1.118031
vt -2.717751 1.767733
vt 3.632334 1.767733
vt -2.717751 -2.767733
vt 3.632334 -2.767733
vt 2.717751 -2.767733
vt -3.632334 -2.767733
vt 2.717751 1.767733
vt -3.632334 1.767733
vt 2.717751 1.258489
vt -3.632334 1.258489
vt 2.717751 4.591407
vt -3.632334 4.591407
vt -3.13079 2.197486
vt -4.378729 1.868198
vt 4.378729 1.868198
vt 3.13079 2.197486
vt 3.632334 2.079912
vt -2.717751 2.079912
vt 3.632334 3.818632
vt -2.717751 3.818632
vt -3.632334 -2.038632
vt 2.717751 -2.038632
vt -3.632334 -5.383467
vt 2.717751 -5.383467
vt -4.065798 2.321479
vt -5.384466 1.880131
vt 5.384466 1.880131
vt 4.065798 2.321479
vt -2.717751 -2.789777
vt 3.632334 -2.789777
vt -2.717751 -4.559879
vt 3.632334 -4.559879
vt 3.632334 1.880229
vt -2.717751 1.880229
vt 3.632334 3.623877
vt -2.717751 3.623877
vt -4.06583 3.671996
vt -5.384498 3.623778
vt 5.384498 3.623778
vt 4.06583 3.671996
vt 2.717751 2.321575
vt -3.632334 2.321575
vt 2.717751 3.672092
vt -3.632334 3.672092
vt 2.717751 1.86839
vt -3.632334 1.86839
vt 2.717751 2.454854
vt -3.632334 2.454854
vt -3.130815 2.490636
vt -4.378755 2.454662
vt 4.378755 2.454662
vt 3.130815 2.490636
vt 3.632334 2.197759
vt -2.717751 2.197759
vt 3.632334 2.490909
vt -2.717751 2.490909

vn 0 0.9995847 0.02881514
vn -1 0 0
vn 0 0.9993322 -0.03654074
vn 1 0 0
vn 0 1 0
vn 0 -1 0
vn 0 -0.7833963 0.6215225
vn 0 0.7839425 -0.6208335
vn 0 -0.7823206 -0.622876
vn 0 0.7333277 0.6798754
vn 0 -1.832256E-05 -1
vn 0 2.36562E-05 1

usemtl ProBuilderDefault
f 3/3/1 4/4/1 2/2/1 1/1/1
f 7/7/2 8/8/2 6/6/2 5/5/2
f 11/11/3 12/12/3 10/10/3 9/9/3
f 15/15/4 16/16/4 14/14/4 13/13/4
f 15/19/5 8/20/5 7/18/5 16/17/5
f 14/23/6 5/24/6 6/22/6 13/21/6
f 17/27/7 18/28/7 5/26/7 14/25/7
f 19/29/4 17/30/4 14/14/4 16/16/4
f 18/31/2 20/32/2 7/7/2 5/5/2
f 20/35/8 19/36/8 16/34/8 7/33/8
f 21/39/9 22/40/9 13/38/9 6/37/9
f 23/41/2 21/42/2 6/6/2 8/8/2
f 22/43/4 24/44/4 15/15/4 13/13/4
f 24/47/10 23/48/10 8/46/10 15/45/10
f 9/51/11 10/52/11 22/50/11 21/49/11
f 11/53/2 9/54/2 21/42/2 23/41/2
f 10/55/4 12/56/4 24/44/4 22/43/4
f 12/59/12 11/60/12 23/58/12 24/57/12
f 1/63/12 2/64/12 18/62/12 17/61/12
f 3/65/4 1/66/4 17/30/4 19/29/4
f 2/67/2 4/68/2 20/32/2 18/31/2
f 4/71/11 3/72/11 19/70/11 20/69/11

