# ProBuilder 4.1.0
# https://unity3d.com/unity/features/worldbuilding/probuilder
# 11/09/2019 10:44:46 PM

mtllib ./Catwalk3.mtl
o Catwalk3

g Catwalk3
v 2.717751 2.454662 4.378755
v -3.632334 2.454662 4.378755
v 2.717751 2.490636 3.130815
v -3.632334 2.490636 3.130815
v -3.632334 -0.2032862 1.767733
v -3.632334 -0.2032862 -2.767733
v -3.632334 1.118031 1.767733
v -3.632334 1.118031 -2.767733
v 2.717751 -0.2032862 -2.767733
v 2.717751 -0.2032862 1.767733
v 2.717751 1.118031 -2.767733
v 2.717751 1.118031 1.767733
v 2.717751 1.868198 4.378729
v -3.632334 1.868198 4.378729
v 2.717751 2.197486 3.13079
v -3.632334 2.197486 3.13079
v -3.632334 1.880131 -5.384466
v 2.717751 1.880131 -5.384466
v -3.632334 2.139019 -3.966769
v 2.717751 2.139019 -3.966769
v -0.6028299 2.057655 -4.210188
v -0.3117533 2.057655 -4.210188
v -0.6028299 1.961685 -5.14111
v -0.3117533 1.961685 -5.14111
v -2.670157 4.403715 -3.847211
v -2.670157 5.215846 -4.343957
v -1.565007 4.553638 -3.938893
v -1.565007 5.065978 -4.25227
v 1.763312 5.148163 -4.302562
v 1.763312 4.471388 -3.888607
v 0.6426849 5.023273 -4.226155
v 0.6426849 4.596323 -3.965009
v 1.763312 2.133867 -5.120751
v 1.763312 2.398676 -4.329551
v 0.6426849 2.182799 -4.974738
v 0.6426849 2.349857 -4.475602
v -2.670157 2.425168 -4.250434
v -2.670157 2.107397 -5.199875
v -1.565007 2.366585 -4.425696
v -1.565007 2.166116 -5.02466
v 1.763312 3.919014 -5.120783
v 1.763312 3.977198 -4.329583
v 0.6426849 3.929765 -4.97477
v 0.6426849 3.966471 -4.475634
v -2.670157 3.983019 -4.250466
v -2.670157 3.913198 -5.199907
v -1.565007 3.970147 -4.425728
v -1.565007 3.9261 -5.024692

vt -2.717751 4.306205
vt 3.632334 4.306205
vt -2.717751 3.057747
vt 3.632334 3.057747
vt 1.767733 -0.2032862
vt -2.767733 -0.2032862
vt 1.767733 1.118031
vt -2.767733 1.118031
vt 2.767733 -0.2032862
vt -1.767733 -0.2032862
vt 2.767733 1.118031
vt -1.767733 1.118031
vt -2.717751 1.767733
vt 3.632334 1.767733
vt -2.717751 -2.767733
vt 3.632334 -2.767733
vt 2.717751 -2.767733
vt -3.632334 -2.767733
vt 2.717751 1.767733
vt -3.632334 1.767733
vt 2.717751 1.258489
vt -3.632334 1.258489
vt 2.717751 4.591407
vt -3.632334 4.591407
vt -3.13079 2.197486
vt -4.378729 1.868198
vt 4.378729 1.868198
vt 3.13079 2.197486
vt 3.632334 2.079912
vt -2.717751 2.079912
vt 3.632334 3.818632
vt -2.717751 3.818632
vt -3.632334 -2.038632
vt 2.717751 -2.038632
vt -3.632334 -5.383467
vt 2.717751 -5.383467
vt -3.966768 2.139019
vt -5.384464 1.880131
vt 5.384466 1.880131
vt 3.966769 2.139019
vt -2.717751 -2.832111
vt 3.632334 -2.832111
vt -2.717751 -4.406947
vt 3.632334 -4.406947
vt 2.717751 1.86839
vt -3.632334 1.86839
vt 2.717751 2.454854
vt -3.632334 2.454854
vt -3.130815 2.490636
vt -4.378755 2.454662
vt 4.378755 2.454662
vt 3.130815 2.490636
vt 3.632334 2.197759
vt -2.717751 2.197759
vt 3.632334 2.490909
vt -2.717751 2.490909
vt 0.6028299 -3.976987
vt 0.3117533 -3.976987
vt 0.6028299 -4.912842
vt 0.3117533 -4.912842
vt -2.717751 -3.084057
vt 3.632334 -3.084057
vt 0.3117533 -3.340714
vt 0.6028299 -3.340714
vt -2.670225 5.764105
vt -2.670234 6.71611
vt -1.565077 5.939849
vt -1.565082 6.540431
vt 3.632334 -4.507976
vt -2.717751 -4.507976
vt 0.6028299 -4.251318
vt 0.3117533 -4.251318
vt 1.763376 6.636784
vt 1.76337 5.843446
vt 0.6427475 6.490384
vt 0.6427436 5.9899
vt -2.260934 -4.877091
vt -2.206421 -3.436981
vt -1.274466 -4.609207
vt -1.218707 -3.784826
vt 0.03501261 -2.212404
vt -3.003192 -2.326781
vt -0.9091053 -1.902299
vt -2.03596 -1.997191
vt -2.929868 -4.1108
vt 0.09110241 -4.453593
vt -2.008466 -4.621684
vt -0.8890033 -4.77515
vt -0.3576719 -3.990747
vt -0.3272022 -4.926107
vt -1.3555 -4.257426
vt -1.30246 -4.769607
vt 2.718243 -3.362125
vt 2.804036 -4.80071
vt 1.715609 -3.64997
vt 1.820914 -4.636531
vt 0.8134986 -4.409854
vt 3.835043 -4.072164
vt 1.802581 -4.708824
vt 2.907832 -4.543233
vt 3.978968 -0.7500358
vt 0.9400147 -0.6576694
vt 3.006726 -0.4926408
vt 1.892437 -0.3928749
vt 0.9758242 -4.933464
vt 0.9946444 -3.997797
vt 1.959409 -4.81642
vt 1.998722 -4.200723
vt 5.120751 2.133867
vt 4.329551 2.398676
vt 5.120783 3.919014
vt 4.329583 3.977198
vt -1.280057 2.182887
vt -2.410157 2.133955
vt -1.280061 3.929853
vt -2.410161 3.919101
vt 1.188982 2.398767
vt 0.0588777 2.349947
vt 1.188978 3.977289
vt 0.05887356 3.966562
vt -4.475602 2.349857
vt -4.974738 2.182799
vt -4.475634 3.966471
vt -4.97477 3.929765
vt -4.250434 2.425168
vt -5.199875 2.107397
vt -4.250466 3.983019
vt -5.199907 3.913198
vt -0.852493 2.366676
vt -1.971454 2.425259
vt -0.852488 3.970238
vt -1.971449 3.98311
vt 3.451465 2.10748
vt 2.332511 2.166199
vt 3.45147 3.91328
vt 2.332516 3.926182
vt 5.02466 2.166116
vt 4.425696 2.366585
vt 5.024692 3.9261
vt 4.425728 3.970147
vt -3.847211 4.403715
vt -4.343957 5.215846
vt -0.896277 0.1291321
vt -2.015188 0.145821
vt -0.9679617 0.8856577
vt -2.074565 0.7241682
vt 3.416026 0.6970677
vt 2.297103 0.7124538
vt 3.288331 2.250527
vt 2.181869 2.084424
vt 4.25227 5.065978
vt 3.938893 4.553638
vt 4.302562 5.148163
vt 3.888607 4.471388
vt -1.24868 0.5202854
vt -2.378757 0.5072869
vt -1.156757 1.842304
vt -2.278286 1.980324
vt 1.226953 -0.01387983
vt 0.09688818 -0.0282098
vt 1.280265 0.6463029
vt 0.1586204 0.7793682
vt -3.965009 4.596323
vt -4.226155 5.023273

vn 0 0.9995847 0.02881514
vn -1 0 0
vn 1 0 0
vn 0 1 0
vn 0 -1 0
vn 0 -0.7833963 0.6215225
vn 0 0.7839425 -0.6208335
vn 0 -0.7823206 -0.622876
vn 0 0.7613724 0.6483148
vn 0 -4.390586E-05 1
vn 0 8.702301E-05 -1
vn 0 0.9947281 -0.102547
vn 0 0.9484198 -0.3170172
vn -1.504729E-05 0.5217894 0.8530743
vn 0 0.9481722 -0.317757
vn 0.2072859 0.9623659 -0.1757398
vn 0.2806895 0.9246109 -0.236282
vn 0.3540931 0.886856 -0.2968243
vn -0.03831917 0.7011337 -0.7119994
vn -0.06146169 0.6241729 -0.7723532
vn -0.0846042 0.5472121 -0.8327071
vn -0.07553715 0.7060766 0.7040951
vn -0.0910275 0.7712184 0.6209135
vn -0.1065178 0.8363602 0.5377318
vn -0.3159888 0.9437612 -0.0972928
vn -0.2390889 0.9397506 -0.2052394
vn -0.1621891 0.93574 -0.313186
vn -0.3265758 0.9297951 -0.1697918
vn -0.2437734 0.9328622 -0.2415203
vn -0.160971 0.9359293 -0.3132487
vn 0.0749457 0.7169282 0.6931068
vn 0.1198405 0.5371665 0.8062066
vn 0.1647353 0.3574047 0.9193064
vn 0.05813363 0.4694717 -0.8810317
vn 0.06431791 0.5963305 -0.7840369
vn 0.07050218 0.7231893 -0.6870421
vn 0.1951123 0.9756104 -0.1005761
vn 0.2733485 0.9316816 -0.1988505
vn 0.3515847 0.8877528 -0.297125
vn -0.1292046 -1.813447E-05 -0.991618
vn -0.1292379 2.00695E-05 0.9916136
vn 0.1566302 1.96773E-05 0.9876573
vn 0.1565898 -1.747367E-05 -0.9876637
vn 0.1135675 -0.6365004 0.7628694
vn 0.1327719 -0.6602236 0.7381979
vn 0.1519764 -0.6839467 0.7135265
vn 0.1250987 0.5448301 -0.8291625
vn 0.1341792 0.5500073 -0.8242295
vn 0.1432596 0.5551845 -0.8192966
vn -0.1015669 0.561981 -0.8208907
vn -0.1096279 0.556131 -0.8237673
vn -0.1176889 0.550281 -0.8266439
vn -0.09049794 -0.6630614 0.7430745
vn -0.106372 -0.6440456 0.7570219
vn -0.122246 -0.6250299 0.7709693

usemtl ProBuilderDefault
f 3/3/1 4/4/1 2/2/1 1/1/1
f 7/7/2 8/8/2 6/6/2 5/5/2
f 11/11/3 12/12/3 10/10/3 9/9/3
f 11/15/4 8/16/4 7/14/4 12/13/4
f 10/19/5 5/20/5 6/18/5 9/17/5
f 13/23/6 14/24/6 5/22/6 10/21/6
f 15/25/3 13/26/3 10/10/3 12/12/3
f 14/27/2 16/28/2 7/7/2 5/5/2
f 16/31/7 15/32/7 12/30/7 7/29/7
f 17/35/8 18/36/8 9/34/8 6/33/8
f 19/37/2 17/38/2 6/6/2 8/8/2
f 18/39/3 20/40/3 11/11/3 9/9/3
f 20/43/9 19/44/9 8/42/9 11/41/9
f 1/47/10 2/48/10 14/46/10 13/45/10
f 3/49/3 1/50/3 13/26/3 15/25/3
f 2/51/2 4/52/2 16/28/2 14/27/2
f 4/55/11 3/56/11 15/54/11 16/53/11
f 24/60/12 23/59/12 21/57/12 22/58/12
f 22/63/13 21/64/13 19/62/13 20/61/13
f 27/67/14 28/68/14 26/66/14 25/65/14
f 23/71/15 24/72/15 18/70/15 17/69/15
f 31/75/14 32/76/14 30/74/14 29/73/14
f 33/79/17 34/80/18 20/78/17 18/77/16
f 35/83/20 33/84/21 18/82/20 24/81/19
f 34/87/23 36/88/24 22/86/23 20/85/22
f 36/91/26 35/92/27 24/90/26 22/89/25
f 37/95/29 38/96/30 17/94/29 19/93/28
f 39/99/32 37/100/33 19/98/32 21/97/31
f 38/103/35 40/104/36 23/102/35 17/101/34
f 40/107/38 39/108/39 21/106/38 23/105/37
f 41/111/3 42/112/3 34/110/3 33/109/3
f 43/115/40 41/116/40 33/114/40 35/113/40
f 42/119/41 44/120/41 36/118/41 34/117/41
f 44/123/2 43/124/2 35/122/2 36/121/2
f 45/127/2 46/128/2 38/126/2 37/125/2
f 47/131/42 45/132/42 37/130/42 39/129/42
f 46/135/43 48/136/43 40/134/43 38/133/43
f 48/139/3 47/140/3 39/138/3 40/137/3
f 25/141/2 26/142/2 46/128/2 45/127/2
f 27/145/45 25/146/46 45/144/45 47/143/44
f 26/149/48 28/150/49 48/148/48 46/147/47
f 28/151/3 27/152/3 47/140/3 48/139/3
f 29/153/3 30/154/3 42/112/3 41/111/3
f 31/157/51 29/158/52 41/156/51 43/155/50
f 30/161/54 32/162/55 44/160/54 42/159/53
f 32/163/2 31/164/2 43/124/2 44/123/2

