# ProBuilder 4.1.0
# https://unity3d.com/unity/features/worldbuilding/probuilder
# 9/09/2019 2:50:46 PM

mtllib ./Floor26.mtl
o Floor26

g Floor26
v 28.69155 -1.4 25.60381
v 9.330078 -1.4 25.60381
v 28.69155 0.5275418 25.60381
v 9.330078 0.5275418 25.60381
v 7.097137 -1.4 5.584648
v 7.097137 -1.4 0.816452
v 7.097137 0.5275418 5.584648
v 7.097137 0.5275418 0.816452
v 9.330078 -1.4 -2.986767
v 28.69155 -1.4 -2.986767
v 9.330078 0.5275418 -2.986767
v 28.69155 0.5275418 -2.986767
v 31.31673 -1.4 -0.9389343
v 32.46986 -1.4 9.899734
v 31.31673 0.5275418 -0.9389343
v 32.46986 0.5275418 9.899734
v 28.69155 0.5275418 9.899734
v 9.330078 0.5275418 9.899734
v 28.69155 -1.4 9.899734
v 9.330078 -1.4 9.899734
v 31.32224 -1.4 24.02155
v 31.32224 0.5275418 24.02155
v -23.53324 -1.4 9.899734
v -23.53324 0.5275418 9.899734
v -23.53324 -1.4 19.59219
v -23.53324 0.5275418 19.59219
v 32.46986 -1.4 19.59219
v 28.69155 -1.4 19.59219
v 28.69155 0.5275418 19.59219
v 32.46986 0.5275418 19.59219
v 9.330078 -1.4 19.59219
v 9.330078 0.5275418 19.59219
v -17.87127 -1.4 27.85135
v -17.87127 0.5275418 27.85135
v -5.249088 5.241778 13.5692
v -5.249088 5.241778 15.92273
v -8.954075 5.241778 13.5692
v -8.954075 5.241778 15.92273
v -3.159725 2.272302 12.24197
v -3.159725 2.272302 17.24996
v -11.04344 2.272302 12.24197
v -11.04344 2.272302 17.24996

vt 18.36147 0
vt -1 0
vt 18.36147 1.927542
vt -1 1.927542
vt -21.53449 0
vt -26.30269 0
vt -21.53449 1.927542
vt -26.30269 1.927542
vt 1 0
vt -18.36147 0
vt 1 1.927542
vt -18.36147 1.927542
vt 25.68037 0
vt 14.78053 0
vt 25.68037 1.927542
vt 14.78053 1.927542
vt -18.36147 -17.21941
vt 1 -17.21941
vt -18.36147 -30.10591
vt 1 -30.10591
vt 18.36147 -30.10591
vt -1 -30.10591
vt 18.36147 -17.21941
vt -1 -17.21941
vt 20.98665 -28.05807
vt 22.13978 -17.21941
vt 4.039649 1.927542
vt 4.039649 0
vt 0.7102094 1.927542
vt 0.7102094 0
vt 16.51567 0
vt 16.51567 1.927542
vt 19.58554 0
vt 19.58554 1.927542
vt -22.13978 -17.21941
vt -20.98665 -28.05807
vt -3.232941 -21.53449
vt -3.232941 -26.30269
vt -15.75272 1.927542
vt -15.75272 0
vt -20.61132 1.927542
vt -20.61132 0
vt -25.45567 0
vt -25.45567 1.927542
vt -21.0454 0
vt -21.0454 1.927542
vt 3.232941 -26.30269
vt 3.232941 -21.53449
vt -17.21941 0
vt -17.21941 1.927542
vt -7.526947 0
vt -7.526947 1.927542
vt 22.13978 -7.526947
vt 18.36147 -7.526947
vt -18.36147 -7.526947
vt -22.13978 -7.526947
vt 17.21941 1.927542
vt 17.21941 0
vt 7.526947 1.927542
vt 7.526947 0
vt -1 -7.526947
vt 1 -7.526947
vt -25.35554 0
vt -25.35554 1.927542
vt -15.34197 0
vt -15.34197 1.927542
vt 20.99216 -3.097595
vt 18.36147 -1.515327
vt -18.36147 -1.515327
vt -20.99216 -3.097595
vt 12.83929 1.927542
vt 12.83929 0
vt 8.263684 1.927542
vt 8.263684 0
vt -1 -1.515327
vt 1 -1.515327
vt 33.86332 0
vt 33.86332 1.927542
vt -33.86332 -7.526947
vt -33.86332 -17.21941
vt 15.57917 -13.54994
vt 15.57917 -11.19641
vt 19.28415 -13.54994
vt 19.28415 -11.19641
vt -28.20134 0.7322083
vt 33.86332 -7.526947
vt 28.20134 0.7322083
vt -0.8718238 1.927542
vt -0.8718238 0
vt -28.16586 1.927542
vt -28.16586 0
vt 1.257061 -17.21941
vt 1.257061 -7.526947
vt 13.86814 -14.87717
vt 13.86814 -9.869179
vt 33.86332 -12.65768
vt 1 -12.65768
vt 21.37352 -9.73702
vt 13.4898 -9.73702
vt 1 -7.187749
vt 33.86332 -7.187749
vt 13.4898 -10.10841
vt 21.37352 -10.10841
vt 33.27098 -7.526947
vt 33.27098 -17.21941
vt 20.6599 -9.869179
vt 20.6599 -14.87717
vt 14.87717 10.76599
vt 9.869179 10.76599
vt 13.54994 14.39686
vt 11.19641 14.39686
vt 21.37352 -2.718037
vt 13.4898 -2.718037
vt 19.28415 0.5345517
vt 15.57917 0.5345517
vt -13.4898 7.379817
vt -21.37352 7.379817
vt -15.57917 10.63241
vt -19.28415 10.63241
vt -9.869179 -9.295902
vt -14.87717 -9.295902
vt -11.19641 -5.665031
vt -13.54994 -5.665031

vn 0 0 1
vn -1 0 0
vn 0 0 -1
vn 0.9943882 0 -0.1057933
vn 0 1 0
vn 0 -1 0
vn 0.6150683 0 -0.7884738
vn 0.5154194 0 0.856938
vn -0.8881337 0 0.4595852
vn -0.8623548 0 -0.5063046
vn 1 0 0
vn -0.8247962 0 0.5654302
vn 0.9680356 0 0.2508128
vn 0.08234529 0 0.9966038
vn 0.1383514 0.9903832 0
vn 0 0.8019537 -0.5973863
vn 0 0.8019537 0.5973863
vn -0.1383514 0.9903832 0
vn 0.8178412 0.575444 0
vn 0 0.4080542 -0.9129577
vn 0 0.4080542 0.9129577
vn -0.8178412 0.575444 0

usemtl ProBuilderDefault
f 3/3/1 4/4/1 2/2/1 1/1/1
f 7/7/2 8/8/2 6/6/2 5/5/2
f 11/11/3 12/12/3 10/10/3 9/9/3
f 15/15/4 16/16/4 14/14/4 13/13/4
f 12/19/5 11/20/5 18/18/5 17/17/5
f 19/23/6 20/24/6 9/22/6 10/21/6
f 13/25/6 14/26/6 19/23/6 10/21/6
f 15/29/7 13/30/7 10/28/7 12/27/7
f 21/33/8 22/34/8 3/32/8 1/31/8
f 16/35/5 15/36/5 12/19/5 17/17/5
f 5/37/6 6/38/6 9/22/6 20/24/6
f 7/41/9 5/42/9 20/40/9 18/39/9
f 6/45/10 8/46/10 11/44/10 9/43/10
f 8/47/5 7/48/5 18/18/5 11/20/5
f 25/51/2 26/52/2 24/50/2 23/49/2
f 27/53/6 28/54/6 19/23/6 14/26/6
f 29/55/5 30/56/5 16/35/5 17/17/5
f 30/59/11 27/60/11 14/58/11 16/57/11
f 28/54/6 31/61/6 20/24/6 19/23/6
f 32/62/5 29/55/5 17/17/5 18/18/5
f 33/65/12 34/66/12 26/64/12 25/63/12
f 21/67/6 1/68/6 28/54/6 27/53/6
f 3/69/5 22/70/5 30/56/5 29/55/5
f 22/73/13 21/74/13 27/72/13 30/71/13
f 1/68/6 2/75/6 31/61/6 28/54/6
f 4/76/5 3/69/5 29/55/5 32/62/5
f 23/77/3 24/78/3 18/11/3 20/9/3
f 25/79/6 23/80/6 20/24/6 31/61/6
f 37/83/5 38/84/5 36/82/5 35/81/5
f 33/85/6 25/79/6 31/61/6 2/75/6
f 26/86/5 34/87/5 4/76/5 32/62/5
f 34/90/14 33/91/14 2/89/14 4/88/14
f 39/94/15 40/95/15 32/93/15 18/92/15
f 41/98/16 39/99/16 18/97/16 24/96/16
f 40/102/17 42/103/17 26/101/17 32/100/17
f 42/106/18 41/107/18 24/105/18 26/104/18
f 35/110/19 36/111/19 40/109/19 39/108/19
f 37/114/20 35/115/20 39/113/20 41/112/20
f 36/118/21 38/119/21 42/117/21 40/116/21
f 38/122/22 37/123/22 41/121/22 42/120/22

