# ProBuilder 4.1.0
# https://unity3d.com/unity/features/worldbuilding/probuilder
# 6/09/2019 12:29:10 PM

mtllib ./Floor24.mtl
o Floor24

g Floor24
v -10.69 -4.573977 16.0896
v -20.86477 -2.844471 11.71868
v -10.69 -1.17 16.0896
v -20.86477 -1.17 11.71868
v -27.71692 -2.844471 11.71868
v -27.71692 -2.844471 2.504711
v -27.71692 -1.17 11.71868
v -27.71692 -1.17 2.504711
v -20.86477 -2.844471 2.504711
v -9.458046 -4.573977 5.285492
v -20.86477 -1.17 2.504711
v -9.458046 -1.17 5.285492
v 7.933952 -4.573977 -6.16592
v 7.933952 -4.573977 16.0896
v 7.933952 -1.17 -6.16592
v 7.933952 -1.17 16.0896
v -7.597229 -1.17 -23.22397
v -7.597229 -4.573977 -23.22397
v 3.023819 -1.17 -22.37377
v 3.023819 -4.573977 -22.37377
v -6.039562 -6.327705 31.48352
v -6.039562 -4.752852 31.48352
v 3.283516 -6.327705 31.48352
v 3.283516 -4.752852 31.48352
v -9.458046 -1.17 -21.40283
v -9.458046 -4.573977 -21.40283
v 5.844753 -1.17 -15.85273
v 5.844753 -4.573977 -15.85273
v 20.30355 -0.6797991 -9.181541
v 20.30355 1.181185 -9.181541
v 20.26716 -0.6797991 -14.93529
v 20.26716 1.181185 -14.93529
v -6.039562 -6.323271 19.55238
v -6.039562 -3.107754 20.43102
v 3.283516 -6.323271 19.55238
v 3.283516 -3.107754 20.43102
v -6.039562 -6.323271 29.42294
v -6.039562 -3.107754 29.42294
v 3.283516 -6.323271 29.42294
v 3.283516 -3.107754 29.42294
v 14.50246 -2.222792 -9.181541
v 14.50246 1.181185 -9.181541
v 14.46606 -2.222792 -14.93529
v 14.46606 1.181185 -14.93529

vt 2.569371 -2.403976
vt -8.504511 -0.6744709
vt 2.569371 1
vt -8.504511 1
vt 2.138678 -0.6744709
vt -7.075289 -0.6744709
vt 2.138678 1
vt -7.075289 1
vt 11.56103 -0.6744709
vt -0.1797543 -2.403976
vt 11.56103 1
vt -0.1797543 1
vt 15.74592 -2.403976
vt -6.509596 -2.403976
vt 15.74592 1
vt -6.509596 1
vt 0 6.509596
vt 10.17477 2.138678
vt -1.231953 -4.294508
vt 10.17477 -7.075289
vt 1.569602 -4.257334
vt -9.967397 -7.0385
vt 0.3508396 6.548266
vt -9.967397 2.174191
vt -10.17477 2.138678
vt -10.17477 -7.075289
vt -17.02692 2.138678
vt -17.02692 -7.075289
vt -10.17477 1
vt -10.17477 -0.6744709
vt -17.02692 1
vt -17.02692 -0.6744709
vt 10.17477 -0.6744709
vt 10.17477 1
vt 17.02692 -0.6744709
vt 17.02692 1
vt 17.02692 -7.075289
vt 17.02692 2.138678
vt 1.231953 -4.294508
vt 18.62395 -15.74592
vt 18.62395 6.509596
vt -0.4653729 1
vt -0.4653729 -2.403976
vt -11.1204 1
vt -11.1204 -2.403976
vt 4.650436 -4.157705
vt 4.650436 -2.582852
vt 13.97351 -4.157705
vt 13.97351 -2.582852
vt -18.62395 6.509596
vt -18.62395 -15.74592
vt -4.294508 1
vt -4.294508 -2.403976
vt -30.98283 1
vt -30.98283 -2.403976
vt -16.53475 -25.43273
vt -1.231953 -30.98283
vt 1.231953 -30.98283
vt 16.53475 -25.43273
vt 18.56514 1.490201
vt 18.56514 3.351185
vt 24.319 1.490201
vt 24.319 3.351185
vt 3.887737 -2.403976
vt 3.887737 1
vt 9.685789 -4.153271
vt 10.21054 -0.9377537
vt 18.62395 6.894251
vt 0 6.894251
vt 13.97351 10.7738
vt 4.650436 10.7738
vt 0 5.53677
vt -18.62395 5.53677
vt -4.650436 10.29102
vt -13.97351 10.29102
vt 9.171475 1
vt 9.171475 -2.403976
vt 2.809515 -0.9377537
vt 3.409106 -4.153271
vt 9.972376 -4.153271
vt 10.85102 -0.9377537
vt 19.84294 -4.153271
vt 19.84294 -0.9377537
vt 13.97351 9.972376
vt 4.650436 9.972376
vt 13.97351 19.84294
vt 4.650436 19.84294
vt -4.650436 10.85102
vt -13.97351 10.85102
vt -4.650436 19.84294
vt -13.97351 19.84294
vt -10.85102 -0.9377537
vt -9.972376 -4.153271
vt -19.84294 -0.9377537
vt -19.84294 -4.153271
vt 23.49516 -2.403976
vt 23.49516 1
vt 30.72283 -0.0527916
vt 30.72283 3.351185
vt 15.27969 -24.99873
vt 17.29197 -15.29565
vt 24.21569 -24.07975
vt 24.25075 -18.33508
vt -18.01806 -15.38991
vt -16.03157 -25.0983
vt -24.99178 -18.41225
vt -24.95717 -24.15396
vt -13.75068 1
vt -13.75068 -2.403976
vt -22.42067 3.351185
vt -22.42067 -0.0527916
vt 25.19246 -0.0527916
vt 25.19246 3.351185
vt 30.99355 1.490201
vt 30.99355 3.351185
vt 24.29723 -24.50466
vt 24.3324 -18.75091
vt 30.30002 -24.50466
vt 30.33519 -18.75091
vt -25.19246 -18.76154
vt -25.15606 -24.51529
vt -30.99355 -18.76154
vt -30.95716 -24.51529
vt -25.15606 3.351185
vt -25.15606 -0.0527916
vt -30.95716 3.351185
vt -30.95716 1.490201
vt 21.90352 -4.157705
vt 21.90352 -2.582852
vt 13.97351 19.85184
vt 4.650436 19.85184
vt 13.97351 21.91242
vt 4.650436 21.91242
vt -4.650436 16.09217
vt -13.97351 16.09217
vt -4.650436 18.7289
vt -13.97351 18.7289
vt -21.90352 -2.582852
vt -21.90352 -4.157705
vt -22.55128 1
vt -22.55128 -2.403976
vt -25.15496 1
vt -25.15496 -2.403976
vt -13.71382 -31.95377
vt -3.09277 -32.80397
vt 3.09277 -32.80397
vt 13.71382 -31.95377
vt 16.77744 -2.403976
vt 16.77744 1
vt 23.88248 -2.403976
vt 23.88248 1

vn -0.3947052 0 0.9188078
vn -1 0 0
vn 0.2368479 0 -0.9715468
vn 1 0 0
vn 0 1 0
vn -0.1459212 -0.9891563 -0.01663886
vn -0.1567487 -0.9875077 -0.00831943
vn -0.1675762 -0.9858592 0
vn 0 -1 0
vn 0 0 1
vn 0 0 -1
vn 0.07979324 0 -0.9968114
vn 0.99998 0 -0.006324828
vn -0.5972317 0 0.8020688
vn -0.6539882 -0.09271069 0.7403207
vn -0.7107449 -0.1854214 0.6785725
vn 0 -0.8925735 -0.4509018
vn 0 0.9131678 0.4075836
vn 0.6824039 0 0.7309753
vn 0.6576468 -0.1020407 0.7389182
vn 0.6328898 -0.2040814 0.746861
vn 0.4172328 0 0.9087996
vn 0.2683966 -0.9615678 -0.05788634
vn 0.3022696 -0.9516882 -0.03000621
vn 0.3361427 -0.9418086 -0.002126088
vn -0.3089983 0.9487248 0.0666431
vn -0.2861359 0.9567223 0.03415415
vn -0.2632734 0.9647198 0.001665193
vn 0.1058177 0 -0.9943855
vn 0.2570454 -0.9663979 -0.001625801
vn 0 -0.9999977 -0.002152099
vn 0 0.7814913 0.6239161
vn -0.699446 0 -0.7146854
vn 0.9178045 0 -0.3970326

usemtl ProBuilderDefault
f 3/3/1 4/4/1 2/2/1 1/1/1
f 7/7/2 8/8/2 6/6/2 5/5/2
f 11/11/3 12/12/3 10/10/3 9/9/3
f 15/15/4 16/16/4 14/14/4 13/13/4
f 12/19/5 11/20/5 4/18/5 3/17/5
f 1/23/7 2/24/8 9/22/7 10/21/6
f 5/27/9 6/28/9 9/26/9 2/25/9
f 7/31/10 5/32/10 2/30/10 4/29/10
f 6/35/11 8/36/11 11/34/11 9/33/11
f 8/37/5 7/38/5 4/18/5 11/20/5
f 13/40/9 14/41/9 1/17/9 10/39/9
f 19/44/12 20/45/12 18/43/12 17/42/12
f 23/48/10 24/49/10 22/47/10 21/46/10
f 16/50/5 15/51/5 12/19/5 3/17/5
f 25/54/2 26/55/2 10/53/2 12/52/2
f 27/56/5 25/57/5 12/19/5 15/51/5
f 26/58/9 28/59/9 13/40/9 10/39/9
f 31/62/13 32/63/13 30/61/13 29/60/13
f 33/66/15 34/67/16 3/65/15 1/64/14
f 35/70/17 33/71/17 1/69/17 14/68/17
f 34/74/18 36/75/18 16/73/18 3/72/18
f 36/78/20 35/79/21 14/77/20 16/76/19
f 37/82/2 38/83/2 34/81/2 33/80/2
f 39/86/9 37/87/9 33/85/9 35/84/9
f 38/90/5 40/91/5 36/89/5 34/88/5
f 40/94/4 39/95/4 35/93/4 36/92/4
f 41/98/22 42/99/22 15/97/22 13/96/22
f 43/102/24 41/103/25 13/101/24 28/100/23
f 42/106/27 44/107/28 27/105/27 15/104/26
f 44/110/29 43/111/29 28/109/29 27/108/29
f 29/114/10 30/115/10 42/113/10 41/112/10
f 31/118/30 29/119/30 41/117/30 43/116/30
f 30/122/5 32/123/5 44/121/5 42/120/5
f 32/126/11 31/127/11 43/125/11 44/124/11
f 21/128/2 22/129/2 38/83/2 37/82/2
f 23/132/31 21/133/31 37/131/31 39/130/31
f 22/136/32 24/137/32 40/135/32 38/134/32
f 24/138/4 23/139/4 39/95/4 40/94/4
f 17/142/33 18/143/33 26/141/33 25/140/33
f 19/144/5 17/145/5 25/57/5 27/56/5
f 18/146/9 20/147/9 28/59/9 26/58/9
f 20/150/34 19/151/34 27/149/34 28/148/34

