# ProBuilder 4.1.0
# https://unity3d.com/unity/features/worldbuilding/probuilder
# 8/19/2019 11:58:45 AM

mtllib ./Floor3.mtl
o Floor3

g Floor3
v 4.216642 -3.21 36.51052
v -1 -3.21 36.51052
v 4.216642 -1.369287 36.51052
v -1 -1.369287 36.51052
v -4.261634 -3.21 30.48892
v -2.138429 -3.21 23.91411
v -4.261634 -1.369287 30.48892
v -2.138429 -1.369287 23.91411
v -1 -3.21 23.91411
v 4.216642 -3.21 23.91411
v -1 -1.369287 23.91411
v 4.216642 -1.369287 23.91411
v 5.355072 -3.21 23.91411
v 7.478277 -3.21 30.48892
v 5.355072 -1.369287 23.91411
v 7.478277 -1.369287 30.48892
v 4.216642 -1.369287 30.48892
v -1 -1.369287 30.48892
v 4.216642 -3.21 30.48892
v -1 -3.21 30.48892
v 5.355072 -1.369287 36.51052
v 5.355072 -3.21 36.51052
v -2.138429 -3.21 36.51052
v -2.138429 -1.369287 36.51052
v 4.216642 0.8110895 36.51052
v 4.216642 1.443911 30.48892
v 5.355072 0.8110895 36.51052
v 5.355072 1.443911 30.48892
v 4.216642 0.8110895 23.91411
v 5.355072 0.8110895 23.91411
v -1 0.8110895 23.91411
v -1 1.443911 30.48892
v -2.138429 0.8110895 23.91411
v -2.138429 1.443911 30.48892
v -1 0.8110895 36.51052
v -2.138429 0.8110895 36.51052

vt 4.216642 0
vt -1 0
vt 4.216642 1.840714
vt -1 1.840714
vt 5.581328 0
vt -1.327807 0
vt 5.581328 1.840714
vt -1.327807 1.840714
vt 1 0
vt -4.216642 0
vt 1 1.840714
vt -4.216642 1.840714
vt 0.3393199 0
vt -6.569815 0
vt 0.3393199 1.840714
vt -6.569815 1.840714
vt -4.216642 4.488924
vt 1 4.488924
vt -4.216642 -2.085888
vt 1 -2.085888
vt 4.216642 -2.085888
vt -1 -2.085888
vt 4.216642 4.488924
vt -1 4.488924
vt 4.216642 10.51052
vt -1 10.51052
vt -1.746697 1.840714
vt -1.746697 0
vt -8.131651 1.840714
vt -8.131651 0
vt 2.816336 0
vt 2.816336 1.840714
vt 9.201289 0
vt 9.201289 1.840714
vt 1 10.51052
vt -4.216642 10.51052
vt 5.355072 -2.085888
vt 7.478277 4.488924
vt -5.355072 1.840714
vt -5.355072 0
vt -4.216642 10.03269
vt -4.216642 3.977929
vt -5.355072 10.03269
vt -5.355072 3.977929
vt -4.216642 4.91415
vt -4.216642 -1.691046
vt -5.355072 4.91415
vt -5.355072 -1.691046
vt 5.355072 10.51052
vt 5.355072 0
vt 5.355072 1.840714
vt -4.261634 4.488924
vt -2.138429 -2.085888
vt -2.138429 10.51052
vt 2.138429 0
vt 2.138429 1.840714
vt 1 -1.691046
vt 1 4.91415
vt 2.138429 -1.691046
vt 2.138429 4.91415
vt 1 3.977929
vt 1 10.03269
vt 2.138429 3.977929
vt 2.138429 10.03269
vt -2.138429 1.840714
vt -2.138429 0
vt 10.51052 1.840714
vt 4.488924 1.840714
vt 10.51052 4.02109
vt 4.488924 4.653911
vt 5.355072 4.02109
vt 4.216642 4.02109
vt -4.216642 4.02109
vt -5.355072 4.02109
vt -1.746697 -3.455737
vt -8.13165 -3.455737
vt -2.452732 -0.002681792
vt -8.13165 -1.679389
vt -2.085888 1.840714
vt -2.085888 4.02109
vt 0.3393199 4.02109
vt -5.917346 4.653911
vt 2.085888 1.840714
vt -4.488924 1.840714
vt 2.085888 4.02109
vt -4.488924 4.653911
vt 2.138429 4.02109
vt 1 4.02109
vt -1 4.02109
vt -2.138429 4.02109
vt 5.581328 -0.06593922
vt -1.327807 -0.06593921
vt 4.928859 3.397637
vt -1.327807 1.705013
vt -10.51052 1.840714
vt -10.51052 4.02109
vt 9.201289 4.02109
vt 3.52237 4.653911

vn 0 0 1
vn -0.9516114 0 -0.3073039
vn 0 0 -1
vn 0.9516114 0 -0.307304
vn 0 1 0
vn 0 -1 0
vn 0.9430918 0 0.3325325
vn -0.9430918 0 0.3325325
vn 0 0.9945232 0.1045163
vn 0 0.9954 -0.09580655
vn -1 0 0
vn 0.7683349 0.5798855 0.2709136
vn 0.8841674 0.2899428 0.1354568
vn 1 0 0
vn 0.8742286 0.3007018 -0.1825943
vn 0.7968458 0.6014035 -0.05788467
vn -0.772921 0.5833467 -0.2495994
vn -0.8864605 0.2916733 -0.1247997
vn -0.8698406 0.300605 0.1978574
vn -0.7965894 0.60121 0.0631823

usemtl ProBuilderDefault
f 3/3/1 4/4/1 2/2/1 1/1/1
f 7/7/2 8/8/2 6/6/2 5/5/2
f 11/11/3 12/12/3 10/10/3 9/9/3
f 15/15/4 16/16/4 14/14/4 13/13/4
f 12/19/5 11/20/5 18/18/5 17/17/5
f 19/23/6 20/24/6 9/22/6 10/21/6
f 1/25/6 2/26/6 20/24/6 19/23/6
f 21/29/7 22/30/7 14/28/7 16/27/7
f 23/33/8 24/34/8 7/32/8 5/31/8
f 4/35/5 3/36/5 17/17/5 18/18/5
f 13/37/6 14/38/6 19/23/6 10/21/6
f 15/39/3 13/40/3 10/10/3 12/12/3
f 27/43/9 28/44/9 26/42/9 25/41/9
f 28/47/10 30/48/10 29/46/10 26/45/10
f 14/38/6 22/49/6 1/25/6 19/23/6
f 22/50/1 21/51/1 3/3/1 1/1/1
f 5/52/6 6/53/6 9/22/6 20/24/6
f 23/54/6 5/52/6 20/24/6 2/26/6
f 6/55/3 8/56/3 11/11/3 9/9/3
f 33/59/10 34/60/10 32/58/10 31/57/10
f 34/63/9 36/64/9 35/62/9 32/61/9
f 24/65/1 23/66/1 2/2/1 4/4/1
f 25/69/11 26/70/11 17/68/11 3/67/11
f 27/71/1 25/72/1 3/3/1 21/51/1
f 29/73/3 30/74/3 15/39/3 12/12/3
f 28/77/13 27/78/14 21/76/13 16/75/12
f 26/70/11 29/80/11 12/79/11 17/68/11
f 30/81/15 28/82/16 16/16/15 15/15/4
f 31/85/14 32/86/14 18/84/14 11/83/14
f 33/87/3 31/88/3 11/11/3 8/56/3
f 35/89/1 36/90/1 24/65/1 4/4/1
f 34/93/18 33/94/11 8/92/18 7/91/17
f 32/86/14 35/96/14 4/95/14 18/84/14
f 36/97/19 34/98/20 7/32/19 24/34/8

