# ProBuilder 4.1.0
# https://unity3d.com/unity/features/worldbuilding/probuilder
# 8/19/2019 11:52:23 AM

mtllib ./Floor2.mtl
o Floor2

g Floor2
v 4.099219 -3.33 23.40166
v -1.383417 -3.33 23.40166
v 4.099219 -1.33 23.40166
v -0.9040656 -1.33 23.2862
v -2.667783 -3.504515 21.77
v -6.716369 -3.33 7.752693
v -2.165607 -1.33 21.0871
v -6.878603 -1.337299 7.552678
v -4.924197 -3.33 7.752642
v 7.64 -3.33 7.752642
v -4.924197 -1.33 7.752642
v 7.64 -1.33 7.752642
v 9.504988 -3.192207 7.752693
v 5.101033 -3.504515 21.77
v 9.432173 -1.33 7.752693
v 4.881409 -1.33 21.0871
v 3.782102 -0.8360767 21.40252
v -1.383417 -0.8433762 21.08705
v 4.099219 -3.33 21.08705
v -1.383417 -3.33 21.08705
v -2.34291 -1.33 23.40171
v -2.165607 -3.33 23.40171
v -4.924197 0.07762313 7.752642
v -1.383417 1.152849 21.08705
v -6.716369 0.07762313 7.752693
v -2.165607 1.152849 21.0871
v 4.881409 -3.33 23.40171
v 4.881409 -1.33 23.40171
v 4.099219 1.152849 21.08705
v 8.142177 0.2521384 7.069742
v 4.704105 1.152849 21.0871
v 9.432173 0.07762313 7.752693
v -1.383417 1.152849 23.40166
v -2.34291 1.152849 23.40171
v 4.881409 1.152849 23.40171
v 4.099219 1.152849 23.40166

vt -1.77039 0
vt -4.511708 0
vt -1.77039 1
vt -4.272033 1
vt 3.628313 -1.987504
vt -3.666772 -1.896152
vt 3.371191 -0.8492368
vt -3.785546 -0.959175
vt 6.282098 0
vt 0 0
vt 6.282098 1
vt 0 1
vt 1.919431 0.05494875
vt -5.42699 -0.1013137
vt 1.908491 0.9866998
vt -5.134317 0.9929159
vt 1.929925 5.147725
vt 4.512681 4.989885
vt 0.0007833217 -1.681628
vt 6.28288 -1.681805
vt 0 -1.718679
vt -6.282098 -1.718679
vt -1.77039 4.948524
vt -4.511708 4.948524
vt -4.480064 4.929349
vt -6.238037 -1.741138
vt -5.12806 5.270994
vt -7.127839 -1.744437
vt -4.742319 0.7812492
vt -4.985845 -0.2194865
vt -5.464056 0.7812492
vt -5.375688 -0.2182877
vt 7.178135 0
vt 7.259249 0.9963503
vt 6.282094 -1.576175
vt 4.511703 5.112668
vt 7.178181 -1.57615
vt 4.902798 5.112693
vt 0 -1.71835
vt -1.765578 4.950129
vt 0.9350356 -1.718324
vt -1.272462 5.289115
vt -0.8960373 1
vt -0.932445 0.06889629
vt -1.769988 0
vt -1.769988 1
vt -1.378894 0
vt -1.378894 1
vt 1.770403 5.082067
vt -0.2510786 -1.94104
vt 1.46796 5.082092
vt -0.8960772 -1.605862
vt 3.273372 1
vt -3.624879 1.243312
vt 3.273372 1.703812
vt -3.624879 2.241425
vt 7.406196 0.8507473
vt 6.423892 0.8544272
vt 7.315365 1.564072
vt 6.423892 1.552453
vt -4.742319 1.175185
vt -5.464056 1.175185
vt -4.985846 2.417203
vt -5.464056 2.416018
vt 3.061002 1
vt -4.104764 0.9963503
vt 3.061002 2.241425
vt -3.983644 1.703812
vt 5.440148 1.190905
vt -1.652095 0.9424666
vt 5.244815 2.191317
vt -2.049529 1.744865
vt -1.378894 2.241425
vt -1.769988 2.241425
vt 4.892928E-05 1.599231
vt -0.8960373 1.599231
vt -0.2510297 2.460848
vt -0.8960375 2.245416
vt 1.915964 1
vt -5.128819 1
vt 1.915964 1.703812
vt -5.157452 2.241425
vt -1.77039 6.10583
vt -4.511708 6.10583
vt -1.218901 5.248162
vt -1.726712 4.905736
vt -1.345266 6.066284
vt -1.726712 6.059835
vt -4.948524 2.241425
vt -4.948524 1.243312
vt -6.10583 2.241425
vt -6.0481 1
vt 4.492384 4.540969
vt 1.909865 4.702635
vt 4.256417 5.667926
vt 1.755061 5.732544
vt -4.470628 4.948524
vt -5.118712 5.29
vt -4.470628 6.10583
vt -4.858162 6.105855
vt 3.740795 -1.945065
vt 3.477793 -0.8081428
vt 4.593997 -1.853822
vt 4.570581 -0.9225008
vt 5.308561 1
vt 5.308561 2.241425
vt 6.469257 1
vt 6.469257 2.241425
vt 4.902803 4.94855
vt 4.511708 4.948524
vt 4.991455 6.105855
vt 4.511708 6.10583
vt -4.821975 2.366562
vt -4.828746 1.121994
vt -5.982672 2.366562
vt -5.982672 1.128272
vt -4.94855 1.133541
vt -5.29 0.04075172
vt -6.105855 1.133541
vt -6.105855 0.1386024
vt 4.611784 0.685461
vt 4.4893 1.697378
vt 5.622783 0.4341649
vt 5.622783 1.654177
vt 1.77039 4.948524
vt 1.467947 4.94855
vt 1.77039 6.10583
vt 1.379296 6.105855

vn 0 0 2
vn -0.02302459 0.06311771 1.997741
vn -0.04604917 0.1262354 1.995481
vn -1.833376 0.5920067 0.5369001
vn -1.860153 0.2521711 0.59701
vn -1.886931 -0.08766458 0.6571199
vn 0 0 -2
vn 1.906244 0.07453733 0.6005642
vn 1.881675 0.2305722 0.6171784
vn 1.857106 0.3866071 0.6337928
vn 0.001565631 1.998707 -0.07188106
vn 0.0007828156 1.998688 -0.07241009
vn 0 1.99867 -0.07293914
vn 0 -2 0
vn 0.2363431 -1.984995 -0.06275786
vn 0.1181712 -1.99242 -0.04382785
vn -7.088194E-07 -1.999845 -0.02489783
vn 0.1599281 0.07667371 1.992121
vn 0.0800299 0.03834269 1.99606
vn 0.1016678 -0.09115393 -1.990631
vn 0.2033926 -0.1823079 -1.981261
vn -4.576354E-06 1.99353 -0.160748
vn 0.1473369 -1.994182 0.03912342
vn -0.05592787 -1.986669 -0.0432028
vn -0.2591926 -1.979157 -0.125529
vn 1.091858E-05 1.995884 -0.1282465
vn 0.148141 1.986535 -0.09131354
vn 0.296271 1.977187 -0.0543806
vn 1.933012 0 -0.5132866
vn 0.200947 0.2559153 -1.973354
vn 0.100445 0.1279577 -1.986677
vn 0.1599694 -0.06177863 1.992635
vn 0.08003838 -0.03088931 1.996317
vn -1.888761 0 0.6577098
vn -1.890425 0.06355616 0.646596
vn -1.89209 0.1271123 0.6354822
vn -1.911086 0.2177826 -0.5480152
vn -1.898132 0.2858191 -0.5572437
vn -1.885178 0.3538555 -0.5664722
vn 5.227624E-05 -0.7925968 -1.836244
vn 0.4679205 -0.3962985 -1.801906
vn 0.9357886 -3.170016E-07 -1.767569
vn 1.892806 -6.411946E-07 0.6459765
vn 1.88847 0.067274 0.6515983
vn 1.884133 0.1345486 0.6572201
vn -0.4402923 -1.945252 0.1487871
vn -0.2201461 -1.972626 0.07439353
vn 2 0 0
vn 1.966491 0.1943918 -0.1676522
vn 1.932982 0.3887835 -0.3353045
vn -0.02951885 1.951184 0.4381883
vn -0.02031359 1.94618 0.4597767
vn -0.01110833 1.941176 0.4813652
vn 0.2692786 -1.981789 0
vn 0.1346463 -1.985224 0.1063437
vn 1.400307E-05 -1.988659 0.2126875
vn -1.844706 0.584667 0.5051966
vn -1.91556 0.2042841 0.176517
vn -1.986413 -0.1760988 -0.1521627
vn -1.994158 0 -0.152756
vn 0 2 0
vn 1.989122 0.142046 -0.1523706
vn 1.994561 0.07102302 -0.07618532
vn 1.989877 0.2009757 0
vn 1.986001 0.1004879 0.1333946
vn 1.982126 0 0.2667891
vn -1.925044 0.3698622 0.3967457
vn -1.962522 0.1849311 0.1983729
vn -2 0 0

usemtl ProBuilderDefault
f 3/3/2 4/4/3 2/2/2 1/1/1
f 7/7/5 8/8/6 6/6/5 5/5/4
f 11/11/7 12/12/7 10/10/7 9/9/7
f 15/15/9 16/16/10 14/14/9 13/13/8
f 12/19/12 11/20/13 18/18/12 17/17/11
f 19/23/14 20/24/14 9/22/14 10/21/14
f 5/27/16 6/28/17 9/26/16 20/25/15
f 21/31/19 22/32/1 2/30/19 4/29/18
f 6/33/20 8/34/21 11/11/20 9/9/7
f 25/37/22 26/38/22 24/36/22 23/35/22
f 13/41/24 14/42/25 19/40/24 10/39/23
f 15/43/7 13/44/7 10/10/7 12/12/7
f 27/47/1 28/48/1 3/46/1 1/45/1
f 31/51/27 32/52/28 30/50/27 29/49/26
f 23/55/29 24/56/29 18/54/29 11/53/29
f 25/59/31 23/60/7 11/58/31 8/57/30
f 33/63/33 34/64/1 21/62/33 4/61/32
f 26/67/35 25/68/36 8/66/35 7/65/34
f 29/71/38 30/72/39 12/70/38 17/69/37
f 35/73/1 36/74/1 3/46/1 28/48/1
f 30/77/41 32/78/42 15/76/41 12/75/40
f 32/81/44 31/82/45 16/80/44 15/79/43
f 1/83/14 2/84/14 20/24/14 19/23/14
f 27/87/47 1/88/14 19/86/47 14/85/46
f 33/91/49 4/92/50 18/90/49 24/89/48
f 4/95/52 3/96/53 17/94/52 18/93/51
f 2/99/55 22/100/56 5/98/55 20/97/54
f 22/103/58 21/104/59 7/102/58 5/101/57
f 21/107/60 34/108/60 26/106/60 7/105/60
f 34/111/61 33/112/61 24/110/61 26/109/61
f 35/115/63 28/116/48 16/114/63 31/113/62
f 28/119/65 27/120/66 14/118/65 16/117/64
f 3/123/68 36/124/69 29/122/68 17/121/67
f 36/127/61 35/128/61 31/126/61 29/125/61

