# ProBuilder 4.1.0
# https://unity3d.com/unity/features/worldbuilding/probuilder
# 12/08/2019 11:13:03 PM

mtllib ./GlobeShell.mtl
o GlobeShell

g GlobeShell
v 59.12011 85.07253 0
v 101.8103 162.3384 38.88814
v 34.74989 85.00207 56.22664
v 107.0497 148.6671 66.16037
v 62.92224 161.9768 101.8103
v 0 162.3872 107.0497
v 0 85.32526 0
v -34.74989 85.00207 56.22664
v -59.12011 85.07253 0
v 34.74989 85.00207 -56.22664
v -34.74989 85.00207 -56.22664
v 0 162.3872 -107.0497
v 101.8103 162.3384 -38.88814
v 62.92224 161.9768 -101.8103
v 107.0497 148.6671 -66.16037
v 125.8445 148.6671 0
v -101.8103 162.3384 38.88814
v -62.92224 161.9768 101.8103
v -107.0497 148.6671 66.16037
v 0 148.6671 125.8445
v 62.92225 86.95641 101.8103
v 0 59.68414 107.0497
v 101.8103 62.92225 38.88809
v 101.8103 62.92225 -38.88809
v 66.16037 18.79478 0
v 62.92225 86.95641 -101.8103
v 0 148.6671 -125.8445
v 0 59.68414 -107.0497
v -62.92224 161.9768 -101.8103
v -101.8103 162.3384 -38.88814
v -107.0497 148.6671 -66.16037
v -66.16037 18.79478 0
v -101.8103 62.92225 38.88809
v -38.88809 24.03416 62.92225
v -62.92225 86.95641 101.8103
v 0 0 0
v 38.88809 24.03416 62.92225
v -38.88809 24.03416 -62.92225
v 38.88809 24.03416 -62.92225
v -101.8103 62.92225 -38.88809
v -62.92225 86.95641 -101.8103
v -125.8445 148.6671 0

vt -1.866345 0
vt -2.87201 1.09701
vt -1.09701 1.775
vt -1.09701 5.325
vt -1.866345 3.55
vt -2.87201 4.64701
vt 2.87201 5.325
vt 1.775 4.64701
vt 1.09701 6.42201
vt 0 5.416345
vt 0 0
vt 0 3.01981
vt 1.09701 1.775
vt 1.866345 0
vt -1.09701 -1.775
vt 1.09701 -1.775
vt 0 -3.01981
vt -2.87201 -1.09701
vt -1.09701 6.42201
vt -1.775 4.64701
vt -2.87201 5.325
vt 1.09701 5.325
vt 2.87201 4.64701
vt 1.866345 3.55
vt 0 6.56981
vt 0 3.55
vt 2.87201 1.09701
vt 3.01981 3.55
vt 1.775 2.45299
vt 0 1.683655
vt 0 0.5301898
vt -3.01981 3.55
vt -1.775 2.45299
vt 2.87201 -1.09701
vt 2.87201 2.45299
vt -2.87201 1.775
vt -1.09701 0.6779897
vt 1.09701 0.6779897
vt 2.87201 1.775
vt -2.87201 2.45299

vn -26.56888 20.46255 -11.49006
vn 17.57915 28.73955 11.02971
vn -25.65696 18.7169 -15.7493
vn -2.380014 18.66309 -30.04443
vn 0.1515444 35.44866 0.1101019
vn 0 19.45988 -29.63032
vn 0 35.44857 0.2037608
vn -0.1515444 35.44866 0.1101019
vn 0.1515444 35.44866 -0.1101019
vn -0.1515444 35.44866 -0.1101019
vn 0 35.44857 -0.2037608
vn 0 19.45988 29.63032
vn -26.56888 20.46255 11.49006
vn -2.380014 18.66309 30.04443
vn -25.65696 18.7169 15.7493
vn 17.57915 28.73955 -11.02971
vn -31.02817 17.14338 0
vn 25.1731 23.91274 -7.151148
vn 17.52732 30.81291 0
vn 25.1731 23.91274 7.151148
vn 26.56888 20.46255 -11.49006
vn 2.380014 18.66309 -30.04443
vn 25.65696 18.7169 -15.7493
vn -17.57915 28.73955 11.02971
vn 1.92429 28.58968 20.87031
vn 22.27724 1.619081E-05 27.57476
vn 12.64905 1.706067E-05 33.11562
vn 5.976489 -7.220995 34.18745
vn 33.74365 -5.110796 9.585863
vn 33.74365 -5.110796 -9.585863
vn 34.13361 -9.567608 0
vn 27.57475 -22.27726 0
vn 22.27724 1.619081E-05 -27.57476
vn 1.92429 28.58968 -20.87031
vn 12.64905 1.706067E-05 -33.11562
vn 5.976489 -7.220995 -34.18745
vn 2.380014 18.66309 30.04443
vn 26.56888 20.46255 11.49006
vn 25.65696 18.7169 15.7493
vn -17.57915 28.73955 -11.02971
vn -20.67142 -26.54374 11.16981
vn -27.8598 -8.171633 20.33959
vn -20.46658 -20.46658 20.46658
vn -11.16981 -20.67142 26.54374
vn -9.501614 -33.44707 6.903324
vn 0 -27.57475 22.27726
vn 0 -33.11562 12.64904
vn 9.501614 -33.44707 6.903324
vn -9.501614 -33.44707 -6.903324
vn 9.501614 -33.44707 -6.903324
vn 0 -33.11562 -12.64904
vn 0 -27.57475 -22.27726
vn -20.67142 -26.54374 -11.16981
vn -11.16981 -20.67142 -26.54374
vn -20.46658 -20.46658 -20.46658
vn -27.8598 -8.171633 -20.33959
vn -27.57475 -22.27726 0
vn -33.74365 -5.110796 -9.585863
vn -34.13361 -9.567608 0
vn -33.74365 -5.110796 9.585863
vn -5.976489 -7.220995 34.18745
vn -22.27724 1.619081E-05 27.57476
vn -12.64905 1.706067E-05 33.11562
vn -1.92429 28.58968 20.87031
vn 20.67142 -26.54374 11.16981
vn 11.16981 -20.67142 26.54374
vn 20.46658 -20.46658 20.46658
vn 27.8598 -8.171633 20.33959
vn 11.16981 -20.67142 -26.54374
vn 20.67142 -26.54374 -11.16981
vn 20.46658 -20.46658 -20.46658
vn 27.8598 -8.171633 -20.33959
vn -22.27724 1.619081E-05 -27.57476
vn -5.976489 -7.220995 -34.18745
vn -12.64905 1.706067E-05 -33.11562
vn -1.92429 28.58968 -20.87031
vn -25.1731 23.91274 7.151148
vn -25.1731 23.91274 -7.151148
vn -17.52732 30.81291 0
vn 31.02817 17.14338 0

usemtl ProBuilderDefault
f 3/3/1 2/2/1 1/1/1
f 5/6/2 4/5/2 2/4/2
f 3/9/3 5/8/3 2/7/3
f 6/10/4 5/8/4 3/9/4
f 7/11/5 3/3/5 1/1/5
f 8/13/6 6/12/6 3/3/6
f 7/11/7 8/13/7 3/3/7
f 9/14/8 8/13/8 7/11/8
f 10/15/9 7/11/9 1/1/9
f 11/16/10 9/14/10 7/11/10
f 10/15/11 11/16/11 7/11/11
f 12/17/12 11/16/12 10/15/12
f 13/18/13 10/15/13 1/1/13
f 14/20/14 12/10/14 10/19/14
f 13/21/15 14/20/15 10/19/15
f 15/24/16 14/23/16 13/22/16
f 2/4/17 13/22/17 1/25/17
f 16/26/18 15/24/18 13/22/18
f 2/4/19 16/26/19 13/22/19
f 4/5/20 16/26/20 2/4/20
f 17/27/21 8/13/21 9/14/21
f 18/20/22 6/10/22 8/19/22
f 17/21/23 18/20/23 8/19/23
f 19/24/24 18/23/24 17/22/24
f 20/26/25 5/8/25 6/10/25
f 21/29/26 4/28/26 5/8/26
f 20/26/27 21/29/27 5/8/27
f 22/30/28 21/29/28 20/26/28
f 23/3/29 16/26/29 4/5/29
f 24/13/30 15/24/30 16/26/30
f 23/3/31 24/13/31 16/26/31
f 25/31/32 24/13/32 23/3/32
f 26/33/33 14/20/33 15/32/33
f 27/26/34 12/10/34 14/20/34
f 26/33/35 27/26/35 14/20/35
f 28/30/36 27/26/36 26/33/36
f 29/8/37 11/9/37 12/10/37
f 30/34/38 9/14/38 11/16/38
f 29/8/39 30/7/39 11/9/39
f 31/5/40 30/4/40 29/6/40
f 34/3/41 33/2/41 32/1/41
f 35/35/42 19/24/42 33/13/42
f 34/37/43 35/33/43 33/36/43
f 22/30/44 35/33/44 34/37/44
f 36/11/45 34/3/45 32/1/45
f 37/13/46 22/12/46 34/3/46
f 36/11/47 37/13/47 34/3/47
f 25/14/48 37/13/48 36/11/48
f 38/15/49 36/11/49 32/1/49
f 39/16/50 25/14/50 36/11/50
f 38/15/51 39/16/51 36/11/51
f 28/17/52 39/16/52 38/15/52
f 40/18/53 38/15/53 32/1/53
f 41/29/54 28/30/54 38/38/54
f 40/39/55 41/29/55 38/38/55
f 31/5/56 41/40/56 40/3/56
f 33/13/57 40/3/57 32/31/57
f 42/26/58 31/5/58 40/3/58
f 33/13/59 42/26/59 40/3/59
f 19/24/60 42/26/60 33/13/60
f 20/26/61 35/33/61 22/30/61
f 18/20/62 19/32/62 35/33/62
f 20/26/63 18/20/63 35/33/63
f 6/10/64 18/20/64 20/26/64
f 23/27/65 37/13/65 25/14/65
f 21/29/66 22/30/66 37/38/66
f 23/39/67 21/29/67 37/38/67
f 4/5/68 21/40/68 23/3/68
f 26/33/69 39/37/69 28/30/69
f 24/34/70 25/14/70 39/16/70
f 26/33/71 24/36/71 39/37/71
f 15/24/72 24/13/72 26/35/72
f 29/8/73 41/29/73 31/28/73
f 27/26/74 28/30/74 41/29/74
f 29/8/75 27/26/75 41/29/75
f 12/10/76 27/26/76 29/8/76
f 17/22/77 42/26/77 19/24/77
f 30/4/78 31/5/78 42/26/78
f 17/22/79 30/4/79 42/26/79
f 9/25/80 30/4/80 17/22/80

