# ProBuilder 4.1.0
# https://unity3d.com/unity/features/worldbuilding/probuilder
# 12/08/2019 10:51:30 PM

mtllib ./GlobePanelA.mtl
o GlobePanelA

g GlobePanelA
v 0 0 6.718513
v -1 0 6.718513
v 0 1 6.718513
v -1 1 6.718513
v -1 0 5.153164
v -1 0 -6.073712
v -1 1 5.153164
v -1 1 -6.073712
v -1 0 -7.535036
v 0 0 -7.535036
v -1 1 -7.535036
v 0 1 -7.535036
v 0 0 -6.073712
v 0 0 5.153164
v 0 1 -6.073712
v 0 1 5.153164
v 10.9969 1 0.8202176
v 10.9969 0 0.8202176
v 10.9969 1 1.165992
v 10.9969 0 1.165992
v 10.9969 0 -1.659719
v 10.9969 1 -1.659719
v 10.9969 0 -1.982515
v 10.9969 1 -1.982515

vt 0 0
vt -1 0
vt 0 1
vt -1 1
vt 5.153164 0
vt -6.073712 0
vt 5.153164 1
vt -6.073712 1
vt 1 0
vt 1 1
vt 6.073712 0
vt -5.153164 0
vt 6.073712 1
vt -5.153164 1
vt 0 5.153164
vt 1 5.153164
vt 0 -6.073712
vt 1 -6.073712
vt -1 -6.073712
vt -1 5.153164
vt 0 6.718513
vt -1 6.718513
vt -0.8202176 1
vt -0.8202176 0
vt -1.165992 1
vt -1.165992 0
vt 6.718513 0
vt 6.718513 1
vt 1 6.718513
vt -1 -7.535036
vt 0 -7.535036
vt -7.535036 1
vt -7.535036 0
vt 1.659719 0
vt 1.659719 1
vt 1.982515 0
vt 1.982515 1
vt 1 -7.535036
vt 1.889076 1
vt 1.889076 0
vt -9.930659 1
vt -9.930659 0
vt -10.9969 1.165992
vt -10.9969 0.8202176
vt 10.9969 0.8202176
vt 10.9969 1.165992
vt -3.028179 0
vt -3.028179 1
vt 9.291001 0
vt 9.291001 1
vt -2.26245 0
vt -2.26245 1
vt 9.587235 0
vt 9.587235 1
vt 10.9969 -1.982515
vt 10.9969 -1.659719
vt -10.9969 -1.659719
vt -10.9969 -1.982515
vt 3.396204 1
vt 3.396204 0
vt -8.922976 1
vt -8.922976 0

vn 0 0 1
vn -1 0 0
vn 0 0 -1
vn 1 0 0
vn 0 1 0
vn 0 -1 0
vn -0.3665857 0 -0.9303843
vn 0.4507216 0 0.8926646
vn -0.3724988 0 0.9280327
vn 0.4507216 0 -0.8926646

usemtl ProBuilderDefault
f 3/3/1 4/4/1 2/2/1 1/1/1
f 7/7/2 8/8/2 6/6/2 5/5/2
f 11/10/3 12/3/3 10/1/3 9/9/3
f 15/13/4 16/14/4 14/12/4 13/11/4
f 15/17/5 8/18/5 7/16/5 16/15/5
f 14/15/6 5/20/6 6/19/6 13/17/6
f 1/21/6 2/22/6 5/20/6 14/15/6
f 19/25/4 20/26/4 18/24/4 17/23/4
f 2/27/2 4/28/2 7/7/2 5/5/2
f 4/29/5 3/21/5 16/15/5 7/16/5
f 9/30/6 10/31/6 13/17/6 6/19/6
f 11/32/2 9/33/2 6/6/2 8/8/2
f 23/36/4 24/37/4 22/35/4 21/34/4
f 12/31/5 11/38/5 8/18/5 15/17/5
f 17/41/7 18/42/7 14/40/7 16/39/7
f 19/43/5 17/44/5 16/15/5 3/21/5
f 18/45/6 20/46/6 1/21/6 14/15/6
f 20/49/8 19/50/8 3/48/8 1/47/8
f 21/53/9 22/54/9 15/52/9 13/51/9
f 23/55/6 21/56/6 13/17/6 10/31/6
f 22/57/5 24/58/5 12/31/5 15/17/5
f 24/61/10 23/62/10 10/60/10 12/59/10

