# ProBuilder 4.1.0
# https://unity3d.com/unity/features/worldbuilding/probuilder
# 12/08/2019 10:51:53 PM

mtllib ./GlobePanelB.mtl
o GlobePanelB

g GlobePanelB
v 0 1.240678E-06 -3.966875
v -9.4967 0 0
v 0 1.038312 -3.966875
v -9.4967 1.038312 0
v -9.4967 0 -9.4967
v -9.4967 1.038312 -9.4967
v 0 1.240678E-06 -5.529825
v 0 1.038312 -5.529825

vt 0.1610009 1.306431E-07
vt -0.9227345 0
vt 0.1610009 0.109334
vt -0.9227345 0.109334
vt 0 0
vt -1 0
vt 0 0.109334
vt -1 0.109334
vt 1.308171 0
vt 0.2244353 1.306431E-07
vt 1.308171 0.109334
vt 0.2244353 0.109334
vt 0.5822891 1.306431E-07
vt 0.4177109 1.306431E-07
vt 0.5822891 0.109334
vt 0.4177109 0.109334
vt 0 -0.4177109
vt 1 0
vt 0 -0.5822891
vt 1 -1
vt -1 -1

vn 3.660372 0 8.762933
vn -9.4967 0 0
vn 3.660372 0 -8.762933
vn 9.4967 0 0
vn 0 9.4967 0
vn 1.240678E-06 -9.4967 0

usemtl ProBuilderDefault
f 3/3/1 4/4/1 2/2/1 1/1/1
f 4/7/2 6/8/2 5/6/2 2/5/2
f 6/11/3 8/12/3 7/10/3 5/9/3
f 8/15/4 3/16/4 1/14/4 7/13/4
f 8/19/5 6/20/5 4/18/5 3/17/5
f 1/17/6 2/6/6 5/21/6 7/19/6

