# ProBuilder 4.1.0
# https://unity3d.com/unity/features/worldbuilding/probuilder
# 23/08/2019 12:02:21 PM

mtllib ./ModCatwalk2.mtl
o ModCatwalk2

g ModCatwalk2
v -6.238132 19.62943 28.37494
v -8.546359 19.62943 28.37494
v -6.238132 19.59897 27.37541
v -8.546359 19.59897 27.37541
v -11.88 16.1 26.54736
v -11.88 16.1 21.10066
v -11.88 17.1 26.54736
v -11.88 17.1 21.10066
v -8.546359 19.40895 19.22069
v -6.238132 19.40895 19.22069
v -8.546359 19.49948 20.21659
v -6.238132 19.49948 20.21659
v -2.90449 16.1 21.10066
v -2.90449 16.1 26.54736
v -2.90449 17.1 21.10066
v -2.90449 17.1 26.54736
v -4.726748 14.66487 21.10066
v -10.05774 14.66487 21.10066
v -4.726748 14.66487 26.54736
v -10.05774 14.66487 26.54736
v -4.923244 16.85632 27.22002
v -9.861247 16.85632 27.22002
v -4.923244 17.85632 27.22002
v -9.861247 17.85632 27.22002
v -9.861247 16.85632 20.428
v -4.923244 16.85632 20.428
v -9.861247 17.85632 20.428
v -4.923244 17.85632 20.428
v -4.923244 18.19653 28.37494
v -9.861247 18.19653 28.37494
v -4.923244 18.16606 27.37541
v -9.861247 18.16606 27.37541
v -9.861247 17.97604 19.2207
v -4.923244 17.97604 19.2207
v -9.861247 18.06657 20.2166
v -4.923244 18.06657 20.2166
v -11.56806 15.1997 20.21659
v -11.56806 15.21946 19.2207
v -12.416 14.88692 20.21658
v -12.416 14.90668 19.22069
v -11.56806 15.17134 28.37494
v -11.56806 15.17798 27.37541
v -12.416 14.85855 28.37494
v -12.416 14.8652 27.3754
v -11.56803 18.09619 20.21659
v -11.56803 18.00929 19.2207
v -12.41598 19.47158 20.21658
v -12.41598 19.38468 19.22069
v -11.56803 18.22093 28.37494
v -11.56803 18.19169 27.37541
v -12.41598 19.59632 28.37494
v -12.41598 19.56708 27.3754
v -11.56812 16.56183 20.21659
v -11.56812 16.60674 19.2207
v -12.41606 15.85094 20.21659
v -12.41606 15.89586 19.22069
v -11.56812 16.49736 28.37494
v -11.56812 16.51247 27.37541
v -12.41606 15.78647 28.37494
v -12.41606 15.80159 27.37541

vt -4.641869 3.940672
vt -2.333641 3.940672
vt -4.641869 2.940673
vt -2.333641 2.940673
vt 2.00736 0
vt -3.439342 0
vt 2.00736 1
vt -3.439342 1
vt -2.333641 -4.997883
vt -4.641869 -4.997883
vt -2.333641 -3.997883
vt -4.641869 -3.997883
vt 3.439342 0
vt -2.00736 0
vt 3.439342 1
vt -2.00736 1
vt -7.97551 2.00736
vt 1 2.00736
vt -7.97551 -3.439342
vt 1 -3.439342
vt 6.153252 -3.439342
vt 0.822258 -3.439342
vt 6.153252 2.00736
vt 0.822258 2.00736
vt 7.97551 1.334033
vt -1 1.334033
vt 5.956757 2.346201
vt 1.018753 2.346201
vt 6.931964 1
vt 6.931964 0
vt 4.804094 1.756317
vt 4.804094 0.7563171
vt -0.3141583 0
vt -0.3141583 1
vt 1.813712 0.7563171
vt 1.813712 1.756317
vt 1 2.081259
vt -7.97551 2.081259
vt -1.018753 3.093426
vt -5.956757 3.093426
vt 1 2.285687
vt -7.97551 2.285687
vt -1.018753 3.297854
vt -5.956757 3.297854
vt -0.1385163 1
vt -0.1385163 0
vt -2.266387 1.756317
vt -2.266387 0.7563171
vt -6.47929 0
vt -6.47929 1
vt -4.351419 0.7563171
vt -4.351419 1.756317
vt 7.97551 3.032912
vt -1 3.032912
vt 5.956757 4.045079
vt 1.018753 4.045079
vt 5.956757 2.322453
vt 1.018753 2.322453
vt 5.956757 4.091636
vt 1.018753 4.091636
vt -2.680017 1.756317
vt -2.680017 0.7563171
vt -2.835409 2.066063
vt -3.834944 2.096524
vt 2.680017 0.7563171
vt 2.680017 1.756317
vt 3.834944 2.096524
vt 2.835409 2.066063
vt -1.018753 2.771594
vt -5.956757 2.771594
vt -1.018753 3.118132
vt -5.956757 3.118132
vt 1.018753 -3.529223
vt 5.956757 -3.529223
vt 1.018753 -5.175838
vt 5.956757 -5.175838
vt -4.112 1.756317
vt -4.112 0.7563171
vt -4.323404 1.966574
vt -5.319298 1.876038
vt 4.112 0.7563171
vt 4.112 1.756317
vt 5.319298 1.876038
vt 4.323404 1.966574
vt -5.956757 -4.154047
vt -1.018753 -4.154047
vt -5.956757 -4.452208
vt -1.018753 -4.452208
vt -1.018753 1.876073
vt -5.956757 1.876073
vt -2.333641 3.308982
vt -4.641869 3.308982
vt -0.9571127 -4.311371
vt -0.9502735 -5.307435
vt -1.860908 -4.311378
vt -1.854069 -5.307446
vt 4.805682 -2.919903
vt 3.813236 -2.79722
vt 4.915002 -0.978201
vt 3.922556 -0.8555176
vt 5.956757 1.966602
vt 1.018753 1.966602
vt 4.641869 3.399512
vt 2.333641 3.399512
vt 5.956757 2.096514
vt 1.018753 2.096514
vt 4.641869 3.529424
vt 2.333641 3.529424
vt -3.000819 -2.448884
vt -3.999963 -2.407548
vt -2.964058 -0.5044531
vt -3.963202 -0.4631177
vt -0.9669293 3.838819
vt -0.9646282 2.839265
vt -1.870725 3.838815
vt -1.868423 2.839261
vt -1.018753 2.066055
vt -5.956757 2.066055
vt -2.333641 3.498965
vt -4.641869 3.498965
vt -7.97551 0
vt 1 0
vt -6.153252 -1.435132
vt -0.822258 -1.435132
vt 6.265676 2.00736
vt 6.265676 -3.439342
vt 3.946145 2.00736
vt 3.946145 -3.439342
vt -0.7856146 -3.439342
vt -0.7856146 2.00736
vt 1.533917 -3.439342
vt 1.533917 2.00736
vt -1 0
vt 7.97551 0
vt 0.822258 -1.435132
vt 6.153252 -1.435132
vt 0.9844779 -4.126061
vt 0.9860488 -5.12606
vt -0.7225662 -4.126067
vt -0.7210584 -5.125737
vt -1.535987 3.371617
vt -0.6880407 1.996227
vt 0.6880509 1.909341
vt 1.535997 3.28473
vt -2.354345 -4.99922
vt -2.354913 -3.99922
vt 1.515352 -4.999226
vt 1.514807 -3.999555
vt 0.9886771 3.897458
vt 0.9891126 2.89746
vt -0.7182844 3.897456
vt -0.7178664 2.897495
vt -1.535978 3.496305
vt -0.6880321 2.120915
vt 0.688031 2.091678
vt 1.535977 3.467068
vt -2.362401 2.94008
vt -2.362652 3.940079
vt 1.507352 2.940078
vt 1.507111 3.940039
vt 4.323407 1.996154
vt 5.3193 1.909253
vt 4.323403 0.4617887
vt 5.319294 0.5067039
vt -1.536018 3.371589
vt -1.536102 -0.24905
vt -0.6881555 0.4618331
vt 1.536005 3.284701
vt 0.6881426 0.5067632
vt 1.536089 -0.204119
vt -5.31931 3.284642
vt -4.323416 3.371545
vt -5.319306 -0.2041776
vt -4.323411 -0.2490938
vt -3.834943 2.120893
vt -2.835408 2.091655
vt -3.834945 0.3973225
vt -2.83541 0.4124345
vt -1.53605 -0.313529
vt -0.6881039 0.3973541
vt 0.6881105 0.4124647
vt 1.536057 -0.2984184
vt 2.835404 3.467044
vt 3.834939 3.496283
vt 2.835406 -0.2984494
vt 3.834941 -0.3135614
vt 4.323409 -0.9002673
vt 5.3193 -0.8805053
vt -1.536028 -1.213099
vt -0.6880815 -0.9003152
vt 0.6881165 -0.8805507
vt 1.536063 -1.193334
vt -4.32341 -0.248962
vt -5.319309 -1.193225
vt -4.323413 -1.212988
vt -3.834942 -0.9286335
vt -2.835408 -0.9219845
vt -1.535993 -1.241441
vt -0.6880463 -0.9286573
vt 0.6880476 -0.9220121
vt 1.535994 -1.234795
vt 3.834941 -0.313427
vt 2.835405 -1.234699
vt 3.834939 -1.241348

vn 0 0.9995359 -0.03046135
vn -1 0 0
vn 0 0.9958932 -0.09053609
vn 1 0 0
vn 0 1 0
vn 0 -1 0
vn 0 -0.6645708 0.7472253
vn 0.3161175 0 0.9487201
vn -0.3161175 0 0.9487201
vn 0 0.6645708 -0.7472253
vn 0 -0.6645708 -0.7472253
vn -0.3161175 0 -0.9487201
vn 0.3161175 0 -0.9487201
vn 0 0.6645708 0.7472253
vn 0 -0.6528019 0.7575287
vn 0 0.4484109 -0.8938276
vn 0 -0.7331998 -0.6800132
vn 0 0.7090297 0.7051787
vn 0 -6.655512E-06 -1
vn 0.3460186 -0.938043 -0.01861412
vn 0.7354109 0.6748387 -0.06134921
vn 0 6.655512E-06 1
vn 0.7366424 0.6759686 -0.02060048
vn 0.3460708 -0.9381877 -0.006240931
vn 0.6187162 -0.7856146 0
vn -0.6187162 -0.7856146 0
vn -0.01727968 -0.9957445 0.09052256
vn -0.0183426 -0.9958857 0.08871794
vn -0.01940552 -0.9960269 0.0869133
vn -0.006245197 0.9958737 -0.09053432
vn -0.006713888 0.9960312 -0.08873135
vn -0.007182579 0.9961887 -0.08692838
vn -0.01428934 -0.9994339 0.03045824
vn -0.01464749 -0.9994469 0.02984738
vn -0.01500565 -0.9994599 0.02923651
vn -0.008238208 0.999502 -0.03046032
vn -0.008396249 0.9995189 -0.02984953
vn -0.008554292 0.9995359 -0.02923874

usemtl ProBuilderDefault
f 3/3/1 4/4/1 2/2/1 1/1/1
f 7/7/2 8/8/2 6/6/2 5/5/2
f 11/11/3 12/12/3 10/10/3 9/9/3
f 15/15/4 16/16/4 14/14/4 13/13/4
f 15/19/5 8/20/5 7/18/5 16/17/5
f 19/23/6 20/24/6 18/22/6 17/21/6
f 21/27/7 22/28/7 5/26/7 14/25/7
f 23/31/8 21/32/8 14/30/8 16/29/8
f 22/35/9 24/36/9 7/34/9 5/33/9
f 24/39/10 23/40/10 16/38/10 7/37/10
f 25/43/11 26/44/11 13/42/11 6/41/11
f 27/47/12 25/48/12 6/46/12 8/45/12
f 26/51/13 28/52/13 15/50/13 13/49/13
f 28/55/14 27/56/14 8/54/14 15/53/14
f 29/59/15 30/60/15 22/58/15 21/57/15
f 31/63/4 29/64/4 21/62/4 23/61/4
f 30/67/2 32/68/2 24/66/2 22/65/2
f 32/71/16 31/72/16 23/70/16 24/69/16
f 33/75/17 34/76/17 26/74/17 25/73/17
f 35/79/2 33/80/2 25/78/2 27/77/2
f 34/83/4 36/84/4 28/82/4 26/81/4
f 36/87/18 35/88/18 27/86/18 28/85/18
f 9/91/19 10/92/19 34/90/19 33/89/19
f 39/95/20 40/96/20 38/94/20 37/93/20
f 10/99/21 12/100/21 36/98/21 34/97/21
f 12/103/22 11/104/22 35/102/22 36/101/22
f 1/107/22 2/108/22 30/106/22 29/105/22
f 3/111/23 1/112/23 29/110/23 31/109/23
f 43/115/24 44/116/24 42/114/24 41/113/24
f 4/119/19 3/120/19 31/118/19 32/117/19
f 17/123/19 18/124/19 6/122/19 13/121/19
f 19/127/25 17/128/25 13/126/25 14/125/25
f 18/131/26 20/132/26 5/130/26 6/129/26
f 20/135/22 19/136/22 14/134/22 5/133/22
f 45/139/28 46/140/29 33/138/28 35/137/27
f 47/141/22 45/142/22 35/102/22 11/104/22
f 46/143/19 48/144/19 9/91/19 33/89/19
f 48/147/31 47/148/32 11/146/31 9/145/30
f 49/151/34 50/152/35 32/150/34 30/149/33
f 51/153/22 49/154/22 30/106/22 2/108/22
f 50/155/19 52/156/19 4/119/19 32/117/19
f 52/159/37 51/160/38 2/158/37 4/157/36
f 53/163/4 54/164/4 46/162/4 45/161/4
f 55/166/22 53/167/22 45/142/22 47/165/22
f 54/169/19 56/170/19 48/168/19 46/143/19
f 56/173/2 55/174/2 47/172/2 48/171/2
f 57/177/4 58/178/4 50/176/4 49/175/4
f 59/179/22 57/180/22 49/154/22 51/153/22
f 58/181/19 60/182/19 52/156/19 50/155/19
f 60/185/2 59/186/2 51/184/2 52/183/2
f 37/187/4 38/188/4 54/164/4 53/163/4
f 39/189/22 37/190/22 53/167/22 55/166/22
f 38/191/19 40/192/19 56/170/19 54/169/19
f 40/194/2 39/195/2 55/193/2 56/173/2
f 41/196/4 42/197/4 58/178/4 57/177/4
f 43/198/22 41/199/22 57/180/22 59/179/22
f 42/200/19 44/201/19 60/182/19 58/181/19
f 44/203/2 43/204/2 59/202/2 60/185/2

