# ProBuilder 4.1.0
# https://unity3d.com/unity/features/worldbuilding/probuilder
# 11/09/2019 10:45:53 PM

mtllib ./Overhang3.mtl
o Overhang3

g Overhang3
v 0 -0.2442446 0
v -1 -0.2442446 0
v 0.3438044 1 0.3438039
v -1.343804 1 0.3438039
v -1 -0.2442446 -1
v -1.343804 1 -1.343804
v 0 -0.2442446 -1
v 0.3438044 1 -1.343804
v 0.003430367 -4.613784 -1.003431
v -1.00343 -4.613784 -1.003431
v 0.003430367 -4.613784 0.00343132
v -1.00343 -4.613784 0.00343132
v -0.09500027 -2.713913 -0.9050002
v -0.9049997 -2.713913 -0.9050002
v -0.09500027 -2.713913 -0.09499979
v -0.9049997 -2.713913 -0.09499979
v 0.2712307 -3.338192 -1.271232
v -1.271231 -3.338192 -1.271232
v 0.2712307 -3.338192 0.2712321
v -1.271231 -3.338192 0.2712321

vt 0 -0.2354226
vt -1 -0.2354226
vt 0.3438044 1.055448
vt -1.343804 1.055448
vt 0 0.03091277
vt -1 0.03091277
vt 0.3438039 1.321783
vt -1.343804 1.321783
vt 1 0.03091239
vt 1.343804 1.321782
vt -0.3438044 1.321782
vt 1 -0.2354226
vt 1.343804 1.055448
vt -0.3438039 1.055448
vt -0.3438044 0.3438039
vt 1.343804 0.3438039
vt -0.3438044 -1.343804
vt 1.343804 -1.343804
vt 0.003430367 -1.003431
vt -1.00343 -1.003431
vt 0.003430367 0.00343132
vt -1.00343 0.00343132
vt 0 -0.2056259
vt 1 -0.2056259
vt 0.09500027 -2.677121
vt 0.9049997 -2.677121
vt 0 -0.2440641
vt 1 -0.2440641
vt 0.09499979 -2.715559
vt 0.9050002 -2.715559
vt -1 -0.2056257
vt -0.9050002 -2.67712
vt -0.09499979 -2.67712
vt -1 -0.2440641
vt -0.9049997 -2.715559
vt -0.09500027 -2.715559
vt 0.09500027 -2.798769
vt 0.9049997 -2.798769
vt -0.2712307 -3.522544
vt 1.271231 -3.522544
vt 0.09499979 -2.292768
vt 0.9050002 -2.292768
vt -0.2712321 -3.016542
vt 1.271232 -3.016542
vt -0.9050002 -2.798769
vt -0.09499979 -2.798769
vt -1.271232 -3.522544
vt 0.2712321 -3.522544
vt -0.9049997 -2.292767
vt -0.09500027 -2.292767
vt -1.271231 -3.016542
vt 0.2712307 -3.016542
vt -0.2712307 -3.00578
vt 1.271231 -3.00578
vt -0.003430367 -4.30918
vt 1.00343 -4.30918
vt -0.2712321 -3.211243
vt 1.271232 -3.211243
vt -0.00343132 -4.514643
vt 1.003431 -4.514643
vt -1.271232 -3.00578
vt 0.2712321 -3.00578
vt -1.003431 -4.30918
vt 0.00343132 -4.30918
vt -1.271231 -3.211243
vt 0.2712307 -3.211243
vt -1.00343 -4.514643
vt 0.003430367 -4.514643

vn 0 -0.266335 0.9638805
vn -0.9638804 -0.2663353 0
vn 0 -0.266335 -0.9638805
vn 0.9638804 -0.2663353 0
vn 0 1 0
vn 0 -1 0
vn 0 -0.03843819 -0.999261
vn 0.999261 -0.03843838 0
vn -0.999261 -0.03843838 0
vn 0 -0.03843819 0.999261
vn 0 0.5060025 -0.862532
vn 0.8625326 0.5060015 0
vn -0.8625326 0.5060015 0
vn 0 0.5060025 0.862532
vn 0 -0.2054632 -0.9786648
vn 0.9786649 -0.2054629 0
vn -0.9786649 -0.2054629 0
vn 0 -0.2054632 0.9786648

usemtl ProBuilderDefault
f 3/3/1 4/4/1 2/2/1 1/1/1
f 4/7/2 6/8/2 5/6/2 2/5/2
f 6/10/3 8/11/3 7/5/3 5/9/3
f 8/13/4 3/14/4 1/1/4 7/12/4
f 8/17/5 6/18/5 4/16/5 3/15/5
f 11/21/6 12/22/6 10/20/6 9/19/6
f 13/25/7 14/26/7 5/24/7 7/23/7
f 15/29/8 13/30/8 7/28/8 1/27/8
f 14/32/9 16/33/9 2/23/9 5/31/9
f 16/35/10 15/36/10 1/27/10 2/34/10
f 17/39/11 18/40/11 14/38/11 13/37/11
f 19/43/12 17/44/12 13/42/12 15/41/12
f 18/47/13 20/48/13 16/46/13 14/45/13
f 20/51/14 19/52/14 15/50/14 16/49/14
f 9/55/15 10/56/15 18/54/15 17/53/15
f 11/59/16 9/60/16 17/58/16 19/57/16
f 10/63/17 12/64/17 20/62/17 18/61/17
f 12/67/18 11/68/18 19/66/18 20/65/18

