# ProBuilder 4.1.0
# https://unity3d.com/unity/features/worldbuilding/probuilder
# 11/09/2019 10:46:12 PM

mtllib ./Overhang6.mtl
o Overhang6

g Overhang6
v 0 0.4156933 0
v -1 0.4156933 0
v 1.24947 2.814589 1.249468
v -2.24947 2.814589 1.249468
v -1 0.4156933 -1
v -2.24947 2.814589 -2.249469
v 0 0.4156933 -1
v 1.24947 2.814589 -2.249469
v 0.2077713 -6.790134 -1.207773
v -1.207771 -6.790134 -1.207773
v 0.2077713 -6.790134 0.2077732
v -1.207771 -6.790134 0.2077732
v 1.003059 -4.628439 -2.00306
v -2.003059 -4.628439 -2.00306
v 1.003059 -4.628439 1.00306
v -2.003059 -4.628439 1.00306

vt 0 0.3686815
vt -1 0.3686815
vt 1.24947 3.073468
vt -2.24947 3.073468
vt 0 0.8306289
vt -1 0.8306289
vt 1.249468 3.535416
vt -2.249469 3.535416
vt 1 0.8306287
vt 2.24947 3.535415
vt -1.24947 3.535415
vt 1 0.3686814
vt 2.249469 3.073468
vt -1.249468 3.073468
vt -1.24947 1.249468
vt 2.24947 1.249468
vt -1.24947 -2.249469
vt 2.24947 -2.249469
vt 0.2077713 -1.207773
vt -1.207771 -1.207773
vt 0.2077713 0.2077732
vt -1.207771 0.2077732
vt 0 0.2126722
vt 1 0.2126722
vt -1.003059 -4.930226
vt 2.003059 -4.930226
vt 0 0.4077102
vt 1 0.4077102
vt -1.00306 -4.735188
vt 2.00306 -4.735188
vt -1 0.2126724
vt -2.00306 -4.930225
vt 1.00306 -4.930225
vt -1 0.4077102
vt -2.003059 -4.735188
vt 1.003059 -4.735188
vt -1.003059 -3.652192
vt 2.003059 -3.652192
vt -0.2077713 -5.95554
vt 1.207771 -5.95554
vt -1.00306 -3.997466
vt 2.00306 -3.997466
vt -0.2077732 -6.300814
vt 1.207773 -6.300814
vt -2.00306 -3.652191
vt 1.00306 -3.652191
vt -1.207773 -5.955539
vt 0.2077732 -5.955539
vt -2.003059 -3.997467
vt 1.003059 -3.997467
vt -1.207771 -6.300814
vt 0.2077713 -6.300814

vn 0 -0.461947 0.8869075
vn -0.8869073 -0.4619476 0
vn 0 -0.4619473 -0.8869074
vn 0.8869073 -0.4619476 0
vn 0 1 0
vn 0 -1 0
vn 0 0.195038 -0.9807957
vn 0.9807957 0.1950378 0
vn -0.9807957 0.1950378 0
vn 0 0.195038 0.9807957
vn 0 -0.3452745 -0.9385018
vn 0.9385016 -0.3452749 0
vn -0.9385016 -0.3452749 0
vn 0 -0.3452745 0.9385018

usemtl ProBuilderDefault
f 3/3/1 4/4/1 2/2/1 1/1/1
f 4/7/2 6/8/2 5/6/2 2/5/2
f 6/10/3 8/11/3 7/5/3 5/9/3
f 8/13/4 3/14/4 1/1/4 7/12/4
f 8/17/5 6/18/5 4/16/5 3/15/5
f 11/21/6 12/22/6 10/20/6 9/19/6
f 13/25/7 14/26/7 5/24/7 7/23/7
f 15/29/8 13/30/8 7/28/8 1/27/8
f 14/32/9 16/33/9 2/23/9 5/31/9
f 16/35/10 15/36/10 1/27/10 2/34/10
f 9/39/11 10/40/11 14/38/11 13/37/11
f 11/43/12 9/44/12 13/42/12 15/41/12
f 10/47/13 12/48/13 16/46/13 14/45/13
f 12/51/14 11/52/14 15/50/14 16/49/14

