# ProBuilder 4.1.0
# https://unity3d.com/unity/features/worldbuilding/probuilder
# 11/09/2019 10:45:58 PM

mtllib ./Overhang4.mtl
o Overhang4

g Overhang4
v 0 -3.116301 0
v -1 -3.116301 0
v 0.5012856 1 0.5012856
v -1.501286 1 0.5012856
v -1 -3.116301 -1
v -1.501286 1 -1.501286
v 0 -3.116301 -1
v 0.5012856 1 -1.501286
v -0.1090469 -5.531633 -0.8909531
v -0.8909531 -5.531633 -0.8909531
v -0.1090469 -5.531633 -0.1090469
v -0.8909531 -5.531633 -0.1090469
v 0.1305037 -4.310981 -1.130504
v -1.130504 -4.310981 -1.130504
v 0.1305037 -4.310981 0.1305046
v -1.130504 -4.310981 0.1305046

vt 0 -3.093446
vt -1 -3.093446
vt 0.5012856 1.053265
vt -1.501286 1.053265
vt 0 -2.972559
vt -1 -2.972559
vt 0.5012856 1.174153
vt -1.501286 1.174153
vt 1 -2.972559
vt 1.501286 1.174153
vt -0.5012856 1.174153
vt 1 -3.093446
vt 1.501286 1.053265
vt -0.5012856 1.053265
vt -0.5012856 0.5012856
vt 1.501286 0.5012856
vt -0.5012856 -1.501286
vt 1.501286 -1.501286
vt -0.1090469 -0.8909531
vt -0.8909531 -0.8909531
vt -0.1090469 -0.1090469
vt -0.8909531 -0.1090469
vt 0 -3.206464
vt 1 -3.206464
vt -0.1305037 -4.40825
vt 1.130504 -4.40825
vt 0 -3.097872
vt 1 -3.097872
vt -0.1305046 -4.299659
vt 1.130504 -4.299659
vt -1 -3.206464
vt -1.130504 -4.40825
vt 0.1305046 -4.40825
vt -1 -3.097872
vt -1.130504 -4.299659
vt 0.1305037 -4.299659
vt -0.1305037 -4.012583
vt 1.130504 -4.012583
vt 0.1090469 -5.256519
vt 0.8909531 -5.256519
vt -0.1305046 -4.205157
vt 1.130504 -4.205157
vt 0.1090469 -5.449093
vt 0.8909531 -5.449093
vt -1.130504 -4.012583
vt 0.1305046 -4.012583
vt -0.8909531 -5.256519
vt -0.1090469 -5.256519
vt -1.130504 -4.205157
vt 0.1305037 -4.205157
vt -0.8909531 -5.449093
vt -0.1090469 -5.449093

vn 0 -0.1208875 0.9926662
vn -0.9926662 -0.1208875 0
vn 0 -0.1208875 -0.9926662
vn 0.9926662 -0.1208875 0
vn 0 1 0
vn 0 -1 0
vn 0 0.1085913 -0.9940865
vn 0.9940865 0.1085913 0
vn -0.9940865 0.1085913 0
vn 0 0.1085921 0.9940864
vn 0 -0.1925747 -0.9812824
vn 0.9812824 -0.1925747 0
vn -0.9812824 -0.1925747 0
vn 0 -0.1925754 0.9812822

usemtl ProBuilderDefault
f 3/3/1 4/4/1 2/2/1 1/1/1
f 4/7/2 6/8/2 5/6/2 2/5/2
f 6/10/3 8/11/3 7/5/3 5/9/3
f 8/13/4 3/14/4 1/1/4 7/12/4
f 8/17/5 6/18/5 4/16/5 3/15/5
f 11/21/6 12/22/6 10/20/6 9/19/6
f 13/25/7 14/26/7 5/24/7 7/23/7
f 15/29/8 13/30/8 7/28/8 1/27/8
f 14/32/9 16/33/9 2/23/9 5/31/9
f 16/35/10 15/36/10 1/27/10 2/34/10
f 9/39/11 10/40/11 14/38/11 13/37/11
f 11/43/12 9/44/12 13/42/12 15/41/12
f 10/47/13 12/48/13 16/46/13 14/45/13
f 12/51/14 11/52/14 15/50/14 16/49/14

