# ProBuilder 4.1.0
# https://unity3d.com/unity/features/worldbuilding/probuilder
# 11/09/2019 10:46:06 PM

mtllib ./Overhang5.mtl
o Overhang5

g Overhang5
v 0.1976185 0.6280537 0.1976185
v -1.197618 0.6280537 0.1976185
v 1.203068 3.933548 1.203069
v -2.203068 3.933548 1.203069
v -1.197618 0.6280537 -1.197618
v -2.203068 3.933548 -2.203069
v 0.1976185 0.6280537 -1.197618
v 1.203068 3.933548 -2.203069
v 0.02025795 -2.676221 -1.020258
v -1.020258 -2.676221 -1.020258
v 0.02025795 -2.676221 0.02025795
v -1.020258 -2.676221 0.02025795

vt 0.1976185 0.6583804
vt -1.197618 0.6583804
vt 1.203068 4.113409
vt -2.203068 4.113409
vt 0.1976185 0.9493909
vt -1.197618 0.9493909
vt 1.203069 4.404419
vt -2.203069 4.404419
vt 1.197618 0.9493911
vt -0.1976185 0.9493911
vt 2.203068 4.40442
vt -1.203068 4.40442
vt 1.197618 0.6583804
vt -0.1976185 0.6583804
vt 2.203069 4.113409
vt -1.203069 4.113409
vt -1.203068 1.203069
vt 2.203068 1.203069
vt -1.203068 -2.203069
vt 2.203068 -2.203069
vt 0.02025795 -1.020258
vt -1.020258 -1.020258
vt 0.02025795 0.02025795
vt -1.020258 0.02025795
vt -0.1976185 0.6913419
vt 1.197618 0.6913419
vt -0.02025795 -2.617689
vt 1.020258 -2.617689
vt -0.1976185 0.637743
vt 1.197618 0.637743
vt -0.02025795 -2.671288
vt 1.020258 -2.671288
vt -1.197618 0.6913419
vt 0.1976185 0.6913419
vt -1.020258 -2.617689
vt 0.02025795 -2.617689
vt -1.197618 0.637743
vt 0.1976185 0.637743
vt -1.020258 -2.671288
vt 0.02025795 -2.671288

vn 0 -0.2910107 0.9567198
vn -0.9567199 -0.2910104 0
vn 0 -0.2910107 -0.9567198
vn 0.9567199 -0.2910104 0
vn 0 1 0
vn 0 -1 0
vn 0 -0.05359893 -0.9985625
vn 0.9985625 -0.05359893 0
vn -0.9985625 -0.05359893 0
vn 0 -0.05359893 0.9985625

usemtl ProBuilderDefault
f 3/3/1 4/4/1 2/2/1 1/1/1
f 4/7/2 6/8/2 5/6/2 2/5/2
f 6/11/3 8/12/3 7/10/3 5/9/3
f 8/15/4 3/16/4 1/14/4 7/13/4
f 8/19/5 6/20/5 4/18/5 3/17/5
f 11/23/6 12/24/6 10/22/6 9/21/6
f 9/27/7 10/28/7 5/26/7 7/25/7
f 11/31/8 9/32/8 7/30/8 1/29/8
f 10/35/9 12/36/9 2/34/9 5/33/9
f 12/39/10 11/40/10 1/38/10 2/37/10

