# ProBuilder 4.1.0
# https://unity3d.com/unity/features/worldbuilding/probuilder
# 23/08/2019 2:11:37 PM

mtllib ./World1Patch5.mtl
o World1Patch5

g World1Patch5
v -70.46044 8.884231 22.17769
v -72.54464 8.884231 22.17769
v -70.46044 17.72651 22.13627
v -72.24572 17.72651 22.13627
v -74.93668 2.737068 14.33698
v -74.93668 -3.341724 8.263888
v -74.5443 11.29118 13.63376
v -74.93668 5.501408 8.263888
v -73.01 -3.341724 8.263888
v -73.01 5.501408 8.263888
v -67.37096 2.737068 14.33698
v -67.37096 11.29118 13.63376
v -65.19744 6.984969 18.8047
v -73.94714 6.984969 18.8047
v -65.19744 15.53908 18.10148
v -73.24592 15.53908 18.10148
v -69.05795 8.223504 20.32339
v -73.94714 8.223504 20.32339
v -69.05795 17.06578 20.28196
v -73.24592 17.06578 20.28196

vt 2.549561 -3.731344
vt 0.4653625 -3.731344
vt 2.549561 5.111027
vt 0.7642822 5.111027
vt -2.28923 -9.929804
vt -8.356859 -16.01404
vt -3.008442 -1.368027
vt -8.356859 -7.17883
vt 1.926682 -15.93172
vt 0 -15.93172
vt 1.926682 -7.088593
vt 0 -7.088593
vt 6.189385 -15.93172
vt -2.098023 -9.852932
vt 6.189385 -7.088593
vt -1.582702 -1.29882
vt -5.639038 -3.044189
vt 1.534302 -3.044189
vt 0 -10.94083
vt 1.926682 -10.94083
vt 0 -17.24022
vt -1.926682 -17.24022
vt 5.639038 -8.647539
vt -1.926682 -8.647539
vt 5.639038 -8.508953
vt -1.926682 -8.508953
vt 7.812561 -2.344118
vt -0.9371338 -2.344118
vt 0.4846983 -1.081632
vt -0.1562822 -9.640633
vt -4.481597 3.168696
vt -5.122578 -5.390304
vt -2.654998 -9.924706
vt -3.28496 -1.355899
vt 1.914212 -5.669507
vt 1.334522 2.917137
vt 1.534302 -3.124338
vt -5.639038 -3.124338
vt 0.2359161 3.040497
vt -7.812561 3.040497
vt 7.812561 -1.919091
vt -0.9371338 -1.919091
vt 3.952057 0.0406013
vt -0.9371338 0.0406013
vt 5.993548 2.575615
vt 5.632935 -5.999774
vt 1.561125 4.10611
vt 1.539881 -4.716728
vt 2.149195 -5.650117
vt 1.403512 2.929101
vt 3.664916 -4.407947
vt 3.579724 4.461754
vt 0.2359161 2.831315
vt -7.812561 2.831315
vt 0.2359161 5.493136
vt -3.952057 5.493136
vt 3.952057 1.938156
vt -0.9371338 1.938156
vt 2.549561 3.906662
vt 0.4653625 3.906662
vt -0.4691124 4.460779
vt -0.5021721 -4.38153
vt -2.794074 5.12151
vt -2.827134 -3.7208
vt 2.371832 -4.549176
vt 2.750612 4.312864
vt 4.696375 -3.886972
vt 4.838619 4.953347
vt 0.2359161 4.867033
vt -3.952057 4.867033
vt -0.7642822 6.835539
vt -2.549561 6.835539

vn 0 0.004684909 0.999989
vn -0.9982069 0.04230685 -0.0423466
vn -0.9977739 0.02115343 0.01526484
vn -0.997341 0 0.07287628
vn 0 0 -1
vn 0.7328089 0 -0.6804345
vn 0.725681 -0.02849043 -0.6867842
vn 0.7185531 -0.05698086 -0.693134
vn 0 0.6800197 -0.7331939
vn 0 -0.7067747 0.7074388
vn 0 -0.7247105 0.6890535
vn 0.9109824 -0.03379214 -0.4110588
vn -0.9849705 0.05853964 0.1625001
vn -0.9807723 0.07721485 0.1775674
vn -0.9765741 0.09589007 0.1926348
vn 0 0.7247104 -0.6890535
vn 0 -0.7749645 0.6320048
vn 0.5115353 0.07040038 0.8563734
vn 0.4394129 0.03737892 0.8932347
vn 0.3672904 0.004357463 0.930096
vn -0.9951224 0.07644916 -0.06234638
vn -0.9952496 0.07756366 -0.05871707
vn -0.9953769 0.07867815 -0.05508776
vn 0 0.819168 -0.5735536
vn 0 -0.9419872 0.3356488
vn 0.7980449 0.002823117 0.6025915
vn -0.807085 0.06675259 0.5866497
vn -0.8457463 0.04941601 0.5261307
vn -0.8844075 0.03207943 0.4656118
vn 0 0.9419871 -0.3356492

usemtl ProBuilderDefault
f 3/3/1 4/4/1 2/2/1 1/1/1
f 7/7/3 8/8/4 6/6/3 5/5/2
f 8/11/5 10/12/5 9/10/5 6/9/5
f 10/15/7 12/16/8 11/14/7 9/13/6
f 10/19/9 8/20/9 7/18/9 12/17/9
f 11/23/10 5/24/10 6/22/10 9/21/10
f 13/27/11 14/28/11 5/26/11 11/25/11
f 15/31/12 13/32/12 11/30/12 12/29/12
f 14/35/14 16/36/15 7/34/14 5/33/13
f 16/39/16 15/40/16 12/38/16 7/37/16
f 17/43/17 18/44/17 14/42/17 13/41/17
f 19/47/19 17/48/20 13/46/19 15/45/18
f 18/51/22 20/52/23 16/50/22 14/49/21
f 20/55/24 19/56/24 15/54/24 16/53/24
f 1/59/25 2/60/25 18/58/25 17/57/25
f 3/63/26 1/64/26 17/62/26 19/61/26
f 2/67/28 4/68/29 20/66/28 18/65/27
f 4/71/30 3/72/30 19/70/30 20/69/30

