# ProBuilder 4.1.0
# https://unity3d.com/unity/features/worldbuilding/probuilder
# 23/08/2019 2:34:44 PM

mtllib ./World1Patch7.mtl
o World1Patch7

g World1Patch7
v -57.76068 3.099404 52.14768
v -61.73997 3.099404 52.14768
v -57.76068 5.489141 54.1079
v -61.73997 5.489141 54.1079
v -64.44606 3.83044 50.86687
v -64.89487 6.760272 45.5004
v -64.44606 6.356061 52.48125
v -64.89487 9.066003 47.31178
v -63.65016 11.31693 39.36529
v -61.05119 11.31693 39.36529
v -63.65016 13.46492 41.09585
v -61.05119 13.46492 41.09585
v -61.54225 6.760272 45.5004
v -60.46677 3.83044 50.86687
v -61.54225 9.066003 47.31178
v -60.46677 6.356061 52.48125
v -41.33298 7.669368 52.9996
v -41.33298 5.542342 51.26598
v -41.48349 6.258679 54.10554
v -41.48349 4.282522 52.19059
v -55.68196 6.952006 52.59834
v -55.68196 4.088696 50.92442
v -51.98436 4.553917 55.46344
v -51.98436 1.876282 53.31697
v -47.67168 7.20911 53.00362
v -47.67168 4.47932 50.94531
v -47.99562 4.172724 55.38405
v -47.99562 1.767666 52.93544
v -51.3398 -0.7531605 53.56187
v -51.3398 1.577484 55.48386
v -48.64018 -0.8266716 53.30365
v -48.64018 1.319488 55.43012

vt 3.629318 -2.340813
vt -0.3499756 -2.340813
vt 3.629318 0.7500291
vt -0.3499756 0.7500291
vt -1.719291 -1.971129
vt -7.103249 0.960994
vt -0.1080048 0.5564675
vt -5.29535 3.269354
vt 2.260162 -3.975086
vt -0.3388062 -3.975086
vt 2.260162 -1.216702
vt -0.3388062 -1.216702
vt 6.853868 0.747719
vt 1.390035 -2.199503
vt 5.060054 3.067136
vt -0.2086974 0.335539
vt -0.923233 -0.1304952
vt 3.056061 -0.1304952
vt 0.1522522 -5.967216
vt 3.504868 -5.967216
vt -0.1522522 -6.458508
vt -3.504868 -6.458508
vt 0.923233 -0.3443514
vt -3.056061 -0.3443514
vt -3.504868 -6.03999
vt -0.1522522 -6.03999
vt -2.260162 -13.68216
vt 0.3388062 -13.68216
vt -4.599234 2.718664
vt -6.395788 0.4013689
vt -10.92319 7.139641
vt -12.63959 4.980334
vt 6.883113 0.8197828
vt 5.074052 3.127327
vt 13.03519 5.380027
vt 11.30684 7.529788
vt 0.1522522 -5.970722
vt 3.504868 -5.970722
vt -0.3388062 -13.58572
vt 2.260162 -13.58572
vt 0.923233 -0.2957095
vt -3.056061 -0.2957095
vt 3.629318 1.179038
vt -0.3499756 1.179038
vt 0.7370653 2.833312
vt 2.466842 0.7031566
vt -0.3764396 1.420547
vt 1.534267 -0.559615
vt -3.398933 -1.665737
vt -2.522947 1.200905
vt -0.4308853 -2.49548
vt 0.6327586 0.3888612
vt 3.056061 -0.1333848
vt -0.923233 -0.1333848
vt 0.3499756 1.709856
vt -3.629318 1.709856
vt -0.9173588 0.4385718
vt -1.006245 -2.557607
vt -5.688459 1.145549
vt -5.780624 -2.167266
vt -3.648699 1.651745
vt -0.8952488 -0.1199611
vt -9.470915 3.128169
vt -5.635394 -0.362581
vt 0.7912535 -0.0247712
vt 3.446536 1.539599
vt 5.582854 0.04550887
vt 9.135431 3.404483
vt 3.308161 -3.159151
vt 3.998236 -0.1463284
vt 9.126347 -4.701183
vt 9.881991 -1.353837
vt -5.711459 0.8994344
vt -5.658203 -2.416846
vt -13.73058 1.197212
vt -13.6651 -2.197615
vt -9.498424 2.710039
vt -5.561925 -0.7736256
vt -13.50496 2.613507
vt -13.49672 -1.081303
vt -5.625167 -0.05351143
vt -9.440211 -3.173892
vt -13.62605 0.4974224
vt -13.40424 -2.838453
vt 9.938571 -3.951819
vt 9.798265 -0.9341606
vt 12.64983 -4.046999
vt 12.4946 -1.042279
vt -13.66395 1.848644
vt -13.77777 -1.568291
vt -19.99317 2.424758
vt -20.08904 -0.3156392
vt 13.54189 -2.747101
vt 13.73049 1.12013
vt 19.97116 -0.09036753
vt 20.05879 1.706329
vt -13.25399 1.126819
vt -13.2823 -2.252208
vt -19.5514 2.451465
vt -19.56454 0.8815842
vt 10.13477 -5.996795
vt 11.2078 -2.736642
vt 17.08485 -6.988516
vt 17.96653 -4.3826
vt 3.369587 -5.785464
vt 5.43978 -3.048422
vt 3.776093 -8.473243
vt 5.629776 -6.087953
vt -13.27675 -4.338965
vt -9.269824 -4.229611
vt -12.59909 -6.950939
vt -9.88717 -6.876928
vt 9.339269 -1.403163
vt 13.3288 -1.784382
vt 9.98326 -4.379791
vt 12.68341 -4.637804
vt -0.05706247 1.205924
vt 2.33515 -1.255239
vt -0.2396159 -1.713873
vt 1.83788 -3.907445

vn 0 -0.6342027 0.7731668
vn -0.997304 -0.03952142 0.0618294
vn -0.9971302 -0.04384183 0.06156806
vn -0.9969563 -0.04816224 0.06130672
vn 0 0.6273819 -0.7787117
vn 0.984464 0.1084709 -0.1380749
vn 0.9838942 0.1032082 -0.1456529
vn 0.9833245 0.09794543 -0.153231
vn 0 0.8856822 0.4642919
vn 0 -0.8777122 -0.4791882
vn 0 -0.8027971 -0.5962523
vn -0.986871 0.09977534 -0.1270061
vn -0.9869228 0.1003531 -0.1261412
vn -0.9869746 0.1009309 -0.1252763
vn 0.9979405 -0.03962802 0.05044333
vn 0.9979299 -0.04003977 0.05032604
vn 0 0.816274 0.5776649
vn 0 -0.8684926 -0.4957022
vn 0.9963155 -0.0541836 0.06647921
vn 0.9957888 -0.06092223 0.06815125
vn 0.9952621 -0.06766085 0.06982329
vn -0.4780641 -0.4730448 0.7400563
vn -0.5167455 -0.5002129 0.6914976
vn -0.5554268 -0.527381 0.6429388
vn 0 0.8824937 0.4703242
vn -0.04641207 0.5379957 -0.841669
vn -0.03163418 0.5213085 -0.8524226
vn -0.01685629 0.5046214 -0.8631762
vn 0.05538118 0.9164532 0.3962909
vn -0.02418073 0.8045907 0.5549945
vn -0.1037426 0.6927282 0.7136981
vn 0.05100978 -0.8171463 -0.574169
vn 0.01202311 -0.7857566 -0.615034
vn -0.02696355 -0.7543669 -0.655899
vn -0.2792338 -0.6089761 0.7424127
vn -0.2763796 -0.6052973 0.7464527
vn -0.2735255 -0.6016184 0.7504926
vn 0.02746971 0.5045027 -0.862973
vn 0.0001016315 0.5531651 -0.8305668
vn -0.02726644 0.6018275 -0.7981605
vn 0.08945461 0.8175617 0.5688503
vn 0.01498496 0.7186819 0.6756754
vn -0.05948469 0.6198022 0.7825004
vn 0.03623556 -0.7051876 -0.7080942
vn -0.02844488 -0.6435161 -0.7580225
vn -0.09312532 -0.5818446 -0.8079509
vn 0.05638044 -0.6352149 0.7702748
vn 0.001664903 -0.6690328 0.7398156
vn -0.05305063 -0.7028508 0.7093564
vn -0.04417823 0.6014636 -0.7976778
vn -0.05538383 0.6159209 -0.7855524
vn -0.06658944 0.6303782 -0.7734269
vn -0.04447103 0.6192957 0.7838975
vn 0.1400366 -0.5966583 -0.7901825
vn 0.3350966 -0.6721758 0.6602197
vn 0.3385292 -0.6630608 0.6675328
vn 0.3419617 -0.6539458 0.6748459
vn -0.9435279 -0.2072142 0.2584906
vn -0.9455005 -0.205351 0.2526221
vn -0.9474732 -0.2034879 0.2467536
vn -0.09770346 -0.1160105 -0.9884309
vn 0.0209878 0.01140108 0.9997147
vn 0.9546954 -0.2123039 0.2085276
vn 0.9550932 -0.2099758 0.2090487
vn 0.955491 -0.2076477 0.2095697

usemtl ProBuilderDefault
f 3/3/1 4/4/1 2/2/1 1/1/1
f 7/7/3 8/8/4 6/6/3 5/5/2
f 11/11/5 12/12/5 10/10/5 9/9/5
f 15/15/7 16/16/8 14/14/7 13/13/6
f 15/19/9 8/20/9 7/18/9 16/17/9
f 14/23/10 5/24/10 6/22/10 13/21/10
f 9/27/11 10/28/11 13/26/11 6/25/11
f 11/31/13 9/32/14 6/30/13 8/29/12
f 10/35/16 12/36/16 15/34/16 13/33/15
f 12/39/17 11/40/17 8/38/17 15/37/17
f 1/43/18 2/44/18 5/42/18 14/41/18
f 19/47/20 20/48/21 18/46/20 17/45/19
f 2/51/23 4/52/24 7/50/23 5/49/22
f 4/55/25 3/56/25 16/54/25 7/53/25
f 21/59/27 22/60/28 14/58/27 16/57/26
f 23/63/30 21/64/31 16/62/30 3/61/29
f 22/67/33 24/68/34 1/66/33 14/65/32
f 24/71/36 23/72/37 3/70/36 1/69/35
f 25/75/39 26/76/40 22/74/39 21/73/38
f 27/79/42 25/80/43 21/78/42 23/77/41
f 26/83/45 28/84/46 24/82/45 22/81/44
f 31/87/48 32/88/49 30/86/48 29/85/47
f 17/91/51 18/92/52 26/90/51 25/89/50
f 19/95/53 17/96/53 25/94/53 27/93/53
f 18/99/54 20/100/54 28/98/54 26/97/54
f 20/103/56 19/104/57 27/102/56 28/101/55
f 29/107/59 30/108/60 23/106/59 24/105/58
f 31/111/61 29/112/61 24/110/61 28/109/61
f 30/115/62 32/116/62 27/114/62 23/113/62
f 32/119/64 31/120/65 28/118/64 27/117/63

