# ProBuilder 4.1.0
# https://unity3d.com/unity/features/worldbuilding/probuilder
# 23/08/2019 2:11:29 PM

mtllib ./World1Patch4.mtl
o World1Patch4

g World1Patch4
v -67.0893 14.90112 43.35353
v -70.0736 14.22322 43.35353
v -67.0893 19.67791 43.35353
v -70.0736 19 43.35353
v -64.38885 12.27417 27.78399
v -63.88529 12.27417 30.16238
v -64.40511 16.63929 27.43727
v -63.90157 16.63929 29.81567
v -70.0736 14.22322 36.75113
v -67.0893 14.90112 36.75113
v -70.0736 19 36.75113
v -67.0893 19.67791 36.75113
v -67.0893 14.90112 40.31
v -67.0893 14.90112 41.31
v -67.0893 19.67791 40.31
v -67.0893 19.67791 41.31
v -70.0736 19.14009 41.67608
v -70.0736 19.14009 39.42984
v -70.0736 14.3633 39.42984
v -70.0736 14.3633 41.67608
v -72.31649 12.49166 41.67608
v -72.31649 12.49166 39.42984
v -73.0574 16.94006 41.67608
v -73.0574 16.94006 39.42984
v -72.68989 10.31084 41.67608
v -72.68989 10.31084 39.42984
v -73.67725 14.66964 41.67608
v -73.67725 14.24606 39.42984
v -75.34078 9.267939 41.10038
v -73.64997 9.267939 39.62161
v -75.24296 13.54555 40.82998
v -73.88647 13.97797 39.35121
v -74.50993 8.94219 35.96315
v -72.98434 8.94219 35.69216
v -74.90978 13.65223 35.9136
v -73.38421 13.65223 35.64261
v -74.75147 9.312922 33.11947
v -73.3381 9.312922 32.9855
v -74.94917 13.5511 33.09498
v -73.53579 13.5511 32.961
v -73.65675 9.814627 30.79407
v -73.26185 9.814627 32.15775
v -73.6695 14.0528 30.59527
v -73.2746 14.0528 31.95895
v -68.69566 11.4279 29.30476
v -67.76102 11.4279 30.96991
v -68.72585 16.2967 29.06202
v -67.79122 16.2967 30.72717
v -67.01249 11.4279 27.71408
v -66.07786 11.4279 32.12858
v -67.04269 16.29669 27.07054
v -66.10806 16.29669 31.48504

vt 2.760696 -3.098875
vt -0.2236023 -3.776783
vt 2.760696 1.677908
vt -0.2236023 1
vt 12.10151 -5.621071
vt 9.6704 -5.621071
vt 12.44408 -1.255587
vt 10.01296 -1.255587
vt 0.2236023 -3.776783
vt -2.760696 -3.098875
vt 0.2236023 1
vt -2.760696 1.677908
vt 1 -3.098875
vt 0 -3.098875
vt 1 1.677908
vt 0 1.677908
vt -3.014522 0
vt 0.01785164 0.3660812
vt -3.014522 -1
vt 0.01785164 -1.880157
vt 2.167312 -1
vt -0.8650619 -1.880157
vt 2.167312 0
vt -0.8650619 0.3660812
vt 2.167312 2.043533
vt -0.8899075 2.043533
vt -2.043533 1.677908
vt -2.043533 -3.098875
vt 0.3660812 -3.636697
vt 0.3660812 1.140086
vt 2.043533 -3.776783
vt 2.043533 1
vt 0.02939693 0.2695478
vt -3.002827 -0.09777203
vt 0.0528711 1.952675
vt -3.002827 1.93887
vt -0.8119551 -2.060696
vt 2.220078 -1.179368
vt -0.8347332 -4.742979
vt 2.220078 -4.733515
vt -1.880157 1.140086
vt -1.880157 -3.636697
vt -4.558876 1
vt -4.558876 -3.776783
vt 4.558876 -3.098875
vt 4.558876 1.677908
vt -3.014522 -4.558876
vt 0.04269733 -4.558876
vt -2.501719 0.3660812
vt -2.501719 -1.880157
vt -5.422949 0.3660812
vt -5.422949 -1.880157
vt -0.2236023 1.140086
vt -0.2236023 -3.636697
vt -3.207397 -1.059938
vt -2.466492 -5.508335
vt 0.2236023 -3.636697
vt 0.2236023 1.140086
vt 2.466492 -5.508335
vt 3.207397 -1.059938
vt -0.4966139 -1.880157
vt -0.4966139 0.3660812
vt 3.21056 -1.880157
vt 3.21056 0.3660812
vt -0.3660812 -5.84558
vt 1.880157 -5.84558
vt -0.3660812 -8.058136
vt 1.880157 -8.058136
vt -3.827255 -3.330362
vt -2.83989 -7.689157
vt 2.83989 -7.689157
vt 3.827255 -3.753938
vt -1.880157 -1.752142
vt 0.3660812 -1.752142
vt -1.880157 -4.516532
vt 0.3660812 -4.103743
vt -5.457752 0.3660812
vt -5.457752 -1.880157
vt -8.306417 -0.2096214
vt -6.732991 -1.688393
vt -3.316365 -3.130405
vt -2.420992 -7.509022
vt -5.09282 -4.259605
vt -5.067558 -8.490625
vt 2.514003 -7.594016
vt 3.489427 -3.65582
vt 3.492209 -8.63771
vt 3.683917 -3.919425
vt -1.268669 -5.482416
vt 0.9508023 -4.935653
vt -1.314163 -5.828472
vt 0.3557748 -6.867078
vt -6.042233 -0.82354
vt -4.354938 -2.306322
vt -5.234102 -5.974704
vt -3.711685 -6.252192
vt -0.1164598 -4.554178
vt 0.1599009 -8.832526
vt -5.044117 -4.447483
vt -5.021556 -9.149239
vt 1.049388 -8.480549
vt 1.277825 -3.762362
vt 5.034772 -8.806862
vt 5.018776 -4.081307
vt 5.38901 -2.193859
vt 6.79801 -0.7010291
vt 5.079804 -5.937721
vt 6.451734 -5.577926
vt -4.452127 -4.136534
vt -2.926935 -4.40975
vt -4.702066 -7.003556
vt -3.289058 -7.140547
vt -5.481683 -3.913018
vt -5.42534 -8.639919
vt -8.300568 -4.014508
vt -8.272715 -8.25421
vt 5.949443 -8.824182
vt 6.04599 -4.097929
vt 8.678951 -8.452173
vt 8.726681 -4.212532
vt 3.562967 -5.824784
vt 5.088508 -5.553603
vt 3.715215 -8.508259
vt 5.12856 -8.374026
vt -4.714434 -6.053594
vt -3.301382 -6.190942
vt -3.630696 -8.437531
vt -3.235889 -7.109192
vt -4.923608 -4.078585
vt -4.993361 -8.320868
vt -7.731736 -3.576394
vt -7.5614 -7.815012
vt 7.846055 -8.468037
vt 7.846661 -4.225182
vt 8.676971 -7.965778
vt 8.872802 -3.730561
vt 3.465196 -5.320026
vt 4.876901 -5.169464
vt 3.228705 -6.446125
vt 3.623136 -7.650826
vt -5.993162 -9.921489
vt -5.614834 -8.553117
vt -0.7778195 -11.41592
vt 0.1175974 -9.734319
vt 0.7001681 -3.422435
vt 0.7430097 -7.665074
vt -4.474764 -1.176177
vt -4.4365 -6.050929
vt -1.532108 -7.727724
vt -1.50525 -3.484953
vt 4.095004 -6.112698
vt 4.113468 -1.237827
vt 4.612463 -9.047265
vt 4.981087 -10.41828
vt -1.310897 -10.28568
vt -0.4384483 -11.97655
vt 1.154365 -12.00525
vt 2.088996 -10.34011
vt 2.837531 -13.59594
vt 3.772162 -9.181436
vt -10.08006 -1.442121
vt -9.914162 -6.314234
vt -12.68756 -1.44213
vt -12.21555 -6.323787
vt -4.14241 -6.203428
vt -4.304924 -1.331201
vt -2.098988 -6.203437
vt -2.488763 -1.318822
vt -2.058789 -10.58284
vt -1.124157 -12.24799
vt -3.741955 -9.824965
vt -2.807324 -14.23947
vt 0.6711795 -13.10241
vt 1.560206 -8.678499
vt 3.427926 -13.03235
vt 3.906911 -10.64888
vt -0.577751 0.1752387
vt -0.7068315 -4.734299
vt -3.240327 0.5207074
vt -3.309869 -3.851913
vt 8.803764 -6.057278
vt 9.195674 -1.161705
vt 11.74746 -5.206352
vt 11.9586 -0.8363273
vt -3.482931 -9.759756
vt -2.556559 -14.176
vt -5.71536 -11.42978
vt -5.21627 -13.80912

vn 0 0 1
vn 0.9782333 -0.01280553 -0.2071124
vn 0 0 -1
vn 1 0 0
vn -0.17736 0.9841461 0
vn 0.17736 -0.9841461 0
vn 0.199072 -0.9780427 -0.04058395
vn 0.220784 -0.9719394 -0.08116791
vn -1 0 0
vn -0.1670045 0.982536 0.08205283
vn -0.1942597 0.9788465 0.04102642
vn -0.2215149 0.975157 0
vn 0.1623844 -0.9853811 0.05153146
vn 0.1919497 -0.980269 0.02576573
vn 0.2215149 -0.975157 0
vn -0.1992937 0.9790187 -0.0254653
vn -0.2212274 0.9738914 -0.05093059
vn 0.6407022 -0.7677895 0
vn -0.5934505 0.8048704 0
vn 0.9856567 -0.168763 0
vn -0.9745364 0.2242294 0
vn -0.9690212 0.2436401 -0.02480187
vn -0.963506 0.2630507 -0.04960373
vn 0.3661031 -0.9305744 0
vn 0.4812243 -0.6770924 0.3409275
vn 0.5963455 -0.4236104 0.681855
vn -0.4195899 -0.09504662 0.9027239
vn -0.3281633 -0.01418111 0.9360033
vn -0.2367368 0.0666844 0.9692827
vn -0.1549431 -0.03887599 -0.9871582
vn 0.1169151 -0.03610661 -0.9539442
vn 0.3887733 -0.03333723 -0.9207302
vn -0.7654648 0.6323334 -0.1192397
vn -0.6299586 0.738304 -0.1629608
vn -0.4944523 0.8442746 -0.2066818
vn 0.06428551 -0.9952209 0.07350336
vn 0.03970548 -0.9957371 0.07932709
vn 0.01512545 -0.9962533 0.08515082
vn -0.9975668 0.01856531 -0.06720074
vn -0.9909939 -0.0333124 -0.1105058
vn -0.9844211 -0.08519011 -0.1538109
vn 0.9850413 0.0587597 0.1619911
vn 0.9866784 0.07199743 0.1441763
vn 0.9883156 0.08523517 0.1263615
vn -0.4332386 0.8908183 -0.1369195
vn -0.2146691 0.9452848 -0.05748118
vn 0.003900308 0.9997513 0.02195711
vn -0.02262199 -0.9915994 -0.1273537
vn -0.01766494 -0.9912454 -0.1307076
vn -0.01270789 -0.9908915 -0.1340615
vn -0.9962877 -0.08440115 0.01694871
vn -0.9960665 -0.06519943 0.04777034
vn -0.9958451 -0.04599772 0.07859198
vn 0.9895583 0.08277003 -0.1179979
vn 0.9933999 0.06447562 -0.08805485
vn 0.9972414 0.04618121 -0.05811176
vn -0.006627467 0.9992818 -0.03730988
vn -0.005010867 0.9993174 -0.03655881
vn -0.003394269 0.9993529 -0.03580774
vn -0.02087612 -0.9752241 -0.220232
vn 0.400498 -0.7463989 -0.2291156
vn 0.8218721 -0.5175738 -0.2379992
vn -0.885671 -0.04398417 -0.4622254
vn -0.8941394 -0.03343182 -0.4460403
vn -0.9026079 -0.02287946 -0.4298553
vn 0.9916865 0.04695036 0.1198065
vn 0.9786893 0.03100871 0.1895294
vn 0.9656922 0.01506705 0.2592522
vn 0.0432507 0.8887886 0.456272
vn -0.0995305 0.9282231 0.2632205
vn -0.2423117 0.9676577 0.07016906
vn 0.2856431 -0.9547596 -0.08271705
vn 0.2680946 -0.9562979 -0.1116732
vn 0.2505461 -0.9578362 -0.1406293
vn -0.2768691 -0.04585419 -0.9598129
vn -0.2746037 -0.04772571 -0.9603677
vn -0.2723383 -0.04959723 -0.9609225
vn 0.1977905 0.04652271 0.9791397
vn 0.1985807 0.04827552 0.9788929
vn 0.1993709 0.05002832 0.9786462
vn -0.3567411 0.9284739 0.1033057
vn -0.3550812 0.9213315 0.150839
vn -0.3534213 0.9141892 0.1983722
vn -3.331932E-06 -1 1.870183E-06
vn -0.7632316 -0.03689461 -0.6450709
vn -0.7233296 -0.06835879 -0.684116
vn -0.6834276 -0.09982296 -0.7231612
vn -0.5666262 0.03752349 0.8231201
vn -0.4871833 0.07734308 0.8643351
vn -0.4077403 0.1171627 0.90555
vn 6.824E-06 1 -3.83025E-06
vn 0.3079017 -0.9491823 -0.06518844
vn 0.1529379 -0.128562 -0.9798377
vn 0.1024552 -0.1037211 -0.9876831
vn 0.05197249 -0.07888022 -0.9955284
vn 0.6413299 0.1044473 0.7601228
vn 0.6184267 0.08513048 0.7803802
vn 0.5955234 0.06581368 0.8006375
vn -0.1325981 0.9907722 0.02807346

usemtl ProBuilderDefault
f 3/3/1 4/4/1 2/2/1 1/1/1
f 7/7/2 8/8/2 6/6/2 5/5/2
f 11/11/3 12/12/3 10/10/3 9/9/3
f 15/15/4 16/16/4 14/14/4 13/13/4
f 15/19/5 18/20/5 17/18/5 16/17/5
f 14/23/6 20/24/6 19/22/6 13/21/6
f 1/25/7 2/26/8 20/24/7 14/23/6
f 3/27/4 1/28/4 14/14/4 16/16/4
f 2/31/9 4/32/9 17/30/9 20/29/9
f 4/35/11 3/36/12 16/34/11 17/33/10
f 9/39/14 10/40/15 13/38/14 19/37/13
f 11/43/9 9/44/9 19/42/9 18/41/9
f 10/45/4 12/46/4 15/15/4 13/13/4
f 12/47/16 11/48/17 18/20/16 15/19/5
f 21/51/18 22/52/18 19/50/18 20/49/18
f 23/55/1 21/56/1 20/54/1 17/53/1
f 22/59/3 24/60/3 18/58/3 19/57/3
f 24/63/19 23/64/19 17/62/19 18/61/19
f 25/67/20 26/68/20 22/66/20 21/65/20
f 27/69/1 25/70/1 21/56/1 23/55/1
f 26/71/3 28/72/3 24/60/3 22/59/3
f 28/75/22 27/76/23 23/74/22 24/73/21
f 29/79/25 30/80/26 26/78/25 25/77/24
f 31/83/28 29/84/29 25/82/28 27/81/27
f 30/87/31 32/88/32 28/86/31 26/85/30
f 32/91/34 31/92/35 27/90/34 28/89/33
f 33/95/37 34/96/38 30/94/37 29/93/36
f 35/99/40 33/100/41 29/98/40 31/97/39
f 34/103/43 36/104/44 32/102/43 30/101/42
f 36/107/46 35/108/47 31/106/46 32/105/45
f 37/111/49 38/112/50 34/110/49 33/109/48
f 39/115/52 37/116/53 33/114/52 35/113/51
f 38/119/55 40/120/56 36/118/55 34/117/54
f 40/123/58 39/124/59 35/122/58 36/121/57
f 41/127/61 42/128/62 38/126/61 37/125/60
f 43/131/64 41/132/65 37/130/64 39/129/63
f 42/135/67 44/136/68 40/134/67 38/133/66
f 44/139/70 43/140/71 39/138/70 40/137/69
f 45/143/73 46/144/74 42/142/73 41/141/72
f 47/147/76 45/148/77 41/146/76 43/145/75
f 46/151/79 48/152/80 44/150/79 42/149/78
f 48/155/82 47/156/83 43/154/82 44/153/81
f 49/159/84 50/160/84 46/158/84 45/157/84
f 51/163/86 49/164/87 45/162/86 47/161/85
f 50/167/89 52/168/90 48/166/89 46/165/88
f 52/171/91 51/172/91 47/170/91 48/169/91
f 5/175/92 6/176/92 50/174/92 49/173/92
f 7/179/94 5/180/95 49/178/94 51/177/93
f 6/183/97 8/184/98 52/182/97 50/181/96
f 8/187/99 7/188/99 51/186/99 52/185/99

