# ProBuilder 4.1.0
# https://unity3d.com/unity/features/worldbuilding/probuilder
# 23/08/2019 5:22:30 PM

mtllib ./World2Patch10.mtl
o World2Patch10

g World2Patch10
v -51.34474 1.48193 -0.7100606
v -59.53476 1.48193 -0.7100606
v -51.34474 4.67 -0.7100606
v -59.53476 4.67 -0.7100606
v -59.53476 1.48193 -3.06
v -57.64 2.367844 -8.228392
v -59.53476 4.67 -3.06
v -57.64 6.024099 -6.038712
v -79.41335 30.11836 -20.95565
v -76.57852 30.62735 -20.54009
v -79.97086 31.74347 -19.14276
v -77.13603 32.25245 -18.72719
v -52.67468 2.367844 -8.228392
v -51.34474 1.48193 -3.06
v -52.67468 6.024099 -6.038712
v -51.34474 4.67 -3.06
v -57.64 8.914976 -12.35748
v -52.67468 8.914976 -12.35748
v -61.53009 12.57123 -11.31289
v -52.67468 12.57123 -11.31289
v -66.19427 14.09481 -17.89804
v -62.18578 15.98234 -17.17463
v -66.7872 16.97282 -13.8747
v -60.88223 18.86035 -12.40169
v -67.98503 17.24744 -19.16212
v -67.00238 17.71014 -18.98479
v -70.13077 18.6657 -20.16044
v -69.1917 19.29506 -19.9831
v -75.75389 21.34797 -17.71223
v -74.94742 19.88035 -21.97047
v -71.11662 22.44772 -21.24706
v -70.02663 23.91535 -16.23922
v -79.66708 25.71179 -21.00358
v -76.77661 26.04817 -21.00358
v -79.77274 26.61976 -18.67919
v -76.88226 26.95615 -18.67919
v -71.11646 43.93624 -29.7188
v -73.57144 44.5163 -29.53256
v -69.92676 45.68519 -30.87985
v -71.97032 47.10464 -30.78049
v -71.11659 22.4477 -25.80621
v -74.94739 19.88033 -26.52962
v -69.9269 20.49921 -25.02505
v -71.97046 19.12961 -25.41096
v -71.11656 23.71665 -38.27881
v -74.94736 21.74266 -40.07271
v -69.92686 21.6244 -38.45013
v -71.97043 20.57136 -39.40711
v -71.11653 30.65067 -42.57227
v -74.94733 30.73793 -45.23819
v -69.92683 29.42545 -44.27687
v -71.9704 29.472 -45.69904
v -71.1165 39.36156 -37.91978
v -74.9473 40.73819 -40.20443
v -69.9268 40.06387 -40.64255
v -71.97037 40.79826 -41.86132
v -71.11647 43.22585 -31.88012
v -73.57146 43.8059 -31.69387
v -69.92677 44.97479 -33.04117
v -71.97034 46.39424 -32.94181

vt 5.295258 -2.18807
vt -2.89476 -2.18807
vt 5.295258 1
vt -2.89476 1
vt 0.9963877 -2.18807
vt -4.508374 -1.302156
vt 0.9963877 1
vt -2.452493 2.354099
vt 21.53227 5.24465
vt 18.67703 5.806419
vt 22.01442 7.695343
vt 19.15918 8.257112
vt 4.132001 -1.969429
vt -1.203398 -2.863511
vt 1.999615 1.720535
vt -1.203398 0.2954356
vt -5.295258 -0.4138383
vt 2.89476 -0.4138383
vt -3.965317 -3.685888
vt 1 -3.685888
vt 3.965317 -4.874104
vt -1 -4.874104
vt 5.295258 0.3696657
vt -2.89476 0.3696657
vt 1 1.655641
vt -3.965317 1.655641
vt 1 9.396078
vt -3.965317 9.396078
vt -3.13294 2.238067
vt -5.149577 -1.516407
vt -9.505999 8.961077
vt -8.952362 4.49387
vt 5.168392 -1.302156
vt 2.978712 2.354099
vt 9.297485 5.244976
vt 8.252893 8.901232
vt 3.965317 3.701906
vt -1 3.701906
vt 3.965317 12.10916
vt -4.890091 12.10916
vt 5.295258 0
vt -2.89476 0
vt 5.295258 2.349939
vt -2.89476 2.349939
vt 0 1
vt 0 -2.18807
vt -2.349939 1
vt -2.349939 -2.18807
vt 2.349939 -2.18807
vt 2.349939 1
vt 2.89476 0
vt -5.295258 0
vt 2.89476 2.349939
vt -5.295258 2.349939
vt -1 -10.37362
vt 3.965317 -10.37362
vt -9.554276 -17.95837
vt -5.545776 -18.71898
vt -9.595695 -7.877832
vt -4.258099 -8.927712
vt -16.44731 -10.45261
vt -14.07801 -14.62991
vt 2.206578 2.880139
vt 1.596906 6.633495
vt 12.74117 10.1352
vt 8.896975 13.64267
vt 3.965317 10.1786
vt -4.890091 10.1786
vt -4.242233 16.56127
vt -10.1472 14.95268
vt 15.48171 16.05334
vt 14.48944 16.5293
vt 17.82349 17.51223
vt 16.87297 18.14729
vt -16.09056 -7.73041
vt -13.89321 -12.2018
vt -25.89265 -11.9953
vt -24.36824 -16.12929
vt 14.48175 7.622576
vt 9.942297 11.10918
vt 23.24512 15.45515
vt 18.65594 17.95455
vt -6.830735 16.33524
vt -12.90649 14.41525
vt -16.70293 21.47716
vt -22.60904 18.8985
vt 19.23587 12.24574
vt 15.37352 14.86719
vt 23.9009 18.20001
vt 21.01409 18.50006
vt -15.93301 24.97326
vt -20.12564 23.14057
vt -17.17427 31.55635
vt -19.48588 30.6703
vt 22.18476 -14.23157
vt 22.02874 -8.902774
vt 28.89229 -13.97249
vt 29.45936 -11.54304
vt -16.6635 21.04562
vt -22.57092 18.46391
vt -23.93328 24.1034
vt -26.69662 23.67967
vt 23.0042 21.84368
vt 20.11373 22.18008
vt 22.75052 26.25052
vt 19.91623 26.76406
vt -14.93469 23.9033
vt -17.26118 22.99455
vt -15.39225 29.03137
vt -17.2207 27.38685
vt 16.6014 21.29487
vt 14.27505 22.20397
vt 16.15171 25.8797
vt 14.30651 27.481
vt -20.25864 23.42578
vt -23.14911 23.08938
vt -20.51245 28.72229
vt -23.34771 28.21705
vt 13.32336 12.72019
vt 9.272517 14.65535
vt 15.39622 15.95237
vt 14.40319 16.42676
vt 23.20659 18.4031
vt 13.62805 12.49325
vt 18.0673 17.16235
vt 15.71923 15.71361
vt 9.335517 14.50959
vt 19.05629 21.11659
vt 14.46817 16.27524
vt 16.85113 17.89488
vt -8.953383 49.08095
vt -11.39708 49.73399
vt -7.55866 51.04996
vt -9.581882 52.45056
vt 1.571647 -18.18689
vt 6.183196 -18.9103
vt 1.571632 -22.74604
vt 6.183181 -23.46945
vt 16.92305 19.8767
vt 18.187 23.57056
vt 21.96499 21.28755
vt 22.74615 23.57054
vt -21.71547 -18.91044
vt -16.74802 -17.10041
vt -21.71543 -23.46959
vt -18.64531 -22.35093
vt -1.982162 -21.86292
vt -0.8527768 -21.67882
vt -3.189247 -27.31366
vt -0.7315313 -26.91303
vt 1.260614 -24.6431
vt 5.871765 -25.36904
vt 0.5403424 -37.15937
vt 4.814693 -38.99285
vt 21.23168 21.93283
vt 21.94884 24.23672
vt 34.63799 23.26326
vt 34.40399 25.66184
vt -21.13693 -24.902
vt -18.07051 -23.77322
vt -21.50302 -38.56764
vt -18.35392 -37.83275
vt -3.843361 -24.08176
vt -1.383509 -23.69447
vt -3.024814 -38.12815
vt -0.7446757 -37.14981
vt -33.16105 26.21421
vt -37.28062 24.01902
vt -35.81703 33.92526
vt -40.47604 33.88334
vt 21.66541 28.59598
vt 20.85109 30.86735
vt 26.47009 37.06488
vt 24.39144 38.19997
vt 18.22012 34.12533
vt 15.24476 32.77464
vt 18.20792 44.49823
vt 15.22991 43.62642
vt 35.03773 23.5033
vt 32.85492 24.70171
vt 39.06348 33.63261
vt 36.58303 33.69415
vt -34.64799 15.19079
vt -39.31497 15.28598
vt -31.95938 24.69325
vt -36.40603 26.09473
vt 21.23313 16.55968
vt 19.17394 17.81745
vt 18.56531 27.48064
vt 15.75872 27.01699
vt 20.76984 5.76809
vt 17.82538 4.351325
vt 20.4721 16.95984
vt 17.59837 16.19184
vt 37.07468 17.90863
vt 34.585 17.86032
vt 34.86621 29.66171
vt 32.49357 28.90613
vt -32.87988 -21.83174
vt -36.7774 -24.40061
vt -35.18038 -15.04073
vt -37.49824 -15.33023
vt 31.9137 23.03969
vt 28.96008 22.26623
vt 24.65787 28.4481
vt 23.19498 26.52927
vt 10.58329 -23.1437
vt 7.653694 -24.88396
vt 8.62577 -14.20495
vt 6.542632 -14.71455
vt 34.32153 -25.2022
vt 32.23938 -23.83636
vt 37.63136 -15.20632
vt 35.14402 -15.26602
vt -22.34272 -16.50464
vt -24.8646 -16.30901
vt -22.4896 -14.23432
vt -25.01147 -14.03868
vt 27.09016 27.30727
vt 25.73343 25.3119
vt 24.96436 28.11776
vt 23.60762 26.12239
vt -25.27604 25.45593
vt -26.78196 28.38042
vt -23.14726 26.25858
vt -24.65318 29.18307
vt 36.67598 -21.81547
vt 34.18796 -21.91844
vt 37.07487 -19.57564
vt 34.58685 -19.67861

vn 0 0 1
vn -0.938895 0 -0.3442039
vn -0.9014397 0.1293522 -0.3880899
vn -0.8639843 0.2587044 -0.4319759
vn -0.03403762 0.7389644 -0.6728842
vn 0.964938 0.1348593 -0.2251835
vn 0.9390289 0.06742963 -0.3164375
vn 0.9131198 0 -0.4076915
vn 0 0.9103504 0.4138383
vn 0 -0.9856253 -0.168946
vn 0 -0.5334445 -0.845835
vn -0.8968803 -0.2272369 0.3794326
vn -0.7428524 -0.3291996 -0.1521114
vn -0.5888245 -0.4311624 -0.6836554
vn 1 0 0
vn 0 0.627337 0.7787479
vn 0 -1 0
vn -1 0 0
vn 0 1 0
vn 0 -0.7304856 -0.6829281
vn 0.1420995 -0.4895762 -0.8044424
vn 0.2841991 -0.2486668 -0.9259567
vn -0.6669928 -0.7382898 0.1002439
vn -0.6566803 -0.7003753 0.2394326
vn -0.646368 -0.6624609 0.3786213
vn 0.5685477 0.2259889 -0.791001
vn 0.5629865 0.4304115 -0.6630182
vn 0.5574253 0.6348341 -0.5350353
vn 0 0.1705869 0.9853427
vn -0.1474885 0.1815027 0.960636
vn -0.2949771 0.1924185 0.9359293
vn 0.2784447 -0.2343592 -0.9314206
vn 0.2879684 -0.2070202 -0.9345421
vn 0.2974921 -0.1796812 -0.9376637
vn -0.5384757 -0.7208844 0.4363137
vn -0.5666354 -0.754446 0.2976281
vn -0.5947951 -0.7880077 0.1589426
vn 0.6440674 0.5644793 -0.5162753
vn 0.6023258 0.6591194 -0.4295962
vn 0.5605842 0.7537594 -0.3429172
vn -0.2926458 0.1830976 0.9385274
vn -0.3044925 0.1766704 0.9358864
vn -0.3163392 0.1702431 0.9332453
vn 0.04928563 0.2020689 -0.9781305
vn 0.02132192 0.12957 -0.9882392
vn -0.006641793 0.05707115 -0.998348
vn -0.7989082 -0.5989223 0.05511589
vn -0.7701997 -0.6173162 0.1348699
vn -0.7414911 -0.6357102 0.2146239
vn 0.4938916 0.799522 -0.3418125
vn 0.4840509 0.8133392 -0.321685
vn 0.4742101 0.8271565 -0.3015575
vn -0.2916878 0.1052325 0.9507073
vn -0.1555092 0.1356674 0.9683132
vn -0.01933056 0.1661023 0.9859191
vn -0.001274234 0.01094915 -0.9999393
vn 0.06325381 0.05267701 -0.9936192
vn 0.1277818 0.09440488 -0.9872991
vn -0.9987192 -0.04126656 -0.02927541
vn -0.9686166 0.008238414 -0.1848269
vn -0.9385139 0.05774339 -0.3403783
vn 0.996668 -0.04966373 0.06470226
vn 0.9813852 -0.0005378108 0.1591239
vn 0.9661024 0.0485881 0.2535456
vn -0.001048837 0.009012371 0.9999589
vn -0.0800707 0.0459342 0.9918698
vn -0.1590926 0.08285603 0.9837807
vn 0.2728329 -0.2205072 -0.9364501
vn 0.2988681 -0.204027 -0.932229
vn 0.278661 -0.205938 -0.9380499
vn 0.1746107 0.4593808 0.8709078
vn 0.2112016 0.3757324 0.8973213
vn 0.2477926 0.2920839 0.9237347
vn -0.5567255 0.8306965 -7.201826E-06
vn 0.8534853 0.5211169 3.473132E-06
vn -0.2445225 -0.9696436 2.419805E-06
vn 0.5707609 -0.775961 -0.2685454
vn -0.5656127 0.8204361 0.08346879
vn -0.5318086 0.8397632 0.1008012
vn -0.4980045 0.8590902 0.1181337
vn 0.8445573 0.5335943 0.04472404
vn 0.8572581 0.5120928 0.04731917
vn 0.869959 0.4905914 0.04991431
vn -0.1948281 -0.9716933 -0.1336195
vn -0.2702905 -0.9525399 -0.1148842
vn -0.3457528 -0.9333865 -0.09614885
vn 0.5657004 -0.8202706 -0.08449479
vn 0.524686 -0.8462311 -0.07879734
vn 0.4836716 -0.8721915 -0.07309988
vn -0.5562791 0.4374716 0.7065212
vn -0.5328989 0.4329813 0.7263511
vn -0.5095187 0.4284911 0.746181
vn 0.7595602 0.3892317 0.5211209
vn 0.8145292 0.3246284 0.4705364
vn 0.8694983 0.2600252 0.419952
vn -0.00204283 -0.4979767 -0.867188
vn -0.1753014 -0.5195082 -0.816276
vn -0.34856 -0.5410397 -0.765364
vn 0.5622221 -0.477372 -0.6752943
vn 0.5200204 -0.5015295 -0.68955
vn 0.4778186 -0.5256871 -0.7038057
vn -0.529743 -0.3995785 0.7481373
vn -0.550024 -0.3844529 0.7409302
vn -0.570305 -0.3693273 0.733723
vn 0.715076 -0.2259887 0.6615099
vn 0.8159726 -0.2070273 0.5068105
vn 0.9168692 -0.1880658 0.3521111
vn 0.05284686 0.4489867 -0.8919743
vn -0.2089671 0.3660564 -0.8637804
vn -0.4707811 0.2831262 -0.8355864
vn 0.5545608 0.2670438 -0.7881306
vn 0.5585892 0.2671512 -0.7852284
vn 0.5626176 0.2672586 -0.7823262
vn -0.5294639 -0.7145842 0.4572061
vn -0.3590304 -0.8141655 0.4085321
vn -0.1885968 -0.9137469 0.3598581
vn 0.8667383 -0.4189398 0.2706552
vn 0.8683543 -0.4171519 0.268204
vn 0.8699703 -0.4153639 0.2657527
vn -0.1890301 0.9331417 -0.3058009
vn -0.5306451 0.6737025 -0.2828507
vn -0.8722601 0.4142634 -0.2599006
vn 0.5277789 0.7195005 -0.4514072
vn 0.507207 0.7266439 -0.4627386
vn 0.4866353 0.7337874 -0.4740699
vn -0.1968455 -0.9314117 0.306144
vn 0.8621035 -0.481397 0.1582227
vn -0.8717338 0.4654824 -0.1529917
vn 0.5418421 0.7984545 -0.2624452

usemtl ProBuilderDefault
f 3/3/1 4/4/1 2/2/1 1/1/1
f 7/7/3 8/8/4 6/6/3 5/5/2
f 11/11/5 12/12/5 10/10/5 9/9/5
f 15/15/7 16/16/8 14/14/7 13/13/6
f 15/19/9 8/20/9 7/18/9 16/17/9
f 14/23/10 5/24/10 6/22/10 13/21/10
f 17/27/11 18/28/11 13/26/11 6/25/11
f 19/31/13 17/32/14 6/30/13 8/29/12
f 18/35/15 20/36/15 15/34/15 13/33/15
f 20/39/16 19/40/16 8/38/16 15/37/16
f 1/43/17 2/44/17 5/42/17 14/41/17
f 3/47/15 1/48/15 14/46/15 16/45/15
f 2/49/18 4/50/18 7/45/18 5/46/18
f 4/53/19 3/54/19 16/52/19 7/51/19
f 21/57/21 22/58/22 18/56/21 17/55/20
f 23/61/24 21/62/25 17/60/24 19/59/23
f 22/65/27 24/66/28 20/64/27 18/63/26
f 24/69/30 23/70/31 19/68/30 20/67/29
f 27/73/33 28/74/34 26/72/33 25/71/32
f 29/77/36 30/78/37 21/76/36 23/75/35
f 31/81/39 32/82/40 24/80/39 22/79/38
f 32/85/42 29/86/43 23/84/42 24/83/41
f 33/89/45 34/90/46 31/88/45 30/87/44
f 35/93/48 33/94/49 30/92/48 29/91/47
f 34/97/51 36/98/52 32/96/51 31/95/50
f 36/101/54 35/102/55 29/100/54 32/99/53
f 9/105/57 10/106/58 34/104/57 33/103/56
f 11/109/60 9/110/61 33/108/60 35/107/59
f 10/113/63 12/114/64 36/112/63 34/111/62
f 12/117/66 11/118/67 35/116/66 36/115/65
f 25/121/68 26/122/68 22/120/68 21/119/68
f 27/125/69 25/126/69 21/124/69 30/123/69
f 26/129/70 28/130/70 31/128/70 22/127/70
f 39/133/72 40/134/73 38/132/72 37/131/71
f 41/137/74 42/138/74 30/136/74 31/135/74
f 43/141/75 41/142/75 31/140/75 28/139/75
f 42/145/76 44/146/76 27/144/76 30/143/76
f 44/149/77 43/150/77 28/148/77 27/147/77
f 45/153/79 46/154/80 42/152/79 41/151/78
f 47/157/82 45/158/83 41/156/82 43/155/81
f 46/161/85 48/162/86 44/160/85 42/159/84
f 48/165/88 47/166/89 43/164/88 44/163/87
f 49/169/91 50/170/92 46/168/91 45/167/90
f 51/173/94 49/174/95 45/172/94 47/171/93
f 50/177/97 52/178/98 48/176/97 46/175/96
f 52/181/100 51/182/101 47/180/100 48/179/99
f 53/185/103 54/186/104 50/184/103 49/183/102
f 55/189/106 53/190/107 49/188/106 51/187/105
f 54/193/109 56/194/110 52/192/109 50/191/108
f 56/197/112 55/198/113 51/196/112 52/195/111
f 57/201/115 58/202/116 54/200/115 53/199/114
f 59/205/118 57/206/119 53/204/118 55/203/117
f 58/209/121 60/210/122 56/208/121 54/207/120
f 60/213/124 59/214/125 55/212/124 56/211/123
f 37/217/126 38/218/126 58/216/126 57/215/126
f 39/221/127 37/222/127 57/220/127 59/219/127
f 38/225/128 40/226/128 60/224/128 58/223/128
f 40/229/129 39/230/129 59/228/129 60/227/129

