# ProBuilder 4.1.0
# https://unity3d.com/unity/features/worldbuilding/probuilder
# 9/09/2019 2:45:26 PM

mtllib ./Pillar6.mtl
o Pillar6

g Pillar6
v -34.80448 -2.984375 31.40803
v -40.29505 -2.984375 31.40803
v -34.86856 2.806314 30.23863
v -39.22813 2.806314 31.35588
v -40.29505 -2.984375 25.33527
v -40.23098 2.806314 26.50467
v -34.80448 -2.984375 25.33527
v -35.8714 2.806314 25.38741
v -36.27365 11.77043 28.83128
v -39.18845 14.05369 29.57348
v -36.89684 12.21259 26.23175
v -39.81164 12.46805 26.97395
v -35.75077 -6.946733 26.3819
v -39.34876 -6.946733 26.3819
v -35.75077 -6.946733 30.3614
v -39.34876 -6.946733 30.3614
v -36.99719 7.18928 28.83126
v -39.79245 6.324528 29.57347
v -37.74124 7.363226 26.23174
v -40.53651 6.498474 26.97394

vt 3.995518 -0.895762
vt -1.495052 -0.895762
vt 3.931442 5.011825
vt -0.4281349 4.790666
vt 4.525215 -0.2708992
vt -1.547543 -0.2708992
vt 4.473068 5.617258
vt -0.3781433 5.435545
vt 1.495052 -0.3063341
vt -3.995518 -0.3063341
vt 1.430981 5.601253
vt -2.9286 5.380094
vt 1.547543 -0.7239765
vt -4.525215 -0.7239765
vt 1.495398 5.164181
vt -3.355814 4.982469
vt 7.075167 2.121796
vt 10.77777 2.864065
vt 7.838513 -0.4779577
vt 10.29486 0.2432729
vt 3.049229 -0.5009155
vt -0.5487633 -0.5009155
vt 3.049229 3.478588
vt -0.5487633 3.478588
vt 2.975278 3.641645
vt -1.525186 3.641645
vt 1.262665 8.415436
vt -1.62935 7.611559
vt 0.8715699 4.026227
vt -4.082211 4.026227
vt 0.4232611 9.003539
vt -2.273069 8.762875
vt 4.29378 5.85422
vt -0.6600021 5.85422
vt 2.434033 9.377658
vt -0.2622988 9.562365
vt 1.292309 5.686834
vt -3.208158 5.686834
vt 1.704769 9.398368
vt -1.187249 10.25605
vt 1.212515 10.26469
vt -1.679375 9.399159
vt 1.909399 14.84997
vt -1.097622 17.12825
vt 0.3217274 10.40408
vt -2.382033 10.22773
vt 0.08065474 15.32051
vt -2.5886 14.86052
vt 2.305476 9.155207
vt -0.3984096 9.329642
vt 2.474496 16.90609
vt -0.1955693 15.33455
vt 1.698205 9.465836
vt -1.193786 10.33104
vt 0.9994451 15.43852
vt -2.007776 15.18513
vt -3.995518 0.3952168
vt 1.495052 0.3952168
vt -3.049229 -3.70304
vt 0.5487633 -3.70304
vt -4.525215 0.9281082
vt 1.547543 0.9281082
vt -3.478588 -3.145679
vt 0.5009155 -3.145679
vt -1.547543 0.3472817
vt 4.525215 0.3472817
vt -0.5009155 -3.726505
vt 3.478588 -3.726505
vt -1.495052 1.155665
vt 3.995518 1.155665
vt -0.5487633 -2.942591
vt 3.049229 -2.942591

vn 0 0.1979491 0.9802123
vn 0.1240416 0.08047894 0.9741223
vn 0.2480833 -0.03699118 0.9680322
vn -0.9834468 0.1811972 0
vn -0.9811498 0.07558222 0.1011746
vn -0.9788528 -0.03003273 0.2023491
vn 0 0.1979487 -0.9802124
vn -0.1240415 0.08047864 -0.9741223
vn -0.2480831 -0.03699147 -0.9680323
vn 0.9834468 0.1811972 0
vn 0.9811499 0.07558259 -0.1011742
vn 0.978853 -0.030032 -0.2023484
vn 0.6145316 0.7887826 -0.01315189
vn 0.2798949 0.8234985 -0.2617579
vn -0.05474184 0.8582145 -0.5103638
vn 0 -1 0
vn 0.2279289 0.3962772 0.889389
vn 0.15969 0.4289759 0.8858559
vn 0.09145109 0.4616746 0.8823227
vn 0.8965802 0.4022346 -0.185341
vn 0.8992788 0.3825951 -0.209611
vn 0.9019772 0.3629557 -0.233881
vn -0.9778426 -0.05443631 0.2021403
vn -0.9675236 -0.08375287 0.2342756
vn -0.9572046 -0.1130694 0.2664109
vn -0.2469571 0.102042 -0.9636388
vn -0.2608866 0.08350943 -0.9614688
vn -0.2748161 0.06497683 -0.9592988
vn 0.26864 -0.04243107 0.9623057
vn 0.2509613 -0.03033138 0.9672719
vn 0.2332826 -0.0182317 0.9722381
vn 0.9453123 -0.1646029 -0.2815859
vn 0.9502532 -0.1577314 -0.2681168
vn 0.9551942 -0.15086 -0.2546476
vn -0.9573641 0.07481334 0.2790286
vn -0.9684573 0.09687855 0.2206518
vn -0.9795505 0.1189438 0.1622749
vn -0.2658119 0.03227897 -0.9634843
vn -0.2544324 0.03730175 -0.9662868
vn -0.2430527 0.04232452 -0.9690893
vn 0 -0.2553835 -0.9668398
vn 0.9726472 -0.2322873 0
vn -0.9726472 -0.2322873 0
vn 0 -0.2553835 0.9668398

usemtl ProBuilderDefault
f 3/3/2 4/4/3 2/2/2 1/1/1
f 4/7/5 6/8/6 5/6/5 2/5/4
f 6/11/8 8/12/9 7/10/8 5/9/7
f 8/15/11 3/16/12 1/14/11 7/13/10
f 11/19/14 12/20/15 10/18/14 9/17/13
f 15/23/16 16/24/16 14/22/16 13/21/16
f 17/27/18 18/28/19 4/26/18 3/25/17
f 19/31/21 17/32/22 3/30/21 8/29/20
f 18/35/24 20/36/25 6/34/24 4/33/23
f 20/39/27 19/40/28 8/38/27 6/37/26
f 9/43/30 10/44/31 18/42/30 17/41/29
f 11/47/33 9/48/34 17/46/33 19/45/32
f 10/51/36 12/52/37 20/50/36 18/49/35
f 12/55/39 11/56/40 19/54/39 20/53/38
f 13/59/41 14/60/41 5/58/41 7/57/41
f 15/63/42 13/64/42 7/62/42 1/61/42
f 14/67/43 16/68/43 2/66/43 5/65/43
f 16/71/44 15/72/44 1/70/44 2/69/44

