# ProBuilder 4.1.0
# https://unity3d.com/unity/features/worldbuilding/probuilder
# 9/09/2019 2:45:16 PM

mtllib ./Pillar5.mtl
o Pillar5

g Pillar5
v -9.4 -5.4 32.17446
v -14.85813 -5.4 32.17446
v -7.489177 0.9868674 31.48464
v -13.3779 0.9868674 33.2084
v -14.85813 -5.4 28.02449
v -14.75548 0.9868674 28.71432
v -13.01244 -1.584925 25.51115
v -11.01374 -1.584925 25.51115
v -12.97485 0.7538753 25.76376
v -10.81847 0.7538753 25.13253
v -9.4 -5.4 28.02449
v -8.866754 0.9868674 26.99055
v -12.05936 8.62421 30.7477
v -15.03783 8.62421 31.61956
v -12.75612 8.62421 28.3674
v -15.73459 8.62421 29.23927
v -6.430125 -12.70823 27.90205
v -15.42565 -12.70823 24.89598
v -8.832481 -12.70823 35.09098
v -17.828 -12.70823 32.08491

vt 0 -0.3610151
vt -5.45813 -0.3610151
vt 1.910823 6.062997
vt -3.977899 5.877896
vt 3.361961 -1.232322
vt -0.7880096 -1.232322
vt 4.395901 5.323832
vt -0.09818459 5.012806
vt 3.612443 3.438511
vt 1.613736 3.438511
vt 3.574852 5.790913
vt 1.418468 5.723131
vt 0.7880096 0
vt -3.361961 0
vt 1.821949 6.40909
vt -2.672136 6.523706
vt 2.659356 1.935196
vt 5.637826 2.807062
vt 3.356124 -0.4451008
vt 6.334594 0.4267654
vt 2.969874 -0.9104481
vt -6.025648 -3.916523
vt 0.5675182 6.278484
vt -8.428003 3.272408
vt 1.083174 5.397859
vt -5.052655 5.397859
vt -3.095918 13.2905
vt -6.199373 13.2905
vt 1.585669 5.124708
vt -3.114812 5.124708
vt 1.409141 13.80346
vt -1.070841 13.81839
vt 3.037071 7.058778
vt -1.66341 7.058778
vt 1.03152 14.77801
vt -1.448462 14.77345
vt 5.112211 6.336143
vt -1.023618 6.336143
vt 6.199374 13.97691
vt 3.095919 13.97691
vt 0 -0.01320007
vt 5.45813 -0.01320007
vt -2.969874 -7.322454
vt 6.025648 -7.372809
vt -6.278484 -7.330231
vt 0.9104481 -7.516225
vt -0.7880096 -0.4225772
vt 3.361961 -0.4225772
vt -3.916523 -7.752808
vt 3.272408 -7.938802
vt -5.45813 0.04119383
vt 0 0.04119383
vt -8.428003 -7.267583
vt 0.5675182 -7.23075
vt 5.45813 0.433515
vt 0 0.433515
vt 3.612443 5.002068
vt 1.613736 5.002068
vt 2.704951 6.048623
vt 2.16949 -0.353858
vt -0.7412285 5.815061
vt -0.9373078 3.470543
vt 0.5518652 0.09644099
vt 0.8953196 6.579303
vt 3.463947 3.968857
vt 3.589717 6.342809
vt -0.7122734 -1.205786
vt 5.174129 0.5258819
vt 1.24521 -3.072324
vt 3.400745 -2.438206

vn 0 0.1073823 0.9942178
vn 0.1371727 -0.05396115 0.9657182
vn 0.2743454 -0.2153046 0.9372185
vn -0.9741789 0.2257774 0
vn -0.9650713 0.1047464 0.1465163
vn -0.9559637 -0.01628456 0.2930326
vn 0 0.1073819 -0.9942179
vn -0.1392608 -0.01169789 -0.9728512
vn -0.2785216 -0.1307777 -0.9514846
vn 0.9965327 -0.08320153 0
vn 0.9538718 -0.1929927 -0.1396572
vn 0.911211 -0.3027839 -0.2793145
vn 0 1 0
vn 0 -1 0
vn 0.271847 0.2522832 0.9286832
vn 0.8413641 0.4749651 -0.2579043
vn 0.8416443 0.4774957 -0.2521775
vn 0.8419245 0.4800263 -0.2464507
vn -0.9459479 -0.1452732 0.2899624
vn -0.9480484 -0.1431004 0.2840465
vn -0.9501489 -0.1409276 0.2781305
vn -0.2808083 0.0299369 -0.9592969
vn 0 0.01675115 -0.9998596
vn 0.148069 0.1865551 -0.9430186
vn 0.296138 0.3563592 -0.8861774
vn 0.9969984 0.07742161 0
vn 0.9417774 0.2163658 0.1481321
vn 0.8865564 0.35531 0.2962643
vn -0.9969984 0.07742161 0
vn -0.9404138 0.220103 -0.1476765
vn -0.8838292 0.3627844 -0.295353
vn 0 -0.01225292 0.999925
vn -0.1493941 0.1606799 0.9470162
vn -0.2987882 0.3336127 0.8941075
vn 0 -0.5501391 -0.835073
vn -0.8516377 0.06979372 -0.5194633
vn 0.689958 -0.1714513 -0.7032513
vn -0.02793533 0.9950438 -0.09543264

usemtl ProBuilderDefault
f 3/3/2 4/4/3 2/2/2 1/1/1
f 4/7/5 6/8/6 5/6/5 2/5/4
f 9/11/8 10/12/9 8/10/8 7/9/7
f 12/15/11 3/16/12 1/14/11 11/13/10
f 15/19/13 16/20/13 14/18/13 13/17/13
f 19/23/14 20/24/14 18/22/14 17/21/14
f 13/27/15 14/28/15 4/26/15 3/25/15
f 15/31/17 13/32/18 3/30/17 12/29/16
f 14/35/20 16/36/21 6/34/20 4/33/19
f 16/39/22 15/40/22 12/38/22 6/37/22
f 17/43/24 18/44/25 5/42/24 11/41/23
f 19/45/27 17/46/28 11/13/27 1/14/26
f 18/49/30 20/50/31 2/48/30 5/47/29
f 20/53/33 19/54/34 1/52/33 2/51/32
f 7/57/35 8/58/35 11/56/35 5/55/35
f 9/61/36 7/62/36 5/60/36 6/59/36
f 8/65/37 10/66/37 12/64/37 11/63/37
f 10/69/38 9/70/38 6/68/38 12/67/38

