# ProBuilder 4.1.0
# https://unity3d.com/unity/features/worldbuilding/probuilder
# 23/08/2019 12:26:23 PM

mtllib ./Pipe8.mtl
o Pipe8

g Pipe8
v -20.02519 0.26 17.40083
v -21.70339 0.26 17.40083
v -20.02519 0.8797615 17.40083
v -21.70339 0.8797615 17.40083
v -21.70339 0.26 16.81
v -21.70339 0.8797615 16.81
v -20.02519 0.26 16.81
v -20.02519 0.8797615 16.81
v -19.11527 0.26 20.43251
v -19.70017 0.26 20.34901
v -19.11527 0.8797615 20.43251
v -19.70017 0.8797615 20.34901
v -19.11526 0.26 18.0159
v -19.70016 0.26 17.9324
v -19.11526 0.8797615 18.0159
v -19.70016 0.8797615 17.9324

vt -0.5551949 0
vt -2.233387 0
vt -0.5551949 0.6197615
vt -2.233387 0.6197615
vt -0.4091682 0
vt -1 0
vt -0.4091682 0.6197615
vt -1 0.6197615
vt 2.233387 0
vt 0.5551949 0
vt 2.233387 0.6197615
vt 0.5551949 0.6197615
vt 0.7218148 0
vt 0.1309842 0
vt 0.7218148 0.6197615
vt 0.1309842 0.6197615
vt 0.5551949 -0.4091682
vt 2.233387 -0.4091682
vt 0.5551949 -1
vt 2.233387 -1
vt -0.5551949 -1
vt -2.233387 -1
vt -0.5551949 -0.4091682
vt -2.233387 -0.4091682
vt 0.3547421 0.205904
vt -0.2301579 0.1224003
vt 1.132657 0.6197615
vt 1.132657 0
vt -0.3780343 0.6197615
vt -0.3780343 0
vt -0.6387098 0
vt -0.6387098 0.6197615
vt -0.01564143 0
vt -0.01564143 0.6197615
vt 0.2301579 0.1224003
vt -0.3547421 0.205904
vt 0.3547287 2.622511
vt -0.2301712 2.539007
vt -0.205902 0.6197615
vt -0.205902 0
vt -2.622509 0.6197615
vt -2.622509 0
vt 0.1224016 0
vt 0.1224016 0.6197615
vt 2.539008 0
vt 2.539008 0.6197615
vt 0.2301712 2.539007
vt -0.3547287 2.622511

vn 0 0 1
vn -1 0 0
vn 0 0 -1
vn -0.1413328 0 0.9899622
vn 0 1 0
vn 0 -1 0
vn 0.7982463 0 -0.6023312
vn -0.8531464 0 0.5216715
vn 1 0 5.524871E-06

usemtl ProBuilderDefault
f 3/3/1 4/4/1 2/2/1 1/1/1
f 4/7/2 6/8/2 5/6/2 2/5/2
f 6/11/3 8/12/3 7/10/3 5/9/3
f 11/15/4 12/16/4 10/14/4 9/13/4
f 8/19/5 6/20/5 4/18/5 3/17/5
f 1/23/6 2/24/6 5/22/6 7/21/6
f 13/25/6 14/26/6 1/23/6 7/21/6
f 15/29/7 13/30/7 7/28/7 8/27/7
f 14/33/8 16/34/8 3/32/8 1/31/8
f 16/35/5 15/36/5 8/19/5 3/17/5
f 9/37/6 10/38/6 14/26/6 13/25/6
f 11/41/9 9/42/9 13/40/9 15/39/9
f 10/45/2 12/46/2 16/44/2 14/43/2
f 12/47/5 11/48/5 15/36/5 16/35/5

