# ProBuilder 4.1.0
# https://unity3d.com/unity/features/worldbuilding/probuilder
# 9/09/2019 2:46:02 PM

mtllib ./Pipe7.mtl
o Pipe7

g Pipe7
v -12.21909 -0.09000002 33.62893
v -13.11022 -0.09000002 33.62893
v -12.21909 0.91 33.62893
v -13.11022 0.91 33.62893
v -14.51045 -0.09000002 33.06349
v -15.06664 -0.09000002 32.60931
v -14.51045 0.91 33.06349
v -15.06664 0.91 32.60931
v -9.735764 -0.09000002 29.74716
v -9.727501 -0.09000002 30.57505
v -9.735764 0.91 29.74716
v -9.727501 0.91 30.57505
v -12.03 -0.09000002 31.44497
v -12.21909 -0.09000002 32.16302
v -12.03 0.91 31.44497
v -12.21909 0.91 32.16302
v -13.11022 0.91 32.16302
v -13.10593 0.91 31.44497
v -13.10593 -0.09000002 31.44497
v -13.11022 -0.09000002 32.16302
v -12.19051 -0.09000002 29.7472
v -11.67599 -0.09000002 30.57509
v -12.19051 0.91 29.7472
v -11.67599 0.91 30.57509
v -13.87842 -0.09000002 32.27684
v -14.16081 -0.09000002 31.61663
v -13.87842 0.91 32.27684
v -14.16081 0.91 31.61663

vt -0.1890879 -1.117587E-08
vt -1.080219 -1.117587E-08
vt -0.1890879 1
vt -1.080219 1
vt -2.368126 -1.117587E-08
vt -3.08619 -1.117587E-08
vt -2.368126 1
vt -3.08619 1
vt 3.999742 -1.117587E-08
vt 3.171812 -1.117587E-08
vt 3.999742 1
vt 3.171812 1
vt 2.248379 -1.117587E-08
vt 1.505849 -1.117587E-08
vt 2.248379 1
vt 1.505849 1
vt 0.1890879 -1.606979
vt 1.080219 -1.606979
vt 0 -2.325029
vt 1.075927 -2.325029
vt -1.075927 -2.325029
vt -0.1890879 -1.606979
vt -1.080219 -1.606979
vt -0.1605072 -4.0228
vt 0.3540115 -3.194914
vt -1.535869 1
vt -1.535869 -1.117587E-08
vt -3.464708 1
vt -3.464708 -1.117587E-08
vt 2.153526 -1.117587E-08
vt 2.153526 1
vt 3.092686 -1.117587E-08
vt 3.092686 1
vt -0.3540115 -3.194914
vt 0.1605072 -4.0228
vt 2.294236 -4.022839
vt 2.302499 -3.19495
vt 0.1604447 1
vt 0.1604447 -1.117587E-08
vt -2.294299 1
vt -2.294299 -1.117587E-08
vt 0.354071 -1.117587E-08
vt 0.354071 1
vt 2.302558 -1.117587E-08
vt 2.302558 1
vt -2.302499 -3.19495
vt -2.294236 -4.022839
vt -0.1890879 -0.1410713
vt -1.080219 -0.1410713
vt 1.606979 1
vt 1.606979 -1.117587E-08
vt 0.1410713 1
vt 0.1410713 -1.117587E-08
vt -1.606979 -1.117587E-08
vt -1.606979 1
vt -0.1410713 -1.117587E-08
vt -0.1410713 1
vt 1.080219 -0.1410713
vt 0.1890879 -0.1410713
vt -1.848421 -1.493162
vt -2.130806 -2.15337
vt -0.8330347 1
vt -0.8330347 -1.117587E-08
vt -1.609622 1
vt -1.609622 -1.117587E-08
vt 0.6885203 -1.117587E-08
vt 0.6885203 1
vt 1.757275 -1.117587E-08
vt 1.757275 1
vt 2.130806 -2.15337
vt 1.848421 -1.493162
vt -2.480454 -0.7065125
vt -3.036636 -1.16069
vt 0.006274714 1
vt 0.006274714 -1.117587E-08
vt -1.002826 1
vt -1.002826 -1.117587E-08
vt -0.1543751 -1.117587E-08
vt -0.1543751 1
vt 1.189478 -1.117587E-08
vt 1.189478 1
vt 3.036636 -1.16069
vt 2.480454 -0.7065125

vn 0 0 1
vn -0.6325033 0 0.7745577
vn 0.9999502 0 -0.009979874
vn 0.9670324 0 0.2546537
vn 0 1 0
vn 0 -1 0
vn -0.8802037 0 -0.4745962
vn 0.9262359 0 0.3769445
vn -1.554011E-05 0 -1
vn 1 0 0
vn -1 0 0
vn 0.1465607 0 0.9892017
vn -0.1606163 0 -0.9870169
vn 0.7795553 0 0.6263334
vn -0.7386816 0 -0.6740546

usemtl ProBuilderDefault
f 3/3/1 4/4/1 2/2/1 1/1/1
f 7/7/2 8/8/2 6/6/2 5/5/2
f 11/11/3 12/12/3 10/10/3 9/9/3
f 15/15/4 16/16/4 14/14/4 13/13/4
f 15/19/5 18/20/5 17/18/5 16/17/5
f 14/22/6 20/23/6 19/21/6 13/19/6
f 21/24/6 22/25/6 13/19/6 19/21/6
f 23/28/7 21/29/7 19/27/7 18/26/7
f 22/32/8 24/33/8 15/31/8 13/30/8
f 24/34/5 23/35/5 18/20/5 15/19/5
f 9/36/6 10/37/6 22/25/6 21/24/6
f 11/40/9 9/41/9 21/39/9 23/38/9
f 10/44/1 12/45/1 24/43/1 22/42/1
f 12/46/5 11/47/5 23/35/5 24/34/5
f 1/48/6 2/49/6 20/23/6 14/22/6
f 3/52/10 1/53/10 14/51/10 16/50/10
f 2/56/11 4/57/11 17/55/11 20/54/11
f 4/58/5 3/59/5 16/17/5 17/18/5
f 25/60/6 26/61/6 19/21/6 20/23/6
f 27/64/12 25/65/12 20/63/12 17/62/12
f 26/68/13 28/69/13 18/67/13 19/66/13
f 28/70/5 27/71/5 17/18/5 18/20/5
f 5/72/6 6/73/6 26/61/6 25/60/6
f 7/76/14 5/77/14 25/75/14 27/74/14
f 6/80/15 8/81/15 28/79/15 26/78/15
f 8/82/5 7/83/5 27/71/5 28/70/5

