# ProBuilder 4.1.0
# https://unity3d.com/unity/features/worldbuilding/probuilder
# 9/09/2019 2:46:36 PM

mtllib ./Pipe13.mtl
o Pipe13

g Pipe13
v 55.2832 4.448505 49.48859
v 54.628 4.235419 49.48859
v 55.2832 4.787546 49.48859
v 54.628 4.57446 49.48859
v 54.628 4.235419 49.0799
v 54.628 4.57446 49.0799
v 55.2832 4.448505 49.0799
v 55.2832 4.787546 49.0799
v 56.1306 4.235419 49.0799
v 56.1306 4.235419 49.48859
v 56.1306 4.57446 49.0799
v 56.1306 4.57446 49.48859
v 55.57968 4.448505 49.0799
v 55.57968 4.448505 49.48859
v 55.57968 4.787546 49.0799
v 55.57968 4.787546 49.48859
v 55.2832 8.545097 49.48859
v 55.2832 8.545097 49.0799
v 55.57968 8.545097 49.48859
v 55.57968 8.545097 49.0799
v 55.2832 8.177615 49.48859
v 55.2832 8.177615 49.0799
v 55.57968 8.177615 49.48859
v 55.57968 8.177615 49.0799

vt -0.3448029 0.2535052
vt -1 0.0404191
vt -0.3448029 0.592546
vt -1 0.3794599
vt -0.4194069 0.0404191
vt -0.8281021 0.0404191
vt -0.4194069 0.3794599
vt -0.8281021 0.3794599
vt 1 0.0404191
vt 0.3448029 0.2535052
vt 1 0.3794599
vt 0.3448029 0.592546
vt 0.8281021 0.0404191
vt 0.4194069 0.0404191
vt 0.8281021 0.3794599
vt 0.4194069 0.3794599
vt 0.1446355 -0.4194069
vt 0.8336123 -0.4194069
vt 0.1446355 -0.8281021
vt 0.8336123 -0.8281021
vt -0.2494937 -0.8281021
vt -0.9384705 -0.8281021
vt -0.2494937 -0.4194069
vt -0.9384705 -0.4194069
vt -0.3448029 -0.8281021
vt -0.3448029 -0.4194069
vt -0.04832077 -0.8281021
vt -0.04832077 -0.4194069
vt 0.04832077 0.592546
vt 0.04832077 0.2535052
vt -0.04832077 0.2535052
vt -0.04832077 0.592546
vt 0.3448029 -0.4194069
vt 0.3448029 -0.8281021
vt 0.04832077 -0.4194069
vt 0.04832077 -0.8281021
vt -0.1365156 -0.8281021
vt -0.1365156 -0.4194069
vt 0.4541835 -0.8281021
vt 0.4541835 -0.4194069
vt -0.5026054 0.3794599
vt -0.5026054 0.0404191
vt 0.5026054 0.0404191
vt 0.5026054 0.3794599
vt 0.2588196 -0.4194069
vt 0.2588196 -0.8281021
vt -0.3318794 -0.4194069
vt -0.3318794 -0.8281021
vt -0.4194069 0.592546
vt -0.8281021 0.592546
vt -0.4194069 3.982615
vt -0.8281021 3.982615
vt -0.04832077 3.982615
vt -0.3448029 3.982615
vt 0.3448029 3.982615
vt 0.04832077 3.982615
vt 0.8281021 0.592546
vt 0.4194069 0.592546
vt 0.8281021 3.982615
vt 0.4194069 3.982615
vt -0.4194069 4.350097
vt -0.8281021 4.350097
vt -0.04832077 4.350097
vt -0.3448029 4.350097
vt 0.3448029 4.350097
vt 0.04832077 4.350097
vt 0.8281021 4.350097
vt 0.4194069 4.350097

vn 0 0 1
vn -1 0 0
vn 0 0 -1
vn 1 0 0
vn -0.3092791 0.9509713 0
vn 0.3092791 -0.9509713 0
vn 0 -1 0
vn 0 1 0
vn -0.3607355 -0.9326681 0
vn 0.3607355 0.9326681 0

usemtl ProBuilderDefault
f 3/3/1 4/4/1 2/2/1 1/1/1
f 4/7/2 6/8/2 5/6/2 2/5/2
f 6/11/3 8/12/3 7/10/3 5/9/3
f 11/15/4 12/16/4 10/14/4 9/13/4
f 8/19/5 6/20/5 4/18/5 3/17/5
f 1/23/6 2/24/6 5/22/6 7/21/6
f 13/27/7 14/28/7 1/26/7 7/25/7
f 15/29/3 13/30/3 7/10/3 8/12/3
f 14/31/1 16/32/1 3/3/1 1/1/1
f 19/35/8 20/36/8 18/34/8 17/33/8
f 9/39/9 10/40/9 14/38/9 13/37/9
f 11/41/3 9/42/3 13/30/3 15/29/3
f 10/43/1 12/44/1 16/32/1 14/31/1
f 12/47/10 11/48/10 15/46/10 16/45/10
f 21/51/2 22/52/2 8/50/2 3/49/2
f 23/53/1 21/54/1 3/3/1 16/32/1
f 22/55/3 24/56/3 15/29/3 8/12/3
f 24/59/4 23/60/4 16/58/4 15/57/4
f 17/61/2 18/62/2 22/52/2 21/51/2
f 19/63/1 17/64/1 21/54/1 23/53/1
f 18/65/3 20/66/3 24/56/3 22/55/3
f 20/67/4 19/68/4 23/60/4 24/59/4

