# ProBuilder 4.1.0
# https://unity3d.com/unity/features/worldbuilding/probuilder
# 23/08/2019 12:26:40 PM

mtllib ./Pipe10.mtl
o Pipe10

g Pipe10
v 24.00217 19.57 28.495
v 23.13 19.36964 28.69536
v 24.00217 20.57 28.495
v 23.13 20.77036 28.69536
v 23.13 19.36964 27.29465
v 23.13 20.77036 27.29465
v 24.00217 19.57 27.495
v 24.00217 20.57 27.495
v 27.88377 18.36493 27.46891
v 27.88377 18.36493 27.99387
v 28.31363 18.36683 27.46891
v 28.31363 18.36683 27.99387
v 27.28781 19.57 27.495
v 27.28781 19.57 28.495
v 27.28781 20.57 27.495
v 27.28781 20.57 28.495
v 27.68922 19.33821 27.495
v 27.68922 19.33821 28.27309
v 28.50806 19.91224 27.495
v 28.50806 19.91224 28.27309

vt -0.1245855 0
vt -1.019472 -0.2003555
vt -0.1245855 1
vt -1.019472 1.200356
vt 0.2003555 -0.2003555
vt -1.200356 -0.2003555
vt 0.2003555 1.200356
vt -1.200356 1.200356
vt 1.243361 -0.2003555
vt 0.3484748 0
vt 1.243361 1.200356
vt 0.3484748 1
vt 3.748421 -1.026094
vt 3.748421 -0.5011349
vt 4.178281 -1.026094
vt 4.178281 -0.5011349
vt 1.243361 0.2003555
vt 0.3484748 -1
vt 1.243361 -1.200356
vt -0.1245855 -1
vt -1.019472 -1.200356
vt -1.019472 0.2003555
vt -0.1278305 -1
vt -0.1278305 0
vt 3.15781 -1
vt 3.15781 0
vt 0.1278305 1
vt 0.1278305 0
vt -3.15781 1
vt -3.15781 0
vt -0.1278305 1
vt 3.15781 1
vt 0.1278305 -1
vt -3.15781 -1
vt 2.734661 -1
vt 2.734661 0
vt 3.198187 -1
vt 3.198187 -0.2219143
vt -4.378059 0.3422441
vt -3.559223 -0.2317839
vt 2.763611 0
vt 2.763611 1
vt 3.222281 -0.2317839
vt 3.9389 0.3422441
vt -2.305206 0
vt -2.305206 -1
vt -3.691442 -0.2219143
vt -3.691442 -1
vt -1 -0.9249384
vt -0.2219143 -0.9249384
vt -1.026094 -1.917477
vt -0.5011349 -1.917477
vt -4.390671 0.3247256
vt -3.571904 -0.2494008
vt -4.196595 -1.220956
vt -3.766776 -1.222955
vt 3.543659 -0.1288301
vt 4.350046 0.4625593
vt 3.783755 -1.131552
vt 4.207075 -1.111751
vt 0.2219143 0.8860696
vt 1 0.8860696
vt 0.5011349 -0.6715301
vt 1.026094 -0.6715301

vn 0.2238893 0 0.9746146
vn -1 0 0
vn 0.2238893 0 -0.9746146
vn 0.004410521 -0.9999903 0
vn 0.2238893 0.9746146 0
vn 0.2238893 -0.9746146 0
vn 0 -1 0
vn 0 0 -1
vn 0 0 1
vn 0 1 0
vn -0.5000453 -0.8659993 0
vn 0.4838211 0 0.875167
vn 0.2925096 -0.07217835 0.9297522
vn 0.1011982 -0.1443567 0.9843374
vn 0.4744905 0.8802606 0
vn -0.9806015 -0.1960121 0
vn -0.01297856 0.01851358 -0.9997444
vn -0.006548333 0.02264553 -0.9996929
vn -0.0001181038 0.02677747 -0.9996414
vn 0.1686148 -0.2405246 0.9558854
vn 0.08469968 -0.209209 0.9699675
vn 0.0007846101 -0.1778934 0.9840495
vn 0.9921784 -0.1248275 0

usemtl ProBuilderDefault
f 3/3/1 4/4/1 2/2/1 1/1/1
f 4/7/2 6/8/2 5/6/2 2/5/2
f 6/11/3 8/12/3 7/10/3 5/9/3
f 11/15/4 12/16/4 10/14/4 9/13/4
f 8/18/5 6/19/5 4/17/5 3/10/5
f 1/1/6 2/22/6 5/21/6 7/20/6
f 13/25/7 14/26/7 1/24/7 7/23/7
f 15/29/8 13/30/8 7/28/8 8/27/8
f 14/26/9 16/32/9 3/31/9 1/24/9
f 16/30/10 15/34/10 8/33/10 3/28/10
f 17/37/11 18/38/11 14/36/11 13/35/11
f 19/39/8 17/40/8 13/30/8 15/29/8
f 18/43/13 20/44/14 16/42/13 14/41/12
f 20/47/15 19/48/15 15/46/15 16/45/15
f 9/51/16 10/52/16 18/50/16 17/49/16
f 11/55/18 9/56/19 17/54/18 19/53/17
f 10/59/21 12/60/22 20/58/21 18/57/20
f 12/63/23 11/64/23 19/62/23 20/61/23

