# ProBuilder 4.1.0
# https://unity3d.com/unity/features/worldbuilding/probuilder
# 8/19/2019 12:42:17 PM

mtllib ./Pipe2.mtl
o Pipe2

g Pipe2
v -2.686332 -1.17 20.16009
v -2.763087 -1.17 19.9036
v -2.686332 -0.17 20.16009
v -2.763087 -0.17 19.9036
v -1.08 -1.17 19.02
v -1.08 -1.17 16.58882
v -1.08 -0.17 19.02
v -1.08 -0.17 16.58882
v -0.8891426 -1.17 15.62737
v -0.08000003 -1.17 15.42398
v -0.8891426 -0.17 15.62737
v -0.08000003 -0.17 15.42398
v -0.08000003 -1.17 16.58882
v -0.08 -1.17 19.02
v -0.08000003 -0.17 16.58882
v -0.08 -0.17 19.02
v 1.864687 -1.164148 16.38448
v 1.864687 -0.1758516 16.38448
v 1.864687 -1.164148 15.62831
v 1.864687 -0.1758516 15.62831
v 1.318626 -1.17 16.58882
v 1.318626 -0.17 16.58882
v 1.318626 -1.17 15.42398
v 1.318626 -0.17 15.42398
v -0.8939629 -1.17 20.16204
v -1.480147 -1.17 19.62668
v -0.8939629 -0.17 20.16204
v -1.480147 -0.17 19.62668
v -2.372012 -1.17 20.35368
v -2.448766 -1.17 19.70998
v -2.372012 -0.17 20.35368
v -2.448766 -0.17 19.70998

vt 0.3450131 0
vt 0.0772899 0
vt 0.3450131 1
vt 0.0772899 1
vt 0 0
vt -2.431185 0
vt 0 1
vt -2.431185 1
vt -0.04235553 0
vt -0.8766708 0
vt -0.04235553 1
vt -0.8766708 1
vt 2.431185 0
vt 2.431185 1
vt 1 0
vt 2.980232E-08 -2.431185
vt 1 -2.431185
vt -1 -2.431185
vt -1 0
vt -0.8091426 -3.392628
vt -2.980232E-08 -3.596025
vt -2.189941 1
vt -2.189941 0
vt -3.170145 1
vt -3.170145 0
vt 2.635524 0.005851626
vt 2.635524 0.9941484
vt 3.391686 0.005851626
vt 3.391686 0.9941484
vt 0.8091426 -3.392628
vt 1.398626 0
vt 1.398626 1
vt 1.398626 -3.596025
vt 1.398626 -2.431185
vt -1.398626 -2.431185
vt -1.398626 -3.596025
vt -1.398626 1
vt -1.398626 0
vt 2.161975 0
vt 2.161975 1
vt 2.745017 0.005851626
vt 2.745017 0.9941484
vt 1.944638 -3.391686
vt 1.944638 -2.635524
vt -1.38783 -2.431185
vt -1.38783 -3.596025
vt -1.933923 -2.635524
vt -1.933923 -3.391686
vt -0.04962093 1
vt -0.04962093 0
vt -0.6326624 0.9941484
vt -0.6326624 0.005851626
vt -0.8139629 1.142044
vt -1.400147 0.6066837
vt -1.402427 1
vt -1.402427 0
vt 0.5505893 0
vt 0.5505893 1
vt 1.277351 0
vt 1.277351 1
vt 1.400147 0.6066837
vt 0.8139629 1.142044
vt -2.292012 1.333681
vt -2.368767 0.6899815
vt -0.9540495 1
vt -0.9540495 0
vt -2.444471 1
vt -2.444471 0
vt 1.44698 0
vt 1.44698 1
vt 2.419174 0
vt 2.419174 1
vt 2.368767 0.6899815
vt 2.292012 1.333681
vt -2.606333 1.140085
vt -2.683087 0.8836002
vt -1.252126 1
vt -1.252126 0
vt -1.621282 1
vt -1.621282 0
vt 2.378709 0
vt 2.378709 1
vt 2.747877 0
vt 2.747877 1
vt 2.683087 0.8836002
vt 2.606333 1.140085

vn -0.9580228 0 0.2866919
vn -1 0 0
vn -0.2437889 0 -0.9698283
vn 1 0 -1.225835E-08
vn 0 1 0
vn 0 -1 0
vn -0.9808605 0 -0.194712
vn 0 0 1
vn 0 0 -1
vn 0.3504706 0 0.9365737
vn 0.01071544 -0.9999426 0
vn 0.01071544 0.9999426 0
vn 0.3504692 0 -0.9365743
vn 0.8143343 0 0.5803961
vn -0.8347763 0 -0.5505893
vn 0.1285791 0 0.9916993
vn -0.08568014 0 -0.9963228
vn -0.5244278 0 0.851455
vn -0.5244727 0 -0.8514273

usemtl ProBuilderDefault
f 3/3/1 4/4/1 2/2/1 1/1/1
f 7/7/2 8/8/2 6/6/2 5/5/2
f 11/11/3 12/12/3 10/10/3 9/9/3
f 15/14/4 16/7/4 14/5/4 13/13/4
f 15/16/5 8/17/5 7/15/5 16/5/5
f 14/5/6 5/19/6 6/18/6 13/16/6
f 9/20/6 10/21/6 13/16/6 6/18/6
f 11/24/7 9/25/7 6/23/7 8/22/7
f 19/28/4 20/29/4 18/27/4 17/26/4
f 12/21/5 11/30/5 8/17/5 15/16/5
f 21/31/8 22/32/8 15/7/8 13/5/8
f 23/33/6 21/34/6 13/16/6 10/21/6
f 22/35/5 24/36/5 12/21/5 15/16/5
f 24/37/9 23/38/9 10/5/9 12/7/9
f 17/41/10 18/42/10 22/40/10 21/39/10
f 19/43/11 17/44/11 21/34/11 23/33/11
f 18/47/12 20/48/12 24/46/12 22/45/12
f 20/51/13 19/52/13 23/50/13 24/49/13
f 25/53/6 26/54/6 5/19/6 14/5/6
f 27/55/14 25/56/14 14/5/14 16/7/14
f 26/59/15 28/60/15 7/58/15 5/57/15
f 28/61/5 27/62/5 16/5/5 7/15/5
f 29/63/6 30/64/6 26/54/6 25/53/6
f 31/67/16 29/68/16 25/66/16 27/65/16
f 30/71/17 32/72/17 28/70/17 26/69/17
f 32/73/5 31/74/5 27/62/5 28/61/5
f 1/75/6 2/76/6 30/64/6 29/63/6
f 3/79/18 1/80/18 29/78/18 31/77/18
f 2/83/19 4/84/19 32/82/19 30/81/19
f 4/85/5 3/86/5 31/74/5 32/73/5

