# ProBuilder 4.1.0
# https://unity3d.com/unity/features/worldbuilding/probuilder
# 8/19/2019 12:42:28 PM

mtllib ./Pipe3.mtl
o Pipe3

g Pipe3
v 5.609514 -1.86 48.98
v -5.24 -1.86 48.98
v 5.609514 -0.9235719 48.98
v -5.24 -0.7622861 48.98
v -5.24 -1.86 47.98
v -5.24 -0.7622861 47.98
v 5.609514 -1.86 47.98
v 5.609514 -0.9235719 47.98
v 19.44241 1.249706 47.98
v 19.44241 1.249706 48.98
v 19.44241 2.184777 47.98
v 19.44241 2.184777 48.98
v 12.31567 1.249706 47.98
v 12.31567 1.249706 48.98
v 12.31567 2.023491 47.98
v 12.31567 2.023491 48.98

vt 9.849514 0
vt -1 0
vt 9.849514 0.9364281
vt -1 1.097714
vt 0 0
vt 0 1.097714
vt 1 0
vt -9.849514 0
vt 1 1.097714
vt -9.849514 0.9364281
vt 1 3.109706
vt 0 3.109706
vt 1 4.044777
vt 0 4.044777
vt 9.849514 -1
vt -1 -1
vt 8.935563 -1
vt 8.935563 0
vt 16.32764 -1
vt 16.32764 0
vt -16.55567 3.883492
vt -16.55567 3.109706
vt 16.55567 3.109706
vt 16.55567 3.883492
vt -9.393959 0
vt -9.393959 -1
vt -16.7191 0
vt -16.7191 -1
vt 16.55567 -1
vt 16.55567 0
vt 23.68241 -1
vt 23.68241 0
vt -23.68241 4.044777
vt -23.68241 3.109706
vt 23.68241 3.109706
vt 23.68241 4.044777
vt -16.6393 0
vt -16.6393 -1
vt -23.76786 0
vt -23.76786 -1
vt 1.016206 0
vt -9.834507 0
vt -9.834507 -1
vt 1.016206 -1

vn 0 0 1
vn -1 0 0
vn 0 0 -1
vn 1 0 0
vn 0 -1 0
vn 0.4206811 -0.9072086 0
vn -0.4023218 0.9154983 0
vn -0.0226253 0.999744 0
vn 0.01486408 0.9998896 0

usemtl ProBuilderDefault
f 3/3/1 4/4/1 2/2/1 1/1/1
f 4/6/2 6/4/2 5/2/2 2/5/2
f 6/9/3 8/10/3 7/8/3 5/7/3
f 11/13/4 12/14/4 10/12/4 9/11/4
f 1/1/5 2/2/5 5/16/5 7/15/5
f 13/19/6 14/20/6 1/18/6 7/17/6
f 15/21/3 13/22/3 7/8/3 8/10/3
f 14/23/1 16/24/1 3/3/1 1/1/1
f 16/27/7 15/28/7 8/26/7 3/25/7
f 9/31/5 10/32/5 14/30/5 13/29/5
f 11/33/3 9/34/3 13/22/3 15/21/3
f 10/35/1 12/36/1 16/24/1 14/23/1
f 12/39/8 11/40/8 15/38/8 16/37/8
f 4/41/9 3/42/9 8/43/9 6/44/9

