# ProBuilder 4.1.0
# https://unity3d.com/unity/features/worldbuilding/probuilder
# 9/09/2019 1:02:03 PM

mtllib ./Platform21.mtl
o Platform21

g Platform21
v 25.16938 5.59 8.92
v 22.04372 5.59 8.342714
v 25.16938 7.373589 8.92
v 22.04372 7.373589 8.342714
v 16.8344 5.59 2.793432
v 19.44546 5.59 3.466581
v 16.8344 8.777973 2.78359
v 19.44546 8.777973 3.193552
v 22.4217 5.59 6.66464
v 25.16938 5.59 5.659174
v 22.4217 7.373589 6.66464
v 25.16938 7.373589 5.659174
v 27.09151 5.59 6.53879
v 27.09151 5.59 8.040377
v 26.94973 6.27529 6.53879
v 26.94973 6.27529 8.040377
v 19.11515 5.59 6.486525
v 20.47264 5.59 5.614073
v 19.11515 7.373589 6.486525
v 20.47264 7.373589 5.614073
v 16.8344 5.59 3.2945
v 19.44545 5.59 3.876734
v 16.8344 7.533697 3.380911
v 19.44545 7.533697 3.963144
v 19.44545 8.816731 3.743662
v 16.8344 8.816731 3.161428
v 19.44546 9.574779 2.837797
v 16.8344 9.574779 2.255568
v 17.11397 7.019782 -5.96876
v 19.16589 7.019782 -5.958033
v 17.11397 8.151113 -5.827776
v 19.16589 8.151113 -5.817049
v 16.8344 8.777973 1.524477
v 19.44546 8.777973 1.892302
v 16.8344 9.574779 1.319456
v 19.44546 9.574779 1.901686
v 16.83752 5.757811 1.61944
v 19.45978 5.757811 1.619452
v 16.82721 5.757811 1.36236
v 19.43927 5.757811 1.362795
v 16.8344 8.722843 1.03076
v 16.8344 8.144913 0.8897762
v 19.44546 8.144913 0.900507
v 19.44546 8.722843 1.041491
v 16.8344 7.591536 -1.115126
v 19.44546 7.591536 -1.104399
v 16.8344 8.722866 -0.9741421
v 19.44546 8.722866 -0.9634151
v 16.28438 7.019757 -2.63191
v 19.99548 7.019757 -2.621183
v 16.28438 8.151088 -2.490927
v 19.99548 8.151088 -2.4802
v 15.75214 7.019769 -4.06262
v 20.52772 7.019769 -4.051893
v 15.75214 8.1511 -3.921637
v 20.52772 8.1511 -3.91091

vt -0.9249804 0
vt -4.103504 0
vt -0.9249804 1.783588
vt -4.103504 1.783588
vt 10.51138 0.01081276
vt 7.814943 0.01081276
vt 10.51383 3.198801
vt 7.883103 3.199562
vt 2.688635 0
vt -0.2372341 0
vt 2.688635 1.783588
vt -0.2372341 1.783588
vt 2.38121 -0.1988611
vt 0.8796234 -0.1988611
vt 2.38121 0.500942
vt 0.8796234 0.500942
vt 0.9406242 0
vt 4.066284 -0.5772858
vt 0.9406242 -3.260826
vt 3.688305 -2.25536
vt -0.9406242 -3.260826
vt -3.688305 -2.25536
vt -0.9406242 0
vt -4.066284 -0.5772858
vt 0.981514 -2.38121
vt 0.981514 -0.8796234
vt 2.287707 1.783588
vt 2.287707 0
vt 0.3019119 0.6852894
vt 0.1747956 0
vt -0.8553169 0
vt -0.8553169 1.783588
vt 1.258531 0
vt 1.129605 0.6852894
vt 1.73699 0
vt 1.73699 -3.260826
vt -0.3548798 -0.8796234
vt -0.3548798 -2.38121
vt -6.994854 -2.433475
vt -5.637356 -3.305927
vt -3.743565 1.783588
vt -3.743565 0
vt -7.210835 1.783588
vt -7.210835 0
vt 4.316813 0
vt 4.316813 1.783588
vt 6.53097 0
vt 6.53097 1.783588
vt 5.637356 -3.305927
vt 6.994854 -2.433475
vt -9.2756 -5.6255
vt -6.664547 -5.043266
vt -6.101767 1.783588
vt -6.101767 0
vt -9.954901 1.943697
vt -10.02455 0
vt 5.714836 0
vt 5.714836 1.783588
vt 7.733119 0
vt 7.658737 1.943697
vt 5.711111 -3.40375
vt 7.067266 -2.529211
vt 6.744407 -5.058628
vt 9.352876 -5.631453
vt -9.2756 -6.126568
vt -6.664543 -5.453419
vt -5.539089 1.943697
vt -5.6255 0
vt -6.13641 3.187973
vt -6.126568 0
vt 5.043204 -2.755666E-06
vt 4.956794 1.943694
vt 5.453357 -2.755666E-06
vt 5.726386 3.187971
vt 5.959568 -6.789324
vt 8.526317 -7.543245
vt 5.820512 -7.962307
vt 8.387265 -8.716226
vt -7.583611 2.475035
vt -10.25879 2.475035
vt -7.63138 3.77583
vt -10.30656 3.77583
vt 5.726329 3.188026
vt 6.082084 3.984831
vt 5.176219 3.226784
vt -5.758572 3.226731
vt -6.664433 3.984778
vt 9.07374 -0.416485
vt 7.02179 -0.416485
vt 9.073003 0.7235966
vt 7.021053 0.7235966
vt -9.2756 -6.13641
vt -6.664543 -5.726448
vt -9.275597 -7.395523
vt -6.664543 -7.027699
vt -7.600506 3.984803
vt -7.395485 3.187999
vt 7.027699 3.187973
vt 7.018314 3.984778
vt 6.664543 -6.082203
vt 9.2756 -6.664433
vt 6.664543 -7.018314
vt 9.275597 -7.600544
vt -9.272484 -7.30056
vt -6.650223 -7.300549
vt -9.282791 -7.55764
vt -6.670734 -7.557205
vt -7.395523 3.187973
vt -7.88924 3.132843
vt -8.030224 2.554913
vt 8.019467 2.554912
vt 7.878484 3.132843
vt 7.367046 -3.339162
vt 9.916664 -4.149125
vt 7.183323 -4.535813
vt 9.732945 -4.934964
vt -10.21654 3.373214
vt -7.57971 3.373214
vt -10.20022 0.3516005
vt -7.60359 0.3629313
vt -8.006913 2.531508
vt -7.372214 3.164571
vt -7.534313 0.1443985
vt -7.277259 0.144426
vt 7.04904 3.221351
vt 8.04083 2.588282
vt 7.321843 0.2011496
vt 7.578564 0.2012487
vt 6.697441 4.027884
vt 9.30852 4.027884
vt 6.701736 1.596427
vt 9.313772 1.594468
vt -9.278489 -7.06381
vt -6.667433 -7.052679
vt -9.277862 -9.143681
vt -6.666806 -9.132552
vt -9.894142 3.132866
vt -10.03513 2.001535
vt 7.87851 3.132843
vt 10.0244 2.001535
vt 9.883415 3.132866
vt 6.664539 -7.878546
vt 9.275597 -7.889277
vt 6.664539 -9.883452
vt 9.275597 -9.894179
vt -9.27869 -8.686496
vt -6.667636 -8.67503
vt -9.827825 -10.30777
vt -6.116727 -10.2957
vt -12.54598 3.357832
vt -12.67775 2.22539
vt -14.15921 2.785492
vt -14.29098 1.65305
vt 6.999018 1.565966
vt 6.867251 2.698408
vt 8.61225 0.9936265
vt 8.480483 2.126068
vt 6.669376 -8.149841
vt 9.28043 -8.161304
vt 6.11847 -9.770518
vt 9.829568 -9.782579
vt -9.825619 -11.55192
vt -6.114517 -11.5412
vt -10.35786 -12.98263
vt -5.582279 -12.97191
vt -14.12071 2.785721
vt -14.25285 1.653322
vt -15.64721 2.785733
vt -15.77935 1.653335
vt 8.685028 1.004964
vt 8.552892 2.137363
vt 10.21153 1.004977
vt 10.07939 2.137375
vt 6.114517 -11.40022
vt 9.825619 -11.41095
vt 5.582279 -12.83093
vt 10.35786 -12.84166
vt -8.996029 -14.88877
vt -6.944107 -14.87804
vt -4.427639 1.406077
vt -4.542353 0.271781
vt -6.770274 1.406089
vt -6.884989 0.2717935
vt 13.79999 1.209365
vt 13.68527 2.343661
vt 16.14262 1.209377
vt 16.02791 2.343673
vt 6.944107 -14.73707
vt 8.996029 -14.74779

vn -0.1816208 0 0.9833687
vn 0.2496432 -0.002989441 -0.9683333
vn 0.2021003 -0.04364763 -0.9763568
vn 0.1545574 -0.08430582 -0.9843803
vn -0.3436471 0 -0.9390989
vn 0.9792603 0.2026065 0
vn 0 1 0
vn 0 -1 0
vn 0.4429539 0 -0.8965444
vn 0.4287708 0.04288857 -0.9012511
vn 0.4145876 0.08577714 -0.9059577
vn 0.4161243 0 0.9093077
vn 0.4531964 0.05071766 0.8874782
vn 0.4902685 0.1014353 0.8656487
vn 0.5250322 0.8510824 0
vn -0.5353462 0 0.8446327
vn 0.4744775 0 -0.8802677
vn -0.8059968 0 0.5919199
vn -0.8096853 -0.01291841 0.5865436
vn -0.8133739 -0.02583682 0.5811672
vn 0.8608003 0 -0.508943
vn 0.8553265 0.01170325 -0.5177215
vn 0.8498529 0.0234065 -0.5265
vn 0.04437428 0.9966262 0.0690445
vn 0.01532715 0.9973186 0.0652862
vn -0.01371998 0.9980111 0.0615279
vn -1 0 0
vn 1 -4.134784E-07 9.300682E-06
vn -0.1416619 0.7591702 0.6352894
vn -0.2146709 0.1646848 0.9627021
vn 0.005187552 0.1236593 -0.9923112
vn 0.1550159 0.7019215 -0.6951808
vn 0.0794541 0.5114316 -0.8211359
vn 0.003892289 0.3209418 -0.947091
vn -0.1394278 0.03097696 0.9897476
vn -0.06971608 -0.02949972 0.9928458
vn -4.346506E-06 -0.0899764 0.9959439
vn -0.9999937 0.002516901 -0.002510398
vn -0.9995954 0.001373358 0.0187756
vn -0.9991972 0.0002298147 0.04006159
vn 0.9999822 0.00503129 -0.003207618
vn 0.9983211 -0.006490329 -0.04142962
vn 0.9966601 -0.01801195 -0.07965162
vn 0.004034726 -0.1901367 -0.9817494
vn 0.002099022 -0.1921709 -0.9813551
vn 0.000163318 -0.1942051 -0.9809609
vn -0.001093449 -0.9639549 0.2660633
vn -0.00145103 -0.9355478 0.3531973
vn -0.00123484 -0.9356958 0.3528053
vn -0.00101865 -0.9358439 0.3524134
vn -0.9337124 -0.04427358 0.355276
vn 0.9337124 -0.04427358 0.355276
vn 0.001447249 0.9358947 -0.3522771
vn 0.001233885 0.9357473 -0.3526689
vn 0.001020521 0.9355998 -0.3530608
vn -0.9363641 -0.04340876 0.3483362
vn 0.9363641 -0.04340876 0.3483362
vn -0.8115465 0.07225358 -0.5798032
vn 0.8115465 0.07225358 -0.5798032

usemtl ProBuilderDefault
f 3/3/1 4/4/1 2/2/1 1/1/1
f 7/7/3 8/8/4 6/6/3 5/5/2
f 11/11/5 12/12/5 10/10/5 9/9/5
f 15/15/6 16/16/6 14/14/6 13/13/6
f 12/19/7 11/20/7 4/18/7 3/17/7
f 1/23/8 2/24/8 9/22/8 10/21/8
f 13/25/8 14/26/8 1/23/8 10/21/8
f 15/29/10 13/30/11 10/28/10 12/27/9
f 14/33/13 16/34/14 3/32/13 1/31/12
f 16/37/15 15/38/15 12/36/15 3/35/15
f 17/39/8 18/40/8 9/22/8 2/24/8
f 19/43/16 17/44/16 2/42/16 4/41/16
f 18/47/17 20/48/17 11/46/17 9/45/17
f 20/49/7 19/50/7 4/18/7 11/20/7
f 21/51/8 22/52/8 18/40/8 17/39/8
f 23/55/19 21/56/20 17/54/19 19/53/18
f 22/59/22 24/60/23 20/58/22 18/57/21
f 24/63/25 23/64/26 19/62/25 20/61/24
f 5/65/8 6/66/8 22/52/8 21/51/8
f 7/69/27 5/70/27 21/68/27 23/67/27
f 6/73/28 8/74/28 24/72/28 22/71/28
f 27/77/29 28/78/29 26/76/29 25/75/29
f 25/81/30 26/82/30 23/80/30 24/79/30
f 27/84/28 25/85/28 24/72/28 8/83/28
f 26/86/27 28/87/27 7/69/27 23/67/27
f 31/90/31 32/91/31 30/89/31 29/88/31
f 33/94/8 34/95/8 8/93/8 7/92/8
f 35/96/27 33/97/27 7/69/27 28/87/27
f 34/98/28 36/99/28 27/84/28 8/74/28
f 36/102/7 35/103/7 28/101/7 27/100/7
f 39/106/8 40/107/8 38/105/8 37/104/8
f 41/109/27 42/110/27 33/108/27 35/96/27
f 43/111/28 44/112/28 36/99/28 34/98/28
f 44/115/33 41/116/34 35/114/33 36/113/32
f 37/119/36 38/120/37 34/118/36 33/117/35
f 39/123/39 37/124/40 33/122/39 42/121/38
f 38/127/42 40/128/43 43/126/42 34/125/41
f 40/131/45 39/132/46 42/130/45 43/129/44
f 45/135/47 46/136/47 43/134/47 42/133/47
f 47/137/27 45/138/27 42/110/27 41/109/27
f 46/140/28 48/141/28 44/139/28 43/111/28
f 48/144/7 47/145/7 41/143/7 44/142/7
f 49/148/49 50/149/50 46/147/49 45/146/48
f 51/152/51 49/153/51 45/151/51 47/150/51
f 50/156/52 52/157/52 48/155/52 46/154/52
f 52/160/54 51/161/55 47/159/54 48/158/53
f 53/164/8 54/165/8 50/163/8 49/162/8
f 55/168/56 53/169/56 49/167/56 51/166/56
f 54/172/57 56/173/57 52/171/57 50/170/57
f 56/176/7 55/177/7 51/175/7 52/174/7
f 29/178/8 30/179/8 54/165/8 53/164/8
f 31/182/58 29/183/58 53/181/58 55/180/58
f 30/186/59 32/187/59 56/185/59 54/184/59
f 32/188/7 31/189/7 55/177/7 56/176/7

