# ProBuilder 4.1.0
# https://unity3d.com/unity/features/worldbuilding/probuilder
# 9/09/2019 2:48:15 PM

mtllib ./Platform7.mtl
o Platform7

g Platform7
v 6.115607 7.74 -25.15894
v 2.86 7.74 -25.15894
v 6.115607 8.681533 -25.15894
v 2.86 8.681533 -25.15894
v 1.025421 7.74 -26.74064
v 1.025421 7.74 -31.66589
v 1.025421 8.681533 -26.74064
v 1.025421 8.681533 -31.66589
v 2.86 7.74 -32.3994
v 6.115607 7.74 -32.06323
v 2.86 8.681533 -32.3994
v 6.115607 8.681533 -32.06323
v 20.44599 4.536987 -30.66588
v 20.44599 4.536987 -27.0579
v 20.44599 5.598694 -30.66588
v 20.44599 5.598694 -27.0579
v 9.25593 6.798708 -31.3442
v 9.25593 6.798708 -27.73622
v 9.25593 7.740241 -31.3442
v 9.25593 7.740241 -27.73622
v 14.1238 5.581256 -31.3442
v 14.1238 5.581256 -27.73622
v 14.1238 7.010612 -31.3442
v 14.1238 7.010612 -27.73622

vt 2.255607 0
vt -1 0
vt 2.255607 0.9415331
vt -1 0.9415331
vt 1.779356 0
vt -3.145893 0
vt 1.779356 0.9415331
vt -3.145893 0.9415331
vt 1.39317 0
vt -1.879747 0
vt 1.39317 0.9415331
vt -1.879747 0.9415331
vt 2.145882 -3.203013
vt -1.462099 -3.203013
vt 2.145882 -2.141305
vt -1.462099 -2.141305
vt -2.255607 3.361065
vt 1 3.361065
vt -2.255607 -3.543232
vt 1 -3.879398
vt 2.255607 -3.543232
vt -1 -3.879398
vt 2.255607 3.361065
vt -1 3.361065
vt -2.834579 1.779356
vt -2.834579 -3.145893
vt 1.437338 0.9415331
vt 1.437338 0
vt -0.9849507 0.9415331
vt -0.9849507 0
vt -0.5116866 0
vt -0.5116866 0.9415331
vt 1.464094 0
vt 1.464094 0.9415331
vt 2.834579 -3.145893
vt 2.834579 1.779356
vt 2.160632 -3.543232
vt 2.160632 3.361065
vt 5.438994 -2.824196
vt 5.438994 0.7837849
vt -1.407884 0.9415331
vt -1.407884 0
vt -4.629474 0.0002412796
vt -4.629474 -0.9412918
vt -0.3886932 0
vt -0.3886932 0.9415331
vt 3.673819 -0.9412918
vt 3.673819 0.0002412796
vt -1.890297 3.361065
vt -1.890297 -3.543232
vt -5.168659 0.7837849
vt -5.168659 -2.824196
vt 5.463081 -2.824196
vt 5.463081 0.7837849
vt 10.48089 -2.824196
vt 10.48089 0.7837849
vt -5.39593 0.0002412796
vt -5.39593 -0.9412918
vt -10.2638 -0.7293873
vt -10.2638 -2.158743
vt 5.39593 -0.9412918
vt 5.39593 0.0002412796
vt 10.2638 -2.158743
vt 10.2638 -0.7293873
vt -5.336285 0.7837849
vt -5.336285 -2.824196
vt -10.25853 0.7837849
vt -10.25853 -2.824196
vt 10.47839 -2.824196
vt 10.47839 0.7837849
vt 16.88625 -2.145882
vt 16.88625 1.462099
vt -9.90395 -0.7293873
vt -9.90395 -2.158743
vt -16.26242 -2.141305
vt -16.26242 -3.203013
vt 10.28884 -2.158743
vt 10.28884 -0.7293873
vt 16.64732 -3.203013
vt 16.64732 -2.141305
vt -10.17602 0.7837849
vt -10.17602 -2.824196
vt -16.65395 1.462099
vt -16.65395 -2.145882

vn 0 0 1
vn -1 0 0
vn 0.1027115 0 -0.9947112
vn 1 0 0
vn 0 1 0
vn 0 -1 0
vn -0.6529812 0 0.7573742
vn -0.3712483 0 -0.9285336
vn -0.2871226 -0.9578938 0
vn 0.2231929 0 -0.9747743
vn 0.6344056 0 0.7730004
vn 0.2871226 0.9578938 0
vn -0.2426264 -0.9701198 0
vn 0 0 -1
vn 0.1482308 0.9889528 0
vn -0.1629672 -0.9866315 0
vn 0.1066788 0 -0.9942935
vn -0.1066788 0 0.9942935
vn 0.2179583 0.9759581 0

usemtl ProBuilderDefault
f 3/3/1 4/4/1 2/2/1 1/1/1
f 7/7/2 8/8/2 6/6/2 5/5/2
f 11/11/3 12/12/3 10/10/3 9/9/3
f 15/15/4 16/16/4 14/14/4 13/13/4
f 12/19/5 11/20/5 4/18/5 3/17/5
f 1/23/6 2/24/6 9/22/6 10/21/6
f 5/25/6 6/26/6 9/22/6 2/24/6
f 7/29/7 5/30/7 2/28/7 4/27/7
f 6/33/8 8/34/8 11/32/8 9/31/8
f 8/35/5 7/36/5 4/18/5 11/20/5
f 17/39/9 18/40/9 1/38/9 10/37/9
f 19/43/10 17/44/10 10/42/10 12/41/10
f 18/47/11 20/48/11 3/46/11 1/45/11
f 20/51/12 19/52/12 12/50/12 3/49/12
f 21/55/13 22/56/13 18/54/13 17/53/13
f 23/59/14 21/60/14 17/58/14 19/57/14
f 22/63/1 24/64/1 20/62/1 18/61/1
f 24/67/15 23/68/15 19/66/15 20/65/15
f 13/71/16 14/72/16 22/70/16 21/69/16
f 15/75/17 13/76/17 21/74/17 23/73/17
f 14/79/18 16/80/18 24/78/18 22/77/18
f 16/83/19 15/84/19 23/82/19 24/81/19

