# ProBuilder 4.1.0
# https://unity3d.com/unity/features/worldbuilding/probuilder
# 9/09/2019 2:47:38 PM

mtllib ./Platform2.mtl
o Platform2

g Platform2
v 40.90045 3.19 1.802002
v 32.57117 3.19 1.802002
v 40.90045 5.192523 1.802002
v 32.57117 5.192523 1.802002
v 32.57117 3.19 -6.1888
v 32.57117 5.192523 -6.1888
v 40.90045 3.19 -6.1888
v 40.90045 5.192523 -6.1888
v 38.12806 4.918828 -0.8191031
v 35.34357 4.918828 -0.8191031
v 38.12806 4.918828 -3.567694
v 35.34357 4.918828 -3.567694
v 39.9 2.550271 -5.316797
v 33.57162 2.550271 -5.316797
v 39.9 2.550271 0.9300001
v 33.57162 2.550271 0.9300001
v 33.57162 3.19 -5.316797
v 39.9 3.19 -5.316797
v 33.57162 5.405246 -5.316797
v 33.57162 5.405246 0.9300001
v 39.9 5.405246 -5.316797
v 39.9 3.19 0.93
v 39.9 5.405246 0.9300001
v 33.57162 3.19 0.9300001

vt 1.000446 0
vt -7.328827 0
vt 1.000446 2.002523
vt -7.328827 2.002523
vt 0.8720022 0
vt -7.1188 0
vt 0.8720022 2.002523
vt -7.1188 2.002523
vt 7.328827 0
vt -1.000446 0
vt 7.328827 2.002523
vt -1.000446 2.002523
vt 7.1188 0
vt -0.8720022 0
vt 7.1188 2.002523
vt -0.8720022 2.002523
vt 1.771946 -1.749103
vt 4.556435 -1.749103
vt 1.771946 -4.497694
vt 4.556435 -4.497694
vt 0 -6.246797
vt -6.328381 -6.246797
vt 0 5.960464E-08
vt -6.328381 5.960464E-08
vt -7.328827 -7.1188
vt 1.000446 -7.1188
vt 5.729277 -6.246797
vt 5.729277 5.960464E-08
vt 6.752089 -7.1188
vt 6.752089 0.8720022
vt 0 -5.54382
vt 6.328381 -5.54382
vt -1.000446 -6.441394
vt 7.328827 -6.441394
vt 1.000446 0.8720022
vt 0.4607234 5.960464E-08
vt 0.4607234 -6.246797
vt -0.5620884 0.8720022
vt -0.5620884 -7.1188
vt -7.328827 0.8720022
vt 6.328381 -0.5250078
vt 0 -0.5250078
vt 7.328827 0.372566
vt -1.000446 0.372566
vt 0 0.593527
vt 6.328381 0.593527
vt 1.771946 -1.221952
vt 4.556435 -1.221952
vt -0.5864149 -6.246797
vt -0.5864149 5.960464E-08
vt 1.251082 -4.497694
vt 1.251082 -1.749103
vt 6.689037 5.960464E-08
vt 6.689037 -6.246797
vt 4.85154 -1.749103
vt 4.85154 -4.497694
vt 6.328381 -6.611934
vt 0 -6.611934
vt 4.556435 -4.796455
vt 1.771946 -4.796455
vt 6.328381 0
vt 0 -0.639729
vt 6.328381 -0.639729
vt 6.246797 0
vt 6.246797 -0.639729
vt -6.246797 0
vt -6.246797 -0.639729
vt -6.328381 -0.639729

vn 0 0 1
vn -1 0 0
vn 0 0 -1
vn 1 0 0
vn 0 1 0
vn 0 -1 0
vn -0.2079784 0.9781334 0
vn 0 0.9715103 -0.2369974
vn 0.2079784 0.9781334 0
vn 0 0.9715102 0.2369975
vn 0 0.9634389 -0.2679282
vn -0.2647178 0.964326 0
vn 0.2647178 0.964326 0
vn 0 0.9634389 0.2679282

usemtl ProBuilderDefault
f 3/3/1 4/4/1 2/2/1 1/1/1
f 4/7/2 6/8/2 5/6/2 2/5/2
f 6/11/3 8/12/3 7/10/3 5/9/3
f 8/15/4 3/16/4 1/14/4 7/13/4
f 11/19/5 12/20/5 10/18/5 9/17/5
f 15/23/6 16/24/6 14/22/6 13/21/6
f 5/25/6 7/26/6 18/21/6 17/22/6
f 6/29/7 4/30/7 20/28/7 19/27/7
f 8/33/8 6/34/8 19/32/8 21/31/8
f 7/26/6 1/35/6 22/23/6 18/21/6
f 3/38/9 8/39/9 21/37/9 23/36/9
f 1/35/6 2/40/6 24/24/6 22/23/6
f 4/43/10 3/44/10 23/42/10 20/41/10
f 2/40/6 5/25/6 17/22/6 24/24/6
f 9/47/11 10/48/11 20/46/11 23/45/11
f 11/51/12 9/52/12 23/50/12 21/49/12
f 10/55/13 12/56/13 19/54/13 20/53/13
f 12/59/14 11/60/14 21/58/14 19/57/14
f 13/62/3 14/63/3 17/61/3 18/23/3
f 15/62/4 13/65/4 18/64/4 22/23/4
f 14/67/2 16/62/2 24/23/2 17/66/2
f 16/68/1 15/62/1 22/23/1 24/24/1

