# ProBuilder 4.1.0
# https://unity3d.com/unity/features/worldbuilding/probuilder
# 9/09/2019 2:47:31 PM

mtllib ./Platform1.mtl
o Platform1

g Platform1
v 52.77663 1.88 16.67
v 45.75715 1.88 16.67
v 52.77663 2.769756 16.67
v 48.36365 2.769756 16.67
v 45.75715 1.88 11.70364
v 48.36365 2.769756 12.62321
v 52.77663 1.88 11.70364
v 52.77663 2.769756 12.62321
v 54.04676 1.88 12.62321
v 54.04676 1.88 16.67
v 54.04676 2.769756 12.62321
v 54.04676 2.769756 16.67
v 51.6316 3.521932 15.61998
v 49.50868 3.521932 15.61998
v 51.6316 3.521932 13.67322
v 49.50868 3.521932 13.67322
v 52.77663 2.769756 11.18525
v 52.77663 1.88 9.312787
v 54.04676 2.769756 11.18525
v 54.04676 1.88 9.312787
v 52.77663 4.430517 16.67
v 52.77663 4.430517 12.62321
v 54.04676 4.888767 16.67
v 54.04676 4.888767 12.62321
v 54.04676 4.423295 12.62321
v 52.77663 4.423295 12.62321
v 54.04676 3.762856 11.18525
v 52.77663 3.762856 11.18525
v 51.6316 3.058594 15.61998
v 49.50868 3.058594 15.61998
v 51.6316 3.058594 13.67322
v 49.50868 3.058594 13.67322

vt 1.675587 0
vt -2.580318 0
vt 1.675587 0.5394583
vt -1 0.5394583
vt 2.441961 0
vt 2.441961 -3.011097
vt 0.7721041 0
vt 0.7721041 -2.453568
vt 2.580318 -2.163948
vt -1.675587 -2.163948
vt 1 -1.388156
vt -1.675587 -1.388156
vt 2.453568 0
vt 0 0
vt 2.453568 0.5394583
vt 0 0.5394583
vt -0.9813576 -0.6366243
vt 0.3057671 -0.6366243
vt -0.9813576 -1.816943
vt 0.3057671 -1.816943
vt 1.675587 -3.011097
vt -2.580318 -3.011097
vt 2.445663 -2.453568
vt 2.445663 0
vt -1.675587 -2.77202
vt -1.675587 -4.028943
vt -2.445663 -2.77202
vt -2.445663 -4.028943
vt 2.445663 0.5394583
vt -2.100947 -4.306441E-07
vt -2.100947 -2.453568
vt -2.919611 -4.306441E-07
vt -2.919611 -2.453568
vt -2.453568 0.5394579
vt -4.306441E-07 1.546376
vt -2.453568 1.546376
vt 2.445663 1.824213
vt 1.675586 1.546376
vt -1.675587 0.5394589
vt -2.445663 0.5394589
vt -1.675586 1.546376
vt -2.445663 1.824213
vt 2.453568 1.824212
vt 4.306441E-07 1.824212
vt -3.011097 0
vt -3.3254 0.5394583
vt -4.460671 0
vt -2.445663 -1.586056
vt -1.675586 -1.586056
vt -2.445663 -2.545448
vt -1.675586 -2.545448
vt 1.675587 -4.460671
vt 2.445663 -4.460671
vt 4.460671 0
vt 3.3254 0.5394583
vt 2.445663 1.541999
vt 1.675586 1.541999
vt 3.325401 1.141572
vt 2.453568 1.541996
vt -2.453568 1.541997
vt -3.325401 1.141573
vt -1.675586 1.141576
vt -2.445663 1.141576
vt -1.675587 -0.1430793
vt 1 -0.1430793
vt -0.9813576 -0.8033507
vt 0.3057671 -0.8033507
vt -1.492745 -2.453568
vt -1.492745 0
vt -0.7767689 -1.816943
vt -0.7767689 -0.6366243
vt 0.8376796 0
vt 0.8376796 -2.453568
vt 0.1216998 -0.6366243
vt 0.1216998 -1.816943
vt 1 -2.222616
vt -1.675587 -2.222616
vt 0.3057671 -1.562344
vt -0.9813576 -1.562344
vt 0.9813576 0.7145805
vt -0.3057671 0.7145805
vt 0.9813576 0.9955015
vt -0.3057671 0.9955015
vt 1.816943 0.7145805
vt 0.6366243 0.7145805
vt 1.816943 0.9955015
vt 0.6366243 0.9955015
vt -0.6366243 0.7145805
vt -1.816943 0.7145805
vt -0.6366243 0.9955015
vt -1.816943 0.9955015
vt 0.3057671 0.7145805
vt -0.9813576 0.7145805
vt 0.3057671 0.9955015
vt -0.9813576 0.9955015

vn 0 0 1.649351
vn -0.5328338 1.560912 0
vn 0 1.185319 -1.146899
vn 1.649351 0 0
vn 0 1.649351 0
vn 0 -1.649351 0
vn 0 1.489718 -0.7078843
vn -0.5597541 1.551462 0
vn -1.649351 -3.905344E-07 0
vn 0 -3.905344E-07 -1.649351
vn 0 1.498824 -0.6883943
vn 0 1.590281 0.4374536
vn 0.4034186 1.599254 0
vn -0.4034165 1.599254 0
vn 0 1.590281 -0.4374536

usemtl ProBuilderDefault
f 3/3/1 4/4/1 2/2/1 1/1/1
f 4/7/2 6/8/2 5/6/2 2/5/2
f 6/11/3 8/12/3 7/10/3 5/9/3
f 11/15/4 12/16/4 10/14/4 9/13/4
f 15/19/5 16/20/5 14/18/5 13/17/5
f 1/1/6 2/2/6 5/22/6 7/21/6
f 9/23/6 10/24/6 1/1/6 7/21/6
f 19/27/7 20/28/7 18/26/7 17/25/7
f 10/24/1 12/29/1 3/3/1 1/1/1
f 23/32/8 24/33/8 22/31/8 21/30/8
f 21/35/9 22/36/9 8/34/9 3/16/9
f 23/37/1 21/38/1 3/3/1 12/29/1
f 22/41/10 24/42/10 11/40/10 8/39/10
f 24/43/4 23/44/4 12/16/4 11/15/4
f 17/46/9 18/47/9 7/45/9 8/34/9
f 27/50/11 28/51/11 26/49/11 25/48/11
f 18/52/6 20/53/6 9/23/6 7/21/6
f 20/54/4 19/55/4 11/15/4 9/13/4
f 25/56/1 26/57/1 8/3/1 11/29/1
f 27/58/4 25/59/4 11/15/4 19/55/4
f 26/60/9 28/61/9 17/46/9 8/34/9
f 28/62/10 27/63/10 19/40/10 17/39/10
f 29/66/12 30/67/12 4/65/12 3/64/12
f 31/70/13 29/71/13 3/69/13 8/68/13
f 30/74/14 32/75/14 6/73/14 4/72/14
f 32/78/15 31/79/15 8/77/15 6/76/15
f 13/82/1 14/83/1 30/81/1 29/80/1
f 15/86/4 13/87/4 29/85/4 31/84/4
f 14/90/9 16/91/9 32/89/9 30/88/9
f 16/94/10 15/95/10 31/93/10 32/92/10

