# ProBuilder 4.1.0
# https://unity3d.com/unity/features/worldbuilding/probuilder
# 6/09/2019 11:17:10 AM

mtllib ./Platform11.mtl
o Platform11

g Platform11
v 11.76496 1.945501 8.03989
v -5.99048 1.945501 8.03989
v 11.76496 4.004793 8.03989
v -5.99048 4.004793 8.03989
v -5.990481 1.945501 -3.605793
v -5.990481 4.004793 -3.605793
v 11.76496 1.945501 -3.605793
v 11.76496 4.004793 -3.605793
v 10.28152 4.888038 7.066879
v -4.507045 4.888038 7.066879
v 10.28152 4.888038 -2.632782
v -4.507045 4.888038 -2.632782
v 10.28152 2.697328 -2.632782
v -4.507045 2.697328 -2.632782
v 10.28152 2.697328 7.066879
v -4.507045 2.697328 7.066879

vt 9.478299 -0.7518268
vt -8.277141 -0.7518268
vt 9.478299 1.307465
vt -8.277141 1.307465
vt 1.189891 -0.7518268
vt -10.45579 -0.7518268
vt 1.189891 1.307465
vt -10.45579 1.307465
vt 8.277142 -0.7518268
vt -9.478299 -0.7518268
vt 8.277142 1.307465
vt -9.478299 1.307465
vt 10.45579 -0.7518268
vt -1.189892 -0.7518268
vt 10.45579 1.307465
vt -1.189892 1.307465
vt -7.994864 0.2168808
vt 6.793705 0.2168808
vt -7.994864 -9.48278
vt 6.793705 -9.48278
vt 7.994864 -9.48278
vt -6.793705 -9.48278
vt 7.994864 0.2168808
vt -6.793705 0.2168808
vt -6.793705 -7.503751
vt 7.994864 -7.503751
vt -8.277142 -8.733383
vt 9.478299 -8.733383
vt 4.71661 -9.48278
vt 4.716609 0.2168807
vt 6.443081 -10.45579
vt 6.443081 1.189892
vt -7.994864 -5.54896
vt 6.793705 -5.54896
vt -9.478299 -6.863065
vt 8.277142 -6.863065
vt 7.131279 -9.48278
vt 7.131279 0.2168808
vt 8.794356 -10.45579
vt 8.794356 1.189892
vt -5.74868 0.2168808
vt -5.74868 -9.48278
vt -7.475152 1.189892
vt -7.475152 -10.45579
vt 7.994864 0.1716184
vt -6.793705 0.1716184
vt 9.478299 1.40125
vt -8.277141 1.40125
vt 6.793705 -1.311848
vt -7.994864 -1.311848
vt 8.277141 0.002256998
vt -9.478299 0.002256998
vt -6.059867 0.2168807
vt -6.059867 -9.48278
vt -7.722944 1.189892
vt -7.722945 -10.45579

vn 0 0 1
vn -1 0 8.18908E-08
vn 0 0 -1
vn 1 0 0
vn 0 1 0
vn 0 -1 0
vn 0 -0.7913029 0.6114244
vn -0.5115897 0.8592299 2.514984E-08
vn 0 0.7404362 -0.6721267
vn -0.4520697 -0.8919826 0
vn 0.5115898 0.8592298 0
vn 0 -0.7913029 -0.6114244
vn 0 0.7404362 0.6721267
vn 0.4520697 -0.8919826 -2.222383E-08

usemtl ProBuilderDefault
f 3/3/1 4/4/1 2/2/1 1/1/1
f 4/7/2 6/8/2 5/6/2 2/5/2
f 6/11/3 8/12/3 7/10/3 5/9/3
f 8/15/4 3/16/4 1/14/4 7/13/4
f 11/19/5 12/20/5 10/18/5 9/17/5
f 15/23/6 16/24/6 14/22/6 13/21/6
f 5/27/7 7/28/7 13/26/7 14/25/7
f 6/31/8 4/32/8 10/30/8 12/29/8
f 8/35/9 6/36/9 12/34/9 11/33/9
f 7/39/10 1/40/10 15/38/10 13/37/10
f 3/43/11 8/44/11 11/42/11 9/41/11
f 1/47/12 2/48/12 16/46/12 15/45/12
f 4/51/13 3/52/13 9/50/13 10/49/13
f 2/55/14 5/56/14 14/54/14 16/53/14

