# ProBuilder 4.1.0
# https://unity3d.com/unity/features/worldbuilding/probuilder
# 9/09/2019 2:49:57 PM

mtllib ./Platform20.mtl
o Platform20

g Platform20
v 0.8931836 10.04265 20.11105
v -2.501241 10.04265 20.11105
v 0.8931836 16.94205 20.11105
v -2.501241 16.94205 20.11105
v -5.506085 10.04265 17.03055
v -2.916432 10.04265 10.17773
v -5.506085 16.94205 17.03055
v -2.916432 16.94205 10.17773
v -1.596498 6.299332 6.599228
v -0.01155961 6.299332 6.599228
v -1.596498 6.455857 4.927063
v -0.01155961 6.455857 4.927063
v 1.308375 10.04265 10.17773
v 3.898028 10.04265 17.03055
v 1.308375 16.94205 10.17773
v 3.898028 16.94205 17.03055
v -1.596498 12.68393 8.914795
v -0.01155961 12.68393 8.914795
v -1.596498 14.78651 8.914795
v -0.01155961 14.78651 8.914795
v -1.596498 11.09469 6.561054
v -0.01155961 11.09469 6.561054
v -1.596498 11.73774 4.965302
v -0.01155961 11.73774 4.965302
v -1.596498 7.625981 6.599239
v -0.01155961 7.625981 6.599239
v -1.596498 7.782506 4.927071
v -0.01155961 7.782506 4.927071

vt 1.263184 -3.057346
vt -2.131241 -3.057346
vt 1.263184 3.842051
vt -2.131241 3.842051
vt 7.290524 -3.057346
vt -0.03527763 -3.057346
vt 7.290524 3.842051
vt -0.03527763 3.842051
vt -1.226498 -3.924766
vt 0.3584404 -3.924766
vt -1.226498 -5.604241
vt 0.3584404 -5.604241
vt 0.3421338 -3.057346
vt -6.983667 -3.057346
vt 0.3421338 3.842051
vt -6.983667 3.842051
vt -4.268028 5.852814
vt 5.136086 5.852814
vt -1.678375 -1
vt 2.546432 -1
vt 1.678375 -1
vt -2.546432 -1
vt 4.268028 5.852814
vt -5.136086 5.852814
vt 1.263184 8.933319
vt -2.131241 8.933319
vt -1.209498 3.842051
vt -1.209498 -3.057346
vt -5.512823 3.842051
vt -5.512823 -3.057346
vt 0.6033676 -3.057346
vt 0.6033676 3.842051
vt 4.906693 -3.057346
vt 4.906693 3.842051
vt 2.131241 8.933319
vt -1.263184 8.933319
vt 2.546432 -2.326873
vt -1.678375 -2.326873
vt 1.226498 0.6008152
vt -0.3584404 0.6008152
vt 1.14855 3.842051
vt 1.14855 -3.057346
vt -0.6782626 1.686509
vt -0.6782626 -0.41607
vt -0.5213488 -3.057346
vt -0.5213488 3.842051
vt 1.305464 -0.41607
vt 1.305464 1.686509
vt -1.678375 2.809443
vt 2.546432 2.809443
vt -0.3584404 0.3111687
vt 1.226498 0.3111687
vt -1.226498 -2.10829
vt 0.3584404 -2.10829
vt -1.226498 -4.94832
vt 0.3584404 -4.94832
vt -2.262939 1.686509
vt -2.262939 -0.41607
vt -6.212433 -1.362263
vt -4.61668 -2.005308
vt 2.262939 -0.41607
vt 2.262939 1.686509
vt 4.61668 -2.005308
vt 6.212433 -1.362263
vt -0.3584404 -0.7607585
vt 1.226498 -0.7607585
vt -0.3584404 -5.750098
vt 1.226498 -5.750098
vt -1.226498 -1.954367
vt 0.3584404 -1.954367
vt -1.226498 -5.423288
vt 0.3584404 -5.423288
vt -6.250664 -5.317494
vt -4.578495 -5.474019
vt 4.578495 -5.474019
vt 6.250664 -5.317494
vt -0.3584404 -1.422245
vt 1.226498 -1.422245
vt -0.3584404 -5.377661
vt 1.226498 -5.377661
vt -1.226498 -5.474059
vt 0.3584404 -5.474059
vt -1.226498 -6.800708
vt 0.3584404 -6.800708
vt -6.250671 -6.644144
vt -4.578506 -6.800668
vt 4.578506 -6.800668
vt 6.250671 -6.644144
vt -0.3584404 -5.31753
vt 1.226498 -5.31753
vt -0.3584404 -6.644179
vt 1.226498 -6.644179

vn 0 0 1
vn -0.9354355 0 -0.3534976
vn 0 -0.9956475 -0.09319858
vn 0.9354355 0 -0.3534976
vn 0 1 0
vn 0 -1 0
vn 0.7158431 0 0.6982611
vn -0.7158431 0 0.6982611
vn 0 -0.4313777 -0.9021714
vn -0.691335 0 -0.7225344
vn 0.691335 0 -0.7225344
vn 0 0.5055248 -0.8628122
vn 0 -0.8287731 0.5595849
vn -1 0 0
vn 1 0 0
vn 0 0.7915864 -0.6110572
vn 0 0.01100778 0.9999394
vn 0 0.009665454 -0.9999533
vn 0 5.750876E-06 -1

usemtl ProBuilderDefault
f 3/3/1 4/4/1 2/2/1 1/1/1
f 7/7/2 8/8/2 6/6/2 5/5/2
f 11/11/3 12/12/3 10/10/3 9/9/3
f 15/15/4 16/16/4 14/14/4 13/13/4
f 15/19/5 8/20/5 7/18/5 16/17/5
f 14/23/6 5/24/6 6/22/6 13/21/6
f 1/25/6 2/26/6 5/24/6 14/23/6
f 3/29/7 1/30/7 14/28/7 16/27/7
f 2/33/8 4/34/8 7/32/8 5/31/8
f 4/35/5 3/36/5 16/17/5 7/18/5
f 17/39/9 18/40/9 13/38/9 6/37/9
f 19/43/10 17/44/10 6/42/10 8/41/10
f 18/47/11 20/48/11 15/46/11 13/45/11
f 20/51/12 19/52/12 8/50/12 15/49/12
f 21/55/13 22/56/13 18/54/13 17/53/13
f 23/59/14 21/60/14 17/58/14 19/57/14
f 22/63/15 24/64/15 20/62/15 18/61/15
f 24/67/16 23/68/16 19/66/16 20/65/16
f 25/71/17 26/72/17 22/70/17 21/69/17
f 27/73/14 25/74/14 21/60/14 23/59/14
f 26/75/15 28/76/15 24/64/15 22/63/15
f 28/79/18 27/80/18 23/78/18 24/77/18
f 9/83/1 10/84/1 26/82/1 25/81/1
f 11/85/14 9/86/14 25/74/14 27/73/14
f 10/87/15 12/88/15 28/76/15 26/75/15
f 12/91/19 11/92/19 27/90/19 28/89/19

