# ProBuilder 4.1.0
# https://unity3d.com/unity/features/worldbuilding/probuilder
# 9/09/2019 2:49:02 PM

mtllib ./Platform13.mtl
o Platform13

g Platform13
v 26.69 1.95 -1.08
v 20.49051 1.95 -1.08
v 26.69 4.135301 -3.288465
v 20.49051 4.135301 -3.288465
v 20.49051 1.95 -9.433789
v 21.28151 4.135301 -9.433789
v 20.49051 1.95 -11.08644
v 26.69 1.95 -11.08644
v 21.28151 4.135301 -11.08644
v 25.89899 4.135301 -11.08644
v 26.69 1.95 -9.433789
v 25.89899 4.135301 -9.433789
v 26.69 0.7112402 -9.433789
v 20.49051 0.7112402 -9.433789
v 26.69 0.7112402 -1.08
v 20.49051 0.7112402 -1.08
v 20.49051 1.95 2.798582
v 26.69 1.95 2.798582
v 20.49051 0.7112402 2.798582
v 26.69 0.7112402 2.798582
v 19.21859 4.135301 -9.433789
v 19.21859 1.95 -9.433789
v 19.21859 4.135301 -11.08644
v 19.21859 1.95 -11.08644
v 27.96192 1.95 -9.433789
v 27.96192 4.135301 -9.433789
v 27.96192 1.95 -11.08644
v 27.96192 4.135301 -11.08644
v 20.49051 7.005492 -11.08644
v 20.49051 7.005492 -9.433789
v 19.21859 7.005492 -11.08644
v 19.21859 7.005492 -9.433789
v 26.69 7.005492 -9.433789
v 26.69 7.005492 -11.08644
v 27.96192 7.005492 -9.433789
v 27.96192 7.005492 -11.08644

vt 0 0
vt 6.199494 1.886688E-07
vt 4.677763E-08 -3.106905
vt 6.199495 -3.106905
vt -8.353789 2.705485E-06
vt -2.208465 2.185303
vt -8.353789 2.185303
vt 5.408491 2.185301
vt 0.7910061 2.185301
vt 8.353789 0
vt 8.353789 2.324054
vt 2.208465 2.054831
vt 0 -2.208465
vt 6.199495 -2.208465
vt 0.7910061 -8.353789
vt 5.408491 -8.353789
vt 0 -8.353789
vt -6.199495 -8.353789
vt -6.199495 0
vt 0 -1.23876
vt 6.199495 -1.23876
vt 8.353789 -1.23876
vt -8.353789 -1.238765
vt -6.199495 -1.23876
vt 6.199495 3.878582
vt 0 3.878582
vt 3.878582 -1.238765
vt 3.878582 -4.772757E-06
vt -3.878582 0
vt -3.878582 -1.23876
vt -6.199495 3.878582
vt -6.199495 -10.00644
vt 0 -10.00644
vt -10.00644 2.185301
vt -10.00644 0
vt 8.353789 2.185301
vt 10.00644 0
vt 10.00644 2.185301
vt 0.7910061 -10.00644
vt 5.408491 -10.00644
vt -5.408491 2.185301
vt -7.471411 2.185301
vt -7.471411 0
vt 6.199495 -10.00644
vt 6.199495 -8.353789
vt 7.471411 -10.00644
vt 7.471411 -8.353789
vt -7.471411 -8.353789
vt -7.471411 -10.00644
vt 7.471411 0
vt 7.471411 2.185301
vt -0.7910061 2.185301
vt 1.271917 0
vt 1.271917 2.185301
vt 1.271917 -10.00644
vt 1.271917 -8.353789
vt -1.271917 -8.353789
vt -1.271917 -10.00644
vt -1.271917 2.185301
vt -1.271917 0
vt 10.00644 3.543729
vt 8.353789 3.543729
vt 10.00644 6.520924
vt 8.353789 6.520924
vt 7.471411 5.055492
vt 6.199495 5.055492
vt -6.199495 5.055492
vt -7.471411 5.055492
vt -8.353789 5.055492
vt -10.00644 5.055492
vt -8.353789 1.896598
vt -10.00644 1.896598
vt -8.353789 4.873793
vt -10.00644 4.873793
vt 1.271917 5.055492
vt 0 5.055492
vt -1.271917 5.055492
vt 10.00644 5.055492
vt 8.353789 5.055492

vn 1.521562E-08 0.7108248 0.7033691
vn -1 -4.364042E-07 0
vn -0.9667424 0.1689444 -0.06007741
vn -0.9334847 0.3378892 -0.1201548
vn 0 0 -1
vn 0.9402966 0.3403561 0
vn 0.9619806 0.1061999 -0.06330705
vn 0.9836646 -0.1279562 -0.1266141
vn 0 1 0
vn 0 -1 0
vn 1 0 0
vn 0 0 1
vn 0.9640592 0.2656878 0
vn -0.964059 0.2656884 0

usemtl ProBuilderDefault
f 3/3/1 4/4/1 2/2/1 1/1/1
f 4/6/3 6/7/4 5/5/3 2/1/2
f 9/8/5 10/9/5 8/1/5 7/2/5
f 12/11/7 3/12/8 1/1/7 11/10/6
f 12/15/9 6/16/9 4/14/9 3/13/9
f 15/1/10 16/19/10 14/18/10 13/17/10
f 13/20/5 14/21/5 5/2/5 11/1/5
f 15/20/11 13/22/11 11/10/11 1/1/11
f 14/23/2 16/20/2 2/1/2 5/5/2
f 19/24/12 20/20/12 18/1/12 17/19/12
f 17/25/9 18/26/9 1/1/9 2/2/9
f 19/27/2 17/28/2 2/1/2 16/20/2
f 18/29/11 20/30/11 15/20/11 1/1/11
f 20/26/10 19/31/10 16/19/10 15/1/10
f 7/32/10 8/33/10 11/17/10 5/18/10
f 23/34/2 24/35/2 22/5/2 21/7/2
f 27/37/11 28/38/11 26/36/11 25/10/11
f 10/39/9 9/40/9 6/16/9 12/15/9
f 21/42/12 22/43/12 5/19/12 6/41/12
f 31/46/9 32/47/9 30/45/9 29/44/9
f 22/48/10 24/49/10 7/32/10 5/18/10
f 24/50/5 23/51/5 9/8/5 7/2/5
f 25/53/12 26/54/12 12/52/12 11/1/12
f 27/55/10 25/56/10 11/17/10 8/33/10
f 35/57/9 36/58/9 34/33/9 33/17/9
f 28/59/5 27/60/5 8/1/5 10/9/5
f 29/63/13 30/64/13 6/62/13 9/61/13
f 31/65/5 29/66/5 9/8/5 23/51/5
f 30/67/12 32/68/12 21/42/12 6/41/12
f 32/69/2 31/70/2 23/34/2 21/7/2
f 33/73/14 34/74/14 10/72/14 12/71/14
f 35/75/12 33/76/12 12/52/12 26/54/12
f 34/76/5 36/77/5 28/59/5 10/9/5
f 36/78/11 35/79/11 26/36/11 28/38/11

