# ProBuilder 4.1.0
# https://unity3d.com/unity/features/worldbuilding/probuilder
# 9/09/2019 2:49:48 PM

mtllib ./Platform19.mtl
o Platform19

g Platform19
v 7.997066 -1.81 7.92466
v 3.638828 -1.81 7.92466
v 7.997066 0.5716028 7.92466
v 3.638828 0.5716028 7.92466
v 1.728138 -1.81 6.5149
v 1.728138 -1.81 -0.6907043
v 1.728138 0.5716028 6.5149
v 1.728138 0.5716028 -0.6907043
v 3.638828 -1.81 -2.10046
v 7.997066 -1.81 -2.10046
v 3.638828 0.5716028 -2.10046
v 7.997066 0.5716028 -2.10046
v 7.997066 -1.81 -0.6907043
v 7.997066 -1.81 6.5149
v 7.997066 0.5716028 -0.6907043
v 7.997066 0.5716028 6.5149
v 3.638828 0.5716028 6.5149
v 3.638828 0.5716028 -0.6907043
v 3.638828 -1.81 -0.6907043
v 3.638828 -1.81 6.5149
v 3.638828 7.640332 5.105286
v 7.997066 7.640332 5.105286
v 3.638828 7.640332 5.96347
v 7.997066 7.640332 5.96347
v 7.997066 7.640332 0.718914
v 3.638828 7.640332 0.718914
v 7.997066 7.640332 -0.1392708
v 3.638828 7.640332 -0.1392708
v 3.638828 5.608038 6.5149
v 7.997066 5.608038 6.5149
v 3.638828 5.608038 7.92466
v 7.997066 5.608038 7.92466
v 7.997066 5.608038 -0.6907043
v 3.638828 5.608038 -0.6907043
v 7.997066 5.608038 -2.10046
v 3.638828 5.608038 -2.10046

vt 3.358238 0
vt -1 0
vt 3.358238 2.381603
vt -1 2.381603
vt 6.205605 0
vt 6.205605 2.381603
vt 1 0
vt -3.358238 0
vt 1 2.381603
vt -3.358238 2.381603
vt -6.205605 0
vt -6.205605 2.381603
vt -3.358238 6.205605
vt 1 6.205605
vt -3.358238 -1
vt 1 -1
vt 3.358238 -1
vt -1 -1
vt 3.358238 6.205605
vt -1 6.205605
vt 3.358238 7.615364
vt -1 7.615364
vt -7.615364 2.381603
vt -7.615364 0
vt 7.615364 0
vt 7.615364 2.381603
vt 1 4.79599
vt -3.358238 4.79599
vt 1 5.654175
vt -3.358238 5.654175
vt -1 -2.409756
vt 3.358238 -2.409756
vt -2.409756 2.381603
vt -2.409756 0
vt 2.409756 0
vt 2.409756 2.381603
vt -3.358238 0.4096184
vt 1 0.4096184
vt -3.358238 -0.4485664
vt 1 -0.4485664
vt 1 7.418038
vt -3.358238 7.418038
vt 7.615364 7.418038
vt 6.205605 7.418038
vt -6.205605 7.418038
vt -7.615364 7.418038
vt 3.358238 7.418038
vt -1 7.418038
vt 2.409756 7.418038
vt -2.409756 7.418038
vt 1 2.558572
vt -3.358238 2.558572
vt 1 5.031876
vt -3.358238 5.031876
vt 5.654175 9.450333
vt 4.79599 9.450333
vt -4.79599 9.450333
vt -5.654175 9.450333
vt 3.358238 0.04973574
vt -1 0.04973574
vt 3.358238 2.874002
vt -1 2.874002
vt 3.358238 5.525404
vt -1 5.525404
vt 3.358238 7.998711
vt -1 7.998711
vt 0.4485664 9.450333
vt -0.4096184 9.450333
vt 0.4096184 9.450333
vt -0.4485664 9.450333
vt 1 3.664544
vt -3.358238 3.664544
vt 1 6.488811
vt -3.358238 6.488811
vt -2.91069 6.205605
vt -2.91069 -1
vt -2.91069 2.381603
vt -2.91069 0
vt 2.91069 0
vt 2.91069 2.381603
vt 2.91069 -1
vt 2.91069 6.205605

vn 0 0 1
vn -1 0 0
vn 0 0 -1
vn 1 0 0
vn 0 1 0
vn 0 -1 0
vn 0 -0.5699317 -0.821692
vn 0 0.6944065 0.719583
vn 0 -0.5699328 0.8216913
vn 0 0.6944065 -0.719583

usemtl ProBuilderDefault
f 3/3/1 4/4/1 2/2/1 1/1/1
f 7/6/2 8/4/2 6/2/2 5/5/2
f 11/9/3 12/10/3 10/8/3 9/7/3
f 15/9/4 16/12/4 14/11/4 13/7/4
f 15/15/5 18/16/5 17/14/5 16/13/5
f 14/19/6 20/20/6 19/18/6 13/17/6
f 1/21/6 2/22/6 20/20/6 14/19/6
f 3/23/4 1/24/4 14/11/4 16/12/4
f 2/25/2 4/26/2 17/6/2 20/5/2
f 23/29/5 24/30/5 22/28/5 21/27/5
f 9/31/6 10/32/6 13/17/6 19/18/6
f 11/33/2 9/34/2 19/2/2 18/4/2
f 10/35/4 12/36/4 15/9/4 13/7/4
f 27/39/5 28/40/5 26/38/5 25/37/5
f 29/41/3 30/42/3 16/10/3 17/9/3
f 31/43/2 29/44/2 17/6/2 4/26/2
f 30/45/4 32/46/4 3/23/4 16/12/4
f 32/47/1 31/48/1 4/4/1 3/3/1
f 33/47/1 34/48/1 18/4/1 15/3/1
f 35/49/4 33/41/4 15/9/4 12/36/4
f 34/48/2 36/50/2 11/33/2 18/4/2
f 36/41/3 35/42/3 12/10/3 11/9/3
f 21/53/7 22/54/7 30/52/7 29/51/7
f 23/55/2 21/56/2 29/44/2 31/43/2
f 22/57/4 24/58/4 32/46/4 30/45/4
f 24/61/8 23/62/8 31/60/8 32/59/8
f 25/65/9 26/66/9 34/64/9 33/63/9
f 27/67/4 25/68/4 33/41/4 35/49/4
f 26/69/2 28/70/2 36/50/2 34/48/2
f 28/73/10 27/74/10 35/72/10 36/71/10
f 5/75/6 6/76/6 19/18/6 20/20/6
f 7/77/1 5/78/1 20/2/1 17/4/1
f 6/79/3 8/80/3 18/9/3 19/7/3
f 8/81/5 7/82/5 17/14/5 18/16/5

