# ProBuilder 4.1.0
# https://unity3d.com/unity/features/worldbuilding/probuilder
# 9/09/2019 2:48:50 PM

mtllib ./Platform10.mtl
o Platform10

g Platform10
v -46.30185 9.526441 19.64747
v -47.67 9.526441 19.64747
v -46.30185 14.13091 19.64747
v -46.72843 12.48291 19.64747
v -47.67 10.41781 15.147
v -47.65497 13.21181 15.147
v -47.67 11.87462 11.5467
v -46.30185 11.87462 11.5467
v -49.62857 13.64474 8.990879
v -46.30185 13.63471 8.990879
v -45.33112 10.41781 15.147
v -45.33112 9.526441 19.64747
v -45.33112 14.13091 15.147
v -45.33112 14.13091 19.64747
v -46.30185 14.21546 15.147
v -46.30185 10.41781 15.147
v -45.33112 11.87462 11.5467
v -45.33112 13.63471 8.990879
v -45.59745 10.41781 15.147
v -45.59745 9.526441 19.64747
v -45.59745 11.87462 11.5467
v -45.59745 14.13091 19.64747
v -45.59745 14.13091 15.147
v -45.59745 13.63471 8.990879
v -45.59745 14.7012 19.64747
v -45.59745 14.7012 15.147
v -45.33112 14.7012 19.64747
v -45.33112 14.7012 15.147
v -45.59745 14.205 8.990872
v -45.33112 14.205 8.990872

vt 0.368145 0.2064409
vt -1 0.2064409
vt 0.368145 4.810909
vt -0.05842972 3.16291
vt 3.487463 -0.1734089
vt -1.00408 0.7619016
vt 3.546738 2.928808
vt -1.003134 3.429176
vt -1 -5.189492
vt 0.368145 -5.189492
vt -2.958572 -8.298439
vt 0.368145 -8.292723
vt 0.942997 1.097809
vt -3.557472 0.2064409
vt 0.942997 4.810909
vt -3.557472 4.810909
vt 3.55922 4.745333
vt 3.557146 3.043022
vt -0.9411957 4.832667
vt -0.9477755 3.521975
vt 0.368145 -1.138318
vt -1 -1.138318
vt 0.368145 3.449575
vt -1 3.449575
vt -1 -1.285926
vt 0.368145 -1.285926
vt -1 -5.169803
vt 0.368145 -5.169803
vt -1.198901 3.88843
vt -1.203493 1.094395
vt -7.663648 4.321372
vt -4.631545 2.556822
vt 4.543303 2.554621
vt 7.099121 4.314706
vt -3.212109 -0.6598042
vt -1.527401 -0.6598042
vt -2.866132 -6.833574
vt -0.2001702 -6.683229
vt 1.072544 -1.138318
vt 1.072544 3.449575
vt 1.072544 -5.169803
vt 1.072544 -1.285926
vt 1.072544 0.2064409
vt 1.072544 4.810909
vt -0.368145 3.46648
vt -0.368145 -1.034783
vt -1.072544 3.46648
vt -1.072544 -1.033195
vt 0.2178857 -0.4815153
vt 0.1486757 -6.664585
vt -0.4915694 -0.4815153
vt -0.5507035 -6.656756
vt 0.368145 -8.29401
vt 0.368145 -5.190768
vt 1.072544 -8.29401
vt 1.072544 -5.190768
vt 1.338879 -1.138318
vt 1.338879 3.449575
vt 1.338879 -5.169803
vt 1.338879 -1.285926
vt 1.338879 0.2064409
vt 1.338879 4.810909
vt -1.072544 3.557472
vt -1.072544 -0.9430008
vt -1.338879 3.557472
vt -1.338879 -0.9430008
vt -1.072544 -0.5076125
vt -1.072544 -6.683705
vt -1.338879 -0.5076125
vt -1.338879 -6.683705
vt 1.338879 -8.294009
vt 1.338879 -5.190768
vt 3.557472 4.810909
vt -0.942997 4.810909
vt 3.557472 5.381203
vt -0.9430008 5.381203
vt 1.338879 5.381203
vt 1.072544 5.381203
vt -1.072544 4.314789
vt -1.338879 4.314789
vt -1.072544 4.885082
vt -1.338879 4.885082
vt 0.9430008 5.381203
vt -3.557472 5.381203
vt -7.099121 4.314706
vt -7.099128 4.884999
vt 7.099128 4.884999

vn 0 0 1
vn 0 0 0
vn 0 0 -1
vn -0.9511278 0.3029132 0.05999533
vn -0.9652017 0.1540899 0.1312294
vn -0.9792756 0.005266533 0.2024635
vn 0 -0.8220852 -0.5693645
vn -0.001242598 -0.8228395 -0.5682695
vn -0.002485196 -0.8235939 -0.5671746
vn 1 0 0
vn -0.9680837 0.2505827 0.004707568
vn -0.772832 0.5146377 0.1248677
vn -0.5775803 0.7786927 0.2450279
vn 0 -0.9809448 -0.194287
vn 0 -0.9269875 -0.3750922
vn -0.9521434 0.005120616 0.3056088
vn -0.6405411 -0.4351406 -0.02430499
vn -0.3289388 -0.8754019 -0.3542188
vn -0.5940381 0.8008811 -0.07555287
vn -0.2955139 0.89924 -0.003180314
vn 0.003010256 0.9975988 0.06919225
vn 0 0.9998236 0.01878317
vn 0.05958658 0.9963485 0.009391585
vn 0.1191732 0.9928735 0
vn 0.1186538 0.9885467 -0.0932567
vn 0.05932691 0.9926569 -0.08679967
vn 0 0.9967673 -0.08034264
vn 0 -0.8235964 -0.5671763
vn 0 1 0
vn -1 0 0

usemtl ProBuilderDefault
f 3/3/2 4/4/3 2/2/2 1/1/1
f 4/7/5 6/8/6 5/6/5 2/5/4
f 9/11/8 10/12/9 8/10/8 7/9/7
f 13/15/10 14/16/10 12/14/10 11/13/10
f 15/19/12 6/20/13 4/18/12 3/17/11
f 1/23/14 2/24/14 5/22/14 16/21/14
f 7/27/15 8/28/15 16/26/15 5/25/15
f 9/31/17 7/32/18 5/30/17 6/29/16
f 17/33/10 18/34/10 13/15/10 11/13/10
f 10/37/20 9/38/21 6/36/20 15/35/19
f 19/39/14 20/40/14 1/23/14 16/21/14
f 21/41/15 19/42/15 16/26/15 8/28/15
f 20/43/1 22/44/1 3/3/1 1/1/1
f 22/47/23 23/48/24 15/46/23 3/45/22
f 23/51/26 24/52/27 10/50/26 15/49/25
f 24/55/28 21/56/28 8/54/28 10/53/28
f 11/57/14 12/58/14 20/40/14 19/39/14
f 17/59/15 11/60/15 19/42/15 21/41/15
f 12/61/1 14/62/1 22/44/1 20/43/1
f 27/65/29 28/66/29 26/64/29 25/63/29
f 28/69/27 30/70/27 29/68/27 26/67/27
f 18/71/28 17/72/28 21/56/28 24/55/28
f 25/75/30 26/76/30 23/74/30 22/73/30
f 27/77/1 25/78/1 22/44/1 14/62/1
f 29/81/3 30/82/3 18/80/3 24/79/3
f 28/83/10 27/84/10 14/16/10 13/15/10
f 26/76/30 29/86/30 24/85/30 23/74/30
f 30/87/10 28/83/10 13/15/10 18/34/10

