# ProBuilder 4.1.0
# https://unity3d.com/unity/features/worldbuilding/probuilder
# 9/09/2019 2:50:05 PM

mtllib ./Platform22.mtl
o Platform22

g Platform22
v 57.22189 -0.95 50.67
v 53.64 -0.95 50.67
v 57.22189 0.05000001 50.67
v 53.64 0.05000001 50.67
v 52.7926 -0.95 50.67
v 52.7926 -0.95 47.745
v 52.7926 0.05000001 50.67
v 52.7926 0.05000001 47.745
v 53.64 -0.95 47.745
v 57.22189 -0.95 47.745
v 53.64 0.05000001 47.745
v 57.22189 0.05000001 47.745
v 57.98629 -0.95 47.745
v 57.98629 -0.95 50.67
v 57.98629 0.05000001 47.745
v 57.98629 0.05000001 50.67
v 53.64 4.908159 47.745
v 53.64 4.908159 50.67
v 52.7926 4.908159 47.745
v 52.7926 4.908159 50.67
v 57.22189 4.908159 50.67
v 57.22189 4.908159 47.745
v 57.98629 4.908159 50.67
v 57.98629 4.908159 47.745
v 53.64 4.11723 47.745
v 53.64 4.11723 50.67
v 52.7926 4.11723 47.745
v 52.7926 4.11723 50.67
v 57.22189 4.11723 50.67
v 57.22189 4.11723 47.745
v 57.98629 4.11723 50.67
v 57.98629 4.11723 47.745
v 54.94631 4.11723 47.745
v 54.94631 4.11723 50.67
v 54.94631 4.908159 47.745
v 54.94631 4.908159 50.67
v 55.91558 4.11723 50.67
v 55.91558 4.11723 47.745
v 55.91558 4.908159 50.67
v 55.91558 4.908159 47.745

vt 2.58189 0
vt -1 0
vt 2.58189 1
vt -1 1
vt 0 0
vt -2.924995 0
vt 0 1
vt -2.924995 1
vt 1 0
vt -2.58189 0
vt 1 1
vt -2.58189 1
vt 2.924995 0
vt 2.924995 1
vt -2.58189 -2.924995
vt 1 -2.924995
vt 2.58189 -2.924995
vt -1 -2.924995
vt -1.847397 0
vt -1.847397 -2.924995
vt -1.847397 1
vt 1.847397 0
vt 1.847397 1
vt 1.847397 -2.924995
vt 3.346287 -2.924995
vt 3.346287 0
vt -3.346287 1
vt -3.346287 0
vt 3.346287 1
vt -3.346287 -2.924995
vt 2.924995 5.06723
vt 0 5.06723
vt 1.847397 5.06723
vt 1 5.06723
vt -1 5.06723
vt -1.847397 5.06723
vt -2.924995 5.06723
vt 3.346287 5.06723
vt 2.58189 5.06723
vt -2.58189 5.06723
vt -3.346287 5.06723
vt 2.924995 5.858159
vt 0 5.858159
vt 1.847397 5.858159
vt 1 5.858159
vt -1 5.858159
vt -1.847397 5.858159
vt -2.924995 5.858159
vt 3.346287 5.858159
vt 2.58189 5.858159
vt -2.58189 5.858159
vt -3.346287 5.858159
vt 0.3063126 -2.924995
vt 0.3063126 0
vt -0.3063126 5.858159
vt -0.3063126 5.06723
vt 0.3063126 5.06723
vt 0.3063126 5.858159
vt -0.3063126 0
vt -0.3063126 -2.924995
vt 1.275581 0
vt 1.275581 -2.924995
vt 1.275581 5.858159
vt 1.275581 5.06723
vt -1.275581 5.06723
vt -1.275581 5.858159
vt -1.275581 -2.924995
vt -1.275581 0

vn 0 0 1
vn -1 0 0
vn 0 0 -1
vn 1 0 0
vn 0 1 0
vn 0 -1 0

usemtl ProBuilderDefault
f 3/3/1 4/4/1 2/2/1 1/1/1
f 7/7/2 8/8/2 6/6/2 5/5/2
f 11/11/3 12/12/3 10/10/3 9/9/3
f 15/14/4 16/7/4 14/5/4 13/13/4
f 12/15/5 11/16/5 4/9/5 3/10/5
f 1/1/6 2/2/6 9/18/6 10/17/6
f 5/19/6 6/20/6 9/18/6 2/2/6
f 7/21/1 5/19/1 2/2/1 4/4/1
f 6/22/3 8/23/3 11/11/3 9/9/3
f 19/24/5 20/22/5 18/9/5 17/16/5
f 13/25/6 14/26/6 1/1/6 10/17/6
f 15/27/3 13/28/3 10/10/3 12/12/3
f 14/26/1 16/29/1 3/3/1 1/1/1
f 23/28/5 24/30/5 22/15/5 21/10/5
f 25/31/4 26/32/4 4/7/4 11/14/4
f 27/33/3 25/34/3 11/11/3 8/23/3
f 26/35/1 28/36/1 7/21/1 4/4/1
f 28/32/2 27/37/2 8/8/2 7/7/2
f 29/32/2 30/37/2 12/8/2 3/7/2
f 31/38/1 29/39/1 3/3/1 16/29/1
f 30/40/3 32/41/3 15/27/3 12/12/3
f 32/31/4 31/32/4 16/7/4 15/14/4
f 35/42/4 36/43/4 34/32/4 33/31/4
f 19/44/3 17/45/3 25/34/3 27/33/3
f 18/46/1 20/47/1 28/36/1 26/35/1
f 20/43/2 19/48/2 27/37/2 28/32/2
f 39/43/2 40/48/2 38/37/2 37/32/2
f 23/49/1 21/50/1 29/39/1 31/38/1
f 22/51/3 24/52/3 32/41/3 30/40/3
f 24/42/4 23/43/4 31/32/4 32/31/4
f 33/53/6 34/54/6 26/2/6 25/18/6
f 35/55/3 33/56/3 25/34/3 17/45/3
f 34/57/1 36/58/1 18/46/1 26/35/1
f 36/59/5 35/60/5 17/16/5 18/9/5
f 37/61/6 38/62/6 30/17/6 29/1/6
f 39/63/1 37/64/1 29/39/1 21/50/1
f 38/65/3 40/66/3 22/51/3 30/40/3
f 40/67/5 39/68/5 21/10/5 22/15/5

