# ProBuilder 4.1.0
# https://unity3d.com/unity/features/worldbuilding/probuilder
# 9/09/2019 3:04:20 PM

mtllib ./Platform3.mtl
o Platform3

g Platform3
v 25.57973 2.543729 -1.481968
v 22.56579 2.543729 -1.481968
v 25.57973 4.09 -1.481968
v 22.56579 4.09 -1.481968
v 22.56579 2.543729 -5.937667
v 22.56579 4.09 -5.937667
v 22.56579 2.543729 -8.508882
v 25.57973 2.543729 -8.508882
v 22.56579 4.09 -8.508882
v 25.57973 4.09 -8.508882
v 27.921 2.543729 -5.937667
v 27.921 2.543729 -0.5002842
v 27.921 4.09 -5.937667
v 27.921 4.09 -0.5002842
v 25.57973 4.09 -5.937667
v 25.57973 2.543729 -5.937667
v 29.73029 2.543729 -5.937667
v 25.87153 4.09 -5.937667
v 29.73029 2.543729 -8.508882
v 25.87153 4.09 -8.508882

vt -2.250271 -0.5462713
vt -5.264206 -0.5462713
vt -2.250271 1
vt -5.264206 1
vt 3.248032 -0.5462713
vt -1.207667 -0.5462713
vt 3.248032 1
vt -1.207667 1
vt 5.264206 -0.5462713
vt 2.250271 -0.5462713
vt 5.264206 1
vt 2.250271 1
vt 1.207667 -0.5462713
vt -4.229716 -0.5462713
vt 1.207667 1
vt -4.229716 1
vt 2.250271 3.248032
vt 5.264206 3.248032
vt 2.250271 -1.207667
vt 5.264206 -1.207667
vt -2.250271 -1.207667
vt -5.264206 -1.207667
vt -2.250271 3.248032
vt -5.264206 3.248032
vt -5.264206 -3.778881
vt -2.250271 -3.778881
vt -3.778881 1
vt -3.778881 -0.5462713
vt -1.967133 -1.207667
vt 2.189908 -1.207667
vt -1.967133 -3.778881
vt 2.189908 -3.778881
vt 2.250271 -3.778881
vt 5.264206 -3.778881
vt 0.0909977 -1.207667
vt 0.0909977 4.229716
vt -0.0909977 1
vt -0.0909977 -0.5462713
vt -0.819281 -0.5462713
vt -0.819281 1
vt 1.719467 -0.5462713
vt 1.719467 1
vt -0.09099767 4.229716
vt -0.09099767 -1.207667
vt 1.900291 -0.5462713
vt -1.958469 1
vt 1.900291 -3.778881
vt 1.900291 -1.207667
vt 1.958469 -1.207667
vt 1.958469 -3.778881
vt 1.958469 1
vt -1.900291 -0.5462713

vn 0 0 1
vn -1 0 0
vn 0 0 -1
vn 1 0 0
vn 0 1 -5.350868E-08
vn 0 -1 0
vn 0.3719644 0.928247 0
vn -0.3866803 0 0.9222139

usemtl ProBuilderDefault
f 3/3/1 4/4/1 2/2/1 1/1/1
f 4/7/2 6/8/2 5/6/2 2/5/2
f 9/11/3 10/12/3 8/10/3 7/9/3
f 13/15/4 14/16/4 12/14/4 11/13/4
f 15/19/5 6/20/5 4/18/5 3/17/5
f 1/23/6 2/24/6 5/22/6 16/21/6
f 7/25/6 8/26/6 16/21/6 5/22/6
f 9/27/2 7/28/2 5/6/2 6/8/2
f 19/31/7 20/32/7 18/30/7 17/29/7
f 10/33/5 9/34/5 6/20/5 15/19/5
f 11/35/6 12/36/6 1/23/6 16/21/6
f 13/37/3 11/38/3 16/10/3 15/12/3
f 12/41/8 14/42/8 3/40/8 1/39/8
f 14/43/5 13/44/5 15/19/5 3/17/5
f 17/45/1 18/46/1 15/3/1 16/1/1
f 19/47/6 17/48/6 16/21/6 8/26/6
f 18/49/5 20/50/5 10/33/5 15/19/5
f 20/51/3 19/52/3 8/10/3 10/12/3

