# ProBuilder 4.1.0
# https://unity3d.com/unity/features/worldbuilding/probuilder
# 9/09/2019 2:47:52 PM

mtllib ./Platform4.mtl
o Platform4

g Platform4
v 29.38739 3.659002 -2.314709
v 27.77648 3.362194 -2.314709
v 29.38739 4.250501 -2.314709
v 27.77648 3.953693 -2.314709
v 27.35491 3.58603 -2.314709
v 27.35491 3.58603 -5.13765
v 27.35491 3.953693 -2.314709
v 27.35491 3.953693 -5.13765
v 27.77648 3.362194 -5.13765
v 29.38739 3.659002 -5.13765
v 27.77648 3.953693 -5.13765
v 29.38739 4.250501 -5.13765
v 32.98573 4.631447 -5.13765
v 32.98573 4.631447 -2.314709
v 32.98573 5.222946 -5.13765
v 32.98573 5.222946 -2.314709
v 32.30519 4.616277 -5.13765
v 32.30519 4.616277 -2.314709
v 32.30519 5.207776 -5.13765
v 32.30519 5.207776 -2.314709

vt 0 -0.2238359
vt -1.610914 -0.5206442
vt 0 0.3676629
vt -1.610914 0.07085466
vt 1.745291 -0.2968082
vt -1.077651 -0.2968082
vt 1.745291 0.07085466
vt -1.077651 0.07085466
vt 1.610914 -0.5206442
vt 1.610914 0.07085466
vt 1.077651 0.7486086
vt -1.745291 0.7486086
vt 1.077651 1.340108
vt -1.745291 1.340108
vt -0.06661992 1.745291
vt 1.571409 1.745291
vt -0.06661992 -1.077651
vt 1.571409 -1.077651
vt -0.04055871 -1.077651
vt -1.678588 -1.077651
vt -0.04055871 1.745291
vt -1.678588 1.745291
vt -1.178635 1.745291
vt -1.178635 -1.077651
vt -1.655942 1.745291
vt -1.655942 -1.077651
vt -2.032482 0.07085466
vt -2.032482 -0.2968082
vt 2.032482 -0.2968082
vt 2.032482 0.07085466
vt 1.610914 -1.077651
vt 1.610914 1.745291
vt 2.032482 -1.077651
vt 2.032482 1.745291
vt -0.06977693 -1.077651
vt -0.06977693 1.745291
vt 3.001043 -1.077651
vt 3.001043 1.745291
vt -2.917801 1.324938
vt -2.917801 0.7334385
vt 2.917801 0.7334385
vt 2.917801 1.324938
vt -0.1146125 1.745291
vt -0.1146125 -1.077651
vt -3.185433 1.745291
vt -3.185433 -1.077651
vt 2.933422 -1.077651
vt 2.933422 1.745291
vt 3.614125 -1.077651
vt 3.614125 1.745291
vt -3.598335 1.340108
vt -3.598335 0.7486086
vt 3.598335 0.7486086
vt 3.598335 1.340108
vt -2.946604 1.745291
vt -2.946604 -1.077651
vt -3.627307 1.745291
vt -3.627307 -1.077651

vn 0 0 1
vn -1 0 0
vn 0 0 -1
vn 1 0 0
vn -0.1811984 0.9834465 0
vn 0.1811984 -0.9834465 0
vn -0.4689559 -0.8832216 0
vn 0 1 0
vn 0.3117325 -0.9501699 0
vn -0.3117326 0.9501699 0
vn 0.02228591 -0.9997517 0
vn -0.02228591 0.9997517 0

usemtl ProBuilderDefault
f 3/3/1 4/4/1 2/2/1 1/1/1
f 7/7/2 8/8/2 6/6/2 5/5/2
f 11/10/3 12/3/3 10/1/3 9/9/3
f 15/13/4 16/14/4 14/12/4 13/11/4
f 12/17/5 11/18/5 4/16/5 3/15/5
f 1/21/6 2/22/6 9/20/6 10/19/6
f 5/25/7 6/26/7 9/24/7 2/23/7
f 7/27/1 5/28/1 2/2/1 4/4/1
f 6/29/3 8/30/3 11/10/3 9/9/3
f 8/33/8 7/34/8 4/32/8 11/31/8
f 17/37/9 18/38/9 1/36/9 10/35/9
f 19/39/3 17/40/3 10/1/3 12/3/3
f 18/41/1 20/42/1 3/3/1 1/1/1
f 20/45/10 19/46/10 12/44/10 3/43/10
f 13/49/11 14/50/11 18/48/11 17/47/11
f 15/51/3 13/52/3 17/40/3 19/39/3
f 14/53/1 16/54/1 20/42/1 18/41/1
f 16/57/12 15/58/12 19/56/12 20/55/12

