# ProBuilder 4.1.0
# https://unity3d.com/unity/features/worldbuilding/probuilder
# 9/09/2019 2:48:07 PM

mtllib ./Platform6.mtl
o Platform6

g Platform6
v 52.47875 2.51 4.58
v 51.83 2.51 5.179143
v 52.47875 4.529812 2.160646
v 51.83 4.529812 2.160646
v 51.83 1.739874 5.1763
v 51.83 3.934509 1.688763
v 52.47875 1.739874 4.577157
v 52.47875 3.934509 1.688763
v 52.47875 4.658045 0.448812
v 51.83 4.658045 0.448812
v 52.47875 4.195846 0.3468981
v 51.83 4.195846 0.3468981

vt 0.2781708 0.1182863
vt 0.7919375 0.8365402
vt 1.511472 -2.782038
vt 2.025239 -2.56357
vt 0.5991435 0
vt 0.5963001 -0.7701259
vt -2.419354 2.019812
vt -2.891237 1.424509
vt -0.4776281 1.08215
vt 0.08327425 0.4000703
vt -1.580368 -2.888152
vt -1.019466 -3.043941
vt 0.002842903 -0.7701259
vt 0 0
vt 2.891237 1.424509
vt 2.419354 2.019812
vt 0.3512535 1.208108
vt 1 1.208108
vt 0.3512535 0.7348059
vt 1 0.7348059
vt -0.256114 -0.770775
vt -1.139202 -0.770775
vt -0.2580428 -0.0006462745
vt -1.141131 -0.0006462735
vt 0.3512535 -2.563476
vt 1 -2.563476
vt 0.3512535 -4.280106
vt 1 -4.280106
vt 4.233102 1.685846
vt 4.131188 2.148045
vt -4.131188 2.148045
vt -4.233102 1.685846
vt -1 -3.110233
vt -0.3512535 -3.110233
vt -1 -4.477309
vt -0.3512535 -4.477309

vn 0.5093439 0.6606079 0.5515124
vn 0.254672 0.7458532 0.5538188
vn 0 0.8310985 0.5561252
vn -1 0 0
vn -0.4413736 -0.7594646 -0.4779152
vn -0.2206868 -0.7778496 -0.5414516
vn 0 -0.7962346 -0.604988
vn 1 0 0
vn 0 0.2153253 -0.9765424
vn 0.6784611 -0.002711876 0.7346314
vn 0 0.997206 0.07470068
vn 0 -0.981558 -0.1911647

usemtl ProBuilderDefault
f 3/3/2 4/4/3 2/2/2 1/1/1
f 4/7/4 6/8/4 5/6/4 2/5/4
f 6/11/6 8/12/7 7/10/6 5/9/5
f 8/15/8 3/16/8 1/14/8 7/13/8
f 11/19/9 12/20/9 10/18/9 9/17/9
f 1/23/10 2/24/10 5/22/10 7/21/10
f 9/27/11 10/28/11 4/26/11 3/25/11
f 11/29/8 9/30/8 3/16/8 8/15/8
f 10/31/4 12/32/4 6/8/4 4/7/4
f 12/35/12 11/36/12 8/34/12 6/33/12

