# ProBuilder 4.1.0
# https://unity3d.com/unity/features/worldbuilding/probuilder
# 6/09/2019 12:29:23 PM

mtllib ./Platform12.mtl
o Platform12

g Platform12
v -18.57313 -2.08 10.9529
v -27.41076 -2.08 10.9529
v -18.57313 -1.08 10.9529
v -27.41076 -1.08 10.9529
v -27.41076 -2.08 3.794361
v -27.41076 -1.08 3.794361
v -18.57313 -2.08 3.794361
v -18.57313 -1.08 3.794361
v -5.644283 1.739452 7.957545
v -5.644283 1.739452 10.9529
v -5.644283 2.739452 7.957545
v -5.644283 2.739452 10.9529
v -13.71831 1.739452 7.957545
v -13.71831 1.739452 10.9529
v -13.71831 2.739452 7.957545
v -13.71831 2.739452 10.9529
v -7.068241 1.739452 7.957545
v -7.068241 1.739452 10.9529
v -7.068241 2.739452 7.957545
v -7.068241 2.739452 10.9529
v -7.068241 -3.711685 7.957545
v -7.068241 -3.711685 10.9529
v -5.644283 -3.711685 7.957545
v -5.644283 -3.711685 10.9529

vt 7.006866 0
vt -1.830761 0
vt 7.006866 1
vt -1.830761 1
vt 5.535288 0
vt -2.481173 0
vt 5.535288 1
vt -2.481173 1
vt 1.830761 0
vt -7.006866 0
vt 1.830761 1
vt -7.006866 1
vt -2.180952 3.819452
vt -5.535288 3.819452
vt -2.180952 4.819452
vt -5.535288 4.819452
vt -7.006866 5.535288
vt 1.830761 5.535288
vt -7.006866 -2.481173
vt 1.830761 -2.481173
vt 7.006866 -2.481173
vt -1.830761 -2.481173
vt 7.006866 5.535288
vt -1.830761 5.535288
vt 5.506899 -2.481173
vt 5.506899 5.535288
vt 11.68408 2.180952
vt 11.68408 5.535288
vt -3.33531 1
vt -3.33531 0
vt -10.06619 4.819452
vt -10.06619 3.819452
vt 11.86169 3.819452
vt 11.86169 4.819452
vt -6.125216 5.535288
vt -6.125216 -2.481173
vt -12.30239 5.535288
vt -12.30239 2.180952
vt 11.86169 2.180952
vt 11.86169 5.535288
vt 18.51176 2.180952
vt 18.51176 5.535288
vt -11.86169 4.819452
vt -11.86169 3.819452
vt -18.51176 4.819452
vt -18.51176 3.819452
vt 18.51176 3.819452
vt 18.51176 4.819452
vt -11.86169 5.535288
vt -11.86169 2.180952
vt -18.51176 5.535288
vt -18.51176 2.180952
vt 19.93571 2.180952
vt 19.93571 5.535288
vt -19.93571 4.819452
vt -19.93571 3.819452
vt 19.93571 3.819452
vt 19.93571 4.819452
vt -19.93571 5.535288
vt -19.93571 2.180952
vt 2.180952 3.819452
vt 5.535288 3.819452
vt 2.180952 -1.631685
vt 5.535288 -1.631685
vt -19.93571 -1.631685
vt -18.51176 -1.631685
vt 18.51176 -1.631685
vt 19.93571 -1.631685
vt -5.535288 -1.631685
vt -2.180952 -1.631685

vn 0 0 0.89298
vn -1 0 0
vn 0 0 -0.89298
vn 1 0 0
vn 0 1 0
vn 0 -1 0
vn 0.6183167 -0.7859291 0
vn 0.6926473 0 -0.6440855
vn -0.6183167 0.7859291 0

usemtl ProBuilderDefault
f 3/3/1 4/4/1 2/2/1 1/1/1
f 4/7/2 6/8/2 5/6/2 2/5/2
f 6/11/3 8/12/3 7/10/3 5/9/3
f 11/15/4 12/16/4 10/14/4 9/13/4
f 8/19/5 6/20/5 4/18/5 3/17/5
f 1/23/6 2/24/6 5/22/6 7/21/6
f 13/27/7 14/28/7 1/26/7 7/25/7
f 15/31/8 13/32/8 7/30/8 8/29/8
f 14/33/1 16/34/1 3/3/1 1/1/1
f 16/37/9 15/38/9 8/36/9 3/35/9
f 17/41/6 18/42/6 14/40/6 13/39/6
f 19/45/3 17/46/3 13/44/3 15/43/3
f 18/47/1 20/48/1 16/34/1 14/33/1
f 20/51/5 19/52/5 15/50/5 16/49/5
f 23/53/6 24/54/6 22/42/6 21/41/6
f 11/55/3 9/56/3 17/46/3 19/45/3
f 10/57/1 12/58/1 20/48/1 18/47/1
f 12/59/5 11/60/5 19/52/5 20/51/5
f 21/63/2 22/64/2 18/62/2 17/61/2
f 23/65/3 21/66/3 17/46/3 9/56/3
f 22/67/1 24/68/1 10/57/1 18/47/1
f 24/69/4 23/70/4 9/13/4 10/14/4

