# ProBuilder 4.1.0
# https://unity3d.com/unity/features/worldbuilding/probuilder
# 9/09/2019 2:49:34 PM

mtllib ./Platform17.mtl
o Platform17

g Platform17
v -32.9929 31.18 0.8306503
v -38.35 31.18 0.8306503
v -32.9929 32.18 0.8306503
v -38.35 32.18 0.8306503
v -38.35 31.18 -1.643442
v -38.35 31.18 -11.11471
v -38.35 32.18 -1.643442
v -38.35 32.18 -11.11471
v -38.35 31.18 -13.5888
v -32.9929 31.18 -13.5888
v -38.35 32.18 -13.5888
v -32.9929 32.18 -13.5888
v -24.98323 31.18 -11.11471
v -24.98323 31.18 -1.643442
v -24.98323 32.18 -11.11471
v -24.98323 32.18 -1.643442
v -32.9929 32.18 -1.643442
v -32.9929 32.18 -11.11471
v -32.9929 31.18 -11.11471
v -32.9929 31.18 -1.643442
v -26.60175 31.18 -11.11471
v -26.60175 31.18 -1.643442
v -26.60175 32.18 -12.55376
v -26.60175 31.18 -12.55376
v -26.60175 31.18 -0.2043872
v -26.60175 32.18 -0.2043872
v -26.60175 32.18 -1.643442
v -26.60175 32.18 -11.11471
v -32.9929 33.06503 -11.11471
v -36.64856 35.92589 -11.11471
v -32.9929 33.06503 -12.55376
v -36.64856 35.92589 -12.55376
v -26.60175 33.06503 -11.11471
v -26.60175 33.06503 -12.55376
v -24.98323 31.18 -12.55376
v -24.98323 32.18 -12.55376
v -42.19447 30.06064 -11.11471
v -41.25196 29.72646 -11.11471
v -42.19447 30.06064 -12.55376
v -41.25196 29.72646 -12.55376
v -41.25196 29.72646 -1.643442
v -42.19447 30.06064 -1.643442
v -41.25196 29.72646 -0.2043872
v -42.19447 30.06064 -0.2043872
v -36.64856 35.92589 -1.643442
v -32.9929 33.06503 -1.643442
v -36.64856 35.92589 -0.2043872
v -32.9929 33.06503 -0.2043872
v -26.60175 33.06503 -1.643442
v -26.60175 33.06503 -0.2043872
v -24.98323 32.18 -0.2043872
v -24.98323 31.18 -0.2043872
v -24.98323 33.06503 -0.2043872
v -24.98323 33.06503 -1.643442
v -24.98323 33.06503 -11.11471
v -24.98323 33.06503 -12.55376
v -26.60175 32.18 -3.488023
v -24.98323 32.18 -3.488023
v -26.60175 34.12929 -3.488023
v -24.98323 34.12929 -3.488023
v -24.98323 32.18 -9.270125
v -26.60175 32.18 -9.270125
v -24.98323 34.12929 -9.270125
v -26.60175 34.12929 -9.270125
v -40.50427 31.41385 -11.11471
v -40.50427 30.41385 -11.11471
v -40.50427 31.41385 -12.55376
v -40.50427 30.41385 -12.55376
v -40.50427 30.41385 -1.643442
v -40.50427 31.41385 -1.643442
v -40.50427 30.41385 -0.2043872
v -40.50427 31.41385 -0.2043872
v -24.98323 42.94885 -5.323936
v -26.60175 42.94885 -5.323936
v -24.98323 42.94885 -5.734924
v -26.60175 42.94885 -5.734924
v -26.60175 42.94885 -7.434214
v -24.98323 42.94885 -7.434214
v -26.60175 42.94885 -7.023225
v -24.98323 42.94885 -7.023225
v -24.98323 38.76235 -1.643442
v -26.60175 38.76235 -1.643442
v -24.98323 38.76235 -3.488023
v -26.60175 38.76235 -3.488023
v -26.60175 38.76235 -11.11471
v -24.98323 38.76235 -11.11471
v -26.60175 38.76235 -9.270125
v -24.98323 38.76235 -9.270125

vt 4.357094 0
vt -1 0
vt 4.357094 1
vt -1 1
vt 3.346558 0
vt -6.124707 0
vt 3.346558 1
vt -6.124707 1
vt 1 0
vt -4.357094 0
vt 1 1
vt -4.357094 1
vt 6.124707 0
vt -3.346558 0
vt 6.124707 1
vt -3.346558 1
vt -4.357094 3.346558
vt 1 3.346558
vt -4.357094 -6.124707
vt 1 -6.124707
vt 4.357094 -6.124707
vt -1 -6.124707
vt 4.357094 3.346558
vt -1 3.346558
vt 10.74825 -6.124707
vt 10.74825 3.346558
vt -2.926404 1
vt -2.926404 0
vt -9.40083 1
vt -9.40083 0
vt 3.370535 0
vt 3.370535 1
vt 9.844961 0
vt 9.844961 1
vt -10.74825 3.346558
vt -10.74825 -6.124707
vt -2.269537 -6.124707
vt 2.372478 -6.124707
vt -2.269537 -7.563763
vt 2.372478 -7.563763
vt -10.74825 -7.563763
vt -4.357094 -7.563763
vt 4.357094 -8.598801
vt 10.74825 -7.563763
vt 7.563763 0
vt 7.563763 1
vt -1 -8.598801
vt -4.191895 -6.124707
vt -3.191893 -6.124707
vt -4.191895 -7.563763
vt -3.191893 -7.563763
vt 4.357094 5.82065
vt -1 5.82065
vt 10.74825 4.785613
vt -3.191893 3.346558
vt -4.191895 3.346558
vt -3.191893 4.785613
vt -4.191895 4.785613
vt 2.372478 3.346558
vt -2.269537 3.346558
vt 2.372478 4.785613
vt -2.269537 4.785613
vt -4.357094 4.785613
vt -10.74825 4.785613
vt -4.785613 1
vt -4.785613 0
vt 12.36677 -6.124707
vt 12.36677 3.346558
vt 12.36677 -7.563763
vt -12.36677 4.785613
vt -12.36677 3.346558
vt -12.36677 -6.124707
vt 12.36677 4.785613
vt 10.74825 0
vt 10.74825 1
vt 12.36677 0
vt 12.36677 1
vt -12.36677 -7.563763
vt -10.74825 1
vt -10.74825 0
vt -12.36677 1
vt -12.36677 0
vt 9.844961 1.885033
vt 3.536002 1.885033
vt 12.36677 1.885033
vt 10.74825 1.885033
vt -10.74825 2.949287
vt -12.36677 2.949287
vt -3.346558 1.885033
vt -4.785613 1.885033
vt -4.357094 1.885033
vt -10.74825 1.885033
vt -4.357094 3.774004
vt 1 3.774004
vt -4.357094 2.412173
vt -0.7014389 0.5529485
vt -0.7014389 4.745888
vt 5.82065 0.4969261
vt 3.346558 0.4969261
vt 4.785613 4.611117
vt 3.346558 4.611117
vt 4.357094 1.885033
vt 0.7014389 4.745888
vt -4.178741 -5.53502
vt -10.50949 -4.17861
vt -4.057342 -4.17861
vt -10.38809 -3.612008
vt -6.124707 0.4969261
vt -8.598801 0.4969261
vt -6.124707 4.611117
vt -7.563763 4.611117
vt 1 -1.326263
vt -4.357094 -1.326263
vt -0.7014389 2.559992
vt -4.357094 -0.1975324
vt 12.36677 2.949287
vt 10.74825 2.949287
vt -12.36677 1.885033
vt 7.563763 1.885033
vt 6.124707 1.885033
vt -3.154274 0.2338448
vt -3.154274 -0.7661552
vt 0.6071044 -8.598801
vt 0.6071044 -6.124707
vt 2.893563 -7.563763
vt 2.893563 -6.124707
vt -0.9421883 -6.124707
vt -0.9421883 -8.598801
vt -3.228647 -6.124707
vt -3.228647 -7.563763
vt -2.822491 0
vt -2.822491 1
vt -0.4324696 -0.7661552
vt -0.4324696 0.2338448
vt 3.154274 -0.7661552
vt 3.154274 0.2338448
vt -0.9421883 5.82065
vt -0.9421883 3.346558
vt -3.228647 4.785613
vt -3.228647 3.346558
vt 0.6071044 3.346558
vt 0.6071044 5.82065
vt 2.893563 3.346558
vt 2.893563 4.785613
vt 1.619365 1
vt 1.619365 0
vt -0.7706552 0.2338448
vt -0.7706552 -0.7661552
vt -4.844471 -1.119364
vt -3.901958 -1.453543
vt 2.316176 -7.563763
vt 2.316176 -6.124707
vt 4.481341 -7.563763
vt 4.481341 -6.124707
vt -2.840607 -6.124707
vt -2.840607 -7.563763
vt -3.856252 -6.124707
vt -3.856252 -7.563763
vt 3.901958 -1.453543
vt 4.844471 -1.119364
vt -2.840607 4.785613
vt -2.840607 3.346558
vt -3.856252 4.785613
vt -3.856252 3.346558
vt 2.316176 3.346558
vt 2.316176 4.785613
vt 4.481341 3.346558
vt 4.481341 4.785613
vt 10.74825 1.501976
vt 12.36677 1.501976
vt 3.346558 1.885033
vt 1.501976 2.949287
vt 1.501976 1
vt -1.501976 1
vt -1.501976 2.949287
vt -12.36677 -0.3339357
vt -10.74825 -0.3339357
vt -12.36677 -0.7449241
vt -10.74825 -0.7449241
vt 12.36677 -4.280126
vt 10.74825 -4.280126
vt 4.280126 2.949287
vt 4.280126 1
vt -6.124707 1.885033
vt -4.280126 1
vt -4.280126 2.949287
vt -10.74825 -2.444214
vt -12.36677 -2.444214
vt -10.74825 -2.033226
vt -12.36677 -2.033226
vt 12.36677 7.582352
vt 10.74825 7.582352
vt -1.501976 7.582352
vt -3.346558 7.582352
vt 3.346558 7.582352
vt 1.501976 7.582352
vt -10.74825 7.582352
vt -12.36677 7.582352
vt -4.280126 7.582352
vt -6.124707 7.582352
vt 6.124707 7.582352
vt 4.280126 7.582352
vt 12.36677 3.485015
vt 10.74825 3.485015
vt 12.36677 9.059312
vt 10.74825 9.059312
vt 0.7449241 11.76885
vt 0.3339357 11.76885
vt -0.3339357 11.76885
vt -0.7449241 11.76885
vt -10.74825 5.970662
vt -12.36677 5.970662
vt -10.74825 10.72201
vt -12.36677 10.72201
vt -10.74825 1.65071
vt -12.36677 1.65071
vt -10.74825 7.225007
vt -12.36677 7.225007
vt -2.033226 11.76885
vt -2.444214 11.76885
vt 2.444214 11.76885
vt 2.033226 11.76885
vt 12.36677 4.656883
vt 10.74825 4.656883
vt 12.36677 9.408232
vt 10.74825 9.408232

vn 0 0 1
vn -1 0 0
vn 0 0 -1
vn 1 0 0
vn 0 1 0
vn 0 -1 0
vn 0.1598656 0 -0.9871388
vn 0.1598655 0 0.9871388
vn 0.6162959 0.7875147 0
vn -0.334178 -0.9425099 0
vn 0.07993277 0.3800167 0.8185114
vn 0 0.7600334 0.649884
vn 0.07722031 0.4786903 0.808988
vn 0.1544406 0.1973471 0.968092
vn -0.9104797 0.4135537 0
vn 0.1046696 0.7558587 -0.6463141
vn 0.05233479 0.3779294 -0.8231571
vn 0 0.266333 -0.9638811
vn 0.2555996 0.4597766 -0.7612159
vn 0.5111992 0.6532201 -0.5585507
vn -0.3350839 0.9421883 0
vn 0.3350839 -0.9421883 0
vn -0.4330665 0 -0.901362
vn -0.4330663 0 0.901362
vn -0.624991 0.780632 0
vn 0.6767993 -0.7361676 0
vn 0 0.6602615 0.7510359
vn 0 -0.4728974 -0.8811175
vn 0 0.6602615 -0.7510359
vn 0 -0.4728973 0.8811175

usemtl ProBuilderDefault
f 3/3/1 4/4/1 2/2/1 1/1/1
f 7/7/2 8/8/2 6/6/2 5/5/2
f 11/11/3 12/12/3 10/10/3 9/9/3
f 15/15/4 16/16/4 14/14/4 13/13/4
f 18/19/5 8/20/5 7/18/5 17/17/5
f 20/23/6 5/24/6 6/22/6 19/21/6
f 21/25/6 22/26/6 20/23/6 19/21/6
f 23/29/7 24/30/7 10/28/7 12/27/7
f 25/33/8 26/34/8 3/32/8 1/31/8
f 27/35/5 28/36/5 18/19/5 17/17/5
f 31/39/9 32/40/9 30/38/9 29/37/9
f 34/41/5 31/42/5 29/19/5 33/36/5
f 10/43/6 24/44/6 21/25/6 19/21/6
f 35/45/4 36/46/4 15/15/4 13/13/4
f 9/47/6 10/43/6 19/21/6 6/22/6
f 39/50/10 40/51/10 38/49/10 37/48/10
f 1/52/6 2/53/6 5/24/6 20/23/6
f 25/54/6 1/52/6 20/23/6 22/26/6
f 43/57/10 44/58/10 42/56/10 41/55/10
f 47/61/9 48/62/9 46/60/9 45/59/9
f 48/63/5 50/64/5 49/35/5 46/17/5
f 51/65/4 52/66/4 14/14/4 16/16/4
f 13/67/6 14/68/6 22/26/6 21/25/6
f 35/69/6 13/67/6 21/25/6 24/44/6
f 53/70/5 54/71/5 49/35/5 50/64/5
f 16/71/5 15/72/5 28/36/5 27/35/5
f 14/68/6 52/73/6 25/54/6 22/26/6
f 52/76/1 51/77/1 26/75/1 25/74/1
f 55/72/5 56/78/5 34/41/5 33/36/5
f 36/81/3 35/82/3 24/80/3 23/79/3
f 50/83/11 48/84/12 3/32/11 26/34/8
f 53/85/1 50/86/1 26/75/1 51/77/1
f 59/87/3 60/88/3 58/81/3 57/79/3
f 54/89/4 53/90/4 51/65/4 16/16/4
f 46/91/3 49/92/3 27/79/3 17/12/3
f 48/95/13 47/96/14 4/94/13 3/93/12
f 45/97/3 46/91/3 17/12/3 7/11/3
f 47/100/15 45/101/15 7/99/15 4/98/15
f 29/102/1 30/103/1 8/4/1 18/3/1
f 31/106/17 34/107/3 23/105/17 12/104/16
f 30/110/15 32/111/15 11/109/15 8/108/15
f 32/114/19 31/115/20 12/113/19 11/112/18
f 33/86/1 29/102/1 18/3/1 28/75/1
f 63/116/1 64/117/1 62/75/1 61/77/1
f 34/92/3 56/118/3 36/81/3 23/79/3
f 56/119/4 55/120/4 15/15/4 36/46/4
f 65/121/1 66/122/1 6/2/1 8/4/1
f 67/125/21 65/126/21 8/124/21 11/123/21
f 66/129/22 68/130/22 9/128/22 6/127/22
f 68/133/23 67/134/23 11/132/23 9/131/23
f 69/135/3 70/136/3 7/11/3 5/9/3
f 71/139/22 69/140/22 5/138/22 2/137/22
f 70/143/21 72/144/21 4/142/21 7/141/21
f 72/147/24 71/148/24 2/146/24 4/145/24
f 37/149/1 38/150/1 66/122/1 65/121/1
f 39/153/25 37/154/25 65/152/25 67/151/25
f 38/157/26 40/158/26 68/156/26 66/155/26
f 40/159/3 39/160/3 67/136/3 68/135/3
f 41/159/3 42/160/3 70/136/3 69/135/3
f 43/163/26 41/164/26 69/162/26 71/161/26
f 42/167/25 44/168/25 72/166/25 70/165/25
f 44/149/1 43/150/1 71/122/1 72/121/1
f 57/169/6 58/170/6 16/68/6 27/26/6
f 59/172/2 57/173/2 27/7/2 49/171/2
f 58/174/4 60/175/4 54/89/4 16/16/4
f 75/178/5 76/179/5 74/177/5 73/176/5
f 61/180/6 62/181/6 28/25/6 15/67/6
f 63/182/4 61/183/4 15/15/4 55/120/4
f 62/185/2 64/186/2 33/184/2 28/8/2
f 79/189/5 80/190/5 78/188/5 77/187/5
f 81/191/1 82/192/1 49/86/1 54/85/1
f 83/193/4 81/194/4 54/89/4 60/175/4
f 82/195/2 84/196/2 59/172/2 49/171/2
f 84/197/3 83/198/3 60/88/3 59/87/3
f 85/197/3 86/198/3 55/118/3 33/92/3
f 87/199/2 85/200/2 33/184/2 64/186/2
f 86/201/4 88/202/4 63/182/4 55/120/4
f 88/191/1 87/192/1 64/117/1 63/116/1
f 73/205/27 74/206/27 82/204/27 81/203/27
f 75/207/4 73/208/4 81/194/4 83/193/4
f 74/209/2 76/210/2 84/196/2 82/195/2
f 76/213/28 75/214/28 83/212/28 84/211/28
f 77/217/29 78/218/29 86/216/29 85/215/29
f 79/219/2 77/220/2 85/200/2 87/199/2
f 78/221/4 80/222/4 88/202/4 86/201/4
f 80/225/30 79/226/30 87/224/30 88/223/30

