# ProBuilder 4.1.0
# https://unity3d.com/unity/features/worldbuilding/probuilder
# 12/09/2019 12:39:13 AM

mtllib ./Simple3.mtl
o Simple3

g Simple3
v -184.33 -2.824951 -31.18213
v -185.33 -2.824951 -31.18213
v -184.33 -1.824951 -31.18213
v -185.33 -1.824951 -31.18213
v -185.33 -2.824951 -32.18213
v -185.33 -1.824951 -32.18213
v -184.33 -2.824951 -32.18213
v -184.33 -1.824951 -32.18213
v -183.3299 -2.824951 -32.18213
v -183.3299 -2.824951 -31.18213
v -183.3299 -1.824951 -32.18213
v -183.3299 -1.824951 -31.18213
v -184.33 -0.824851 -31.18213
v -185.33 -0.824851 -31.18213
v -184.33 -0.824851 -32.18213
v -185.33 -0.824851 -32.18213
v -183.3299 -0.824851 -32.18213
v -183.3299 -0.824851 -31.18213

vt 0 0
vt -1 0
vt 0 1
vt -1 1
vt 1 0
vt 1 1
vt 0 -1
vt 1 -1
vt -1 -1
vt 0 2.0001
vt -1 2.0001
vt 1 2.0001

vn 0 0 1
vn -1 0 0
vn 0 0 -1
vn 1 0 0
vn 0 1 0
vn 0 -1 0

usemtl ProBuilderDefault
f 3/3/1 4/4/1 2/2/1 1/1/1
f 4/3/2 6/4/2 5/2/2 2/1/2
f 6/6/3 8/3/3 7/1/3 5/5/3
f 11/6/4 12/3/4 10/1/4 9/5/4
f 15/7/5 16/8/5 14/5/5 13/1/5
f 1/1/6 2/2/6 5/9/6 7/7/6
f 13/10/1 14/11/1 4/4/1 3/3/1
f 17/12/4 18/10/4 12/3/4 11/6/4
f 14/10/2 16/11/2 6/4/2 4/3/2
f 16/12/3 15/10/3 8/3/3 6/6/3
f 17/11/3 11/4/3 8/3/3 15/10/3
f 12/6/1 18/12/1 13/10/1 3/3/1
f 18/2/5 17/9/5 15/7/5 13/1/5
f 9/8/6 10/5/6 1/1/6 7/7/6
f 11/4/3 9/2/3 7/1/3 8/3/3
f 10/5/1 12/6/1 3/3/1 1/1/1

