# ProBuilder 4.1.0
# https://unity3d.com/unity/features/worldbuilding/probuilder
# 12/09/2019 12:39:26 AM

mtllib ./Simple5.mtl
o Simple5

g Simple5
v -188.6484 -2.824951 -37.21
v -189.6484 -2.824951 -37.21
v -188.6484 -1.824951 -37.21
v -189.6484 -1.824951 -37.21
v -189.6484 -2.824951 -38.21
v -189.6484 -1.824951 -38.21
v -189.6484 -2.824951 -39.2101
v -188.6484 -2.824951 -39.2101
v -189.6484 -1.824951 -39.2101
v -188.6484 -1.824951 -39.2101
v -188.6484 -2.824951 -38.21
v -188.6484 -1.824951 -38.21
v -188.6484 -0.824851 -37.21
v -189.6484 -0.824851 -37.21
v -188.6484 -0.824851 -38.21
v -189.6484 -0.824851 -38.21

vt 0 0
vt -1 0
vt 0 1
vt -1 1
vt 1 0
vt 1 1
vt 0 -1
vt 1 -1
vt -1 -1
vt 0 2.0001
vt -1 2.0001
vt 1 2.0001
vt -1 -2.000099
vt 0 -2.000099
vt -2.000099 1
vt -2.000099 0
vt 2.000099 0
vt 2.000099 1
vt 1 -2.000099

vn 0 0 1
vn -1 0 0
vn 0 0 -1
vn 1 0 0
vn 0 1 0
vn 0 -1 0

usemtl ProBuilderDefault
f 3/3/1 4/4/1 2/2/1 1/1/1
f 4/3/2 6/4/2 5/2/2 2/1/2
f 9/6/3 10/3/3 8/1/3 7/5/3
f 12/6/4 3/3/4 1/1/4 11/5/4
f 15/7/5 16/8/5 14/5/5 13/1/5
f 1/1/6 2/2/6 5/9/6 11/7/6
f 13/10/1 14/11/1 4/4/1 3/3/1
f 15/12/4 13/10/4 3/3/4 12/6/4
f 14/10/2 16/11/2 6/4/2 4/3/2
f 16/12/3 15/10/3 12/3/3 6/6/3
f 7/13/6 8/14/6 11/7/6 5/9/6
f 9/15/2 7/16/2 5/2/2 6/4/2
f 8/17/4 10/18/4 12/6/4 11/5/4
f 10/14/5 9/19/5 6/8/5 12/7/5

