# ProBuilder 4.1.0
# https://unity3d.com/unity/features/worldbuilding/probuilder
# 12/09/2019 12:39:19 AM

mtllib ./Simple4.mtl
o Simple4

g Simple4
v -185.33 -2.824951 -34.74
v -186.33 -2.824951 -34.74
v -185.33 -1.824951 -34.74
v -186.33 -1.824951 -34.74
v -186.33 -2.824951 -35.74
v -186.33 -1.824951 -35.74
v -186.33 -2.824951 -36.7401
v -185.33 -2.824951 -36.7401
v -186.33 -1.824951 -36.7401
v -185.33 -1.824951 -36.7401
v -184.3299 -2.824951 -35.74
v -184.3299 -2.824951 -34.74
v -184.3299 -1.824951 -35.74
v -184.3299 -1.824951 -34.74
v -185.33 -0.824851 -34.74
v -186.33 -0.824851 -34.74
v -185.33 -0.824851 -35.74
v -186.33 -0.824851 -35.74
v -185.33 -2.824951 -35.74
v -185.33 -1.824951 -35.74

vt 0 0
vt -1 0
vt 0 1
vt -1 1
vt 1 0
vt 1 1
vt 0 -1
vt 1 -1
vt -1 -1
vt -1 -2.000099
vt 0 -2.000099
vt -2.000099 1
vt -2.000099 0
vt 2.000099 0
vt 2.000099 1
vt 1 -2.000099
vt 0 2.0001
vt -1 2.0001
vt 1 2.0001

vn 0 0 1
vn -1 0 0
vn 0 0 -1
vn 1 0 0
vn 0 1 0
vn 0 -1 0

usemtl ProBuilderDefault
f 3/3/1 4/4/1 2/2/1 1/1/1
f 4/3/2 6/4/2 5/2/2 2/1/2
f 9/6/3 10/3/3 8/1/3 7/5/3
f 13/6/4 14/3/4 12/1/4 11/5/4
f 17/7/5 18/8/5 16/5/5 15/1/5
f 1/1/6 2/2/6 5/9/6 19/7/6
f 7/10/6 8/11/6 19/7/6 5/9/6
f 9/12/2 7/13/2 5/2/2 6/4/2
f 8/14/4 10/15/4 20/6/4 19/5/4
f 10/11/5 9/16/5 6/8/5 20/7/5
f 11/8/6 12/5/6 1/1/6 19/7/6
f 13/4/3 11/2/3 19/1/3 20/3/3
f 12/5/1 14/6/1 3/3/1 1/1/1
f 14/2/5 13/9/5 20/7/5 3/1/5
f 15/17/1 16/18/1 4/4/1 3/3/1
f 17/19/4 15/17/4 3/3/4 20/6/4
f 16/17/2 18/18/2 6/4/2 4/3/2
f 18/19/3 17/17/3 20/3/3 6/6/3

