# ProBuilder 4.1.0
# https://unity3d.com/unity/features/worldbuilding/probuilder
# 12/09/2019 12:39:31 AM

mtllib ./Simple6.mtl
o Simple6

g Simple6
v -192.59 -2.824951 -31.18213
v -193.59 -2.824951 -31.18213
v -192.59 0.1750488 -31.18213
v -193.59 0.1750488 -31.18213
v -193.59 -2.824951 -32.18213
v -193.59 0.1750488 -32.18213
v -192.59 -2.824951 -32.18213
v -192.59 0.1750488 -32.18213

vt 0 0
vt -1 0
vt 0 3
vt -1 3
vt 1 0
vt 1 3
vt 0 -1
vt 1 -1
vt -1 -1

vn 0 0 1
vn -1 0 0
vn 0 0 -1
vn 1 0 0
vn 0 1 0
vn 0 -1 0

usemtl ProBuilderDefault
f 3/3/1 4/4/1 2/2/1 1/1/1
f 4/3/2 6/4/2 5/2/2 2/1/2
f 6/6/3 8/3/3 7/1/3 5/5/3
f 8/6/4 3/3/4 1/1/4 7/5/4
f 8/7/5 6/8/5 4/5/5 3/1/5
f 1/1/6 2/2/6 5/9/6 7/7/6

