# ProBuilder 4.1.0
# https://unity3d.com/unity/features/worldbuilding/probuilder
# 9/09/2019 10:48:07 PM

mtllib ./Sphere2.mtl
o Sphere2

g Sphere2
v 24.10384 17.4763 -15.1375
v 27.35304 8.96979 -9.880186
v 18.84653 14.2271 -6.630989
v 13.58922 17.4763 -15.1375
v 18.84653 14.2271 -23.644
v 22.68272 15.35722 -15.40975
v 18.68716 12.88783 -21.87469
v 25.15211 8.892271 -19.40531
v 27.35304 8.96979 -20.39481
v 10.34002 8.96979 -9.880186
v 18.84653 3.712478 -6.630989
v 24.10384 0.4632812 -15.1375
v 18.84653 3.712478 -23.644
v 10.34002 8.96979 -20.39481
v 13.58922 0.4632812 -15.1375
v 14.69156 2.427207 -15.40968
v 18.68712 4.896599 -8.944732
v 22.68267 2.427208 -15.40968
v 18.68707 4.896626 -21.8747
v 12.22212 8.892181 -19.40531
v 12.2221 8.892254 -11.41415
v 14.69149 15.3572 -15.40971

vt 0 17.01302
vt 3.249197 8.506508
vt -5.257311 13.76382
vt 0 0
vt 5.257311 8.506508
vt 10.51462 0
vt 5.257311 -8.506508
vt 5.257311 13.76382
vt -3.249197 8.506508
vt -5.257311 8.506508
vt -10.51462 17.01302
vt -13.76382 8.506508
vt -5.257311 3.249197
vt 5.257311 3.249197
vt 10.51462 17.01302
vt 13.76382 8.506508
vt -10.51462 0
vt -5.257311 -8.506508
vt 0 14.70985
vt 9.820144 10.95192
vt 0.7598987 12.25898
vt 8.223205 9.402955
vt 9.180822 -13.71583
vt -0.5188103 -9.656968
vt 8.926872 -11.50563
vt 1.555152 -8.420889
vt -5.163225 6.640347
vt 0 15.79995
vt -2.750293 6.556879
vt 1.173759 13.51818
vt 14.1023 5.257311
vt 14.1023 -5.257311
vt 12.21862 3.723347
vt 12.21862 -4.267765
vt -14.60485 8.661318
vt -9.241444 17.70517
vt -12.47867 8.578884
vt -8.402483 15.45221
vt 8.100834 18.08941
vt 13.95576 9.355737
vt 7.078067 15.91373
vt 11.52781 9.276131
vt 4.122679 -4.056522
vt -5.764025 -0.477367
vt 3.440024 -1.893128
vt -4.073871 0.8270323
vt -6.063773 -6.699761
vt -15.87516 -2.919035
vt -6.629148 -4.641017
vt -14.08581 -1.767667
vt 14.65198 7.409535
vt 9.373384 -1.68407
vt 12.52582 7.326571
vt 8.514088 0.4154298
vt 3.763664 -4.885724
vt -6.061056 -1.13977
vt 3.623235 -2.62154
vt -3.843555 0.2253863
vt 9.713769 4.024917
vt 7.562166 5.491736
vt 0.1797002 2.432799
vt -1.421166 1.982698
vt -9.41228 1.982698

vn 0.5773503 0.5773503 0.5773503
vn 0 0.9341723 0.3568221
vn 0 0.9341723 -0.3568221
vn 0.5773504 0.5773503 -0.5773502
vn 0.9341723 0.3568221 0
vn -0.5773503 0.5773503 0.5773503
vn 0.3568221 0 0.9341723
vn 0.9341723 -0.3568221 0
vn 0.3568221 0 -0.9341723
vn -0.5773503 0.5773503 -0.5773503
vn -0.5773503 -0.5773503 0.5773503
vn -2.181536E-09 -0.9341723 0.3568222
vn 0 -0.9341723 -0.3568221
vn -0.5773499 -0.5773504 -0.5773505
vn -0.9341723 -0.3568221 0
vn -0.3568221 0 0.9341723
vn 0.5773503 -0.5773503 0.5773503
vn 0.5773503 -0.5773503 -0.5773503
vn -0.3568221 0 -0.9341723
vn -0.9341724 0.3568219 -2.229718E-07
vn 0.808088 -0.5024205 -0.3075182
vn 0.2425715 0.7628818 0.5993083
vn -0.3916455 0.3708369 -0.8420771
vn 0.04116192 0.9991525 0
vn -0.4486412 -0.3395585 0.8266928
vn -0.6209362 -0.2265935 -0.7503957
vn -0.8351198 0.4193793 -0.3559438
vn -0.3019813 -0.804608 0.5112858
vn 0.423843 -0.3534897 -0.8339078
vn 0.8099173 -0.4976319 -0.3104779
vn -0.7678649 -0.5901814 -0.2491373
vn 0 0.1372785 0.9905325

usemtl ProBuilderDefault
f 3/3/1 2/2/1 1/1/1
f 4/6/2 3/5/2 1/4/2
f 5/7/3 4/6/3 1/4/3
f 8/9/4 7/8/4 6/1/4
f 2/10/5 9/5/5 1/1/5
f 10/12/6 3/3/6 4/11/6
f 11/13/7 2/2/7 3/3/7
f 12/4/8 9/5/8 2/10/8
f 13/14/9 5/8/9 9/9/9
f 14/16/10 4/15/10 5/8/10
f 11/13/11 10/12/11 15/17/11
f 18/4/12 17/10/12 16/17/12
f 13/18/13 12/4/13 15/17/13
f 20/16/14 19/14/14 16/6/14
f 10/5/15 14/10/15 15/4/15
f 3/3/16 10/12/16 11/13/16
f 2/2/17 11/13/17 12/4/17
f 9/9/18 12/4/18 13/14/18
f 5/8/19 13/14/19 14/16/19
f 22/1/20 20/10/20 21/5/20
f 7/22/21 5/20/21 1/19/21
f 1/19/21 6/21/21 7/22/21
f 8/26/22 9/24/22 5/23/22
f 5/23/22 7/25/22 8/26/22
f 6/30/23 1/28/23 9/27/23
f 9/27/23 8/29/23 6/30/23
f 20/34/24 14/32/24 10/31/24
f 10/31/24 21/33/24 20/34/24
f 22/38/25 4/36/25 14/35/25
f 14/35/25 20/37/25 22/38/25
f 21/42/26 10/40/26 4/39/26
f 4/39/26 22/41/26 21/42/26
f 19/46/27 13/44/27 15/43/27
f 15/43/27 16/45/27 19/46/27
f 20/50/28 14/48/28 13/47/28
f 13/47/28 19/49/28 20/50/28
f 16/54/29 15/52/29 14/51/29
f 14/51/29 20/53/29 16/54/29
f 17/58/30 11/56/30 15/55/30
f 15/55/30 16/57/30 17/58/30
f 18/61/31 12/4/31 11/59/31
f 11/59/31 17/60/31 18/61/31
f 16/63/32 15/17/32 12/4/32
f 12/4/32 18/62/32 16/63/32

