# ProBuilder 4.1.0
# https://unity3d.com/unity/features/worldbuilding/probuilder
# 6/09/2019 12:00:08 PM

mtllib ./StackBox1.mtl
o StackBox1

g StackBox1
v 39.7478 -0.1057453 37.64454
v 38.06763 -0.1057453 37.64454
v 39.7478 1.370728 37.64454
v 38.06763 1.370728 37.64454
v 36.37363 -0.1178808 36.12991
v 36.37363 -0.1178808 34.52933
v 36.37363 1.382864 36.12991
v 36.37363 1.382864 34.52933
v 37.95361 -0.2059412 33.12793
v 39.86181 -0.2059412 33.12793
v 37.95361 1.470924 33.12793
v 39.86181 1.470924 33.12793
v 41.27811 0.004990339 34.66037
v 41.27811 0.004990339 35.99886
v 41.27811 1.259993 34.66037
v 41.27811 1.259993 35.99886
v 39.81945 2.79922 36.18412
v 37.99598 2.79922 36.18412
v 39.81945 2.79922 34.47512
v 37.99598 2.79922 34.47512
v 39.90094 -1.444139 34.39874
v 37.91449 -1.444139 34.39874
v 39.90094 -1.444139 36.26049
v 37.91449 -1.444139 36.26049
v 41.09542 2.554983 37.38
v 36.72 2.554983 37.38
v 40.43736 2.354132 36.76324
v 37.37807 2.354132 36.76324
v 41.09542 2.554983 33.27924
v 40.43736 2.354132 33.89599
v 36.72 2.554983 33.27924
v 37.37807 2.354132 33.89599
v 36.72 -1.29 33.27924
v 41.09542 -1.29 33.27924
v 37.31755 -0.7648962 33.54451
v 40.49788 -0.7648962 33.54451
v 37.31755 2.02988 33.54451
v 40.49788 2.02988 33.54451
v 41.09542 -1.29 37.38
v 40.90345 -0.6748028 33.93536
v 40.90345 -0.6748028 36.72388
v 40.90345 1.939786 33.93536
v 40.90345 1.939786 36.72388
v 36.72 -1.29 37.38
v 40.65788 -0.9055018 37.14606
v 37.15754 -0.9055018 37.14606
v 40.65788 2.170485 37.14606
v 37.15754 2.170485 37.14606
v 37.01638 -0.6748028 36.72388
v 37.01638 -0.6748028 33.93536
v 37.01638 1.939786 36.72388
v 37.01638 1.939786 33.93536
v 40.48286 -1.074011 33.85334
v 37.33256 -1.074011 33.85334
v 40.48286 -1.074011 36.80589
v 37.33256 -1.074011 36.80589
v 39.7478 -0.1057453 37.14611
v 38.06763 -0.1057453 37.14611
v 39.7478 1.370728 37.14611
v 38.06763 1.370728 37.14611
v 39.81945 2.354191 36.18412
v 37.99598 2.354191 36.18412
v 39.81945 2.354191 34.47512
v 37.99598 2.354191 34.47512
v 40.90349 0.004990339 34.66037
v 40.90349 0.004990339 35.99886
v 40.90349 1.259993 34.66037
v 40.90349 1.259993 35.99886
v 37.95361 -0.2059412 33.54445
v 39.86181 -0.2059412 33.54445
v 37.95361 1.470924 33.54445
v 39.86181 1.470924 33.54445
v 37.01632 -0.1178808 36.12991
v 37.01632 -0.1178808 34.52933
v 37.01632 1.382864 36.12991
v 37.01632 1.382864 34.52933
v 39.90094 -1.074074 34.39874
v 37.91449 -1.074074 34.39874
v 39.90094 -1.074074 36.26049
v 37.91449 -1.074074 36.26049

vt 2.027794 1.184255
vt 0.3476295 1.184255
vt 2.027794 2.660728
vt 0.3476295 2.660728
vt -1.250095 1.172119
vt -2.850674 1.172119
vt -1.250095 2.672864
vt -2.850674 2.672864
vt -0.2336121 1.084059
vt -2.141811 1.084059
vt -0.2336121 2.760924
vt -2.141811 2.760924
vt 2.719631 1.29499
vt 1.381138 1.29499
vt 2.719631 2.549993
vt 1.381138 2.549993
vt -2.099445 -1.195885
vt -0.2759819 -1.195885
vt -2.099445 -2.904881
vt -0.2759819 -2.904881
vt 2.180935 -2.981258
vt 0.1944885 -2.981258
vt 2.180935 -1.119507
vt 0.1944885 -1.119507
vt -3.375423 1.190605
vt 1 1.190605
vt -2.717361 0.5419683
vt 0.3419342 0.5419683
vt -4.350832 -4.100765
vt -4.350832 0
vt -3.662802 -3.484009
vt -3.662802 -0.6167564
vt 2.078872 0
vt 2.078872 -4.100765
vt 1.390837 -0.6167564
vt 1.390837 -3.484009
vt 1 -5.089818
vt -3.375423 -5.089818
vt 0.3419342 -4.441181
vt -2.717361 -4.441181
vt 1 -1.849103
vt -3.375423 -1.849103
vt 0.4024544 -1.260795
vt -2.777878 -1.260795
vt 2.577898 3.844983
vt 2.577898 0
vt 1.924115 3.31988
vt 1.924115 0.5251038
vt -4.748989 0
vt -4.748989 3.844983
vt -4.095205 0.5251038
vt -4.095205 3.31988
vt -3.375423 5.281004
vt 1 5.281004
vt -2.777878 4.692697
vt 0.4024544 4.692697
vt 4.100765 -1.005513
vt 0 -1.005513
vt 3.444645 -0.361057
vt 0.6561241 -0.361057
vt 4.883644 3.844983
vt 4.883644 0
vt 4.200014 3.229786
vt 4.200014 0.6151972
vt -0.9478891 0
vt -0.9478891 3.844983
vt -0.2642558 0.6151972
vt -0.2642558 3.229786
vt 0 4.675932
vt 4.100765 4.675932
vt 0.6561241 4.031476
vt 3.444645 4.031476
vt 3.375423 0
vt -1 0
vt 2.937881 0.4500742
vt -0.562458 0.4500742
vt 2.976662 3.844983
vt 2.976662 0
vt 2.480506 3.460485
vt 2.480506 0.3844981
vt -0.8818634 0
vt -0.8818634 3.844983
vt -0.3857072 0.3844981
vt -0.3857072 3.460485
vt -1 3.284767
vt 3.375423 3.284767
vt -0.562458 2.834693
vt 2.937881 2.834693
vt 0 -0.4340168
vt -4.100765 -0.4340168
vt -0.6561241 0.2488492
vt -3.444645 0.2488492
vt 0.4116573 3.844983
vt 0.4116573 0
vt -0.3082991 3.229786
vt -0.3082991 0.6151972
vt -4.148842 0
vt -4.148842 3.844983
vt -3.428889 0.6151972
vt -3.428889 3.229786
vt -4.100765 3.89798
vt 0 3.89798
vt -3.444645 3.215115
vt -0.6561241 3.215115
vt 3.375423 -3.83813
vt -1 -3.83813
vt 2.762863 -3.224736
vt -0.3874397 -3.224736
vt 3.183333 0
vt 3.183333 -4.100765
vt 2.533809 -0.5741081
vt 2.533809 -3.526657
vt -0.9430913 -4.100765
vt -0.9430913 0
vt -0.2935675 -3.526657
vt -0.2935675 -0.5741081
vt -0.3874397 -0.6133932
vt 2.762863 -0.6133932
vt 2.937881 0.3844847
vt -0.562458 0.3844847
vt 2.937893 3.460485
vt -0.5624698 3.460485
vt 2.027794 -0.2338943
vt 0.3476295 -0.2338943
vt 2.027794 0.264534
vt 0.3476295 0.264534
vt 0.2338943 2.660728
vt 0.2338943 1.184255
vt -0.264534 2.660728
vt -0.264534 1.184255
vt -0.2338943 1.184255
vt -0.2338943 2.660728
vt 0.264534 1.184255
vt 0.264534 2.660728
vt -0.3476295 -0.2338943
vt -2.027794 -0.2338943
vt -0.3476295 0.264534
vt -2.027794 0.264534
vt -2.717361 -0.6171315
vt 0.3419342 -0.6171315
vt -2.099445 -1.19626
vt -0.2759819 -1.19626
vt -2.71701 -3.484009
vt -2.71701 -0.6167564
vt 0.3415827 -0.6167564
vt 0.3415827 -3.484009
vt -0.2763334 -1.195885
vt -0.2763334 -2.904881
vt 0.3419342 -3.483634
vt -2.717361 -3.483634
vt 2.099445 3.644191
vt 0.2759819 3.644191
vt 2.099445 4.08922
vt 0.2759819 4.08922
vt 2.904881 3.644191
vt 1.195885 3.644191
vt 2.904881 4.08922
vt 1.195885 4.08922
vt -1.195885 3.644191
vt -2.904881 3.644191
vt -1.195885 4.08922
vt -2.904881 4.08922
vt -0.2759819 3.644191
vt -2.099445 3.644191
vt -0.2759819 4.08922
vt -2.099445 4.08922
vt 3.444645 0.6154116
vt 0.6561241 0.6154116
vt 2.719631 1.295205
vt 1.381138 1.295205
vt 3.444444 3.229786
vt 3.444444 0.6151972
vt 2.71943 2.549993
vt 2.71943 1.29499
vt 0.6563251 3.229786
vt 3.444645 3.229572
vt 3.183491 -2.719631
vt 3.183491 -1.381138
vt 3.558113 -2.719631
vt 3.558113 -1.381138
vt -3.183491 2.549993
vt -3.183491 1.29499
vt -3.558113 2.549993
vt -3.558113 1.29499
vt 3.183491 1.29499
vt 3.183491 2.549993
vt 3.558113 1.29499
vt 3.558113 2.549993
vt -3.183491 -1.381138
vt -3.183491 -2.719631
vt -3.558113 -1.381138
vt -3.558113 -2.719631
vt 0.4024544 0.5255226
vt -2.777878 0.5255226
vt 0.4020863 3.31988
vt 0.4020863 0.5251038
vt -2.77751 0.5251038
vt -2.77751 3.31988
vt -2.141443 1.084059
vt -2.141443 2.760924
vt -2.777878 3.319461
vt 0.4024544 3.319461
vt 0.2336121 -3.835548
vt 2.141811 -3.835548
vt 0.2336121 -4.252071
vt 2.141811 -4.252071
vt -3.835548 2.760924
vt -3.835548 1.084059
vt -4.252071 2.760924
vt -4.252071 1.084059
vt 3.835548 1.084059
vt 3.835548 2.760924
vt 4.252071 1.084059
vt 4.252071 2.760924
vt -2.141811 -3.835548
vt -0.2336121 -3.835548
vt -2.141811 -4.252071
vt -0.2336121 -4.252071
vt -0.6561241 0.6152695
vt -3.444645 0.6152695
vt -0.6561919 3.229786
vt -3.444577 3.229786
vt -0.7036819 -1.250095
vt -0.7036819 -2.850674
vt -1.346375 -1.250095
vt -1.346375 -2.850674
vt -0.7036819 2.672864
vt -0.7036819 1.172119
vt -1.346375 2.672864
vt -1.346375 1.172119
vt 0.7036819 1.172119
vt 0.7036819 2.672864
vt 1.346375 1.172119
vt 1.346375 2.672864
vt 0.7036819 -2.850674
vt 0.7036819 -1.250095
vt 1.346375 -2.850674
vt 1.346375 -1.250095
vt 2.762863 -3.526682
vt -0.3874397 -3.526682
vt 2.762887 -0.5741081
vt -0.3874631 -0.5741081
vt 0.1944885 -1.119482
vt 2.180935 -1.119482
vt -2.180935 0.2159256
vt -0.1944885 0.2159256
vt -2.180935 -0.154139
vt -0.1944885 -0.154139
vt 1.119507 0.2159256
vt 2.981258 0.2159256
vt 1.119507 -0.154139
vt 2.981258 -0.154139
vt -2.981258 0.2159256
vt -1.119507 0.2159256
vt -2.981258 -0.154139
vt -1.119507 -0.154139
vt 0.1944885 0.2159256
vt 2.180935 0.2159256
vt 0.1944885 -0.154139
vt 2.180935 -0.154139

vn 0 0 1
vn -1 0 0
vn 0 0 -1
vn 1 0 0
vn 0 1 0
vn 0 -1 0
vn 0 0.9508501 -0.3096516
vn -0.291922 0.9564422 0
vn 0.2919205 0.9564426 0
vn 0 0.9508501 0.3096516
vn 0 0.4509166 -0.8925661
vn 0.4057578 0 -0.9139806
vn -0.4057578 0 -0.9139806
vn 0 -0.4509168 -0.892566
vn 0.9545995 0.2978924 0
vn 0.9597598 0 0.2808223
vn 0.9597602 0 -0.2808208
vn 0.9545995 -0.2978924 0
vn 0 0.5197813 0.8542994
vn -0.471505 0 0.8818634
vn 0.471505 0 0.8818634
vn 0 -0.5197813 0.8542994
vn -0.9009048 0.4340168 0
vn -0.9113387 0 -0.4116573
vn -0.9113378 0 0.4116593
vn -0.9009048 -0.4340168 0
vn 0 -0.9359545 0.352121
vn -0.3325339 -0.9430913 0
vn 0.3325339 -0.9430913 0
vn 0 -0.9359545 -0.352121

usemtl ProBuilderDefault
f 3/3/1 4/4/1 2/2/1 1/1/1
f 7/7/2 8/8/2 6/6/2 5/5/2
f 11/11/3 12/12/3 10/10/3 9/9/3
f 15/15/4 16/16/4 14/14/4 13/13/4
f 19/19/5 20/20/5 18/18/5 17/17/5
f 23/23/6 24/24/6 22/22/6 21/21/6
f 27/27/7 28/28/7 26/26/7 25/25/7
f 30/31/8 27/32/8 25/30/8 29/29/8
f 28/35/9 32/36/9 31/34/9 26/33/9
f 32/39/10 30/40/10 29/38/10 31/37/10
f 35/43/11 36/44/11 34/42/11 33/41/11
f 37/47/12 35/48/12 33/46/12 31/45/12
f 36/51/13 38/52/13 29/50/13 34/49/13
f 38/55/14 37/56/14 31/54/14 29/53/14
f 40/59/15 41/60/15 39/58/15 34/57/15
f 42/63/16 40/64/16 34/62/16 29/61/16
f 41/67/17 43/68/17 25/66/17 39/65/17
f 43/71/18 42/72/18 29/70/18 25/69/18
f 45/75/19 46/76/19 44/74/19 39/73/19
f 47/79/20 45/80/20 39/78/20 25/77/20
f 46/83/21 48/84/21 26/82/21 44/81/21
f 48/87/22 47/88/22 25/86/22 26/85/22
f 49/91/23 50/92/23 33/90/23 44/89/23
f 51/95/24 49/96/24 44/94/24 26/93/24
f 50/99/25 52/100/25 31/98/25 33/97/25
f 52/103/26 51/104/26 26/102/26 31/101/26
f 53/107/27 54/108/27 33/106/27 34/105/27
f 55/111/28 53/112/28 34/110/28 39/109/28
f 54/115/29 56/116/29 44/114/29 33/113/29
f 56/117/30 55/118/30 39/73/30 44/74/30
f 57/1/1 58/2/1 46/120/1 45/119/1
f 59/3/1 57/1/1 45/119/1 47/121/1
f 58/2/1 60/4/1 48/122/1 46/120/1
f 60/4/1 59/3/1 47/121/1 48/122/1
f 1/125/6 2/126/6 58/124/6 57/123/6
f 3/129/4 1/130/4 57/128/4 59/127/4
f 2/133/2 4/134/2 60/132/2 58/131/2
f 4/137/5 3/138/5 59/136/5 60/135/5
f 61/141/5 62/142/5 28/140/5 27/139/5
f 63/19/5 61/17/5 27/144/5 30/143/5
f 62/147/5 64/148/5 32/146/5 28/145/5
f 64/20/5 63/19/5 30/150/5 32/149/5
f 17/153/1 18/154/1 62/152/1 61/151/1
f 19/157/4 17/158/4 61/156/4 63/155/4
f 18/161/2 20/162/2 64/160/2 62/159/2
f 20/165/3 19/166/3 63/164/3 64/163/3
f 65/169/4 66/170/4 41/168/4 40/167/4
f 67/173/4 65/174/4 40/172/4 42/171/4
f 66/14/4 68/16/4 43/175/4 41/168/4
f 68/16/4 67/15/4 42/176/4 43/175/4
f 13/179/6 14/180/6 66/178/6 65/177/6
f 15/183/3 13/184/3 65/182/3 67/181/3
f 14/187/1 16/188/1 68/186/1 66/185/1
f 16/191/5 15/192/5 67/190/5 68/189/5
f 69/9/3 70/10/3 36/194/3 35/193/3
f 71/11/3 69/9/3 35/196/3 37/195/3
f 70/199/3 72/200/3 38/198/3 36/197/3
f 72/12/3 71/11/3 37/202/3 38/201/3
f 9/205/6 10/206/6 70/204/6 69/203/6
f 11/209/2 9/210/2 69/208/2 71/207/2
f 10/213/4 12/214/4 72/212/4 70/211/4
f 12/217/5 11/218/5 71/216/5 72/215/5
f 73/5/2 74/6/2 50/220/2 49/219/2
f 75/7/2 73/5/2 49/219/2 51/221/2
f 74/6/2 76/8/2 52/222/2 50/220/2
f 76/8/2 75/7/2 51/221/2 52/222/2
f 5/225/6 6/226/6 74/224/6 73/223/6
f 7/229/1 5/230/1 73/228/1 75/227/1
f 6/233/3 8/234/3 76/232/3 74/231/3
f 8/237/5 7/238/5 75/236/5 76/235/5
f 77/21/6 78/22/6 54/240/6 53/239/6
f 79/23/6 77/21/6 53/239/6 55/241/6
f 78/22/6 80/24/6 56/242/6 54/240/6
f 80/243/6 79/244/6 55/241/6 56/242/6
f 21/247/3 22/248/3 78/246/3 77/245/3
f 23/251/4 21/252/4 77/250/4 79/249/4
f 22/255/2 24/256/2 80/254/2 78/253/2
f 24/259/1 23/260/1 79/258/1 80/257/1

