# ProBuilder 4.1.0
# https://unity3d.com/unity/features/worldbuilding/probuilder
# 9/09/2019 9:31:44 PM

mtllib ./Trash19.mtl
o Trash19

g Trash19
v 35.17672 67.70918 -37.80414
v 33.93975 67.70918 -37.80414
v 35.17672 68.5599 -37.80414
v 33.93975 68.5599 -37.80414
v 34.36862 66.67033 -40.69636
v 35.02734 67.41016 -42.1582
v 34.36862 70.60844 -40.69636
v 35.02734 68.41016 -42.1582
v 36.02734 67.41016 -42.1582
v 36.02734 68.41016 -42.1582
v 36.02734 66.67033 -40.69636
v 36.02734 70.60844 -40.69636
v 35.3876 67.56414 -38.62569
v 33.72887 67.56414 -38.62569
v 35.3876 69.71462 -38.62569
v 33.21461 67.72561 -40.1415
v 33.21461 69.55315 -40.1415
v 32.91773 68.1404 -39.18057
v 32.91773 69.13837 -39.18057
v 33.72887 69.71462 -38.62569

vt -0.8506241 0.2990189
vt -2.087593 0.2990189
vt -0.8506241 1.149742
vt -2.087593 1.149742
vt 1.102523 -0.73983
vt -0.5008835 0
vt 1.102523 3.19828
vt -0.5008835 1
vt 1 0
vt 0 0
vt 1 1
vt 0 1
vt -0.4618454 -0.73983
vt -0.4618454 3.19828
vt 0 2.918924
vt 1.658726 2.918924
vt 0 0.2789561
vt 1 0.2789561
vt 0 -0.892242
vt -1 -0.892242
vt 0 0.7461537
vt -1.658726 0.7461537
vt 0 0.1308267
vt -1.658726 0.1308267
vt -0.6397476 2.386172
vt -2.298473 2.386172
vt -0.441265 3.19828
vt -0.441265 -0.73983
vt -2.608511 2.304466
vt -2.608511 0.1539841
vt 1.801684 0.3154526
vt 1.801684 2.142998
vt 2.807432 0.7302399
vt 2.807432 1.72821
vt 1.658726 -0.8434799
vt 0 -0.8434799
vt 2.298473 1.411865
vt 0.6397476 1.411865
vt -0.6397476 2.520722
vt -2.298473 2.520722
vt -0.8506241 3.354974
vt -2.087593 3.354974
vt -2.612052 2.304466
vt -2.612052 0.1539841
vt -3.460233 1.149742
vt -3.460233 0.2990189
vt 1.881533 0.1539841
vt 1.881533 2.304466
vt 2.729715 0.2990189
vt 2.729715 1.149742
vt -2.298473 0.4095793
vt -0.6397476 0.4095793
vt -2.087593 -1.007576
vt -0.8506241 -1.007576
vt 1.695036 -0.73983
vt 1.695036 3.19828
vt 2.9755 0.3154526
vt 2.9755 2.142998
vt -1.866786 2.329574
vt -0.8036207 0.240187
vt -2.858971 1.769673
vt -2.365592 0.8000579
vt -0.7667906 -0.01241848
vt 0.296375 2.076969
vt 0.7951807 0.547452
vt 1.28856 1.517067
vt -0.467177 2.304466
vt -0.467177 0.1539841
vt -1.449954 1.72821
vt -1.449954 0.7302399

vn 0 0 1
vn -0.9117124 0 -0.410829
vn 0 0 -1
vn 1 0 0
vn 0 0.5537362 -0.8326922
vn 0 -0.892242 -0.4515576
vn 0 -0.9181171 0.3963092
vn 0.9554389 0 0.2951892
vn -0.9554386 0 -0.2951899
vn 0 0.9181171 0.3963092
vn 0 -0.9847721 0.17385
vn 0.9686006 0 0.2486221
vn -0.9685995 0 0.2486263
vn 0 0.5797166 0.8148182
vn -0.4333237 0 -0.9012384
vn -0.6330565 -0.7624987 0.1335489
vn -0.6330578 0.7624977 0.133548
vn -0.5646105 0 0.8253576

usemtl ProBuilderDefault
f 3/3/1 4/4/1 2/2/1 1/1/1
f 7/7/2 8/8/2 6/6/2 5/5/2
f 8/11/3 10/12/3 9/10/3 6/9/3
f 10/11/4 12/14/4 11/13/4 9/9/4
f 10/17/5 8/18/5 7/16/5 12/15/5
f 11/21/6 5/22/6 6/20/6 9/19/6
f 13/25/7 14/26/7 5/24/7 11/23/7
f 15/29/8 13/30/8 11/28/8 12/27/8
f 18/33/9 19/34/9 17/32/9 16/31/9
f 20/37/10 15/38/10 12/36/10 7/35/10
f 1/41/11 2/42/11 14/40/11 13/39/11
f 3/45/12 1/46/12 13/44/12 15/43/12
f 2/49/13 4/50/13 20/48/13 14/47/13
f 4/53/14 3/54/14 15/52/14 20/51/14
f 16/57/15 17/58/15 7/56/15 5/55/15
f 18/61/16 16/62/16 5/60/16 14/59/16
f 17/65/17 19/66/17 20/64/17 7/63/17
f 19/69/18 18/70/18 14/68/18 20/67/18

