# ProBuilder 4.1.0
# https://unity3d.com/unity/features/worldbuilding/probuilder
# 9/09/2019 9:27:27 PM

mtllib ./Trash14.mtl
o Trash14

g Trash14
v 25.71 68.06 -51.81836
v 24.71 68.06 -51.81836
v 26.1724 72.93146 -50.08147
v 22.19843 70.87663 -50.08147
v 24.71 68.06 -52.81836
v 22.19843 70.87663 -54.55525
v 25.71 68.06 -52.81836
v 26.1724 72.93146 -54.55525

vt 0 0
vt -1 0
vt 0.4623985 5.171839
vt -3.51157 3.236358
vt 0 0.6655316
vt -1 0.6655316
vt 1.736893 4.439312
vt -2.736893 4.439312
vt 1 0.5248817
vt 0 0.5248817
vt 3.51157 3.833995
vt -0.4623985 5.583011
vt 1 0
vt 2.736893 4.893356
vt -1.736893 4.893356
vt -2.648219 1.736893
vt 1.825564 1.736893
vt -2.648219 -2.736893
vt 1.825564 -2.736893
vt 0 -1
vt -1 -1

vn 0 -0.3358366 0.9419203
vn 0.09855753 -0.3585256 0.9225742
vn 0.1971151 -0.3812145 0.9032282
vn -0.7463697 -0.6655316 0
vn 0 -0.5248817 -0.8511752
vn 0.0893071 -0.435158 -0.8862318
vn 0.1786142 -0.3454344 -0.9212883
vn 0.9955253 -0.09449517 0
vn -0.4593037 0.8882793 0
vn 0 -1 0

usemtl ProBuilderDefault
f 3/3/2 4/4/3 2/2/2 1/1/1
f 4/7/4 6/8/4 5/6/4 2/5/4
f 6/11/6 8/12/7 7/10/6 5/9/5
f 8/14/8 3/15/8 1/1/8 7/13/8
f 8/18/9 6/19/9 4/17/9 3/16/9
f 1/1/10 2/2/10 5/21/10 7/20/10

