# ProBuilder 4.1.0
# https://unity3d.com/unity/features/worldbuilding/probuilder
# 9/09/2019 9:27:06 PM

mtllib ./Trash12.mtl
o Trash12

g Trash12
v 42.64225 65.73042 -49.2786
v 41.64225 65.73042 -49.2786
v 44.04462 70.09361 -49.2786
v 41.93501 70.09361 -49.2786
v 40.37752 67.12981 -51.12
v 40.37752 67.12981 -52.12
v 40.6291 68.69427 -51.12
v 41.56728 68.69427 -52.12
v 41.64225 65.73042 -52.70783
v 42.64225 65.73042 -52.70783
v 41.93501 70.09361 -52.70783
v 44.04462 70.09361 -52.70783
v 42.18484 71.61276 -51.12
v 41.93177 70.95808 -51.12
v 42.18484 71.61276 -52.12
v 41.93177 70.95808 -52.12

vt 0 0
vt -1 0
vt 1.402363 4.36319
vt -0.7072487 4.36319
vt 0 1.022061
vt -1 1.022061
vt 0 2.606629
vt -1 2.755586
vt 1 0
vt 0.7072487 4.36319
vt -1.402363 4.36319
vt 1.587833 0
vt -1.841396 0
vt 1.587833 4.583017
vt -1.841396 4.583017
vt 0 5.321737
vt 0 4.619845
vt -1 5.321737
vt -1 4.619845
vt 0 -1.587833
vt -1 -1.587833
vt 0 1.841396
vt -1 1.841396
vt -1.402363 -1.356264
vt 0.7072487 -1.356264
vt 0.4574089 -3.743433
vt 0.7104874 -3.326806
vt 1.674167 -1.587833
vt 1.674167 1.841396
vt 4.075539 -1
vt 4.075539 0
vt 1.841396 4.365808
vt -1.587833 4.365808
vt 0 5.230294
vt -1 5.230294
vt 0.7072487 2.715219
vt -1.402363 2.715219
vt 0.7104874 3.760625
vt 0.4574089 4.301999
vt 1.841396 0.6705111
vt -1.587833 0.6705111
vt 0 2.556738
vt -1 2.556738
vt 1.149274 4.266645
vt 0.9883209 -0.1033916
vt -1.106821 2.865119
vt -1.245142 1.291343
vt 0.2872626 -0.04938883
vt 0.01858169 4.31535
vt 1.681435 1.350499
vt 0.5894998 2.926995
vt -1.587833 4.040158
vt 1.841396 4.040158
vt -1 2.593317
vt 0 2.354871

vn 0 0 1
vn -0.9873151 0.1587732 0
vn -0.8125427 0.3218947 -0.2991689
vn -0.6377704 0.4850163 -0.5983379
vn 0 0 -1
vn 0.9520344 -0.3059912 0
vn -0.9327337 0.3605661 0
vn 0 -1 0
vn 0 0.7713721 0.6363843
vn -0.4597008 0.5633922 0.4024283
vn -0.9194015 0.3554123 0.1684722
vn 0.6326205 0.774462 0
vn -0.999993 -0.003746366 0
vn 0 0.562302 -0.826932
vn -0.1163158 0.3261151 -0.8976652
vn -0.2326317 0.08992823 -0.9683984
vn -0.7418995 -0.6705111 0
vn -0.8339903 0.05595717 0.5489344
vn -0.8027055 0.09000584 0.5865251
vn -0.7714208 0.1240545 0.6241158
vn -0.3969513 0.02663372 -0.9174532
vn -0.4880204 0.233512 -0.1156844
vn -0.5790896 0.4403903 0.6860843
vn -0.9671622 0.25416 0
vn -0.6785095 0.5496427 -0.1828762
vn -0.3898568 0.8451254 -0.3657525

usemtl ProBuilderDefault
f 3/3/1 4/4/1 2/2/1 1/1/1
f 7/7/3 8/8/4 6/6/3 5/5/2
f 11/10/5 12/11/5 10/1/5 9/9/5
f 12/14/6 3/15/6 1/13/6 10/12/6
f 15/18/7 16/19/7 14/17/7 13/16/7
f 1/22/8 2/23/8 9/21/8 10/20/8
f 13/26/10 14/27/11 4/25/10 3/24/9
f 15/30/12 13/31/12 3/29/12 12/28/12
f 14/34/13 16/35/13 11/33/13 4/32/13
f 16/38/15 15/39/16 12/37/15 11/36/14
f 5/42/17 6/43/17 9/41/17 2/40/17
f 7/46/19 5/47/20 2/45/19 4/44/18
f 6/50/22 8/51/23 11/49/22 9/48/21
f 8/54/25 7/55/26 4/53/25 11/52/24

