# ProBuilder 4.1.0
# https://unity3d.com/unity/features/worldbuilding/probuilder
# 6/09/2019 10:43:00 AM

mtllib ./Trash2.mtl
o Trash2

g Trash2
v 4.22 0.82 1.66
v 1.402995 0.82 1.66
v 4.22 1.920363 1.66
v 1.967934 2.188124 1.66
v 1.967934 0.82 -0.3993584
v 1.967934 2.726948 0.4392657
v 4.22 0.82 -0.5038723
v 4.22 2.726948 -0.3993584

vt 0 0
vt -2.817005 0
vt 0 1.100363
vt -2.252066 1.368124
vt 0.7452496 -1.005055
vt -1.390193 -1.005055
vt 0.5957927 0.4675563
vt -0.581448 0.8486697
vt 2.154176 -0.8693773
vt -0.100313 -0.8693773
vt 2.193053 1.213465
vt -0.09546796 0.9185221
vt 2.163872 0
vt 2.059358 1.906949
vt 0.1299135 -0.3960686
vt 2.397841 -0.3960686
vt 0.2251423 -2.605699
vt 2.461457 -1.727729
vt 0 -2.163872
vt -2.252066 -2.059358

vn 0 0 1
vn -0.8959455 0.3699628 -0.2457829
vn -0.9479728 0.1849814 -0.1228914
vn -1 0 0
vn -0.04244322 0.4022016 -0.9145668
vn -0.1954769 0.2267477 -0.9252336
vn -0.3485105 0.05129377 -0.9359003
vn 1 0 0
vn 0.1100349 0.9254737 0.3624787
vn 0.1293663 0.9150738 0.380898
vn 0.1486977 0.9046738 0.3993172
vn 0 -1 0

usemtl ProBuilderDefault
f 3/3/1 4/4/1 2/2/1 1/1/1
f 4/7/3 6/8/4 5/6/3 2/5/2
f 6/11/6 8/12/7 7/10/6 5/9/5
f 8/14/8 3/3/8 1/1/8 7/13/8
f 8/17/10 6/18/11 4/16/10 3/15/9
f 1/1/12 2/2/12 5/20/12 7/19/12

