# ProBuilder 4.1.0
# https://unity3d.com/unity/features/worldbuilding/probuilder
# 6/09/2019 10:42:47 AM

mtllib ./Trash1.mtl
o Trash1

g Trash1
v 4.72 -0.18 -2.457797
v 2.587842 -0.18 -2.457797
v 4.72 1.98625 -2.457797
v 2.587842 1.98625 -2.457797
v 2.587842 -0.18 -4.695637
v 2.587842 1.98625 -4.695637
v 4.72 -0.18 -4.695637
v 4.72 1.98625 -4.695637
v 4.267423 3.056238 -2.800547
v 3.04042 3.056238 -2.800547
v 4.267423 3.056238 -4.334285
v 3.04042 3.056238 -4.334285
v 3.948894 2.394177 -3.198704
v 3.358948 2.394177 -3.198704
v 3.948894 2.394177 -3.936128
v 3.358948 2.394177 -3.936128

vt 0 0
vt -2.132157 0
vt 0 2.16625
vt -2.132157 2.16625
vt 1.442204 0
vt -0.7956371 0
vt 1.442204 2.16625
vt -0.7956371 2.16625
vt 2.132157 0
vt 2.132157 2.16625
vt 0.7956371 0
vt -1.442204 0
vt 0.7956371 2.16625
vt -1.442204 2.16625
vt 0.4525771 1.099453
vt 1.67958 1.099453
vt 0.4525771 -0.4342847
vt 1.67958 -0.4342847
vt 0 -0.7956371
vt -2.132157 -0.7956371
vt 0 1.442204
vt -2.132157 1.442204
vt 0 0.2185766
vt 2.132157 0.2185766
vt 0.771106 -0.6272058
vt 1.361051 -0.6272058
vt 1.012968 -0.7956371
vt 1.012968 1.442204
vt 1.885326 -0.03612781
vt 1.885326 0.7012961
vt 0.8717157 1.442204
vt 0.8717157 -0.7956371
vt -0.0006423296 0.7012961
vt -0.0006423296 -0.03612781
vt 2.132157 0.3240568
vt 0 0.3240568
vt 1.361051 1.186181
vt 0.771106 1.186181
vt -0.771106 2.567412
vt -1.361051 2.567412
vt -0.4525771 3.339976
vt -1.67958 3.339976
vt 0.03612781 1.985356
vt -0.7012961 1.985356
vt 0.4342847 2.720057
vt -1.099453 2.720057
vt 0.7012961 2.909751
vt -0.03612781 2.909751
vt 1.099453 3.644452
vt -0.4342847 3.644452
vt 1.361051 2.224604
vt 0.771106 2.224604
vt 1.67958 2.997167
vt 0.4525771 2.997167

vn 0 0 1
vn -1 0 0
vn 0 0 -1
vn 1 0 0
vn 0 1 0
vn 0 -1 0
vn 0 0.8760024 0.4823067
vn 0.4676137 0.8839329 0
vn -0.4676137 0.8839329 0
vn 0 0.8809742 -0.4731644
vn 0 -0.5153716 0.8569668
vn 0.90113 -0.4335491 0
vn -0.90113 -0.4335491 0
vn 0 -0.5153714 -0.8569669

usemtl ProBuilderDefault
f 3/3/1 4/4/1 2/2/1 1/1/1
f 4/7/2 6/8/2 5/6/2 2/5/2
f 6/10/3 8/3/3 7/1/3 5/9/3
f 8/13/4 3/14/4 1/12/4 7/11/4
f 11/17/5 12/18/5 10/16/5 9/15/5
f 1/21/6 2/22/6 5/20/6 7/19/6
f 13/25/7 14/26/7 4/24/7 3/23/7
f 15/29/8 13/30/8 3/28/8 8/27/8
f 14/33/9 16/34/9 6/32/9 4/31/9
f 16/37/10 15/38/10 8/36/10 6/35/10
f 9/41/11 10/42/11 14/40/11 13/39/11
f 11/45/12 9/46/12 13/44/12 15/43/12
f 10/49/13 12/50/13 16/48/13 14/47/13
f 12/53/14 11/54/14 15/52/14 16/51/14

