# ProBuilder 4.1.0
# https://unity3d.com/unity/features/worldbuilding/probuilder
# 9/09/2019 9:27:13 PM

mtllib ./Trash13.mtl
o Trash13

g Trash13
v 36.98 66.84375 -54.5
v 35.98 66.84375 -54.5
v 39.23555 68.88625 -53.55595
v 35.87482 69.3682 -53.55595
v 35.98 66.84375 -55.5
v 35.87482 69.3682 -57.30914
v 36.98 66.84375 -55.5
v 39.23555 68.88625 -57.30914
v 38.03212 75.45858 -56.23613
v 36.5484 75.45858 -56.23613
v 38.03212 75.45858 -57.71984
v 36.5484 75.45858 -57.71984
v 40.04302 71.69267 -54.90604
v 33.94547 71.69267 -55.53394
v 38.46139 71.69267 -59.28712
v 33.94547 71.69267 -59.28712
v 38.73431 73.98839 -55.53394
v 35.84621 73.98839 -55.53394
v 38.73431 73.98839 -58.42204
v 35.84621 73.98839 -58.42204

vt 0 0
vt -1 0
vt 2.255547 2.250122
vt -1.105175 2.687602
vt 0 0.0416264
vt -1 0.0416264
vt 0.9440498 2.568269
vt -2.809139 2.568269
vt 1 0.582508
vt 0 0.582508
vt 1.105175 3.688284
vt -2.255547 3.296544
vt 0 -1
vt 3.042912 -2.809139
vt 3.042912 0.9440498
vt -1.052124 -1.736126
vt 0.4315948 -1.736126
vt -1.052124 -3.219845
vt 0.4315948 -3.219845
vt -1 -1
vt 2.188201 1.398094
vt -1.165169 1.92879
vt 3.083162 4.488362
vt -2.959534 4.919422
vt 2.809139 1.369165
vt -0.9440498 1.369165
vt 4.787125 4.280396
vt 0.406044 3.859807
vt 0.9440498 2.648351
vt -2.809139 2.648351
vt -1.033936 5.669199
vt -4.787125 5.669199
vt 0.7092848 3.852518
vt -2.619652 3.185506
vt 2.348993 7.069552
vt -2.124211 6.641195
vt 3.005315 4.891835
vt -3.124474 4.891835
vt 1.639178 7.23938
vt -1.23373 7.177563
vt 3.999663 4.799579
vt -0.6581712 4.799579
vt 3.093299 7.095601
vt 0.3768012 7.111423
vt -1.033936 1.799692
vt -4.787125 1.799692
vt -1.033936 4.780155
vt -3.922035 4.780155
vt 3.034527 2.849407
vt -1.481388 2.849407
vt 1.133785 5.302716
vt -1.754314 5.302716
vt 1.754314 6.892643
vt -1.133785 6.892643
vt 1.052124 8.521918
vt -0.4315948 8.521918
vt 3.922035 5.690954
vt 1.033936 5.690954
vt 3.219845 7.320229
vt 1.736126 7.320229
vt -1.033936 5.958392
vt -3.922035 5.958392
vt -1.736126 7.587667
vt -3.219845 7.587667
vt 1.133785 4.756702
vt -1.754314 4.756702
vt 0.4315948 6.385977
vt -1.052124 6.385977

vn 0 -0.4195549 0.90773
vn -0.02521572 -0.3856115 0.9212477
vn -0.05043144 -0.3516681 0.9347653
vn -0.9991333 -0.0416264 0
vn 0 -0.582508 -0.812825
vn -0.04338988 -0.5938199 -0.8021033
vn -0.08677975 -0.6051318 -0.7913816
vn 0.6712333 -0.7412462 0
vn 0 1 0
vn 0 -1 0
vn 0.06003787 0.4186556 0.9061584
vn -0.01072924 0.5122339 0.8487906
vn -0.08149635 0.6058121 0.7914228
vn 0.9639947 0.2659213 0
vn 0.9134136 -0.06609423 -0.1557472
vn 0.8628324 -0.3981098 -0.3114944
vn -0.7694735 -0.6386787 0
vn -0.09913974 -0.6913204 -0.7157147
vn -0.04956987 -0.6337091 -0.7665478
vn 0 -0.5760977 -0.8173808
vn -0.1001716 0.2089564 0.972781
vn -0.05008581 0.1044782 0.9863905
vn 0 0 1
vn 0.9404607 0.01613352 -0.3395193
vn 0.9046074 0.2556886 -0.1697597
vn 0.8687541 0.4952437 0
vn -0.7702571 0.6377335 0
vn 0 0.3526215 -0.935766
vn 0 0.4309835 0.9023598
vn 0.9023598 0.4309835 0
vn -0.9023598 0.4309835 0
vn 0 0.4309835 -0.9023598

usemtl ProBuilderDefault
f 3/3/2 4/4/3 2/2/2 1/1/1
f 4/7/4 6/8/4 5/6/4 2/5/4
f 6/11/6 8/12/7 7/10/6 5/9/5
f 8/14/8 3/15/8 1/1/8 7/13/8
f 11/18/9 12/19/9 10/17/9 9/16/9
f 1/1/10 2/2/10 5/20/10 7/13/10
f 13/23/12 14/24/13 4/22/12 3/21/11
f 15/27/15 13/28/16 3/26/15 8/25/14
f 14/31/17 16/32/17 6/30/17 4/29/17
f 16/35/19 15/36/20 8/34/19 6/33/18
f 17/39/22 18/40/23 14/38/22 13/37/21
f 19/43/25 17/44/26 13/42/25 15/41/24
f 18/47/27 20/48/27 16/46/27 14/45/27
f 20/51/28 19/52/28 15/50/28 16/49/28
f 9/55/29 10/56/29 18/54/29 17/53/29
f 11/59/30 9/60/30 17/58/30 19/57/30
f 10/63/31 12/64/31 20/62/31 18/61/31
f 12/67/32 11/68/32 19/66/32 20/65/32

