# ProBuilder 4.1.0
# https://unity3d.com/unity/features/worldbuilding/probuilder
# 6/09/2019 10:43:07 AM

mtllib ./Trash3.mtl
o Trash3

g Trash3
v 9.328152 3.066282 2.191582
v 7.351967 3.066282 2.191582
v 9.328152 4.819274 2.191582
v 7.351967 4.819274 2.191582
v 5.82905 2.699524 -1.214378
v 5.82905 3.139329 -2.701468
v 5.82905 4.746227 -1.214378
v 5.82905 4.746227 -2.701468
v 7.201198 3.139329 -2.701468
v 7.201198 4.746227 -2.701468
v 9.15 2.049289 -1.588387
v 9.91314 2.547363 0.9942627
v 9.15 5.338192 -1.588387
v 9.755463 6.069296 0.9942627
v 6.76698 5.338192 0.9942627
v 6.76698 5.338192 -1.588387
v 6.76698 2.547363 -1.588387
v 6.76698 2.547363 0.9942627

vt 0.1781526 0.5189185
vt -1.798032 0.5189185
vt 0.1781526 2.271911
vt -1.798032 2.271911
vt -2.20864 0.1521609
vt -3.695731 0.5919654
vt -2.20864 2.198864
vt -3.695731 2.198864
vt 3.32095 0.5919654
vt 1.948802 0.5919654
vt 3.32095 2.198864
vt 1.948802 2.198864
vt 2.476785 -0.4980745
vt -0.2162551 0
vt 2.476785 2.790829
vt -0.1715731 3.521933
vt -1.425045 0.7018926
vt 1.651566 0.7018926
vt -0.6631922 -1.942111
vt 1.651566 -1.820827
vt 0.1019005 -2.623895
vt -2.332614 -2.623895
vt 0.7469987 0.03775705
vt -2.332614 -0.117902
vt -2.352267 0
vt -2.352267 -2.58265
vt -3.302459 -2.20864
vt -3.372888 -3.695731
vt -0.9314712 2.790829
vt -0.9314712 0
vt -3.331014 2.198864
vt -3.331014 0.1521609
vt 1.280902 -0.4980745
vt 1.280902 2.790829
vt 3.525179 0.5919654
vt 3.525179 2.198864
vt 0.5256716 -2.58265
vt 0.5256716 0
vt 1.634786 -3.695731
vt 1.634786 -2.20864
vt -2.332614 -2.278723
vt 0.1019005 -2.278723
vt -3.371814 -3.457344
vt -2.02869 -3.549652
vt 0 -0.9697946
vt 2.38302 -0.9697946
vt 1.948802 -2.230498
vt 3.32095 -2.230498
vt 0.7631407 0
vt -2.38302 0
vt 0.1781526 1.304933
vt -1.798032 1.304933
vt 0.226619 3.495612
vt 0.2856365 -0.02935434
vt -1.043607 2.244514
vt -1.043607 0.49303
vt -1.046115 0
vt -1.046115 2.790829
vt 0.2864704 0.5189185
vt 0.2864704 2.271911
vt 1.651566 -1.550632
vt -1.425045 -1.550632
vt 1.206648 -0.1915484
vt -0.7129295 0.03065126

vn 0 0 1
vn -1 0 0
vn 0 0 -1
vn 0.9590092 0 -0.2833752
vn 0.9644465 0.02171101 -0.2615208
vn 0.9698838 0.04342203 -0.2396664
vn -0.2321184 0.9488148 -0.2141764
vn -0.1160592 0.9744074 -0.1070882
vn 0 1 0
vn -0.1985163 -0.9497943 0.2418308
vn -0.09925816 -0.9748971 0.1209154
vn 0 -1 0
vn -0.160137 -0.9870948 0
vn -0.2097983 -0.956598 -0.1369465
vn -0.2594596 -0.9261011 -0.2738929
vn -0.9204423 0 0.3908785
vn 0.4959643 0 -0.8683429
vn -0.5337281 0.8456562 0
vn -0.1932122 -0.9244168 -0.3288201
vn -0.09660608 -0.8194399 -0.5142467
vn 0 -0.7144629 -0.6996734
vn 0 0.8829048 -0.469552
vn 0 -0.9175332 0.3976592
vn 0.9265133 0.04148032 0.3739686
vn 0.9125033 0.02074016 0.406478
vn 0.8984933 0 0.4389873
vn -0.8984934 0 0.438987
vn -0.2093486 0.8557401 0.4731618
vn -0.1046743 0.7737296 0.5976643
vn 0 0.6917191 0.7221668

usemtl ProBuilderDefault
f 3/3/1 4/4/1 2/2/1 1/1/1
f 7/7/2 8/8/2 6/6/2 5/5/2
f 8/11/3 10/12/3 9/10/3 6/9/3
f 13/15/5 14/16/6 12/14/5 11/13/4
f 13/19/8 16/20/9 15/18/8 14/17/7
f 12/23/11 18/24/12 17/22/11 11/21/10
f 5/27/14 6/28/15 17/26/14 18/25/13
f 7/31/16 5/32/16 18/30/16 15/29/16
f 9/35/17 10/36/17 13/34/17 11/33/17
f 8/39/18 7/40/18 15/38/18 16/37/18
f 6/43/20 9/44/21 11/42/20 17/41/19
f 10/47/22 8/48/22 16/46/22 13/45/22
f 1/51/23 2/52/23 18/50/23 12/49/23
f 3/55/25 1/56/26 12/54/25 14/53/24
f 2/59/27 4/60/27 15/58/27 18/57/27
f 4/63/29 3/64/30 14/62/29 15/61/28

