# ProBuilder 4.1.0
# https://unity3d.com/unity/features/worldbuilding/probuilder
# 9/09/2019 9:26:25 PM

mtllib ./Trash9.mtl
o Trash9

g Trash9
v 40.56494 65.6 -36.66016
v 36.39844 65.6 -36.66016
v 40.10885 69.10974 -37.20169
v 36.85452 69.10974 -37.20169
v 36.39844 65.6 -41.60728
v 36.85452 69.10974 -41.06575
v 40.56494 65.6 -41.60728
v 40.10885 69.10974 -41.06575
v 39.66389 63.75953 -40.53742
v 37.29948 63.75953 -40.53742
v 39.66389 63.75953 -37.73002
v 37.29948 63.75953 -37.73002

vt 3.1665 0
vt -1 0
vt 2.710415 3.551275
vt -0.5439148 3.551275
vt 0 -0.1288648
vt -4.947128 -0.1288648
vt -0.5415344 3.410388
vt -4.405594 3.410388
vt 1 -0.7543883
vt -3.1665 -0.7543883
vt 0.5439148 2.796887
vt -2.710415 2.796887
vt 4.947128 -0.4080505
vt 0 -0.4080505
vt 4.405594 3.131202
vt 0.5415344 3.131202
vt -2.710415 -0.5415344
vt 0.5439148 -0.5415344
vt -2.710415 -4.405594
vt 0.5439148 -4.405594
vt 2.265453 -3.877262
vt -0.09895325 -3.877262
vt 2.265453 -1.069866
vt -0.09895325 -1.069866
vt -3.1665 2.486226
vt 1 2.486226
vt -2.265453 0.35739
vt 0.09895325 0.35739
vt 0 1.392332
vt 4.947128 1.392332
vt 1.069866 -0.6568658
vt 3.877262 -0.6568658
vt -4.947128 0.439707
vt 0 0.439707
vt -3.877262 -1.609491
vt -1.069866 -1.609491
vt -0.09895325 -2.128836
vt 2.265453 -2.128836

vn 0 0.1524901 0.988305
vn -0.9916621 0.1288648 0
vn 0 0.1524901 -0.988305
vn 0.9916621 0.1288648 0
vn 0 1 0
vn 0 -1 0
vn 0 -0.5025594 -0.8645427
vn 0.8981413 -0.439707 0
vn -0.8981413 -0.439707 0
vn 0 -0.5025594 0.8645427

usemtl ProBuilderDefault
f 3/3/1 4/4/1 2/2/1 1/1/1
f 4/7/2 6/8/2 5/6/2 2/5/2
f 6/11/3 8/12/3 7/10/3 5/9/3
f 8/15/4 3/16/4 1/14/4 7/13/4
f 8/19/5 6/20/5 4/18/5 3/17/5
f 11/23/6 12/24/6 10/22/6 9/21/6
f 9/27/7 10/28/7 5/26/7 7/25/7
f 11/31/8 9/32/8 7/30/8 1/29/8
f 10/35/9 12/36/9 2/34/9 5/33/9
f 12/37/10 11/38/10 1/1/10 2/2/10

