# ProBuilder 4.1.0
# https://unity3d.com/unity/features/worldbuilding/probuilder
# 6/09/2019 10:43:31 AM

mtllib ./Trash6.mtl
o Trash6

g Trash6
v -0.9316208 0.4753371 1.242428
v -1.577914 0.4753371 1.242428
v -0.9316208 1.248986 1.242428
v -1.577914 1.248986 1.242428
v -2.590187 0.61 -0.4863281
v -2.590187 0.61 -1.486328
v -2.590187 2.536702 -0.4863281
v -2.590187 2.536702 -1.486328
v -1.546052 0.9525307 -2.402276
v -0.07804823 0.9525307 -2.402276
v -1.546052 2.194171 -2.402276
v -0.07804823 2.194171 -2.402276
v -0.45 0.61 -1.486328
v -0.45 0.61 -0.4863281
v -0.45 2.536702 -1.486328
v -0.45 2.536702 -0.4863281
v -0.7230663 0.2256857 0.5303324
v -2.454893 0.2256857 0.5303324
v -0.7230663 1.498637 0.5303324
v -2.454893 1.498637 0.5303324

vt -0.4816208 -0.1346629
vt -1.127914 -0.1346629
vt -0.4816208 0.6389859
vt -1.127914 0.6389859
vt 0 0
vt -1 0
vt 0 1.926702
vt -1 1.926702
vt 1.096052 0.3425307
vt -0.3719518 0.3425307
vt 1.096052 1.584171
vt -0.3719518 1.584171
vt 1 0
vt 1 1.926702
vt 2.140187 0
vt 0 -1
vt 2.140187 -1
vt -2.140187 -1
vt -2.140187 0
vt -0.2730663 1.086874
vt -2.004893 1.086874
vt -1.052694 0.8886371
vt -1.052694 -0.3843143
vt -0.2823219 0
vt -0.2823219 1.926702
vt 0.7433015 -0.3843143
vt 0.7433015 0.8886371
vt -2.140187 1.376502
vt 0 1.376502
vt -2.004893 -0.07648753
vt -0.2730663 -0.07648753
vt -0.2730663 0.8322599
vt -2.004893 0.8322599
vt -0.4816208 1.58685
vt -1.127914 1.58685
vt -1.052427 0.8886371
vt -1.052427 -0.3843143
vt -1.794435 0.6389859
vt -1.794435 -0.1346629
vt -0.9155607 -0.3843143
vt -0.9155607 0.8886371
vt 0.2141171 -0.1346629
vt 0.2141171 0.6389859
vt 2.004893 0.6654081
vt 0.2730663 0.6654081
vt 1.127914 1.419998
vt 0.4816208 1.419998
vt -2.140187 -0.9366481
vt 0 -0.9366481
vt -1.096052 -1.914548
vt 0.3719518 -1.914548
vt 0.9494207 1.926702
vt 0.9494207 0
vt -0.4395281 1.584171
vt -0.4395281 0.3425307
vt 0.9265202 0
vt 0.9265202 1.926702
vt 1.91511 0.3425307
vt 1.91511 1.584171
vt 0 -0.2617787
vt 2.140187 -0.2617787
vt -0.3719518 -1.239678
vt 1.096052 -1.239678

vn 0 0 1
vn -1 0 0
vn 0 0 -1
vn 1 0 0
vn 0 1 0
vn 0 -1 0
vn 0 -0.9353983 -0.3535959
vn 0.9657706 0 0.2593977
vn -0.9912611 0 0.1319146
vn 0 0.6997027 0.7144341
vn 0 -0.9436855 0.3308438
vn 0.9596879 0 0.281068
vn -0.6303529 0 0.7763087
vn 0 0.9436857 0.3308436
vn 0 -0.9366481 -0.3502718
vn -0.6594541 0 -0.7517449
vn 0.9265202 0 0.376245
vn 0 0.9366481 -0.3502718

usemtl ProBuilderDefault
f 3/3/1 4/4/1 2/2/1 1/1/1
f 7/7/2 8/8/2 6/6/2 5/5/2
f 11/11/3 12/12/3 10/10/3 9/9/3
f 15/14/4 16/7/4 14/5/4 13/13/4
f 15/16/5 8/17/5 7/15/5 16/5/5
f 14/5/6 5/19/6 6/18/6 13/16/6
f 17/20/7 18/21/7 5/19/7 14/5/7
f 19/22/8 17/23/8 14/5/8 16/7/8
f 18/26/9 20/27/9 7/25/9 5/24/9
f 20/30/10 19/31/10 16/29/10 7/28/10
f 1/34/11 2/35/11 18/33/11 17/32/11
f 3/38/12 1/39/12 17/37/12 19/36/12
f 2/42/13 4/43/13 20/41/13 18/40/13
f 4/46/14 3/47/14 19/45/14 20/44/14
f 9/50/15 10/51/15 13/49/15 6/48/15
f 11/54/16 9/55/16 6/53/16 8/52/16
f 10/58/17 12/59/17 15/57/17 13/56/17
f 12/62/18 11/63/18 8/61/18 15/60/18

