# ProBuilder 4.1.0
# https://unity3d.com/unity/features/worldbuilding/probuilder
# 9/09/2019 9:31:53 PM

mtllib ./Trash20.mtl
o Trash20

g Trash20
v 30.6875 67.48753 -38.79413
v 29.20498 67.0741 -38.79413
v 30.43547 69.16487 -38.94647
v 29.457 69.16487 -38.94647
v 27.51887 66.37499 -39.95193
v 26.93983 66.78577 -41.30459
v 28.08077 68.4195 -40.18188
v 27.33601 68.00498 -41.07464
v 29.03352 68.63429 -43.49117
v 30.45911 68.63429 -43.55929
v 29.30852 69.75875 -43.32494
v 30.37618 69.91145 -43.32494
v 31.23015 65.33151 -41.78782
v 31.63 65.32886 -39.61053
v 31.63015 70.39024 -41.29996
v 31.05752 69.49659 -39.95656
v 28.83495 69.79816 -39.95656
v 28.83495 69.49659 -41.29996
v 28.26247 65.33151 -41.646
v 28.26247 65.74229 -39.61053

vt -0.8972221 -0.4061841
vt -2.379305 -0.8211801
vt -1.152877 1.27751
vt -2.131052 1.275446
vt -1.310793 -2.42298
vt -2.777162 -1.994644
vt -1.251016 -0.2910647
vt -2.388525 -0.7566957
vt 2.457718 0.4244488
vt 1.030501 0.4244488
vt 2.190963 1.563091
vt 1.124522 1.721902
vt 1.195274 -2.407323
vt -1.018425 -2.409983
vt 0.6431769 2.660602
vt -0.5746455 1.720033
vt 0.8045487 -0.4131701
vt 3.047482 -0.4131701
vt 0.3572741 -2.065803
vt 3.006934 -1.331162
vt -0.3997065 -1.138916
vt -3.367386 -0.9970974
vt 0.0001388173 1.038373
vt -3.36741 1.037874
vt -1.083949 0.4786923
vt -0.8020491 -1.578588
vt -2.059018 0.13363
vt -2.762079 -1.219009
vt -2.022854 1.747505
vt -2.330147 -2.351664
vt -2.783626 0.3541271
vt -3.142557 -1.739769
vt 3.189344 -2.537366
vt 2.672396 1.649292
vt 4.547273 -1.075577
vt 4.188161 0.1661914
vt -0.04310308 -0.696817
vt 1.269424 -0.2809311
vt 0.4965816 -2.753815
vt 1.21005 -1.821125
vt 0.05073932 -1.848484
vt -3.312741 -1.40334
vt -0.8506271 0.4757866
vt -2.331367 0.1187417
vt -0.8919944 1.756035
vt -0.8564663 -2.46489
vt -2.077069 1.420083
vt -2.061428 -0.2826565
vt -1.317515 -2.490424
vt -1.225556 1.619218
vt -0.08972371 -1.140952
vt -0.04923843 0.9694918
vt 3.047482 -0.1855168
vt 0.8045487 -0.1855168
vt 2.345929 0.9617031
vt 1.37635 0.8993297
vt 3.315953 -1.549641
vt 0.3448865 -1.549641
vt 2.457712 2.214789
vt 1.030495 2.214788
vt -0.05522449 1.314004
vt -0.2739354 -2.898775
vt -2.134457 1.579168
vt -2.239521 0.421872
vt 1.200827 -2.395322
vt 0.5862895 2.665411
vt 3.130583 0.9087701
vt 2.957186 2.180396
vt -0.8096585 -0.5608305
vt 2.124916 -0.5608305
vt 0.530558 -2.587164
vt 1.594006 -2.580585

vn -0.02420946 0.08681301 0.9959304
vn -0.01210473 0.07974087 0.9966433
vn 0 0.07266872 0.9973561
vn -0.8474804 0.2834005 0.4488443
vn -0.8196873 0.2144313 0.5209624
vn -0.7918943 0.145462 0.5930804
vn -0.04713668 0.1573473 -0.9864178
vn -0.03635518 0.1680805 -0.9849842
vn -0.02557367 0.1788138 -0.9835505
vn 0.9817535 -0.06023369 -0.1803662
vn 0.9238443 0.04905072 0.1470332
vn 0.8659351 0.1583351 0.4744326
vn 0.1092974 0.8055074 0.582419
vn -0.09424722 0.8684785 0.1866612
vn -0.2977918 0.9314498 -0.2090966
vn -5.776646E-05 -0.9999993 -0.001208811
vn -0.05976951 -0.9866078 0.09759709
vn -0.1194813 -0.9732164 0.196403
vn -0.6789894 -0.7196401 0.1452292
vn -0.7013829 -0.7010015 0.1239189
vn -0.7237765 -0.6823629 0.1026086
vn -0.5170153 0.1449495 0.8436142
vn -0.3974072 0.1636895 0.8933861
vn -0.2777991 0.1824295 0.9431581
vn -0.1426452 0.1014031 -0.9845658
vn -0.2845043 0.2004642 -0.9190436
vn -0.4263634 0.2995254 -0.8535214
vn -0.70847 0.6886036 -0.1545812
vn -0.7505441 0.5204303 0.1715424
vn -0.7926182 0.3522569 0.497666
vn -0.04551015 -0.370696 0.9276385
vn 0.06068806 -0.4845678 0.8556161
vn 0.1668863 -0.5984396 0.7835937
vn 0.8167054 0.1582563 0.55493
vn 0.8286707 0.1655897 0.5340915
vn 0.8406361 0.1729231 0.513253
vn -0.7664135 0.161226 0.6217849
vn -0.7841752 0.150114 0.6013988
vn -0.8019369 0.1390021 0.5810126
vn 0.1183837 0.8724725 0.4741065
vn 0.05919185 0.9112756 0.3930585
vn 0 0.9500787 0.3120105
vn -0.04187959 -0.4798233 -0.8763651
vn -0.9668328 0.1500595 -0.2066797
vn -0.9693052 0.1927315 -0.09569747
vn -0.9717776 0.2354035 0.01528479
vn 0.8962558 -0.02818021 -0.4426414
vn 0.8598319 0.06275853 -0.4944398
vn 0.8234081 0.1536973 -0.5462383
vn -0.3043191 0.9518663 -0.0366113
vn -0.2226309 0.9686759 0.02900611
vn -0.1409426 0.9854855 0.09462351

usemtl ProBuilderDefault
f 3/3/2 4/4/3 2/2/2 1/1/1
f 7/7/5 8/8/6 6/6/5 5/5/4
f 11/11/8 12/12/9 10/10/8 9/9/7
f 15/15/11 16/16/12 14/14/11 13/13/10
f 15/19/14 18/20/15 17/18/14 16/17/13
f 14/23/17 20/24/18 19/22/17 13/21/16
f 5/27/20 6/28/21 19/26/20 20/25/19
f 7/31/23 5/32/24 20/30/23 17/29/22
f 6/35/26 8/36/27 18/34/26 19/33/25
f 8/39/29 7/40/30 17/38/29 18/37/28
f 1/43/32 2/44/33 20/42/32 14/41/31
f 3/47/35 1/48/36 14/46/35 16/45/34
f 2/51/38 4/52/39 17/50/38 20/49/37
f 4/55/41 3/56/42 16/54/41 17/53/40
f 9/59/43 10/60/43 13/58/43 19/57/43
f 11/63/45 9/64/46 19/62/45 18/61/44
f 10/67/48 12/68/49 15/66/48 13/65/47
f 12/71/51 11/72/52 18/70/51 15/69/50

