# ProBuilder 4.1.0
# https://unity3d.com/unity/features/worldbuilding/probuilder
# 9/09/2019 9:30:36 PM

mtllib ./Trash16.mtl
o Trash16

g Trash16
v 23.69159 70.30793 -38.79762
v 22.69159 70.30793 -38.79762
v 23.69159 72.24942 -38.47122
v 22.69159 72.24942 -38.47122
v 22.69159 70.30793 -40.98097
v 22.69159 72.24942 -40.65457
v 23.69159 70.30793 -40.98097
v 23.69159 72.24942 -40.65457
v 24.6618 69.63404 -40.1841
v 24.6618 69.63404 -39.1841
v 24.6618 71.57553 -39.8577
v 24.6618 71.57553 -38.8577
v 23.48105 73.15572 -37.78994
v 22.48105 73.15572 -37.78994
v 23.48105 73.88342 -38.47585
v 22.48105 73.88342 -38.47585

vt 0 1.157133
vt -1 1.157133
vt 0 3.125869
vt -1 3.125869
vt 0.862381 1.028389
vt -1.320969 1.028389
vt 1.188782 2.969879
vt -0.9945679 2.969879
vt 1 0.7951508
vt 0 0.7951508
vt 1 2.763887
vt 0 2.763887
vt 0.5241051 0.3544998
vt -0.4758949 0.3544998
vt 0.1977043 2.29599
vt -0.8022957 2.29599
vt -0.2105408 1.537955
vt -1.210541 1.537955
vt -0.2105408 2.537961
vt -1.210541 2.537961
vt 0 -1.320969
vt -1 -1.320969
vt 0 0.862381
vt -1 0.862381
vt 0 3.088259
vt -1 3.088259
vt -0.2105408 4.222072
vt -1.210541 4.222072
vt 0.9945679 2.945528
vt -1.188782 2.945528
vt -1.184151 4.593031
vt -1.870064 3.871306
vt 1.188782 3.119128
vt -0.9945679 3.119128
vt 1.870064 4.049565
vt 1.184151 4.758382
vt 1 0.9862348
vt 0 0.9862348
vt 1.210541 3.709607
vt 0.2105408 3.709607
vt -0.5866668 -1.320969
vt -0.5866668 0.862381
vt 0.5946174 -0.5241051
vt 0.5946174 0.4758949
vt 0.6804589 2.859528
vt 0.9037743 0.9034979
vt -0.5723261 2.180592
vt -0.3490107 0.2245621
vt -0.2337406 1.147789
vt -0.3222086 3.114536
vt 0.804905 0.4651328
vt 0.716437 2.43188
vt 1.694232 1.188782
vt 1.694232 -0.9945679
vt 0.5129478 0.8022957
vt 0.5129478 -0.1977043

vn 0 -0.165792 0.9861608
vn -1 0 0
vn 0 0.165792 -0.9861608
vn 1 0 0
vn 0 0.685909 0.7276874
vn 0 -1 0
vn 0 -0.6008772 0.7993414
vn 0.9918007 0.1277938 0
vn 0.9872544 0.127399 0.06736993
vn 0.9827081 0.1270041 0.1347399
vn -0.974062 -0.2262816 0
vn -0.9855247 -0.1397421 -0.02822156
vn -0.9969873 -0.05320259 -0.05644313
vn 0 0.8000078 -0.5999897
vn -0.5704717 -0.8213173 0
vn 0.6790899 0.1217005 -0.7238964
vn 0.2675603 -0.1597475 0.9502064
vn 0.5704717 0.8213173 0

usemtl ProBuilderDefault
f 3/3/1 4/4/1 2/2/1 1/1/1
f 4/7/2 6/8/2 5/6/2 2/5/2
f 6/11/3 8/12/3 7/10/3 5/9/3
f 11/15/4 12/16/4 10/14/4 9/13/4
f 15/19/5 16/20/5 14/18/5 13/17/5
f 1/23/6 2/24/6 5/22/6 7/21/6
f 13/27/7 14/28/7 4/26/7 3/25/7
f 15/31/9 13/32/10 3/30/9 8/29/8
f 14/35/12 16/36/13 6/34/12 4/33/11
f 16/39/14 15/40/14 8/38/14 6/37/14
f 9/43/15 10/44/15 1/42/15 7/41/15
f 11/47/16 9/48/16 7/46/16 8/45/16
f 10/51/17 12/52/17 3/50/17 1/49/17
f 12/55/18 11/56/18 8/54/18 3/53/18

