# ProBuilder 4.1.0
# https://unity3d.com/unity/features/worldbuilding/probuilder
# 23/08/2019 4:09:57 PM

mtllib ./World2Base5.mtl
o World2Base5

g World2Base5
v -35.87 18.80128 -16.7744
v -35.87 18.80128 -17.7744
v -35.87 20.80152 -16.7744
v -35.87 22.06562 -18.59007
v -36.45803 19.03035 -24.51118
v -31.61527 19.03035 -24.51118
v -36.45803 20.74537 -25.32685
v -31.61527 20.74537 -25.32685
v -33.73929 18.80128 -17.7744
v -33.73929 18.80128 -16.7744
v -33.73929 22.06562 -18.59007
v -33.73929 20.80152 -16.7744
v -36.45803 18.80128 -19.96828
v -31.61527 18.80128 -19.96828
v -36.45803 22.25786 -20.78395
v -31.61527 22.25786 -20.78395
v -32.40933 18.8733 -11.30872
v -35.32605 18.8733 -11.30872
v -32.40933 20.65227 -11.30872
v -35.32605 20.65227 -11.30872
v -36.4809 11.3679 -1.700741
v -33.46887 11.3679 -1.528572
v -33.87542 12.52908 -1.229952
v -36.88745 12.52908 -1.402121
v -32.40933 16.72421 -9.529557
v -35.32605 16.72421 -9.529557
v -35.32605 17.80729 -8.118291
v -32.40933 17.80729 -8.118291
v -33.94345 12.61491 -6.229856
v -36.11915 13.41487 -7.323431
v -36.41282 14.25363 -6.27071
v -34.23712 13.45367 -5.177137
v -33.46886 11.36793 -4.720076
v -36.48089 11.68221 -5.579411
v -36.88745 12.84338 -5.28079
v -33.87542 12.5291 -4.421455

vt 0 -0.2187252
vt -1 -0.2187252
vt 0 1.781519
vt -1.815668 3.045616
vt 1.588028 3.332287
vt -3.25473 3.332287
vt 1.588028 5.231395
vt -3.25473 5.231395
vt 1 -0.2187252
vt 1.815668 3.045616
vt -1.130707 -1.017918
vt 1 -1.017918
vt -1.130707 -3.23029
vt 1 -3.23029
vt 1.130707 -1
vt -1 -1
vt 1.130707 0
vt -1 0
vt -1.588028 -3.193876
vt 3.25473 -3.193876
vt -2.015398 3.007065
vt -1.228732 -0.2643864
vt -4.286677 3.199726
vt -3.500011 -0.2635498
vt 1.504945 -0.2354921
vt 2.090963 3.077787
vt 4.558561 -0.2354921
vt 5.144579 3.26719
vt -1.130707 -2.074595
vt 1 -2.074595
vt -3.25473 -4.276878
vt 1.588028 -4.276878
vt 1.130707 -0.002882203
vt -1 -0.002882203
vt 2.46067 5.463278
vt -0.4560547 5.463278
vt -0.267334 1.781519
vt -0.267334 -0.2187252
vt -5.892503 1.632273
vt -5.892503 -0.1466961
vt -0.09903084 -0.2187252
vt -0.09903084 1.781519
vt 5.393655 -0.1466961
vt 5.393655 1.632273
vt 1 -0.0486281
vt -1.130707 -0.0486281
vt 0.4560547 5.419095
vt -2.46067 5.419095
vt -0.7480643 -3.336663
vt 2.268884 -3.336663
vt 1.880033 -2.13185
vt -1.136915 -2.13185
vt -1.588028 -3.178809
vt 3.25473 -3.178809
vt -1.588028 -7.727482
vt 3.25473 -7.727482
vt -4.009544 3.237858
vt -3.193876 -0.2187252
vt -8.552444 1.725367
vt -7.736778 0.01034546
vt 3.193876 -0.2187252
vt 4.009544 3.237858
vt 7.736778 0.01034546
vt 8.552444 1.725367
vt -3.25473 -2.781442
vt 1.588028 -2.781442
vt -3.25473 -7.569508
vt 1.588028 -7.569508
vt -2.46067 -3.598438
vt 0.4560547 -3.598438
vt -2.46067 -6.388424
vt 0.4560547 -6.388424
vt 5.465686 -0.1466961
vt 5.465686 1.632273
vt 7.244845 -2.295792
vt 8.656112 -1.212715
vt -5.465686 1.632273
vt -5.465686 -0.1466961
vt -8.656112 -1.212715
vt -7.244845 -2.295792
vt 0.4560547 2.992998
vt -2.46067 2.992998
vt 0.4560547 7.267664
vt -2.46067 7.267664
vt -2.46067 -6.326193
vt 0.4560547 -6.326193
vt -0.9265518 -11.59633
vt 1.249153 -10.28788
vt 7.24689 -2.202217
vt 8.647824 -1.105809
vt 9.532658 -5.55229
vt 10.61314 -4.749285
vt -7.956834 -0.07311285
vt -6.576303 -1.195104
vt -11.21332 -4.583155
vt -10.12257 -5.374867
vt -0.4560547 -5.068955
vt 2.46067 -5.068955
vt -1.542824 -9.074206
vt 0.6328812 -10.28842
vt 0.5646224 12.21821
vt -1.562615 10.78839
vt 0.9682802 14.19221
vt -2.021291 13.22362
vt 9.474648 -5.641804
vt 10.56708 -4.802415
vt 11.25452 -7.375769
vt 11.64195 -6.202948
vt -11.60753 -5.35347
vt -10.56084 -6.249244
vt -12.37023 -6.340885
vt -12.07973 -7.572926
vt 0.7259017 -10.19461
vt 3.084383 -11.19815
vt 0.4726216 -11.96375
vt 3.598498 -12.33456
vt 2.187664 12.05439
vt -0.840719 11.19506
vt 2.187659 15.24589
vt -0.8081099 15.07373
vt 11.23543 -6.519822
vt 11.54523 -5.292304
vt 15.1126 -6.852085
vt 15.4224 -5.624566
vt -12.35294 -6.454938
vt -12.05432 -7.685224
vt -15.54445 -6.454966
vt -15.24582 -7.685252
vt 1.5108 11.96508
vt -1.516788 12.82721
vt 1.485363 15.85638
vt -1.516783 16.00836

vn -1 0 0
vn 0 -0.4294998 -0.9030669
vn 1 0 0
vn 0 0.8206882 0.5713763
vn 0 -1 0
vn -0.9623477 0.0658947 0.2637136
vn -0.9632281 0.0634367 0.2610625
vn -0.9641085 0.06097871 0.2584114
vn 0.7078403 0.1712381 0.6853027
vn 0.7046996 0.1674509 0.6894327
vn 0.701559 0.1636636 0.6935627
vn 0 0.9961828 0.08729199
vn 0 -0.9999132 0.01317728
vn 0.9716483 0 -0.2364309
vn -0.9950843 0 0.09903084
vn 0 0.9996274 0.02729586
vn -0.05500004 -0.2667092 0.9622064
vn 0 -0.9987311 -0.05035989
vn 0 0.9487966 -0.3158877
vn 0 -0.6376948 -0.7702891
vn 0 0.7463567 0.6655462
vn 0 -0.6261128 -0.7797325
vn 0.09416374 -0.6008595 -0.7877388
vn 0.1883275 -0.5756063 -0.7957451
vn -0.9806089 0.1554683 -0.1193142
vn -0.9566607 0.130753 -0.2319963
vn -0.9327126 0.1060377 -0.3446785
vn 0.9442925 -0.2610828 0.200368
vn 0.9421203 -0.1733392 0.2653891
vn 0.9399481 -0.0855955 0.3304101
vn 0 0.4612896 0.8872496
vn -0.08603232 0.5306587 0.8342527
vn -0.1720646 0.6000277 0.7812557
vn 0.04304267 -0.76362 -0.6442296
vn 0.0821116 -0.7401295 -0.6655329
vn 0.1211805 -0.7166389 -0.6868363
vn -0.9700666 -0.03876825 -0.2397244
vn -0.8879266 -0.08626591 -0.4083129
vn -0.8057866 -0.1337636 -0.5769014
vn 0.9361653 0.3510701 -0.01855995
vn 0.9391138 0.3429689 -0.01905527
vn 0.9420623 0.3348677 -0.01955059
vn -0.1694987 0.6037978 0.7789086
vn -0.1675724 0.5941216 0.7866271
vn -0.1656462 0.5844454 0.7943457
vn -0.1037747 -0.9946009 -8.569768E-06
vn -0.04957896 -0.9956615 -0.04038838
vn 0.004616736 -0.9967222 -0.08076818
vn -0.9455844 -0.3243139 -0.02628225
vn 0.9438218 0.3304546 5.021107E-06
vn 0.08069203 0.9934826 0.08050584
vn 0.04034578 0.9967413 0.0402571
vn -4.782528E-07 1 8.366865E-06

usemtl Collider
f 3/3/1 4/4/1 2/2/1 1/1/1
f 7/7/2 8/8/2 6/6/2 5/5/2
f 11/10/3 12/3/3 10/1/3 9/9/3
f 11/13/4 4/14/4 3/12/4 12/11/4
f 10/17/5 1/18/5 2/16/5 9/15/5
f 13/19/5 14/20/5 9/15/5 2/16/5
f 15/23/7 13/24/8 2/22/7 4/21/6
f 14/27/10 16/28/11 11/26/10 9/25/9
f 16/31/12 15/32/12 4/30/12 11/29/12
f 17/35/13 18/36/13 1/34/13 10/33/13
f 19/39/14 17/40/14 10/38/14 12/37/14
f 18/43/15 20/44/15 3/42/15 1/41/15
f 20/47/16 19/48/16 12/46/16 3/45/16
f 23/51/17 24/52/17 21/49/17 22/50/17
f 5/55/18 6/56/18 14/54/18 13/53/18
f 7/59/1 5/60/1 13/58/1 15/57/1
f 6/63/3 8/64/3 16/62/3 14/61/3
f 8/67/19 7/68/19 15/66/19 16/65/19
f 25/71/20 26/72/20 18/70/20 17/69/20
f 26/75/1 27/76/1 20/74/1 18/73/1
f 28/79/3 25/80/3 17/78/3 19/77/3
f 27/83/21 28/84/21 19/82/21 20/81/21
f 29/87/23 30/88/24 26/86/23 25/85/22
f 30/91/26 31/92/27 27/90/26 26/89/25
f 32/95/29 29/96/30 25/94/29 28/93/28
f 31/99/32 32/100/33 28/98/32 27/97/31
f 33/103/35 34/104/36 30/102/35 29/101/34
f 34/107/38 35/108/39 31/106/38 30/105/37
f 36/111/41 33/112/42 29/110/41 32/109/40
f 35/115/44 36/116/45 32/114/44 31/113/43
f 22/119/47 21/120/48 34/118/47 33/117/46
f 21/123/49 24/124/49 35/122/49 34/121/49
f 23/127/50 22/128/50 33/126/50 36/125/50
f 24/131/52 23/132/53 36/130/52 35/129/51

