# ProBuilder 4.1.0
# https://unity3d.com/unity/features/worldbuilding/probuilder
# 7/10/2019 8:43:18 PM

mtllib ./World1Base25.mtl
o World1Base25

g World1Base25
v 13.45442 0 0
v 11.89 0 0
v 13.45442 2.01005 0
v 11.89 2.01005 0
v 11.89 0 -1.588053
v 11.89 2.01005 -1.588053
v 13.45442 0 -1.588053
v 13.45442 2.01005 -1.588053
v 23.43866 -1.351294 -11.41281
v 22.70121 -1.368673 -13.61726
v 21.49054 -1.512781 -10.69872
v 20.75309 -1.530161 -12.90317
v 14.66689 9.105457 -2.703444
v 13.64255 10.28789 -2.703444
v 13.97818 8.508829 -4.00407
v 12.95384 9.691256 -4.00407
v 17.89368 12.21032 -6.005339
v 15.92965 14.03833 -7.346359
v 16.57318 9.812876 -7.339436
v 14.60914 11.64088 -8.680452
v 21.14227 10.69282 -9.605362
v 19.61814 12.11138 -10.64602
v 20.11753 8.832359 -10.64064
v 18.59341 10.25092 -11.68129
v 23.4386 7.249973 -11.41279
v 22.70116 7.1283 -13.61725
v 21.49048 6.119453 -10.6987
v 20.75304 5.997782 -12.90315
v 23.43865 0.4026098 -11.4128
v 22.70121 0.3852301 -13.61726
v 21.49053 0.2411222 -10.69872
v 20.75308 0.2237425 -12.90316

vt 0.5644193 0
vt -1 0
vt 0.5644193 2.01005
vt -1 2.01005
vt 0 0
vt -1.588053 0
vt 0 2.01005
vt -1.588053 2.01005
vt 1 0
vt -0.5644193 0
vt 1 2.01005
vt -0.5644193 2.01005
vt 1.588053 0
vt 1.588053 2.01005
vt 10.41504 -11.37312
vt 9.678412 -13.57792
vt 8.460275 -10.65892
vt 7.723649 -12.86371
vt 0.5644193 -1.588053
vt -1 -1.588053
vt 0.5644193 1.878329
vt -1 1.878329
vt 1.776888 9.471313
vt 0.7525477 10.57626
vt 1.588053 2.048895
vt 0 2.048895
vt 4.00407 8.568747
vt 2.703444 9.218773
vt 0 1.759336
vt -1.588053 1.759336
vt -2.703444 10.22066
vt -4.00407 9.49432
vt 1 2.393923
vt -0.5644193 2.393923
vt -0.06384039 10.44613
vt -1.088181 9.318185
vt 2.869072 8.969919
vt 1.974597 10.2534
vt 7.295871 12.34013
vt 6.234349 14.85192
vt 5.548871 -3.359874
vt 6.451455 -2.053254
vt 8.435356 -6.710608
vt 10.84896 -5.259149
vt -2.551381 8.773564
vt -3.944163 8.010626
vt -6.776657 13.56944
vt -8.301886 11.01264
vt -3.294063 9.233741
vt -3.889921 7.787241
vt -8.06074 11.61878
vt -8.112429 8.754952
vt 3.355822 -8.464227
vt 6.024572 -9.833593
vt -0.151663 -12.14035
vt 1.919331 -13.203
vt 7.158065 5.323573
vt 7.506606 8.348437
vt 11.94256 4.086452
vt 12.21303 6.433795
vt -5.871138 8.114824
vt -5.241981 5.135655
vt -10.61162 5.720315
vt -10.12339 3.40843
vt -4.933217 -11.65158
vt -2.288934 -10.23555
vt -0.8380043 -14.82028
vt 1.214002 -13.72142
vt 6.59692 1.631704
vt 8.056391 3.445039
vt 7.609265 -2.769238
vt 9.933685 -2.850303
vt 1.642058 5.506082
vt 3.02392 7.422755
vt 2.840747 2.711201
vt 4.256278 3.443842
vt -7.086343 5.311247
vt -6.097416 3.165273
vt -10.26863 -0.4365651
vt -8.29735 -1.094003
vt -7.445568 3.484819
vt -5.796014 1.842504
vt -7.465815 -1.439176
vt -5.18048 -1.119894
vt 7.476758 7.249878
vt 9.801289 7.128204
vt 7.476754 0.4025144
vt 9.801283 0.3851347
vt 11.75715 6.11946
vt 13.83202 7.249979
vt 11.7572 0.2411287
vt 13.83207 0.4026163
vt -13.89833 7.12831
vt -11.82345 5.997792
vt -13.89837 0.38524
vt -11.8235 0.2237524
vt -9.742109 5.997687
vt -7.417582 6.119359
vt -9.742104 0.2236478
vt -7.417578 0.2410275
vt 7.476754 -1.351354
vt 9.801283 -1.368734
vt 11.75721 -1.512778
vt 13.83208 -1.35129
vt -11.8235 0.223747
vt -13.89839 -1.368669
vt -11.82351 -1.530156
vt -9.742104 -1.530213
vt -7.417578 -1.512833

vn 0 0 1
vn -1 0 0
vn 0 0 -1
vn 1 0 0
vn 0.07617995 -0.9969383 -0.01762431
vn 0 -1 0
vn 0 0.3560449 0.9344689
vn 0.1406022 0.2998265 0.9313409
vn 0.2812043 0.243608 0.9282129
vn 0.9967681 -0.0803334 0
vn 0.9459414 -0.1821299 -0.1718686
vn 0.8951149 -0.2839263 -0.3437372
vn -0.9783146 0.2071245 0
vn -0.938732 0.2234133 0.18308
vn -0.8991495 0.239702 0.36616
vn 0 -0.3000441 -0.9539254
vn -0.1742058 -0.3009372 -0.9206709
vn -0.3484116 -0.3018304 -0.8874164
vn 0.4489565 0.3889322 0.8044687
vn 0.3253492 0.5499455 0.7390718
vn 0.2017419 0.7109587 0.673675
vn 0.5423968 -0.8346577 0.09566746
vn 0.665584 -0.7007317 0.1667574
vn 0.7887712 -0.5668057 0.2378473
vn -0.7722771 0.6232588 0.1230314
vn -0.8119856 0.5701001 0.01853704
vn -0.8516942 0.5169413 -0.08595731
vn -0.6649092 -0.5760135 -0.4755042
vn -0.4978086 -0.6694447 -0.5155346
vn -0.3307079 -0.762876 -0.555565
vn 0.5895771 0.7819382 0.2024142
vn 0.4432718 -0.6097687 0.6570329
vn -0.3416688 0.5936315 -0.7286041
vn -0.5183794 -0.792553 -0.3211582
vn 0.7442711 0.6229059 -0.2409331
vn 0.7386498 0.6215255 -0.2601889
vn 0.7330285 0.6201451 -0.2794448
vn -0.4384347 -0.2404173 0.8660107
vn -0.004945606 -0.2097524 0.8758028
vn 0.4285435 -0.1790876 0.8855948
vn -0.02948675 0.4983902 -0.8664512
vn -0.2046754 0.2852243 -0.8943413
vn -0.3798641 0.07205839 -0.9222315
vn -0.755222 -0.5039064 0.4191875
vn -0.8008349 -0.4694252 0.363176
vn -0.8464477 -0.434944 0.3071645
vn 0.9483436 7.002217E-06 -0.3172449
vn 0.3441595 9.080127E-07 0.9389113
vn -0.344161 -1.057161E-06 -0.9389107
vn -0.9483435 -8.199047E-06 0.3172455

usemtl ProBuilderDefault
f 3/3/1 4/4/1 2/2/1 1/1/1
f 4/7/2 6/8/2 5/6/2 2/5/2
f 6/11/3 8/12/3 7/10/3 5/9/3
f 8/14/4 3/7/4 1/5/4 7/13/4
f 11/17/5 12/18/5 10/16/5 9/15/5
f 1/1/6 2/2/6 5/20/6 7/19/6
f 13/23/8 14/24/9 4/22/8 3/21/7
f 15/27/11 13/28/12 3/26/11 8/25/10
f 14/31/14 16/32/15 6/30/14 4/29/13
f 16/35/17 15/36/18 8/34/17 6/33/16
f 17/39/20 18/40/21 14/38/20 13/37/19
f 19/43/23 17/44/24 13/42/23 15/41/22
f 18/47/26 20/48/27 16/46/26 14/45/25
f 20/51/29 19/52/30 15/50/29 16/49/28
f 21/55/31 22/56/31 18/54/31 17/53/31
f 23/59/32 21/60/32 17/58/32 19/57/32
f 22/63/33 24/64/33 20/62/33 18/61/33
f 24/67/34 23/68/34 19/66/34 20/65/34
f 25/71/36 26/72/37 22/70/36 21/69/35
f 27/75/39 25/76/40 21/74/39 23/73/38
f 26/79/42 28/80/43 24/78/42 22/77/41
f 28/83/45 27/84/46 23/82/45 24/81/44
f 29/87/47 30/88/47 26/86/47 25/85/47
f 31/91/48 29/92/48 25/90/48 27/89/48
f 30/95/49 32/96/49 28/94/49 26/93/49
f 32/99/50 31/100/50 27/98/50 28/97/50
f 9/101/47 10/102/47 30/88/47 29/87/47
f 11/103/48 9/104/48 29/92/48 31/91/48
f 10/106/49 12/107/49 32/105/49 30/95/49
f 12/108/50 11/109/50 31/100/50 32/99/50

