# ProBuilder 4.1.0
# https://unity3d.com/unity/features/worldbuilding/probuilder
# 8/10/2019 11:30:31 PM

mtllib ./World1Base30.mtl
o World1Base30

g World1Base30
v -42.09133 -0.6958806 -61.91079
v -44.07277 -1.345746 -64.01741
v -41.87378 1.07 -62.63366
v -43.27817 1.07 -64.12677
v -50.25579 -4.248696 -87.22644
v -41.95005 -5.655004 -84.36345
v -47.14105 -4.894852 -95.04955
v -38.8353 -6.301164 -92.18658
v -40.59737 -1.345746 -66.87507
v -38.61592 -0.6958806 -64.76844
v -40.81491 1.07 -66.15219
v -39.41053 1.07 -64.65908
v -47.83955 0.447738 -66.56414
v -45.8703 0.447738 -68.72808
v -47.83955 2.863484 -66.56414
v -45.8703 2.863484 -68.72808
v -52.38005 3.385486 -75.72218
v -49.74846 3.385486 -75.92331
v -52.38005 5.801232 -75.72218
v -49.74846 5.801232 -75.92331
v -48.07171 3.385486 -85.46399
v -45.243 3.385486 -83.29138
v -48.07171 5.801232 -85.46399
v -45.243 5.801232 -83.29138
v -45.23392 -0.7370545 -89.23161
v -43.30744 -0.02104824 -87.83577
v -44.47272 0.6989921 -91.01884
v -42.54623 1.414999 -89.62299
v -46.55219 -2.896754 -88.92048
v -42.59699 -1.650369 -87.4612
v -45.4504 -3.573122 -91.50734
v -41.4952 -2.326741 -90.04807

vt 2.342956 -1.870102
vt -0.5400302 -2.559079
vt 1.914903 0.002058092
vt -0.1284669 -0.05181139
vt -16.14063 -16.43322
vt -7.265251 -17.0558
vt -16.23933 -24.87777
vt -7.363955 -25.50037
vt 0.4752141 -1.603513
vt -2.411114 -0.9286706
vt 0.1395696 0.9050812
vt -1.906171 0.9398324
vt 1.014682 -1.277335
vt -3.484723 -1.277335
vt 0.3314629 0.5378503
vt -2.857575 0.5378506
vt -0.3472252 3.402376
vt 1.529929 2.578993
vt -1.819818 0.5736961
vt 0.05733681 -0.2496891
vt 2.309401 0.03483887
vt -0.4150611 -1.132897
vt 0.2719771 4.046515
vt -2.452485 2.87878
vt -1.598413 3.311697
vt 0.353374 -0.7423351
vt -6.406262 2.430973
vt -5.500851 -0.3466531
vt -1.461481 0.5257045
vt -2.138594 -1.928007
vt -6.623372 2.347374
vt -6.623372 -0.03099344
vt 0.1750417 -1.646357
vt 0.06595962 0.8822404
vt 5.736518 0.2309095
vt 5.736518 2.53884
vt 0.3473502 -0.388282
vt 1.75553 2.473011
vt 6.284865 -0.7816722
vt 7.206516 1.991835
vt -6.52063 2.260172
vt -5.595282 -0.5154966
vt -14.79835 -4.417817
vt -12.5495 -5.691938
vt -3.69531 2.793484
vt -3.69531 0.377738
vt -13.91714 5.731232
vt -13.91714 3.315486
vt 4.866686 0.377738
vt 4.866686 2.793484
vt 13.04051 3.315486
vt 13.04051 5.731232
vt 6.325852 -0.7154859
vt 7.232771 2.066259
vt 13.33069 -5.851051
vt 15.53474 -4.550212
vt -14.44763 -4.52247
vt -12.10531 -5.738722
vt -14.30122 -15.17344
vt -10.84739 -14.28304
vt -4.323467 5.731232
vt -4.323467 3.315486
vt -14.97545 5.731232
vt -14.97545 3.315486
vt 3.91434 3.315486
vt 3.91434 5.731232
vt 12.55076 3.315486
vt 12.55076 5.731232
vt 12.10531 -5.738722
vt 14.44763 -4.52247
vt 10.84739 -14.28304
vt 14.30122 -15.17344
vt -14.67927 -11.57194
vt -11.30483 -10.41654
vt -12.69202 -17.51284
vt -10.5786 -16.34403
vt -12.49766 5.731232
vt -12.49766 3.315486
vt -19.1165 0.6289921
vt -17.20268 -0.8070545
vt 14.28298 3.315486
vt 14.28298 5.731232
vt 19.2224 -0.09104824
vt 21.16498 1.344999
vt 11.6331 -10.01617
vt 15.04123 -11.06803
vt 10.92191 -18.14606
vt 13.09451 -19.17047
vt -19.63353 5.578018
vt -17.2855 6.389897
vt -20.34199 3.129139
vt -16.51904 5.066094
vt -23.74172 -1.548466
vt -21.83212 -3.028075
vt -24.00707 -5.950176
vt -21.24307 -5.417973
vt 14.19857 7.15973
vt 16.01782 8.749126
vt 14.41721 5.356421
vt 17.05043 5.167814
vt 13.90345 -3.272386
vt 16.27602 -4.009447
vt 13.23272 -7.124152
vt 17.36452 -8.136202
vt 14.52308 -18.83913
vt 10.13194 -19.04977
vt 17.53305 -15.78065
vt 9.496816 -15.72216
vt 14.71347 -21.24699
vt 14.55759 -18.35926
vt 17.88233 -23.91362
vt 17.53891 -15.58436
vt 20.01249 1.373639
vt 22.81187 0.647876
vt 17.25805 -2.923435
vt 25.65784 -3.739144
vt 4.55022 -14.80266
vt 8.68996 -16.28221
vt 2.273119 -19.52062
vt 10.93367 -19.13098

vn -0.7360463 0.3321355 0.5898491
vn -0.7195866 0.296676 0.6255975
vn -0.7031269 0.2612164 0.661346
vn -0.1713325 -0.9851255 0.01315196
vn 0.6585709 0.2695449 -0.702588
vn 0.6708409 0.3083595 -0.6725532
vn 0.6831108 0.3471742 -0.6425183
vn 0.6178678 0.2314877 0.7514338
vn 0 1 0
vn 0.1395383 -0.9755666 0.1697026
vn -0.2416372 -0.9247975 -0.2938724
vn -0.2424994 -0.9345555 -0.2576692
vn -0.2433616 -0.9443135 -0.2214659
vn -0.4095125 0.175231 0.8953176
vn -0.4848062 0.08761548 0.8618713
vn -0.5600999 0 0.8284251
vn 0.4046176 0.295412 -0.8654573
vn 0.4293069 0.147706 -0.8782305
vn 0.4539962 0 -0.8910037
vn 0.2070667 0.9453601 0.2518287
vn 0.2280791 0.9434692 0.2392544
vn 0.2490914 0.9415783 0.2266802
vn -0.2180408 -0.9555556 -0.1984233
vn -0.1229663 -0.9430864 -0.2816764
vn -0.02789185 -0.9306173 -0.3649294
vn -0.8959296 0 0.4441959
vn 0.8802769 0 -0.4744604
vn 0.2633091 0.9344791 0.2396186
vn 0.1429362 0.9448218 0.2674164
vn 0.02256344 0.9551646 0.2952143
vn 0 -1 0
vn -0.914554 0 -0.4044639
vn 0.8531401 0 0.5216818
vn -0.4008656 -0.7529296 0.5219233
vn -0.253953 -0.7849129 0.5443443
vn -0.1070404 -0.8168962 0.5667653
vn -0.8392475 0 -0.5437496
vn -0.8502111 -0.0742604 -0.5149384
vn -0.8611748 -0.1485208 -0.4861272
vn 0.920025 0 0.3918597
vn 0.3348888 0.8353049 -0.4360222
vn 0.2449926 0.8054426 -0.5239606
vn 0.1550964 0.7755802 -0.6118991
vn -0.6255972 0.4714118 0.62161
vn -0.4934022 0.2639443 0.7761919
vn -0.3612072 0.05647679 0.9307737
vn -0.9475574 0.2408685 -0.2100413
vn -0.8692689 0.3296894 -0.3281793
vn -0.7909804 0.4185103 -0.4463174
vn 0.6543427 0.4285514 0.6230404
vn 0.7856398 0.3241364 0.4780653
vn 0.9169369 0.2197214 0.3330903
vn 0.5105908 0.2373068 -0.8264276
vn 0.4240733 0.133818 -0.8836222
vn 0.3375559 0.03032924 -0.9408168
vn -0.319179 0.9459707 0.05713318
vn -0.2466387 0.7653641 0.4247195
vn -0.1740985 0.5847574 0.7923058
vn -0.1171464 0.9474689 -0.2976228
vn -0.2728903 0.9088912 -0.2700829
vn -0.4286343 0.8703135 -0.242543
vn 0.8878298 0.3626007 0.2833354
vn 0.8733722 0.3858026 0.295763
vn 0.8589145 0.4090044 0.3081905
vn 0.1368695 0.5388482 -0.8312096
vn 0.2179376 0.6886628 -0.6433938
vn 0.2990057 0.8384774 -0.455578

usemtl ProBuilderDefault
f 3/3/2 4/4/3 2/2/2 1/1/1
f 7/7/4 8/8/4 6/6/4 5/5/4
f 11/11/6 12/12/7 10/10/6 9/9/5
f 12/15/8 3/16/8 1/14/8 10/13/8
f 12/19/9 11/20/9 4/18/9 3/17/9
f 1/23/10 2/24/10 9/22/10 10/21/10
f 13/27/12 14/28/13 9/26/12 2/25/11
f 15/31/15 13/32/16 2/30/15 4/29/14
f 14/35/18 16/36/19 11/34/18 9/33/17
f 16/39/21 15/40/22 4/38/21 11/37/20
f 17/43/24 18/44/25 14/42/24 13/41/23
f 19/47/26 17/48/26 13/46/26 15/45/26
f 18/51/27 20/52/27 16/50/27 14/49/27
f 20/55/29 19/56/30 15/54/29 16/53/28
f 21/59/31 22/60/31 18/58/31 17/57/31
f 23/63/32 21/64/32 17/62/32 19/61/32
f 22/67/33 24/68/33 20/66/33 18/65/33
f 24/71/9 23/72/9 19/70/9 20/69/9
f 25/75/35 26/76/36 22/74/35 21/73/34
f 27/79/38 25/80/39 21/78/38 23/77/37
f 26/83/40 28/84/40 24/82/40 22/81/40
f 28/87/42 27/88/43 23/86/42 24/85/41
f 29/91/45 30/92/46 26/90/45 25/89/44
f 31/95/48 29/96/49 25/94/48 27/93/47
f 30/99/51 32/100/52 28/98/51 26/97/50
f 32/103/54 31/104/55 27/102/54 28/101/53
f 5/107/57 6/108/58 30/106/57 29/105/56
f 7/111/60 5/112/61 29/110/60 31/109/59
f 6/115/63 8/116/64 32/114/63 30/113/62
f 8/119/66 7/120/67 31/118/66 32/117/65

