# ProBuilder 4.1.0
# https://unity3d.com/unity/features/worldbuilding/probuilder
# 7/10/2019 9:33:40 PM

mtllib ./World1Base26.mtl
o World1Base26

g World1Base26
v 13.33 -14.04265 8.890125
v 10.82571 -14.04265 8.890125
v 13.33 -12.71633 3.73
v 10.82571 -12.71633 3.73
v 4.224577 -14.04265 7.649794
v 5.116674 -15.43671 0.8434319
v 4.224577 -12.71633 2.489668
v 5.116674 -12.71633 0.8434319
v 12.28888 -12.27755 -12.64795
v 18.70802 -12.27755 -12.64795
v 12.28888 -11.18093 -12.64795
v 18.70802 -11.18093 -12.64795
v 13.33 -15.43671 1.857586
v 13.33 -12.71633 1.857586
v 10.82571 -12.71633 1.857586
v 10.82571 -15.43671 1.857586
v 7.332586 -14.04265 8.890125
v 7.332586 -15.43671 1.857586
v 10.82571 -11.26203 9.855207
v 10.82571 -12.58835 15.01533
v 7.332586 -11.26203 9.855207
v 7.332586 -12.58835 15.01533
v 7.332632 -13.90131 -12.64795
v 7.332632 -11.18093 -12.64795
v 7.332586 -12.71633 1.857586
v 7.332586 -12.71633 3.73
v 5.116758 -13.90131 -9.664925
v 5.116758 -11.18093 -9.664925
v 10.82571 -12.27755 -1.188869
v 18.70802 -12.27755 -1.188869
v 7.332609 -13.90131 -1.188869
v 18.70802 -11.18093 -1.188869
v 10.82571 -11.18093 -1.188869
v 7.332609 -11.18093 -1.188869
v 5.116716 -13.90131 -2.203016
v 5.116716 -11.18093 -2.203016
v 13.63924 -18.39405 -5.279094
v 15.89449 -18.39405 -5.279094
v 14.05787 -18.39405 -8.55772
v 15.89449 -18.39405 -8.55772
v -5.787504 8.950453 15.91413
v -11.36784 8.549433 15.96794
v -8.265814 9.016321 13.23048
v -13.24735 8.615297 13.33249
v 3.651402 -11.53712 -4.812074
v 3.22098 -12.88404 -4.771739
v 3.437387 -11.53713 -7.096199
v 3.006966 -12.88405 -7.055864
v 0.1250134 -8.626509 -5.149156
v -0.928297 -9.39879 -4.605827
v -0.488615 -9.276115 -7.262094
v -1.541918 -10.0484 -6.718763
v -6.01161 -0.8570938 -1.890378
v -7.012774 -2.30513 -1.562366
v -7.280367 -0.1250153 -3.655979
v -8.281523 -1.573053 -3.327966
v -5.981783 1.319365 4.560944
v -6.997789 0.08188629 4.372384
v -7.295443 2.611704 3.960537
v -8.311434 1.37422 3.771975
v -5.981813 3.173216 13.37092
v -6.99782 2.459784 13.62494
v -7.295473 3.908529 12.15029
v -8.311464 3.195093 12.40431
v -4.949144 5.862921 15.9141
v -10.52948 4.893438 15.96791
v -7.427454 6.022154 13.23045
v -12.40899 5.052664 13.33246
v 13.05834 -12.5995 -4.4346
v 16.47539 -12.5995 -4.4346
v 13.69264 -12.5995 -9.402214
v 16.47539 -12.5995 -9.402214
v 13.63924 -17.38222 -5.279094
v 15.89449 -17.38222 -5.279094
v 14.05787 -17.38222 -8.55772
v 15.89449 -17.38222 -8.55772

vt 0 4.843995
vt 2.504292 4.843995
vt 0 -0.4838586
vt 2.504292 -0.4838586
vt 4.571827 2.989546
vt -2.2814 1.540726
vt -0.5746256 4.36797
vt -2.2814 4.158276
vt 1.041117 2.382454
vt -5.378021 2.382454
vt 1.041117 3.479067
vt -5.378021 3.479067
vt 1.872414 -0.7767086
vt -5.160126 0.6173477
vt 1.872414 1.943668
vt 0 1.943668
vt 0 0
vt 2.504292 0
vt 0 -1.872414
vt 2.504292 -1.872414
vt 0 -1.987703
vt -2.504292 -1.987703
vt 0 5.181676
vt -2.504292 5.181676
vt -5.997414 5.181676
vt -5.997414 -1.987703
vt 2.504292 5.086484
vt 2.504292 10.41434
vt 5.997414 5.086484
vt 5.997414 10.41434
vt 5.997368 0.7586899
vt 5.997368 3.479067
vt 5.997414 -1.872414
vt 5.997414 0
vt -6.027421 5.089848
vt -5.917482 -2.078689
vt -9.12575 3.82553
vt -8.126493 -3.107481
vt 5.767776 -0.6305748
vt 5.903114 4.69556
vt 8.859563 -1.91081
vt 8.994901 3.415325
vt -9.571187 0.7586899
vt -9.571187 3.479067
vt -5.855206 0.7586899
vt -5.855206 3.479067
vt 8.213326 -2.886568
vt 9.105423 -1.240332
vt 2.504292 0.7406369
vt 0 0.7406369
vt 2.504292 5.129395
vt -5.378021 5.129395
vt -5.997414 -1.322487
vt -2.504292 -1.322487
vt -5.997391 -4.733988
vt -2.504292 -5.464788
vt 0.9228735 -0.7767086
vt 0.9228735 1.943668
vt 7.103812 2.382454
vt 7.103812 3.479067
vt 0 -2.546835
vt 2.504292 -2.546835
vt -5.378021 -5.958336
vt 2.504292 -5.958336
vt 5.997414 -2.546835
vt 5.997391 -5.958336
vt -8.177753 -3.071113
vt -6.018538 -1.941262
vt -7.832615 -6.465103
vt -5.673419 -5.335261
vt 5.407104 -3.10975
vt 7.56632 -4.2396
vt 5.061985 -6.503749
vt 7.221182 -7.633591
vt -2.886455 1.943668
vt -2.886455 -0.7767086
vt -5.932903 3.479067
vt -5.932903 0.7586899
vt 0.3092375 -9.009094
vt 2.564492 -9.009094
vt 0.7278748 -12.28772
vt 2.564492 -12.28772
vt -5.118705 -4.918866
vt -1.266647 -4.918866
vt -5.118684 -16.37794
vt 0.06018057 -16.37794
vt 4.918869 2.382454
vt 4.918869 3.479067
vt 16.37794 2.382454
vt 16.37794 3.479067
vt -5.378021 -4.918869
vt 2.504292 -4.918869
vt -5.378021 -16.37794
vt 1.041117 -16.37794
vt 5.997391 -4.918869
vt 5.997368 -16.37794
vt -8.213284 -5.933016
vt -5.997391 -4.918869
vt -8.213242 -13.39492
vt -5.997368 -16.37794
vt 8.213284 -5.933016
vt 8.213242 -13.39492
vt 17.39751 9.905735
vt 22.99223 9.959764
vt 19.86493 7.211266
vt 24.86236 7.317099
vt -6.125208 3.397974
vt -11.28533 2.071653
vt 5.997414 0.4490021
vt 2.504292 0.4490021
vt 5.997414 6.744491
vt 2.504292 6.744491
vt -2.504292 5.163167
vt -5.997414 5.163167
vt -2.504292 11.45866
vt -5.997414 11.45866
vt 5.160126 0.6173477
vt 11.28533 2.071653
vt 6.125208 3.397974
vt -9.194901 3.479067
vt -9.194901 0.7586899
vt -12.18728 3.122875
vt -12.36288 1.775955
vt 7.312634 -13.39492
vt 7.312675 -5.93301
vt 9.029365 -10.82619
vt 8.820006 -8.542068
vt -7.595898 -5.933007
vt -7.595861 -13.39492
vt -9.747327 -8.501731
vt -9.935903 -10.78586
vt -5.251283 0.7586899
vt -5.251283 3.479067
vt -1.895925 1.775948
vt -2.197931 3.122868
vt -10.1417 3.50058
vt -10.56919 2.152123
vt -13.68143 6.414518
vt -14.70267 5.614406
vt 10.12726 -10.91964
vt 9.941992 -8.633008
vt 14.65778 -11.08572
vt 14.45172 -8.934365
vt -8.892359 -8.794078
vt -9.056481 -11.08233
vt -14.31116 -8.627866
vt -14.36485 -10.79053
vt 9.460342 1.836078
vt 9.028091 3.183016
vt 14.02168 4.671772
vt 12.9296 5.446441
vt -7.603793 5.939076
vt -8.788969 5.166777
vt -14.55182 13.70867
vt -15.59121 12.2595
vt 16.48945 8.183743
vt 14.35786 9.031893
vt 16.8353 20.13176
vt 14.66991 19.4454
vt -14.16816 -9.81918
vt -14.1978 -12.11311
vt -23.42483 -6.515008
vt -24.86032 -8.254821
vt 8.48662 4.702974
vt 7.301447 5.475269
vt 16.03099 13.17846
vt 14.99024 14.62554
vt 1.479262 0.9844322
vt 0.9504023 -0.7264262
vt -4.82509 3.555923
vt -4.851733 1.958385
vt 13.51248 22.29838
vt 11.43672 21.32152
vt 6.289894 25.95015
vt 5.305622 24.28176
vt -11.79475 20.60617
vt -13.88313 21.55573
vt -6.197149 23.70232
vt -7.20254 25.3591
vt -1.261351 -0.6459934
vt -1.835853 1.050081
vt 5.607374 2.806121
vt 5.528249 4.399083
vt -4.2114 0.173683
vt -4.204301 -1.438498
vt -12.88431 2.588871
vt -13.3129 1.428784
vt 2.830131 26.57254
vt 2.041585 24.80209
vt -5.269093 28.34915
vt -6.67101 27.04815
vt -3.994177 24.25369
vt -4.877417 25.97885
vt 5.016267 27.42798
vt 3.52903 28.64249
vt 3.853217 -1.341761
vt 3.859876 0.2704167
vt 12.35059 1.030448
vt 11.92159 2.190409
vt -2.752976 20.7185
vt -3.987207 21.00565
vt -0.20271 23.59336
vt -5.036533 25.01747
vt 6.232626 24.79716
vt 4.459793 24.01397
vt 5.468818 27.04843
vt 1.826005 26.80532
vt -26.33809 10.11467
vt -27.8412 8.891166
vt -30.62406 12.46313
vt -32.29593 9.774122
vt 23.0544 17.78276
vt 22.00723 18.49633
vt 27.25556 19.64069
vt 22.38353 20.58933
vt -18.39058 20.49293
vt -23.97118 19.52345
vt -19.22891 23.58047
vt -24.8095 23.17945
vt 6.906734 24.67014
vt 3.253939 24.50751
vt 7.469897 27.72803
vt 3.817102 27.65683
vt -3.644496 24.12358
vt -6.881353 24.28559
vt -4.124918 27.84357
vt -7.361776 27.91383
vt 25.92206 19.67062
vt 20.93949 20.64013
vt 26.76026 23.2333
vt 21.77769 23.63434
vt -2.504292 -4.659679
vt 5.378021 -4.659679
vt -0.2716618 -7.92134
vt 3.145391 -7.92134
vt -1.440575 -16.42206
vt -2.881337 -4.960148
vt -0.002187694 -13.17553
vt -0.6267707 -8.206684
vt 5.663002 -4.918869
vt 5.663002 -16.37794
vt 3.407279 -8.1646
vt 3.407279 -13.13221
vt 5.378021 -16.53313
vt -1.041117 -16.53313
vt 3.145391 -13.27147
vt 0.3626375 -13.27147
vt -0.2716618 0.6094351
vt 3.145391 0.6094351
vt 0.3092375 -4.24727
vt 2.564492 -4.24727
vt -13.07238 2.177945
vt -8.064437 2.177945
vt -12.28095 -2.627741
vt -8.975706 -2.627741
vt 8.1646 2.424715
vt 13.13221 2.424715
vt 9.009094 -2.393154
vt 12.28772 -2.393154
vt -3.145391 4.312569
vt -0.3626375 4.312569
vt -2.564492 -0.5441366
vt -0.7278748 -0.5441366
vt 0.3092375 -2.722219
vt 2.564492 -2.722219
vt 0.3092375 -3.734056
vt 2.564492 -3.734056
vt -12.28095 -2.722219
vt -8.975706 -2.722219
vt -12.28095 -3.734056
vt -8.975706 -3.734056
vt 9.009094 -2.722219
vt 12.28772 -2.722219
vt 9.009094 -3.734056
vt 12.28772 -3.734056
vt -2.564492 -2.722219
vt -0.7278748 -2.722219
vt -2.564492 -3.734056
vt -0.7278748 -3.734056

vn 0 0.9685187 0.2489409
vn -0.9596516 -0.2723394 -0.07000013
vn -0.9194286 -0.1361697 -0.2732213
vn -0.8792056 0 -0.4764426
vn 0 0 -1
vn 1 0 0
vn 0 1 0
vn 0 -0.9809132 0.1944459
vn -0.07736608 -0.9779732 0.1938631
vn -0.08193403 -0.978066 0.1914343
vn -0.08650199 -0.9781587 0.1890055
vn -0.09885965 0.9637743 0.2477214
vn -0.8027548 0 -0.5963094
vn 0 -0.6941498 -0.7198306
vn 0 -0.8929957 -0.4500654
vn 0.153542 -0.7768029 -0.5675578
vn 0.307084 -0.6606101 -0.6850501
vn 0.4928791 0 0.8700978
vn 0 0.8929956 0.4500654
vn 0.201745 -0.8746346 -0.4408098
vn -0.2017451 0.8746345 0.4408099
vn -1 0 -1.377397E-05
vn 0 -1 0
vn 0.4215316 -0.9068137 8.419606E-07
vn 0.3663113 -0.9281817 0.01986155
vn 0.3110909 -0.9495497 0.03972226
vn -0.07053164 0.9934846 0.08951927
vn -0.07443517 0.9935697 0.08511043
vn -0.07833869 0.993655 0.08070157
vn 0 0.972952 -0.2310076
vn 0 -0.972952 0.2310076
vn -0.871901 0 0.4896822
vn -0.800123 0.1259166 0.5634685
vn -0.728345 0.2518331 0.6372548
vn -0.2074887 0.9782375 -1.166802E-06
vn -0.2437324 0.968943 0.01311418
vn -0.2799761 0.9596486 0.02622953
vn -0.4728296 -0.8811539 -2.658934E-06
vn -0.4346011 -0.899246 0.01856953
vn -0.3963727 -0.9173381 0.03714173
vn -0.7775806 0 -0.6287834
vn -0.8018454 0.1244259 -0.5671834
vn -0.8261104 0.2488517 -0.5055833
vn -0.05592823 0.04773724 0.9972929
vn 0.1075032 0.1632151 0.959332
vn 0.2709347 0.278693 0.921371
vn 0.5000003 0.8647571 -0.04685108
vn 0.5540943 0.7782641 -0.2180789
vn 0.6081883 0.6917711 -0.3893066
vn -0.640609 -0.7655175 0.06002527
vn -0.554594 -0.7812527 0.220567
vn -0.468579 -0.796988 0.3811088
vn -0.07713121 -0.00520821 -0.9970074
vn -0.1304629 -0.1953459 -0.9506159
vn -0.1837946 -0.3854836 -0.9042245
vn 0.4623241 -0.006744579 0.8866854
vn 0.4256631 -0.03373574 0.9029593
vn 0.3890021 -0.0607269 0.9192332
vn 0.6596311 0.6429479 -0.3892361
vn 0.6855887 0.6521947 -0.3131477
vn 0.7115462 0.6614416 -0.2370593
vn -0.6099431 -0.6902089 0.3893341
vn -0.6608785 -0.675616 0.3133785
vn -0.7118139 -0.661023 0.2374229
vn -0.4551316 -0.005689597 -0.890406
vn -0.4257591 0.03047486 -0.903034
vn -0.3963866 0.06663931 -0.915662
vn 0.8279112 -0.5325797 0.1758466
vn 0.7780246 -0.5845674 0.2150186
vn 0.7281379 -0.6365551 0.2541905
vn 0.7111306 0.6620916 -0.2364911
vn 0.7222579 0.6526008 -0.2284227
vn 0.7333851 0.6431099 -0.2203543
vn -0.7265123 -0.636882 0.2579947
vn -0.7307049 -0.6321642 0.2576797
vn -0.7348976 -0.6274464 0.2573647
vn -0.8250301 0.5206689 -0.2196118
vn -0.7797577 0.5794269 -0.2251871
vn -0.7344853 0.638185 -0.2307625
vn 0.7556376 -0.6409526 0.134876
vn 0.675843 -0.7093146 0.16737
vn 0.5960484 -0.7776765 0.199864
vn 0.7218777 0.6835051 -0.1082286
vn 0.6581217 0.7352331 -0.1369119
vn 0.5943657 0.786961 -0.1655953
vn -0.7295094 -0.6624445 0.1702451
vn -0.6620398 -0.7245883 0.1680967
vn -0.5945703 -0.7867321 0.1659484
vn -0.7555845 0.6409466 -0.1352017
vn -0.6732999 0.71884 -0.1306823
vn -0.5910152 0.7967333 -0.1261628
vn 0.5834826 -0.6649157 0.4662994
vn 0.3476913 -0.6325247 0.6291667
vn 0.1118999 -0.6001338 0.792034
vn 0.7352328 0.3442917 -0.583863
vn 0.7196406 0.3352219 -0.6073443
vn 0.7040483 0.3261521 -0.6308255
vn -0.5349296 -0.8421237 0.06839525
vn -0.4500077 -0.875066 0.136951
vn -0.3650859 -0.9080084 0.2055068
vn -0.2294037 -0.01979584 -0.97313
vn -0.1673238 0.2137621 -0.9306451
vn -0.1052439 0.4473201 -0.8881602
vn 0.009209848 0.002490564 0.9999545
vn 0.7253202 0.2030949 -0.6577713
vn 0.7240416 0.199677 -0.6602073
vn 0.7227629 0.1962591 -0.6626433
vn -0.8053999 -0.1846911 0.5632231
vn -0.8035824 -0.1866838 0.5651491
vn -0.801765 -0.1886766 0.567075
vn -0.01957907 -0.00459852 -0.9997978
vn -0.01980116 -0.005097236 -0.9997908
vn -0.02002325 -0.005595954 -0.9997839
vn 0 -0.9951164 0.09870828
vn -0.1743174 -0.9844379 -0.02225807
vn 0.1427271 -0.9897621 0
vn 0 -0.9951165 -0.09870827
vn 0 -0.173882 0.9847665
vn -0.987206 -0.09764645 -0.1260533
vn 0.9927046 -0.1205718 0
vn 0 -0.1738821 -0.9847665
vn 0 0 1
vn -0.9919464 0 -0.1266585

usemtl ProBuilderDefault
f 3/3/1 4/4/1 2/2/1 1/1/1
f 7/7/3 8/8/4 6/6/3 5/5/2
f 11/11/5 12/12/5 10/10/5 9/9/5
f 14/15/6 3/16/6 1/14/6 13/13/6
f 14/19/7 15/20/7 4/18/7 3/17/7
f 1/23/8 2/24/8 16/22/8 13/21/8
f 17/25/8 18/26/8 16/22/8 2/24/8
f 21/29/1 22/30/1 20/28/1 19/27/1
f 23/31/5 24/32/5 11/11/5 9/9/5
f 25/33/7 26/34/7 4/18/7 15/20/7
f 5/37/10 6/38/11 18/36/10 17/35/9
f 7/41/12 5/42/12 17/40/12 26/39/12
f 27/45/13 28/46/13 24/44/13 23/43/13
f 8/47/7 7/48/7 26/34/7 25/33/7
f 29/51/14 30/52/14 13/50/14 16/49/14
f 31/55/16 29/56/17 16/54/16 18/53/15
f 30/59/18 32/60/18 14/58/18 13/57/18
f 32/63/19 33/64/19 15/62/19 14/61/19
f 33/64/19 34/66/19 25/65/19 15/62/19
f 35/69/20 31/70/20 18/68/20 6/67/20
f 34/73/21 36/74/21 8/72/21 25/71/21
f 36/77/22 35/78/22 6/76/22 8/75/22
f 39/81/23 40/82/23 38/80/23 37/79/23
f 23/85/25 9/86/26 29/84/25 31/83/24
f 10/89/6 12/90/6 32/88/6 30/87/6
f 12/93/7 11/94/7 33/92/7 32/91/7
f 11/94/7 24/96/7 34/95/7 33/92/7
f 27/99/23 23/100/23 31/98/23 35/97/23
f 24/96/7 28/102/7 36/101/7 34/95/7
f 43/105/28 44/106/29 42/104/28 41/103/27
f 19/107/6 20/108/6 2/14/6 4/16/6
f 21/111/30 19/112/30 4/110/30 26/109/30
f 20/115/31 22/116/31 17/114/31 2/113/31
f 22/118/22 21/119/22 26/16/22 17/117/22
f 45/122/33 46/123/34 35/121/33 36/120/32
f 47/126/36 45/127/37 36/125/36 28/124/35
f 46/130/39 48/131/40 27/129/39 35/128/38
f 48/134/42 47/135/43 28/133/42 27/132/41
f 49/138/45 50/139/46 46/137/45 45/136/44
f 51/142/48 49/143/49 45/141/48 47/140/47
f 50/146/51 52/147/52 48/145/51 46/144/50
f 52/150/54 51/151/55 47/149/54 48/148/53
f 53/154/57 54/155/58 50/153/57 49/152/56
f 55/158/60 53/159/61 49/157/60 51/156/59
f 54/162/63 56/163/64 52/161/63 50/160/62
f 56/166/66 55/167/67 51/165/66 52/164/65
f 57/170/69 58/171/70 54/169/69 53/168/68
f 59/174/72 57/175/73 53/173/72 55/172/71
f 58/178/75 60/179/76 56/177/75 54/176/74
f 60/182/78 59/183/79 55/181/78 56/180/77
f 61/186/81 62/187/82 58/185/81 57/184/80
f 63/190/84 61/191/85 57/189/84 59/188/83
f 62/194/87 64/195/88 60/193/87 58/192/86
f 64/198/90 63/199/91 59/197/90 60/196/89
f 65/202/93 66/203/94 62/201/93 61/200/92
f 67/206/96 65/207/97 61/205/96 63/204/95
f 66/210/99 68/211/100 64/209/99 62/208/98
f 68/214/102 67/215/103 63/213/102 64/212/101
f 41/218/104 42/219/104 66/217/104 65/216/104
f 43/222/106 41/223/107 65/221/106 67/220/105
f 42/226/109 44/227/110 68/225/109 66/224/108
f 44/230/112 43/231/113 67/229/112 68/228/111
f 69/234/114 70/235/114 30/233/114 29/232/114
f 71/238/115 69/239/115 29/237/115 9/236/115
f 70/242/116 72/243/116 10/241/116 30/240/116
f 72/246/117 71/247/117 9/245/117 10/244/117
f 73/250/118 74/251/118 70/249/118 69/248/118
f 75/254/119 73/255/119 69/253/119 71/252/119
f 74/258/120 76/259/120 72/257/120 70/256/120
f 76/262/121 75/263/121 71/261/121 72/260/121
f 37/266/122 38/267/122 74/265/122 73/264/122
f 39/270/123 37/271/123 73/269/123 75/268/123
f 38/274/6 40/275/6 76/273/6 74/272/6
f 40/278/5 39/279/5 75/277/5 76/276/5

