# ProBuilder 4.1.0
# https://unity3d.com/unity/features/worldbuilding/probuilder
# 7/10/2019 5:08:07 PM

mtllib ./World1Base20.mtl
o World1Base20

g World1Base20
v 12.22092 -3.198839 7.426651
v -0.03837967 -2.748455 11.87503
v 10.95819 -1.583506 6.873922
v 0.433609 -1.196854 10.69284
v -11.61495 -0.3322182 15.07819
v -16.52315 0.06733513 8.212904
v -11.61495 1.251249 15.07819
v -16.52315 1.650803 8.212904
v -5.626554 -2.748455 1.414772
v 5.233685 -3.198839 -4.834035
v -4.363825 -1.196854 1.712738
v 4.959665 -1.583506 -3.65185
v 9.119555 -2.125887 6.069098
v 1.120872 -1.832031 8.971478
v 4.560677 -2.125887 -1.93049
v -2.525179 -1.832031 2.146597
v -6.819139 -0.3322182 11.54437
v -11.72734 0.06733513 4.679081
v -6.819139 1.251249 11.54437
v -11.72734 1.650803 4.679081
v 9.119551 -1.537031 6.069099
v 1.120869 -1.243176 8.971479
v 4.560673 -1.537031 -1.930488
v -2.525181 -1.243176 2.146599

vt 6.691677 -3.604421
vt -6.346929 -3.078956
vt 5.713149 -1.719805
vt -5.480466 -1.268696
vt 0.8057374 2.866621
vt -7.63361 3.266174
vt 0.8057374 4.450089
vt -7.63361 4.849642
vt 7.049288 -2.555136
vt -5.477834 -3.071318
vt 6.085721 -0.7768568
vt -4.668785 -1.219997
vt 6.198062 -2.533071
vt -7.913844 -2.533071
vt 5.306633 -0.7199777
vt -6.808407 -0.7199777
vt -5.62772 2.777642
vt 2.3762 5.680458
vt -1.070953 -5.223148
vt 6.020563 -1.14532
vt 1.776255 -8.144383
vt -9.092752 -1.894588
vt 8.760086 4.118242
vt -3.507299 8.567117
vt -3.436915 8.281262
vt -8.684872 -2.353756
vt -10.63505 7.945076
vt -15.38172 0.9558789
vt -5.236166 -1.484322
vt -6.063324 -3.312876
vt -12.37738 1.400755
vt -12.37738 0.05711934
vt 8.053715 -1.421307
vt 6.944626 0.2700422
vt 14.86421 1.648092
vt 14.86421 3.100726
vt 8.059236 -1.653471
vt 3.487711 7.443717
vt 15.93957 1.351547
vt 11.14132 8.305616
vt -10.35214 8.127653
vt -15.26962 1.257386
vt -15.14605 11.66404
vt -20.06354 4.793773
vt -13.15558 4.450089
vt -13.15558 2.866621
vt -19.11273 4.450089
vt -19.11273 2.866621
vt 13.0344 3.266174
vt 13.0344 4.849642
vt 18.99155 3.266174
vt 18.99155 4.849642
vt 15.31408 1.197118
vt 10.3966 8.067386
vt 20.108 4.733505
vt 15.19051 11.60377
vt -7.446971 3.587418
vt 3.08457 7.406731
vt -5.607779 2.782513
vt 2.396191 5.68519
vt -1.44788 -6.931261
vt -7.443007 3.596447
vt -1.047549 -5.209582
vt -5.603844 2.791476
vt 3.079388 7.408808
vt 7.87483 -1.572363
vt 2.391079 5.687239
vt 6.035614 -1.138451
vt 7.876776 -1.564135
vt -1.454107 -6.929801
vt 6.03757 -1.130187
vt -1.053903 -5.208093
vt -4.383145 1.661812
vt 4.125834 1.955667
vt -4.38315 1.072956
vt 4.12583 1.366812
vt -4.008636 1.661782
vt 5.198794 1.661782
vt -4.008636 1.072927
vt 5.198794 1.072927
vt -3.890663 1.955698
vt 3.84708 1.955698
vt -3.890663 1.366842
vt 3.847081 1.366842
vt -4.60323 1.955659
vt 3.571851 1.661803
vt -4.603228 1.366803
vt 3.571855 1.072948

vn 0.3090188 0.5151243 0.7994713
vn -0.8134851 0 0.5815856
vn -0.4198392 0.488561 -0.7648811
vn 0.7740541 0.4541461 -0.4411253
vn 0.03042412 0.9993867 -0.01733838
vn 0.03106198 0.9993703 -0.01713668
vn 0.03169983 0.9993539 -0.01693498
vn -0.03121018 -0.9993546 0.01778635
vn -0.03098217 -0.9993733 0.01710806
vn -0.03075416 -0.999392 0.01642977
vn -0.3379478 -0.9236861 0.1805416
vn -0.3340113 -0.9249573 0.1813083
vn -0.3300748 -0.9262286 0.1820749
vn 0.2729339 0.5291312 0.8034471
vn 0.1121136 0.2645656 0.9011301
vn -0.04870683 0 0.9988131
vn -0.2831773 0.3980237 -0.8725754
vn -0.3284202 0.1990118 -0.90007
vn -0.3736631 0 -0.9275646
vn 0.2993486 0.9406465 -0.1599207
vn 0.2991455 0.9407923 -0.159441
vn 0.2989424 0.9409382 -0.1589614
vn -0.02805629 -0.9988809 -0.03807565
vn 0.5932065 0 0.8050503
vn -0.5932068 0 -0.8050502
vn 0.0280563 0.9988809 0.03807564
vn 0.03152428 0.9994006 -0.01430779
vn 0.03365239 0.9992496 -0.01917814
vn 0.02881213 0.9994664 -0.01539228
vn 0.02990805 0.9993516 -0.02004887
vn -0.3410962 8.351511E-07 -0.9400284
vn -0.8688187 -7.232105E-06 0.4951304
vn 0.8820247 7.240154E-06 -0.4712032
vn 0.4987212 -1.192114E-06 0.8667625

usemtl ProBuilderDefault
f 3/3/1 4/4/1 2/2/1 1/1/1
f 7/7/2 8/8/2 6/6/2 5/5/2
f 11/11/3 12/12/3 10/10/3 9/9/3
f 12/15/4 3/16/4 1/14/4 10/13/4
f 15/19/6 16/20/7 14/18/6 13/17/5
f 1/23/9 2/24/10 9/22/9 10/21/8
f 17/27/12 18/28/13 9/26/12 2/25/11
f 19/31/15 17/32/16 2/30/15 4/29/14
f 18/35/18 20/36/19 11/34/18 9/33/17
f 20/39/21 19/40/22 4/38/21 11/37/20
f 5/43/23 6/44/23 18/42/23 17/41/23
f 7/47/24 5/48/24 17/46/24 19/45/24
f 6/51/25 8/52/25 20/50/25 18/49/25
f 8/55/26 7/56/26 19/54/26 20/53/26
f 21/59/27 22/60/27 4/58/27 3/57/27
f 23/63/28 21/64/28 3/62/28 12/61/28
f 22/67/29 24/68/29 11/66/29 4/65/29
f 24/71/30 23/72/30 12/70/30 11/69/30
f 13/75/31 14/76/31 22/74/31 21/73/31
f 15/79/32 13/80/32 21/78/32 23/77/32
f 14/83/33 16/84/33 24/82/33 22/81/33
f 16/87/34 15/88/34 23/86/34 24/85/34

