# ProBuilder 4.1.0
# https://unity3d.com/unity/features/worldbuilding/probuilder
# 7/10/2019 5:08:18 PM

mtllib ./World1Base21.mtl
o World1Base21

g World1Base21
v 22.9559 -6.118839 0.5668049
v 15.65156 -6.118839 3.310417
v 20.60496 -1.501835 -0.5690689
v 15.65156 -3.116467 3.310417
v -14.43298 -1.667542 19.6469
v -21.66837 -1.667542 7.026117
v -14.43298 8.625256 19.6469
v -21.66837 8.625256 7.026117
v 10.05669 -6.118839 -6.548128
v 17.36105 -6.118839 -9.29174
v 10.05669 -3.116467 -6.548128
v 17.36105 -1.501835 -9.29174
v 32.43852 -7.056139 22.61564
v 30.88455 -7.056139 21.31649
v 32.43852 -5.496367 22.61564
v 30.88455 -5.496367 21.31649
v 23.64529 -7.056139 -7.304433
v 23.39997 -7.056139 -1.420602
v 23.64529 -3.881735 -7.304433
v 23.39997 -3.881735 -1.420602
v 31.47379 -4.771049 -1.397055
v 28.42217 -4.771049 0.4788399
v 31.47379 -3.211277 -1.397055
v 28.42217 -3.211277 0.4788399
v 34.99758 -4.771049 10.2851
v 31.94597 -4.771049 12.16099
v 34.99758 -3.211277 10.2851
v 31.94597 -3.211277 12.16099
v 34.91719 -7.056139 19.91242
v 32.02646 -7.056139 17.797
v 34.91719 -5.496367 19.91242
v 32.02646 -5.496367 17.797
v 17.9253 -8.655622 9.310129
v 6.496748 -8.655622 -9.181604
v 17.9253 -3.116467 9.310129
v 6.496747 -3.116467 -9.181604
v -3.698475 -8.252008 16.83272
v -12.05431 -8.252008 3.312744
v -0.689579 -1.642956 14.5445
v -9.04541 -1.642956 1.024519
v 5.044151 -3.090719 -6.611439
v 14.35613 -3.090719 8.455627
v -7.619576 -1.890106 1.704491
v -0.8112411 -1.890106 12.72057
v -7.501474 -1.667542 14.61894
v -14.73685 -1.667542 1.998159
v -7.501474 1.318916 14.61894
v -14.73685 1.318916 1.998159
v -11.70118 0.5232315 3.371973
v -6.118351 0.5232315 12.40516
v -17.88643 0.5232315 7.594791
v -12.3036 0.5232315 16.62798
v 5.241798 -2.299482 -6.961156
v 14.84178 -2.299482 8.571901
v -18.37208 8.65839 7.665136
v -12.02145 1.426239 3.33103
v -6.265949 1.426239 12.64359
v -12.61658 8.65839 16.9777
v -7.813602 -1.061735 1.611979
v -0.7947044 -1.061735 12.96876

vt 3.357841 1.677464
vt -4.444781 1.677464
vt 1.556433 6.666332
vt -4.444781 4.456045
vt -5.874099 4.451298
vt -20.42178 4.451298
vt -5.874099 14.74409
vt -20.42178 14.74409
vt 6.215825 0
vt -1.586798 0
vt 6.215825 3.002373
vt -1.586798 4.617004
vt 19.21843 -0.9372997
vt 17.19293 -0.9372997
vt 19.21843 0.6224728
vt 17.19293 0.6224728
vt -0.3888145 -6.857852
vt 4.809124 -2.962327
vt 2.756434 -15.61659
vt 10.23381 -12.90442
vt -4.008409 -15.18436
vt -11.31276 -12.44075
vt 1.58645 -5.325819
vt -5.717898 -2.582207
vt -3.943784 -15.17914
vt 1.560872 -5.269948
vt 2.406773 -13.18162
vt 2.165405 -7.332297
vt 8.400232 4.617004
vt 8.400232 0
vt 1.809245 2.237104
vt 1.809245 -0.9372997
vt 5.301476 -0.7515324
vt 6.472412 4.421743
vt 7.282013 -1.801761
vt 7.282013 1.031307
vt 3.412125 -5.596992
vt 5.988804 -14.53951
vt -0.2537944 -6.469987
vt -0.4486574 -12.17632
vt 1.934615 -13.21348
vt 1.698562 -7.32927
vt 10.08952 -7.305721
vt 7.15322 -5.420514
vt 6.132559 2.237104
vt 6.132559 -0.9372997
vt -3.674707 2.907562
vt -3.674707 1.34779
vt -0.6878594 -0.9372997
vt -0.6878594 2.237104
vt 4.681541 1.34779
vt 4.681541 2.907562
vt -2.304707 -7.302505
vt -2.547938 -13.18642
vt -7.37146 -5.403035
vt -10.39705 -7.281062
vt 10.10433 -7.289679
vt 7.052721 -5.413784
vt 13.62813 4.392475
vt 10.57652 6.26837
vt 4.061085 2.907562
vt 4.061085 1.34779
vt -8.140959 2.907562
vt -8.140959 1.34779
vt -3.146383 1.34779
vt -3.146383 2.907562
vt 9.055659 1.34779
vt 9.055659 2.907562
vt -7.052721 -5.413784
vt -10.10433 -7.289679
vt -10.57652 6.26837
vt -13.62813 4.392475
vt 13.28831 3.514299
vt 10.269 5.441749
vt 13.54036 13.40621
vt 10.68022 11.44374
vt -4.278529 2.907562
vt -4.278529 1.34779
vt -13.90619 0.6224728
vt -13.90619 -0.9372997
vt 6.418764 1.34779
vt 6.418764 2.907562
vt 12.05535 -0.9372997
vt 12.05535 0.6224728
vt -9.570383 3.891442
vt -12.53291 1.877807
vt -10.19661 9.94128
vt -13.00296 11.65997
vt 13.54774 14.0198
vt 10.65701 11.90438
vt 11.06907 16.72302
vt 9.515099 15.42386
vt -1.177405 0.6224728
vt -1.177405 -0.9372997
vt -4.844999 0.6224728
vt -4.844999 -0.9372997
vt 8.034365 -0.9372997
vt 8.034365 0.6224728
vt 11.73446 -0.9372997
vt 11.73446 0.6224728
vt -10.65701 11.90438
vt -13.54774 14.0198
vt -9.515099 15.42386
vt -11.06907 16.72302
vt 5.067945 -1.337239
vt 16.40344 -1.337239
vt -1.272292 -4.058106
vt 20.45087 -4.351888
vt 4.440935 3.002373
vt 4.440935 0
vt -1.975173 3.002373
vt -1.975173 -2.536783
vt 16.49344 0
vt 16.49344 3.002373
vt 20.92158 -2.536783
vt 20.92158 3.002373
vt 11.31276 -12.44075
vt 5.717898 -2.582207
vt 14.87271 -15.07423
vt 3.444158 3.417505
vt -3.404785 3.392771
vt -14.83198 -15.0998
vt -25.03221 10.9157
vt -33.38705 -2.604885
vt -4.240671 3.002373
vt -4.240671 -2.536783
vt -23.57748 4.475883
vt -27.09345 -2.133169
vt 3.914898 -2.536781
vt 3.914899 3.002375
vt 26.28118 -2.133167
vt 22.50728 4.475885
vt 16.49205 -12.41337
vt 7.201175 2.666713
vt 29.20786 -4.090259
vt 22.41496 6.935343
vt -3.87282 6.089404
vt -19.76652 6.089405
vt -7.755332 12.99194
vt -22.29508 12.84779
vt -23.01706 2.778548
vt -26.30465 -4.08882
vt -29.77785 5.856184
vt -29.77785 2.982062
vt 32.51935 0.02426502
vt 29.16967 6.861564
vt 34.94379 6.836129
vt 34.94379 9.722891
vt 28.02 -6.231081
vt 21.86323 5.161969
vt 32.74125 -4.506537
vt 27.6927 4.835762
vt -28.87093 8.72632
vt -36.10631 -3.894464
vt -35.80244 13.75428
vt -43.03782 1.133493
vt -28.49383 7.437756
vt -28.49383 4.451298
vt -37.0569 14.74409
vt -37.0569 4.451298
vt 26.9401 4.451298
vt 26.9401 7.437756
vt 35.50318 4.451298
vt 35.50318 14.74409
vt 33.07064 -2.520651
vt 27.4878 6.512533
vt 39.25588 1.702168
vt 33.67305 10.73535
vt 15.09342 -15.10628
vt 4.180334 3.694265
vt 16.53436 -12.84875
vt 7.367368 2.943709
vt 42.11199 17.03211
vt 36.21185 7.445812
vt 38.75445 17.07558
vt 33.29914 8.055981
vt -23.08651 14.3524
vt -31.08538 22.27243
vt -20.75702 14.46874
vt -27.85737 22.27893
vt 35.65471 13.66837
vt 42.88974 1.047378
vt 33.83807 10.99912
vt 39.59328 1.686384
vt 36.41546 -6.613942
vt 30.04594 -7.855882
vt 33.91127 -4.913782
vt 29.09724 -6.788617
vt 21.9995 9.675127
vt 29.42742 9.75309
vt 22.32919 8.024941
vt 28.33901 7.69031
vt 28.60096 0.5570031
vt 13.80074 -10.79413
vt 27.26928 1.210369
vt 14.8371 -8.324571
vt 3.920449 2.446663
vt 22.50281 7.994574
vt 7.099804 1.664215
vt 22.70897 6.324452
vt -19.4129 0.6601854
vt -1.152679 0.6601852
vt -19.21932 -0.2058112
vt -1.506908 -0.2058117
vt -33.26314 15.38051
vt -25.57717 8.145543
vt -32.82817 7.242184
vt -25.34143 7.23673
vt 27.8865 6.498151
vt 35.47662 13.83362
vt 27.65161 5.582243
vt 35.04474 5.78232
vt 8.438026 16.67372
vt 19.38561 16.67372
vt 8.570968 8.526114
vt 19.19012 8.526114
vt -28.01105 11.16938
vt -23.49597 8.626712
vt -27.75029 10.24652
vt -23.37066 7.78013
vt 20.41172 7.969914
vt 25.84481 10.56063
vt 20.47521 7.107336
vt 25.74531 9.620332
vt -21.69225 9.308126
vt -6.076069 8.039633
vt -21.58413 8.459178
vt -6.436452 7.22874
vt 6.989191 3.937629
vt 23.22799 5.22816
vt 7.430596 3.11265
vt 23.18221 4.364461

vn 0.3254172 0.3788419 0.8663616
vn 0.471006 0.189421 0.8268211
vn 0.6165949 0 0.7872806
vn -0.8675463 0 0.4973564
vn -0.3516269 0 -0.9361402
vn -0.6414027 0 0.7672043
vn -0.2437515 0.9655919 0.09064991
vn -0.2110447 0.9721711 0.09592956
vn -0.1783379 0.9787503 0.1012092
vn 0 -1 0
vn -0.1779286 -0.9788488 0.1009769
vn -0.5551679 -0.6690809 0.03105035
vn -0.932407 -0.359313 -0.03887621
vn 0.301519 0 -0.9534602
vn 0.8923722 0.4511024 -0.01335881
vn 0.5919046 0.2255512 0.4716156
vn 0.291437 0 0.95659
vn 0.5925751 0.7747835 -0.2203755
vn 0.4713298 0.8556939 -0.1028895
vn 0.3500846 0.9366044 0.01459659
vn 0.2722794 -0.9621513 0.01135254
vn 0.2601783 -0.9214157 0.207456
vn 0.2480772 -0.8806801 0.4035594
vn 0.6023471 0 -0.7982343
vn -0.3537531 0 0.9353389
vn -0.1303036 0.9914593 -0.005432941
vn -0.08432391 0.9943875 -0.03390466
vn -0.03834418 0.9973158 -0.06237638
vn 0.9573932 0 -0.2887875
vn -0.9573932 0 0.2887874
vn 0 1 0
vn -0.1412265 -0.9629509 -0.2297402
vn 0.063062 -0.9273043 -0.2975381
vn 0.2673505 -0.8916577 -0.365336
vn 0.9999651 0 0.0083499
vn -0.999898 0 0.01428011
vn 0.2234479 0.9044022 0.3634938
vn 0.0288718 0.9321148 0.2949648
vn -0.1657043 0.9598275 0.2264359
vn 0.7370567 0 0.6758309
vn -0.9511867 0 -0.3086159
vn 0.810865 -0.3615732 -0.460177
vn 0.7623739 -0.4526826 -0.450691
vn 0.7138827 -0.5437919 -0.4412049
vn 0.9351015 0 -0.3543801
vn 0.5947139 0 -0.8039374
vn -0.01535981 -0.999837 0.009492906
vn 0.2706946 0 0.9626653
vn 0.2985933 0.08653891 0.9459419
vn 0.3264921 0.1730778 0.9292185
vn -0.5586244 -9.617815E-08 -0.8294207
vn -0.5548181 -0.01888512 -0.8315315
vn -0.5510117 -0.03777015 -0.8336423
vn 0.06722687 0.9968722 -0.04154859
vn -0.8114527 -0.300059 0.5015068
vn -0.8261348 -0.2731875 0.4917697
vn -0.8408169 -0.246316 0.4820326
vn 0.1285561 0.2716888 0.9537602
vn -0.1872643 0.1358444 0.9089987
vn -0.5030847 0 0.8642372
vn -0.1619169 -0.2562236 -0.9529598
vn -0.1652691 -0.1281118 -0.9693204
vn -0.1686213 0 -0.9856809
vn 0.4127737 0.8743783 -0.255109
vn 0.5871677 0 0.8094653
vn -0.5871676 0 -0.8094654
vn 0.2920608 0.9392118 -0.180504
vn 0.138776 0.647383 -0.7494241
vn 0.2217487 0.6597125 -0.7121674
vn 0.3047215 0.672042 -0.6749107
vn 0.7725526 0.3859617 0.5041785
vn 0.7710136 0.372586 0.5161332
vn 0.7694746 0.3592103 0.5280879
vn -0.0099002 0.9999349 0.005675695
vn -0.01065976 0.9999224 0.006366622
vn -0.01141933 0.9999099 0.007057549
vn 0.2757176 0.7338836 -0.6208017
vn 0.1700341 0.6862673 -0.6938014
vn 0.06435051 0.6386511 -0.7668011
vn 0.3834842 0.8744959 0.2969795
vn 0.3829254 0.8764219 0.29193
vn 0.3823667 0.8783481 0.2868805
vn -0.2044041 0.875586 -0.4376849
vn 0.1667008 0.9286412 0.3314157
vn -0.7772154 0.406452 0.4803467
vn 0.5849758 0.02791261 0.8105703
vn 0.5667868 0.1294565 0.8070561
vn 0.5485976 0.2310003 0.8035418
vn -0.418704 0.1672451 -0.8925896
vn -0.4912491 0.09052701 -0.8591948
vn -0.5637941 0.01380893 -0.8257999
vn 0.8493512 0.05524357 -0.5249292
vn 0.4721176 0.2063021 0.8570557
vn 0.1828222 0.2788208 -0.9427804
vn 0.5500107 0.2188385 0.8059764
vn -0.2387918 0.2830696 -0.9288973

usemtl ProBuilderDefault
f 3/3/2 4/4/3 2/2/2 1/1/1
f 7/7/4 8/8/4 6/6/4 5/5/4
f 11/11/5 12/12/5 10/10/5 9/9/5
f 15/15/6 16/16/6 14/14/6 13/13/6
f 12/19/8 11/20/9 4/18/8 3/17/7
f 1/23/10 2/24/10 9/22/10 10/21/10
f 17/27/12 18/28/13 1/26/12 10/25/11
f 19/31/14 17/32/14 10/30/14 12/29/14
f 18/35/16 20/36/17 3/34/16 1/33/15
f 20/39/19 19/40/20 12/38/19 3/37/18
f 21/43/22 22/44/23 18/42/22 17/41/21
f 23/47/24 21/48/24 17/46/24 19/45/24
f 22/51/25 24/52/25 20/50/25 18/49/25
f 24/55/27 23/56/28 19/54/27 20/53/26
f 25/59/10 26/60/10 22/58/10 21/57/10
f 27/63/29 25/64/29 21/62/29 23/61/29
f 26/67/30 28/68/30 24/66/30 22/65/30
f 28/71/31 27/72/31 23/70/31 24/69/31
f 29/75/33 30/76/34 26/74/33 25/73/32
f 31/79/35 29/80/35 25/78/35 27/77/35
f 30/83/36 32/84/36 28/82/36 26/81/36
f 32/87/38 31/88/39 27/86/38 28/85/37
f 13/91/10 14/92/10 30/90/10 29/89/10
f 15/95/40 13/96/40 29/94/40 31/93/40
f 14/99/41 16/100/41 32/98/41 30/97/41
f 16/103/31 15/104/31 31/102/31 32/101/31
f 33/107/43 34/108/44 9/106/43 2/105/42
f 35/111/45 33/112/45 2/110/45 4/109/45
f 34/115/46 36/116/46 11/114/46 9/113/46
f 36/119/31 35/120/31 4/118/31 11/117/31
f 37/123/47 38/124/47 34/122/47 33/121/47
f 39/127/49 37/128/50 33/126/49 35/125/48
f 38/131/52 40/132/53 36/130/52 34/129/51
f 43/135/54 44/136/54 42/134/54 41/133/54
f 45/139/56 46/140/57 38/138/56 37/137/55
f 47/143/59 45/144/60 37/142/59 39/141/58
f 46/147/62 48/148/63 40/146/62 38/145/61
f 49/151/64 50/152/64 44/150/64 43/149/64
f 5/155/10 6/156/10 46/154/10 45/153/10
f 7/159/65 5/160/65 45/158/65 47/157/65
f 6/163/66 8/164/66 48/162/66 46/161/66
f 51/167/31 52/168/31 50/166/31 49/165/31
f 53/171/67 54/172/67 35/170/67 36/169/67
f 55/175/69 56/176/70 48/174/69 8/173/68
f 57/179/72 58/180/73 7/178/72 47/177/71
f 58/183/75 55/184/76 8/182/75 7/181/74
f 56/187/78 59/188/79 40/186/78 48/185/77
f 60/191/81 57/192/82 47/190/81 39/189/80
f 59/195/83 53/196/83 36/194/83 40/193/83
f 54/199/84 60/200/84 39/198/84 35/197/84
f 41/203/85 42/204/85 54/202/85 53/201/85
f 51/207/87 49/208/88 56/206/87 55/205/86
f 50/211/90 52/212/91 58/210/90 57/209/89
f 52/215/92 51/216/92 55/214/92 58/213/92
f 49/219/93 43/220/93 59/218/93 56/217/93
f 44/223/94 50/224/94 57/222/94 60/221/94
f 43/227/95 41/228/95 53/226/95 59/225/95
f 42/231/96 44/232/96 60/230/96 54/229/96

