# ProBuilder 4.1.0
# https://unity3d.com/unity/features/worldbuilding/probuilder
# 5/10/2019 4:03:11 PM

mtllib ./World1Base10.mtl
o World1Base10

g World1Base10
v 102.4921 -0.7834029 3.009701
v 96.01 1.07 3.009701
v 98.48095 3.387934 3.009701
v 96.01 4.386118 3.009701
v 61.57645 9.084668 1.482733
v 61.57645 9.084668 0.3269692
v 60.72305 9.228482 1.482733
v 60.72305 9.228482 0.3269692
v 96.01 1.07 -1.2
v 102.4921 -0.7834029 -1.2
v 96.01 4.386118 -1.2
v 98.48095 3.387934 -1.2
v 90.72318 1.540203 3.009701
v 90.72318 1.540203 -1.2
v 90.72318 4.856322 3.009701
v 90.72318 4.856322 -1.2
v 77.07923 1.540203 3.009701
v 77.07923 1.540203 -1.2
v 85.3056 1.881518 10.36496
v 85.3056 -0.6741943 10.36496
v 82.4968 1.881518 10.36496
v 82.4968 -0.6741943 10.36496
v 85.3056 -0.6741943 -8.555261
v 85.3056 1.881518 -8.555261
v 82.4968 -0.6741943 -8.555261
v 82.4968 1.881518 -8.555261
v 89.0859 4.182288 -0.6948358
v 89.0859 4.182288 2.504537
v 78.71651 4.182288 -0.6948358
v 78.71651 4.182288 2.504537
v 87.11941 4.856322 7.134003
v 87.11941 1.540203 7.134003
v 81.45536 4.182288 5.639006
v 86.34704 4.182288 5.639006
v 80.68299 1.540203 7.134003
v 77.07923 4.856322 3.009701
v 80.68299 4.856322 7.134003
v 87.11941 1.540203 -5.324301
v 87.11941 4.856322 -5.324301
v 80.68299 1.540203 -5.324301
v 86.34704 4.182288 -3.829304
v 81.45536 4.182288 -3.829304
v 77.07923 4.856322 -1.2
v 80.68299 4.856322 -5.324301
v 89.0859 4.856398 -0.6948358
v 89.0859 4.856398 2.504537
v 86.34704 4.856398 -3.829304
v 81.45536 4.856398 5.639006
v 78.71651 4.856398 2.504537
v 78.71651 4.856398 -0.6948358
v 86.34704 4.856398 5.639006
v 81.45536 4.856398 -3.829304
v 73.63229 1.540203 3.009701
v 73.63229 1.540203 -1.2
v 73.63229 4.856322 3.009701
v 73.63229 4.856322 -1.2
v 69.83163 6.866039 3.009701
v 69.83163 6.866039 -1.2
v 69.83163 9.244742 3.009701
v 69.83163 9.244742 -1.2
v 67.44452 7.57223 1.723545
v 67.44452 7.57223 0.08615677
v 67.44452 10.30704 1.723545
v 67.44452 10.30704 0.08615677
v 63.52715 11.06338 1.723545
v 63.52715 11.06338 0.08615677
v 63.52715 12.28946 1.723545
v 63.52715 12.28946 0.08615677
v 61.85722 10.7812 1.482733
v 61.85722 10.7812 0.3269692
v 61.28047 11.42645 1.482733
v 61.28047 11.42645 0.3269692

vt 5.482117 -1.853403
vt -1 0
vt 1.470947 2.317934
vt -1 3.316118
vt -36.27273 1.682733
vt -36.27273 0.5269692
vt -37.13817 1.682733
vt -37.13817 0.5269692
vt 1 0
vt -5.482117 -1.853403
vt 1 3.316118
vt -1.470947 2.317934
vt 1 -5.135786
vt -3.209702 -5.135786
vt 1 0.651228
vt -3.209702 0.651228
vt -0.4956599 3.209702
vt 2.169289 3.209702
vt -0.4956599 -1
vt 2.169289 -1
vt 5.780409 -1
vt -0.9614703 -1
vt 5.780409 3.209702
vt -0.9614703 3.209702
vt -0.9960682 3.209702
vt -0.9960682 -1
vt -6.303764 3.209702
vt -6.303764 -1
vt -6.286827 3.786322
vt -6.286827 0.4702034
vt 6.286827 0.4702034
vt 6.286827 3.786322
vt 1.28984 -1
vt 1.28984 3.209702
vt 6.597535 -1
vt 6.597535 3.209702
vt -6.286827 3.209702
vt -6.286827 -1
vt -19.93077 3.209702
vt -19.93077 -1
vt -11.7044 0.8115181
vt -11.7044 -1.744194
vt -14.51321 0.8115181
vt -14.51321 -1.744194
vt 11.7044 -1.744194
vt 11.7044 0.8115181
vt 14.51321 -1.744194
vt 14.51321 0.8115181
vt 7.924103 -0.4948358
vt 7.924103 2.704537
vt 18.2935 -0.4948358
vt 18.2935 2.704537
vt -6.553653 3.786322
vt -6.553653 0.4702034
vt -12.0306 3.786322
vt -12.0306 0.4702034
vt 15.55464 5.839006
vt 10.66296 5.839006
vt -9.890594 7.334002
vt -16.32701 7.334002
vt -10.69719 0.4702034
vt -10.69719 3.786322
vt -5.220243 0.4702034
vt -5.220243 3.786322
vt 4.889684 0.4702034
vt 4.889684 3.786322
vt 10.36664 0.4702034
vt 10.36664 3.786322
vt -16.32701 -5.124301
vt -9.890594 -5.124301
vt 10.66296 -3.629304
vt 15.55464 -3.629304
vt 12.36116 3.786322
vt 12.36116 0.4702034
vt 6.884213 3.786322
vt 6.884213 0.4702034
vt -11.23684 3.786322
vt -11.23684 0.4702034
vt -14.94211 0.8115181
vt -14.94211 -1.744194
vt 16.32701 2.830752
vt 9.890594 2.830752
vt 14.51321 7.222626
vt 11.7044 7.222626
vt -9.890594 5.783718
vt -16.32701 5.783718
vt -11.7044 9.700688
vt -14.51321 9.700688
vt -1.597224 0.4702034
vt -1.597224 3.786322
vt 2.108041 -1.744194
vt 2.108041 0.8115181
vt 9.309999 0.4702034
vt 9.309999 3.786322
vt 13.01526 -1.744194
vt 13.01526 0.8115181
vt -16.32701 -3.961019
vt -9.890594 -3.961019
vt -14.51321 -7.87799
vt -11.7044 -7.87799
vt 9.890594 -1.205146
vt 16.32701 -1.205146
vt 11.7044 -5.59702
vt 14.51321 -5.59702
vt 3.524065 3.786322
vt 3.524065 0.4702034
vt -0.1811995 0.8115181
vt -0.1811995 -1.744194
vt 6.287003 -1
vt 6.287003 3.209702
vt 9.890733 -5.12418
vt 6.286965 -0.9998794
vt 10.6631 -3.629184
vt 16.32687 7.333882
vt 19.93063 3.209581
vt 15.5545 5.838885
vt 18.29336 2.704417
vt 19.9306 -1
vt 6.286965 3.209581
vt 9.890733 7.333882
vt 7.924241 2.704417
vt 10.6631 5.838885
vt 16.32701 7.33381
vt 10.66296 5.838814
vt 19.93063 -0.9998793
vt 16.32687 -5.12418
vt 16.32701 -5.124109
vt -0.4948358 3.786397
vt 2.704537 3.786397
vt -0.4948358 3.112288
vt 2.704537 3.112288
vt -9.749068 3.786397
vt -5.586586 3.786397
vt -9.749068 3.112288
vt -5.586586 3.112288
vt 5.8378 3.786397
vt 10.00028 3.786397
vt 5.8378 3.112288
vt 10.00028 3.112288
vt -2.704537 3.786397
vt 0.4948358 3.786397
vt -2.704537 3.112288
vt 0.4948358 3.112288
vt 7.250556 3.786397
vt 11.41304 3.786397
vt 7.250556 3.112288
vt 11.41304 3.112288
vt 10.66296 3.786397
vt 15.55464 3.786397
vt 10.66296 3.112288
vt 15.55464 3.112288
vt -11.66425 3.786397
vt -7.50177 3.786397
vt -11.66425 3.112288
vt -7.50177 3.112288
vt -15.55464 3.786397
vt -10.66296 3.786397
vt -15.55464 3.112288
vt -10.66296 3.112288
vt -23.37771 3.209702
vt -23.37771 -1
vt -19.93077 3.786322
vt -19.93077 0.4702034
vt -23.37771 3.786322
vt -23.37771 0.4702034
vt 19.93077 0.4702034
vt 19.93077 3.786322
vt 23.37771 0.4702034
vt 23.37771 3.786322
vt 23.37771 -1
vt 23.37771 3.209702
vt 3.209702 13.96247
vt -1 13.96247
vt 3.209702 20.50537
vt -1 20.50537
vt -27.17838 8.174743
vt -27.17838 5.796039
vt 27.17838 5.796039
vt 27.17838 8.174743
vt 1 18.16685
vt -3.209702 18.16685
vt 1 23.97231
vt -3.209702 23.97231
vt -27.70608 3.209702
vt -27.70608 -1
vt -30.19545 1.923545
vt -30.19545 0.2861568
vt -22.40402 8.174743
vt -22.40402 5.796039
vt -25.11557 9.23704
vt -25.11557 6.50223
vt 23.45214 5.796039
vt 23.45214 8.174743
vt 26.16368 6.50223
vt 26.16368 9.23704
vt 28.15429 -1
vt 28.15429 3.209702
vt 30.7671 0.2861568
vt 30.7671 1.923545
vt -26.3983 1.923545
vt -26.3983 0.2861568
vt -31.64557 1.923545
vt -31.64557 0.2861568
vt -29.56548 9.23704
vt -29.56548 6.50223
vt -33.48285 11.21946
vt -33.48285 9.993378
vt 29.56548 6.50223
vt 29.56548 9.23704
vt 33.48285 9.993378
vt 33.48285 11.21946
vt 30.55076 0.2861568
vt 30.55076 1.923545
vt 34.94118 0.2861568
vt 34.94118 1.923545
vt -31.34984 1.923545
vt -31.34984 0.2861568
vt -33.04344 1.682733
vt -33.04344 0.5269692
vt -33.08715 11.21946
vt -33.08715 9.993378
vt -35.34671 10.35645
vt -34.77324 9.711205
vt 33.18089 9.993378
vt 33.18089 11.21946
vt 34.86809 9.711205
vt 35.43894 10.35645
vt 27.2331 0.2861568
vt 27.2331 1.923545
vt 29.63984 0.5269692
vt 29.63984 1.682733
vt -1.682733 3.841244
vt -0.5269692 3.841244
vt -1.682733 2.121631
vt -0.5269692 2.121631
vt -35.72953 10.35645
vt -35.15278 9.711205
vt -36.28696 8.158483
vt -35.43355 8.014668
vt 35.15278 9.711205
vt 35.72953 10.35645
vt 35.43355 8.014668
vt 36.28696 8.158483
vt 0.5269692 1.25538
vt 1.682733 1.25538
vt 0.5269692 -1.012165
vt 1.682733 -1.012165

vn 0 0 1
vn -0.166175 -0.9860963 0
vn 0 0 -1
vn 0.7208099 0.6931328 0
vn 0.3745603 0.9272025 0
vn -0.274909 -0.9614703 0
vn -0.08858899 -0.9960682 0
vn 0.08858899 0.9960682 0
vn 0 -1 0
vn 0 1 0
vn 0.7530286 0 0.6579878
vn -0.7530293 0 0.6579871
vn 0.7530286 0 -0.6579878
vn -0.7530293 0 -0.6579871
vn 0.8719916 0 0.4895209
vn 0 0.7356677 0.6773427
vn 0 -0.8248619 -0.5653343
vn -0.8719916 0 0.4895209
vn 0.8719916 0 -0.4895209
vn 0 -0.8248619 0.5653343
vn 0 0.7356677 -0.6773427
vn -0.8719916 0 -0.4895209
vn -1 0 0
vn 1 0 0
vn -0.8139865 -0.5808838 0
vn 0.7559134 0.6546716 0
vn -0.283682 -0.9589185 0
vn -0.4743259 0 0.8803493
vn -0.474326 0 -0.8803493
vn 0.4065731 0.9136183 0
vn -0.6653262 -0.7465528 0
vn 0.4515331 0.8922544 0
vn 0.1666113 -0.9860227 0
vn -0.1065752 0 0.9943047
vn -0.1150628 -0.05521847 0.9902393
vn -0.1235505 -0.1104369 0.9861739
vn -0.1427287 0 -0.9897618
vn -0.1110326 -0.03545788 -0.9920421
vn -0.07933646 -0.07091577 -0.9943222
vn -0.3585815 0.9334984 0
vn 0.9865803 -0.163277 0
vn -0.9693139 0.2458265 0

usemtl ProBuilderDefault
f 3/3/1 4/4/1 2/2/1 1/1/1
f 7/7/2 8/8/2 6/6/2 5/5/2
f 11/11/3 12/12/3 10/10/3 9/9/3
f 12/15/4 3/16/4 1/14/4 10/13/4
f 12/19/5 11/20/5 4/18/5 3/17/5
f 1/23/6 2/24/6 9/22/6 10/21/6
f 13/27/7 14/28/7 9/26/7 2/25/7
f 15/29/1 13/30/1 2/2/1 4/4/1
f 14/31/3 16/32/3 11/11/3 9/9/3
f 16/35/8 15/36/8 4/34/8 11/33/8
f 17/39/9 18/40/9 14/38/9 13/37/9
f 21/43/1 22/44/1 20/42/1 19/41/1
f 25/47/3 26/48/3 24/46/3 23/45/3
f 29/51/10 30/52/10 28/50/10 27/49/10
f 31/55/11 32/56/11 13/54/11 15/53/11
f 33/57/10 34/58/10 28/50/10 30/52/10
f 32/59/9 35/60/9 17/39/9 13/37/9
f 35/63/12 37/64/12 36/62/12 17/61/12
f 38/67/13 39/68/13 16/66/13 14/65/13
f 40/69/9 38/70/9 14/38/9 18/40/9
f 41/71/10 42/72/10 29/51/10 27/49/10
f 44/75/14 40/76/14 18/74/14 43/73/14
f 19/79/15 20/80/15 32/78/15 31/77/15
f 21/83/16 19/84/16 31/82/16 37/81/16
f 20/87/17 22/88/17 35/86/17 32/85/17
f 22/91/18 21/92/18 37/90/18 35/89/18
f 23/95/19 24/96/19 39/94/19 38/93/19
f 25/99/20 23/100/20 38/98/20 40/97/20
f 24/103/21 26/104/21 44/102/21 39/101/21
f 26/107/22 25/108/22 40/106/22 44/105/22
f 45/49/10 46/50/10 15/110/10 16/109/10
f 47/113/10 45/49/10 16/112/10 39/111/10
f 48/116/10 49/117/10 36/115/10 37/114/10
f 49/52/10 50/51/10 43/118/10 36/115/10
f 46/121/10 51/122/10 31/120/10 15/119/10
f 51/124/10 48/116/10 37/123/10 31/120/10
f 50/51/10 52/72/10 44/126/10 43/125/10
f 52/72/10 47/71/10 39/111/10 44/127/10
f 27/130/23 28/131/23 46/129/23 45/128/23
f 41/134/12 27/135/12 45/133/12 47/132/12
f 33/138/13 30/139/13 49/137/13 48/136/13
f 30/142/24 29/143/24 50/141/24 49/140/24
f 28/146/14 34/147/14 51/145/14 46/144/14
f 34/150/3 33/151/3 48/149/3 51/148/3
f 29/154/11 42/155/11 52/153/11 50/152/11
f 42/158/1 41/159/1 47/157/1 52/156/1
f 53/160/9 54/161/9 18/40/9 17/39/9
f 55/164/1 53/165/1 17/163/1 36/162/1
f 54/168/3 56/169/3 43/167/3 18/166/3
f 56/170/10 55/171/10 36/115/10 43/118/10
f 57/174/25 58/175/25 54/173/25 53/172/25
f 59/176/1 57/177/1 53/165/1 55/164/1
f 58/178/3 60/179/3 56/169/3 54/168/3
f 60/182/26 59/183/26 55/181/26 56/180/26
f 61/186/27 62/187/27 58/185/27 57/184/27
f 63/190/28 61/191/28 57/189/28 59/188/28
f 62/194/29 64/195/29 60/193/29 58/192/29
f 64/198/30 63/199/30 59/197/30 60/196/30
f 65/202/31 66/203/31 62/201/31 61/200/31
f 67/206/1 65/207/1 61/205/1 63/204/1
f 66/210/3 68/211/3 64/209/3 62/208/3
f 68/214/32 67/215/32 63/213/32 64/212/32
f 69/218/33 70/219/33 66/217/33 65/216/33
f 71/222/35 69/223/36 65/221/35 67/220/34
f 70/226/38 72/227/39 68/225/38 66/224/37
f 72/230/40 71/231/40 67/229/40 68/228/40
f 5/234/41 6/235/41 70/233/41 69/232/41
f 7/238/1 5/239/1 69/237/1 71/236/1
f 6/242/3 8/243/3 72/241/3 70/240/3
f 8/246/42 7/247/42 71/245/42 72/244/42

