# ProBuilder 4.1.0
# https://unity3d.com/unity/features/worldbuilding/probuilder
# 7/10/2019 5:08:29 PM

mtllib ./World1Base22.mtl
o World1Base22

g World1Base22
v -9.477961 0.9111595 11.84655
v -11.44717 0.9111595 13.7552
v -9.477961 1.91116 11.84655
v -11.44717 1.91116 13.7552
v -11.9368 0.9111595 12.99185
v -11.9368 1.91116 12.99185
v -10.11228 0.9111595 11.37934
v -10.11228 1.91116 11.37934
v -14.54661 0.9111595 9.542889
v -15.23806 0.9111595 8.820465
v -14.54661 1.91116 9.542889
v -15.23806 1.91116 8.820465
v -9.867285 0.9111595 8.514431
v -8.986609 0.9111595 8.040722
v -9.867285 1.91116 8.514431
v -8.986609 1.91116 8.040722
v -12.69038 0.9111595 8.071932
v -12.92457 0.9111595 7.099745
v -12.69038 1.91116 8.071932
v -12.92457 1.91116 7.099745

vt 0.6795766 0
vt -2.062814 0
vt 0.6795766 1
vt -2.062814 1
vt 0.02228603 0
vt -0.8846013 0
vt 0.02228603 1
vt -0.8846013 1
vt 1.940124 0
vt -0.4948428 0
vt 1.940124 1
vt -0.4948428 1
vt -5.567459 0
vt -6.567454 0
vt -5.567459 1
vt -6.567454 1
vt -0.2135849 -0.7560711
vt 1.755623 1.152575
vt 0.4207344 -1.223288
vt 2.245255 0.3892231
vt -0.4207344 -1.223288
vt -2.245255 0.3892231
vt 0.2135849 -0.7560711
vt -1.755623 1.152575
vt -0.1757393 -4.088192
vt 0.704937 -4.561901
vt -1.18299 1
vt -1.18299 0
vt -4.058351 1
vt -4.058351 0
vt 0.7771956 0
vt 0.7771956 1
vt 4.614613 0
vt 4.614613 1
vt -0.704937 -4.561901
vt 0.1757393 -4.088192
vt -2.998837 -4.530691
vt -3.233021 -5.502878
vt -0.8066832 1
vt -0.8066832 0
vt -3.664249 1
vt -3.664249 0
vt 0.3745861 0
vt 0.3745861 1
vt 4.423407 0
vt 4.423407 1
vt 3.233021 -5.502878
vt 2.998837 -4.530691
vt -4.855068 -3.059734
vt -5.546513 -3.782158
vt 0.4635689 1
vt 0.4635689 0
vt -1.904829 1
vt -1.904829 0
vt -0.6899672 0
vt -0.6899672 1
vt 2.193282 0
vt 2.193282 1
vt 5.546513 -3.782158
vt 4.855068 -3.059734

vn 0.6959787 0 0.7180624
vn -0.8417269 0 0.5399035
vn -0.662231 0 -0.7492997
vn -0.7224268 0 0.6914475
vn 0 1 0
vn 0 -1 0
vn -0.9963635 0 -0.085205
vn 0.9917687 0 0.1280424
vn -0.1548518 0 0.9879377
vn 0.2324077 0 -0.9726184
vn 0.6210766 0 0.7837498
vn -0.5967991 0 -0.8023907

usemtl ProBuilderDefault
f 3/3/1 4/4/1 2/2/1 1/1/1
f 4/7/2 6/8/2 5/6/2 2/5/2
f 6/11/3 8/12/3 7/10/3 5/9/3
f 11/15/4 12/16/4 10/14/4 9/13/4
f 8/19/5 6/20/5 4/18/5 3/17/5
f 1/23/6 2/24/6 5/22/6 7/21/6
f 13/25/6 14/26/6 1/23/6 7/21/6
f 15/29/7 13/30/7 7/28/7 8/27/7
f 14/33/8 16/34/8 3/32/8 1/31/8
f 16/35/5 15/36/5 8/19/5 3/17/5
f 17/37/6 18/38/6 14/26/6 13/25/6
f 19/41/9 17/42/9 13/40/9 15/39/9
f 18/45/10 20/46/10 16/44/10 14/43/10
f 20/47/5 19/48/5 15/36/5 16/35/5
f 9/49/6 10/50/6 18/38/6 17/37/6
f 11/53/11 9/54/11 17/52/11 19/51/11
f 10/57/12 12/58/12 20/56/12 18/55/12
f 12/59/5 11/60/5 19/48/5 20/47/5

