# ProBuilder 4.1.0
# https://unity3d.com/unity/features/worldbuilding/probuilder
# 7/10/2019 5:07:50 PM

mtllib ./World1Base18.mtl
o World1Base18

g World1Base18
v 4.760323 15.34044 -22.72935
v 0.9998803 15.30103 -24.21375
v 5.29805 14.11049 -24.22805
v 1.269654 14.3327 -25.06803
v -8.278885 16.4 -5.515071
v -8.278885 16.4 -15.91993
v -5.983325 19.48585 -5.515071
v -5.983325 19.48585 -12.26733
v -3.718843 16.4 -16.87446
v 9.305525 16.4 -17.86152
v -3.718843 19.48585 -13.22186
v 9.305525 19.48585 -14.20892
v 13.86557 16.4 -16.90699
v 13.86557 16.4 -6.502131
v 11.57001 19.48585 -13.25439
v 11.57001 19.48585 -6.502131
v 9.305525 19.48585 -6.502131
v -3.718843 19.48585 -5.515071
v 9.305525 16.4 -6.502131
v -3.718843 16.4 -5.515071
v 6.749371 15.63269 -5.309623
v -1.162673 15.18776 -4.907649
v 6.749371 16.88939 -2.556621
v -1.162673 16.44447 -2.154647
v 5.138545 7.290329 -5.300193
v 0.4481683 6.690792 -5.290633
v 5.138545 7.320233 -2.118655
v 0.4481683 6.720692 -2.109092
v 4.76038 4.91093 -8.702693
v 0.2886281 4.397306 -7.25397
v 5.298108 3.309574 -7.609733
v 0.8263555 2.795945 -6.161014
v 4.760361 5.504221 -18.24406
v 0.288609 4.093062 -17.63477
v 5.298089 3.613698 -18.67397
v 0.8263364 2.202538 -18.06469
v 4.760342 12.38138 -22.72928
v 1.4002 10.893 -23.11311
v 5.298069 11.15143 -24.22799
v 1.937928 9.663054 -24.61182
v -0.7441707 10.893 -23.11314
v -0.2064433 9.663054 -24.61186
v -0.07593489 15.30102 -24.21376
v 0.1938386 14.33269 -25.06804
v 1.763299 18.41497 -34.12899
v 1.295586 20.6172 -35.26978
v -0.1018672 18.41492 -34.12897
v -0.5695796 20.61715 -35.26976
v 1.269654 18.56327 -27.02681
v 0.9998803 18.58704 -26.27092
v 0.1938386 18.56327 -27.02683
v -0.07593489 18.58704 -26.27094
v 1.82186 20.11811 -29.14697
v 1.330664 21.31347 -28.46343
v -0.1369452 20.11809 -29.14698
v -0.6281409 21.31345 -28.46345
v 2.305789 19.31316 -32.4637
v 1.620551 22.53961 -34.13506
v -0.4268317 19.3131 -32.46368
v -1.11207 22.53954 -34.13503

vt -1.592324 -11.538
vt 2.023465 -13.34686
vt -2.436531 -13.36429
vt 1.50692 -14.54071
vt 3.614929 -6.970692
vt -6.789928 -6.970692
vt 3.614929 -3.12465
vt -3.137329 -3.12465
vt 7.104297 -5.627695
vt -5.893458 -6.918758
vt 6.907125 -0.8501381
vt -6.09063 -2.141202
vt 7.776989 -6.246507
vt -2.627869 -6.246507
vt 4.12439 -2.400465
vt -2.627869 -2.400465
vt -5.905525 2.627869
vt 7.118843 3.614929
vt -5.905525 -5.078918
vt 7.118843 -4.091858
vt 5.905525 -8.731518
vt -7.118843 -7.744457
vt 5.905525 2.627869
vt -7.118843 3.614929
vt 5.895542 1.87632
vt -7.106808 3.120254
vt 3.388308 3.379168
vt -4.484501 4.24831
vt 1.005527 3.085846
vt 1.005527 0
vt -3.695641 0.4893894
vt -1.385152 -0.767314
vt -6.090238 0
vt -6.090238 3.085846
vt -3.462889 -1.212236
vt -2.826417 0.04446697
vt 7.303624 1.04849
vt -5.693442 -0.2494863
vt 4.555987 5.467418
vt -3.310678 4.540906
vt -3.149249 -0.7323467
vt 4.772999 -1.177286
vt -1.540055 -9.075024
vt 3.144651 -9.676559
vt -6.303442 1.104846
vt -3.558205 -0.1687322
vt -6.861076 -8.592801
vt -3.688513 -8.661054
vt 3.804383 -0.2594897
vt 6.5467 1.02036
vt 3.564662 -8.91296
vt 6.733857 -8.830586
vt -4.90582 -0.04288758
vt 3.016427 0.4020723
vt -3.299272 -9.767479
vt 1.385713 -9.170905
vt -0.5567749 -2.033834
vt 4.171759 -2.022278
vt 0.1231991 -6.147129
vt 4.623901 -4.912968
vt -7.012003 -9.142306
vt -3.830466 -9.172235
vt -1.520986 -13.15622
vt -0.4278224 -11.53453
vt 3.841311 -9.891739
vt 7.022852 -9.861766
vt 1.87808 -12.19086
vt 2.970682 -13.75063
vt -4.17341 -1.394272
vt 0.5551194 -1.407612
vt -4.303654 -7.046507
vt 0.19701 -8.131313
vt -11.67888 3.614929
vt -11.67888 -6.789928
vt -7.118843 3.085846
vt -7.118843 0
vt -9.383326 3.085846
vt -11.67888 0
vt 7.01007 -5.160731
vt 6.472692 -0.4093994
vt 11.50044 -3.919072
vt 8.702575 0.5765978
vt 9.383326 -3.137329
vt 9.383326 3.614929
vt 10.46557 -7.776989
vt 10.46557 2.627869
vt -4.52805 -0.9299507
vt -5.563286 -5.598164
vt -6.661301 0.2899871
vt -9.859063 -3.898658
vt 5.905525 0
vt 5.905525 3.085846
vt 10.46557 0
vt 8.170008 3.085846
vt -8.170008 2.627869
vt -8.170008 -4.12439
vt -0.2709854 1.141115
vt 4.229274 2.592612
vt -0.3269093 -8.418511
vt 4.257981 -7.74964
vt -1.50235 -13.00448
vt -0.4144948 -11.31196
vt 9.561397 -12.68304
vt 9.126446 -10.72157
vt 1.845918 -10.42234
vt 2.944013 -12.10824
vt -8.534397 -10.74265
vt -8.959112 -12.7078
vt -4.319016 2.315959
vt 0.1815674 0.8654711
vt -4.39612 -9.602252
vt 0.2210544 -10.17039
vt 0.7246302 -4.123032
vt -3.694062 -5.806578
vt 0.4133678 4.081582
vt -2.965309 2.915668
vt 9.691034 -12.33765
vt 9.126549 -10.40648
vt 15.01811 -4.637869
vt 13.42851 -3.41508
vt -6.565234 -11.08347
vt -7.173582 -13.00127
vt -12.03366 -4.185401
vt -13.6226 -5.380569
vt 3.850939 -4.979701
vt -0.4838851 -3.090664
vt 3.707443 5.007253
vt 0.3272717 6.192905
vt -0.1919756 -4.018331
vt -3.573968 -5.506712
vt -0.1920019 -1.059268
vt -4.096624 -1.098655
vt 14.85199 -5.248529
vt 13.25974 -4.018574
vt 14.85205 -2.289465
vt 13.2598 -1.05951
vt -11.4359 -5.932581
vt -13.02708 -7.16393
vt -12.70616 -1.519531
vt -13.59947 -2.48999
vt 3.714684 -5.578289
vt 0.3345651 -4.08566
vt 4.442588 -0.8952903
vt 0.3345935 -1.135028
vt -1.999727 -14.30275
vt -1.461984 -16.24154
vt -4.144098 -14.3028
vt -3.606355 -16.24158
vt -2.40032 2.587799
vt -1.999986 -1.955566
vt -3.476135 2.587787
vt -4.144357 -1.955564
vt 1.46232 -5.199713
vt 2.130601 -0.5078352
vt 3.606691 -5.199713
vt 3.206417 -0.5078481
vt 1.636854 13.28784
vt 2.104573 15.76801
vt 3.502019 13.28779
vt 3.969739 15.76795
vt 15.17483 -1.561074
vt 14.28359 -0.5884792
vt 17.09291 2.688104
vt 16.29802 2.722136
vt 3.206416 4.820466
vt 2.130601 4.820479
vt 3.206447 9.482512
vt 2.130632 9.482512
vt -2.400381 7.072443
vt -3.476196 7.07243
vt -2.400416 10.94927
vt -3.476232 10.94927
vt -14.20147 -0.3961805
vt -15.09055 -1.370757
vt -16.22443 2.911015
vt -17.01675 2.872935
vt 16.16758 3.088627
vt 15.365 3.112565
vt 18.35065 4.654423
vt 17.54261 5.869248
vt -3.206133 -15.71126
vt -2.130318 -15.71124
vt -3.536897 -18.34043
vt -1.578092 -18.34041
vt -2.400338 12.44608
vt -3.476154 12.44608
vt -2.069583 15.94473
vt -4.028388 15.94471
vt -15.09482 5.630267
vt -15.89734 5.604181
vt -16.99081 8.622017
vt -17.79648 7.432356
vt 19.90376 4.415824
vt 19.1949 5.694454
vt 23.24164 3.554797
vt 24.87391 6.845778
vt -3.536912 -18.57527
vt -1.578107 -18.57525
vt -3.826806 -21.98826
vt -1.094186 -21.98827
vt 2.069273 -19.93513
vt 4.028078 -19.93515
vt 1.779371 -25.73778
vt 4.511991 -25.73775
vt -19.32078 6.095732
vt -20.00584 4.804201
vt -24.99081 7.420477
vt -23.32161 4.172841
vt 22.41969 2.700268
vt 24.22306 5.92839
vt 24.17087 1.801605
vt 25.40178 4.00498
vt -3.826748 -19.15404
vt -1.094127 -19.15406
vt -3.501809 -21.04612
vt -1.636643 -21.04613
vt 1.778837 -7.423336
vt 4.511457 -7.423411
vt 2.103774 -9.655664
vt 3.96894 -9.655718
vt -24.6719 7.40686
vt -23.04694 4.085351
vt -25.8385 5.427828
vt -24.72937 3.160712

vn 0.2172886 0.7913336 -0.5714691
vn 0.2014499 0.734988 -0.6410489
vn 0.1856112 0.6786423 -0.7106286
vn -0.8023434 0.5968628 0
vn -0.04885029 0.7629707 -0.6445847
vn 0.8023434 0.5968628 0
vn 0 1 0
vn 0 -1 0
vn -0.04612096 -0.792158 -0.608571
vn -0.03194512 -0.6348839 -0.7434817
vn -0.01776928 -0.4776098 -0.8783924
vn 0.8392618 0 0.5437275
vn 0.6311261 -0.4121554 0.4600064
vn 0.4229904 -0.8243109 0.3762853
vn -0.2311919 0 0.9729082
vn -0.5416621 -0.2380353 0.5951136
vn -0.8521323 -0.4760705 0.2173189
vn 0.04921395 0.7588671 0.6493833
vn 0.01469301 0.7999501 0.5950017
vn -0.01982792 0.8410331 0.5406201
vn -0.05122941 0.008763051 -0.9986485
vn -0.02941846 0.02617486 -0.9988346
vn -0.007607509 0.04358666 -0.9990207
vn 0.9839668 -0.1622466 0.07406309
vn 0.9829147 -0.1759163 0.03792254
vn 0.9818625 -0.1895859 0.001781983
vn -0.9781043 -0.1893227 0.08642293
vn -0.9823294 -0.1763741 0.04397939
vn -0.9865545 -0.1634255 0.001535846
vn 0.05000849 0.01296308 0.9986647
vn 0.02305877 0.02966846 0.9987906
vn -0.003890938 0.04637384 0.9989166
vn -0.1060079 0.8203751 -0.5619137
vn -0.2048219 0.7260432 -0.6375891
vn -0.3036358 0.6317112 -0.7132645
vn 0.9991887 0.04027071 -0.0003785182
vn 0.9794317 0.1045652 -0.1125624
vn 0.9596747 0.1688598 -0.2247463
vn -0.99755 0.06995467 -0.0006574224
vn -0.980495 -0.08087732 0.06692822
vn -0.9634401 -0.2317093 0.1345139
vn 0.09229212 -0.7109048 0.6972062
vn 0.1832467 -0.7418381 0.6348015
vn 0.2742012 -0.7727714 0.5723968
vn 0 0 1
vn -0.1338727 0.7570066 -0.6395461
vn -0.1809131 0.7833449 -0.5901664
vn -0.2279534 0.8096833 -0.5407867
vn 0.2624923 0.7370964 -0.6227252
vn 0.1933764 0.7660931 -0.6081755
vn 0.1242605 0.7950898 -0.5936258
vn -0.09411239 0.9936424 0.06178585
vn -0.1991968 0.9729079 0.01693989
vn -0.3042813 0.9521734 -0.02790607
vn 0.946095 0.323767 0.008897789
vn 0.9544032 0.2968882 0.01284266
vn 0.9627113 0.2700095 0.01678753
vn -0.9498126 -0.3126853 0.009166035
vn -0.9553704 -0.2945697 0.0114745
vn -0.9609283 -0.2764541 0.01378297
vn 0.1297425 -0.990318 0.04936783
vn 0.2136647 -0.9723262 0.01156771
vn 0.2975869 -0.9543343 -0.0262324
vn -0.05816566 0.5453532 0.8361858
vn -0.2065389 0.5831901 0.7675078
vn -0.3549121 0.6210269 0.6988297
vn 0.9389542 0.2040847 0.2769738
vn 0.9510818 0.17545 0.2510402
vn 0.9632094 0.1468153 0.2251065
vn -0.9044243 -0.1680731 -0.3921328
vn -0.9316738 -0.1302685 -0.3301526
vn -0.9589234 -0.09246388 -0.2681723
vn 0.1090996 -0.6647947 -0.7390164
vn 0.2217044 -0.6119281 -0.7488786
vn 0.3343091 -0.5590614 -0.7587408
vn -0.1135006 2.104245E-05 0.9935379
vn -0.2377021 0.09739067 0.9525908
vn -0.3619035 0.1947603 0.9116437
vn 0.9412518 1.346815E-05 0.3377055
vn -0.9270902 0.04771275 -0.3717892
vn -0.9317019 0.04698334 -0.3599475
vn -0.9363135 0.04625393 -0.3481057
vn 0.1461018 -0.07545777 -0.9863876
vn 0.1751127 -0.03773895 -0.9826664
vn 0.2041236 -2.01385E-05 -0.9789451
vn -1.015678E-05 -0.7730165 0.634386
vn -1.289771E-05 0.24225 0.9702139
vn 1.593456E-05 -0.09723113 -0.9952618
vn 5.403086E-06 -0.4599659 -0.8879366
vn 0.9749328 0.09348448 0.2019074
vn 0.9496146 0.1480071 0.2627077
vn 0.9242966 0.2025298 0.3235081
vn 1.449502E-05 -0.4201566 -0.9074516
vn -1.466111E-05 0.5306342 0.847601
vn -0.9770682 -0.1129859 -0.1804768
vn -0.9547317 -0.1324237 -0.2542333
vn -0.9323952 -0.1518616 -0.3279898
vn 0.936397 0.1180755 0.3304825
vn 0.9273937 0.1461627 0.3428617
vn 0.9183904 0.17425 0.3552409
vn 1.048471E-05 -0.8063957 -0.5913764
vn -9.941853E-06 0.6266747 0.779281
vn -0.8623069 -0.4117256 -0.2948032
vn -0.9005493 -0.3712637 -0.1954645
vn -0.9387918 -0.3308018 -0.09612574
vn 0.9335313 0.3549844 0.05005464
vn 0.9469383 0.3066498 0.07749217
vn 0.9603453 0.2583152 0.1049297
vn 8.571516E-06 -0.9717866 0.2358618
vn -1.252674E-05 0.9774199 0.2113063
vn -0.9255289 -0.378666 -0.002890006
vn -0.9536995 -0.2622086 0.05915143
vn -0.9818701 -0.1457513 0.1211929
vn 0.9450771 0.03222931 -0.3252547
vn 2.54536E-05 -0.8801427 0.4747092
vn -2.107965E-05 0.5083193 -0.8611687
vn -0.9694588 -0.2375295 -0.06106849

usemtl ProBuilderDefault
f 3/3/2 4/4/3 2/2/2 1/1/1
f 7/7/4 8/8/4 6/6/4 5/5/4
f 11/11/5 12/12/5 10/10/5 9/9/5
f 15/15/6 16/16/6 14/14/6 13/13/6
f 12/19/7 11/20/7 18/18/7 17/17/7
f 19/23/8 20/24/8 9/22/8 10/21/8
f 21/27/10 22/28/11 20/26/10 19/25/9
f 23/31/13 21/32/14 19/30/13 17/29/12
f 22/35/16 24/36/17 18/34/16 20/33/15
f 24/39/19 23/40/20 17/38/19 18/37/18
f 25/43/22 26/44/23 22/42/22 21/41/21
f 27/47/25 25/48/26 21/46/25 23/45/24
f 26/51/28 28/52/29 24/50/28 22/49/27
f 28/55/31 27/56/32 23/54/31 24/53/30
f 29/59/34 30/60/35 26/58/34 25/57/33
f 31/63/37 29/64/38 25/62/37 27/61/36
f 30/67/40 32/68/41 28/66/40 26/65/39
f 32/71/43 31/72/44 27/70/43 28/69/42
f 5/73/8 6/74/8 9/22/8 20/24/8
f 7/77/45 5/78/45 20/76/45 18/75/45
f 6/81/47 8/82/48 11/80/47 9/79/46
f 8/83/7 7/84/7 18/18/7 11/20/7
f 13/85/8 14/86/8 19/23/8 10/21/8
f 15/89/50 13/90/51 10/88/50 12/87/49
f 14/93/45 16/94/45 17/92/45 19/91/45
f 16/95/7 15/96/7 12/19/7 17/17/7
f 33/99/53 34/100/54 30/98/53 29/97/52
f 35/103/56 33/104/57 29/102/56 31/101/55
f 34/107/59 36/108/60 32/106/59 30/105/58
f 36/111/62 35/112/63 31/110/62 32/109/61
f 37/115/65 38/116/66 34/114/65 33/113/64
f 39/119/68 37/120/69 33/118/68 35/117/67
f 38/123/71 40/124/72 36/122/71 34/121/70
f 40/127/74 39/128/75 35/126/74 36/125/73
f 1/131/77 2/132/78 38/130/77 37/129/76
f 3/135/79 1/136/79 37/134/79 39/133/79
f 43/139/81 44/140/82 42/138/81 41/137/80
f 4/143/84 3/144/85 39/142/84 40/141/83
f 41/147/86 42/148/86 40/146/86 38/145/86
f 43/151/87 41/152/87 38/150/87 2/149/87
f 42/155/88 44/156/88 4/154/88 40/153/88
f 47/159/89 48/160/89 46/158/89 45/157/89
f 49/163/91 50/164/92 2/162/91 4/161/90
f 51/167/93 49/168/93 4/166/93 44/165/93
f 50/171/94 52/172/94 43/170/94 2/169/94
f 52/175/96 51/176/97 44/174/96 43/173/95
f 53/179/99 54/180/100 50/178/99 49/177/98
f 55/183/101 53/184/101 49/182/101 51/181/101
f 54/187/102 56/188/102 52/186/102 50/185/102
f 56/191/104 55/192/105 51/190/104 52/189/103
f 57/195/107 58/196/108 54/194/107 53/193/106
f 59/199/109 57/200/109 53/198/109 55/197/109
f 58/203/110 60/204/110 56/202/110 54/201/110
f 60/207/112 59/208/113 55/206/112 56/205/111
f 45/211/114 46/212/114 58/210/114 57/209/114
f 47/215/115 45/216/115 57/214/115 59/213/115
f 46/219/116 48/220/116 60/218/116 58/217/116
f 48/223/117 47/224/117 59/222/117 60/221/117

