# ProBuilder 4.1.0
# https://unity3d.com/unity/features/worldbuilding/probuilder
# 7/10/2019 2:26:06 PM

mtllib ./World1Base15.mtl
o World1Base15

g World1Base15
v -2.169689 1.436887 4.972366
v -4.288052 1.436887 4.972366
v -2.169689 3.76315 4.972366
v -4.288052 3.76315 4.972366
v -5.045303 1.436887 4.35355
v -5.045303 1.436887 2.087502
v -5.045303 3.681919 4.35355
v -5.045303 3.681919 2.087502
v -4.40588 1.419868 1.105568
v -2.502266 1.419868 1.105568
v -4.40588 3.653864 1.105568
v -2.502266 3.653864 1.105568
v -1.862843 1.436887 2.087502
v -1.862843 1.436887 4.35355
v -1.862843 3.681919 2.087502
v -1.862843 3.681919 4.35355
v -1.862843 1.084949 2.087502
v -5.045303 1.084949 2.087502
v -1.862843 1.084949 4.35355
v -5.045303 1.084949 4.35355
v -2.169689 1.084949 4.972366
v -4.288052 1.084949 4.972366
v -4.288052 6.527866 4.35355
v -2.169689 6.527866 4.35355
v -4.288052 6.34004 4.972366
v -2.169689 6.34004 4.972366
v -4.288052 5.855522 4.35355
v -2.169689 5.855522 4.35355
v -4.288052 5.654351 4.972366
v -2.169689 5.654351 4.972366
v -4.288052 5.855522 1.961918
v -2.169689 5.855522 1.961918
v -4.288052 6.34004 1.961918
v -2.169689 6.34004 1.961918
v -2.641682 7.104691 3.820671
v -3.816059 7.104691 3.820671
v -2.641682 7.104691 2.494797
v -3.816059 7.104691 2.494797
v -4.40588 1.067929 1.105568
v -2.502266 1.067929 1.105568

vt 0 -0.8940506
vt -2.118362 -0.8940506
vt 0 1.432213
vt -2.118362 1.432213
vt 1.266048 -0.8940506
vt -1 -0.8940506
vt 1.266048 1.350982
vt -1 1.350982
vt 2.236191 -0.9110699
vt 0.3325768 -0.9110699
vt 2.236191 1.322927
vt 0.3325768 1.322927
vt 1 -0.8940506
vt -1.266048 -0.8940506
vt 1 1.350982
vt -1.266048 1.350982
vt -0.3068466 1.266048
vt 2.875614 1.266048
vt -0.3068466 -1
vt 2.875614 -1
vt 0.3068466 -1
vt -2.875614 -1
vt 0.3068466 1.266048
vt -2.875614 1.266048
vt 0 1.884865
vt -2.118362 1.884865
vt -0.9979452 1.350982
vt -0.9979452 -0.8940506
vt -1.688661 1.432213
vt -1.688661 -0.8940506
vt -1.425562 -0.8940506
vt -1.425562 1.350982
vt -0.4476236 -0.8940506
vt -0.4476236 1.432213
vt 2.118362 -0.00748656
vt 0 -0.00748656
vt 2.118362 0.6392068
vt 0 0.6392068
vt 2.875614 1.350982
vt -0.3068466 1.350982
vt 2.118362 3.524585
vt 0 3.524585
vt -0.4476236 3.323414
vt -0.839196 3.524585
vt -1.010379 1.236229
vt -1.701017 1.318117
vt -1.14256 3.427401
vt -1.701017 3.194154
vt 0 3.323414
vt -2.118362 3.323414
vt 2.118362 4.009103
vt 0 4.009103
vt 1.884865 3.323414
vt 1.266048 3.524585
vt 1.884865 4.009103
vt 1.266048 4.196929
vt -1.266048 3.524585
vt -1.884865 3.323414
vt -1.266048 4.196929
vt -1.884865 4.009103
vt -2.118362 4.009103
vt -2.118362 1.266048
vt 0 1.266048
vt -2.118362 -1.125584
vt 0 -1.125584
vt -1.125584 4.009103
vt -1.125584 3.524585
vt 1.125584 3.524585
vt 1.125584 4.009103
vt 0.4719925 0.7331696
vt 1.64637 0.7331696
vt 0.4719925 -0.5927048
vt 1.64637 -0.5927048
vt 0 2.223677
vt -2.118362 2.223677
vt -0.4719925 3.008971
vt -1.64637 3.008971
vt 1.124106 3.326617
vt -1.264387 3.550854
vt 0.6161006 4.239501
vt -0.7080337 4.276595
vt 1.390476 2.103688
vt -0.9968744 1.867598
vt 0.8303227 2.828733
vt -0.4931782 2.78069
vt 2.118362 2.645628
vt 0 2.645628
vt 1.64637 3.577642
vt 0.4719925 3.577642
vt -2.875614 -1.021443
vt 0.3068466 -1.021443
vt -2.236191 -2.003524
vt -0.3325768 -2.003524
vt 0.7311998 1.350982
vt 0.7311998 -0.8940506
vt -0.4405749 1.322927
vt -0.4405749 -0.9110699
vt 0.6705459 -0.8940506
vt 0.6705459 1.350982
vt 1.842321 -0.9110699
vt 1.842321 1.322927
vt -0.3068466 -0.9610084
vt 2.875614 -0.9610084
vt 0.3325768 -1.943343
vt 2.236191 -1.943343
vt -1.266048 -1.245989
vt 1 -1.245989
vt -0.4405749 -1.263008
vt 0.7311998 -1.245989
vt 0.6705459 -1.245989
vt 1.842321 -1.263008
vt 0.3325768 -1.263008
vt 2.236191 -1.263008
vt -1 -1.245989
vt 1.266048 -1.245989
vt -1.688661 -1.245989
vt -0.9979452 -1.245989
vt -1.425562 -1.245989
vt -0.4476235 -1.245989
vt -2.118362 -1.245989
vt 0 -1.245989

vn 0 0 1
vn -1 0 0
vn 0 0 -1
vn 1 0 0
vn 0 1 0
vn 0 -1 0
vn 0.8959057 0 0.4442443
vn -0.6327763 0 0.7743347
vn 0 0.956893 0.2904408
vn -0.785877 0.1635631 0.44034
vn -0.9389777 0.3271262 0.1063454
vn 0.8952253 0.1263786 0.4273174
vn 0.9476126 0.06318928 0.2136587
vn 0 0.6785728 0.7345332
vn 0.8365213 0.5462525 -0.04289979
vn 0.8052244 0.5897634 -0.02144989
vn 0.7739275 0.6332743 0
vn -0.7941457 0.6058619 -0.0475812
vn -0.8225443 0.56556 -0.0237906
vn -0.850943 0.525258 0
vn 0 0.5717499 -0.820428
vn 0 -0.9998499 0.0173298
vn -0.8379884 0 -0.545688
vn 0.8379884 0 -0.545688
vn 0 0.9995921 -0.02855972

usemtl ProBuilderDefault
f 3/3/1 4/4/1 2/2/1 1/1/1
f 7/7/2 8/8/2 6/6/2 5/5/2
f 11/11/3 12/12/3 10/10/3 9/9/3
f 15/15/4 16/16/4 14/14/4 13/13/4
f 15/19/5 8/20/5 7/18/5 16/17/5
f 19/23/6 20/24/6 18/22/6 17/21/6
f 21/25/6 22/26/6 20/24/6 19/23/6
f 3/29/7 1/30/7 14/28/7 16/27/7
f 2/33/8 4/34/8 7/32/8 5/31/8
f 25/37/9 26/38/9 24/36/9 23/35/9
f 27/41/3 28/42/3 16/40/3 7/39/3
f 29/43/10 27/44/11 7/32/10 4/34/8
f 28/47/13 30/48/4 3/46/13 16/45/12
f 30/49/1 29/50/1 4/4/1 3/3/1
f 33/51/3 34/52/3 32/42/3 31/41/3
f 25/55/2 23/56/2 27/54/2 29/53/2
f 24/59/4 26/60/4 30/58/4 28/57/4
f 26/52/1 25/61/1 29/50/1 30/49/1
f 31/64/6 32/65/6 28/63/6 27/62/6
f 33/66/2 31/67/2 27/54/2 23/56/2
f 32/68/4 34/69/4 24/59/4 28/57/4
f 37/72/5 38/73/5 36/71/5 35/70/5
f 35/76/14 36/77/14 23/75/14 24/74/14
f 37/80/16 35/81/17 24/79/16 34/78/15
f 36/84/19 38/85/20 33/83/19 23/82/18
f 38/88/21 37/89/21 34/87/21 33/86/21
f 39/92/22 40/93/22 17/91/22 18/90/22
f 11/96/23 9/97/23 6/95/23 8/94/23
f 10/100/24 12/101/24 15/99/24 13/98/24
f 12/104/25 11/105/25 8/103/25 15/102/25
f 19/106/4 17/107/4 13/13/4 14/14/4
f 39/108/23 18/109/23 6/95/23 9/97/23
f 17/110/24 40/111/24 10/100/24 13/98/24
f 40/112/3 39/113/3 9/9/3 10/10/3
f 18/114/2 20/115/2 5/5/2 6/6/2
f 21/116/7 19/117/7 14/28/7 1/30/7
f 20/118/8 22/119/8 2/33/8 5/31/8
f 22/120/1 21/121/1 1/1/1 2/2/1

