# ProBuilder 4.1.0
# https://unity3d.com/unity/features/worldbuilding/probuilder
# 7/10/2019 8:43:09 PM

mtllib ./World1Base24.mtl
o World1Base24

g World1Base24
v 34.11725 10.75033 12.21886
v 34.18371 10.75033 13.83979
v 34.11725 12.15082 12.21886
v 34.18371 12.15082 13.83979
v 18.62943 20.05919 8.877132
v 18.75873 19.87524 7.066954
v 19.52799 21.59209 8.877132
v 19.65729 21.40814 7.066954
v 34.18307 10.75033 4.634965
v 34.31635 10.75033 5.731585
v 34.18307 12.15082 4.634964
v 34.31635 12.15082 5.731585
v 30.89036 10.75033 6.034843
v 29.96716 10.75033 10.83481
v 30.89036 12.15082 6.034843
v 29.96716 12.15082 10.83481
v 28.34487 12.15082 10.83481
v 29.26806 12.15082 6.034843
v 29.26806 10.75033 6.034843
v 28.34487 10.75033 10.83481
v 31.19805 10.75033 4.634956
v 31.33133 10.75033 5.731576
v 31.19805 12.15082 4.634955
v 31.33133 12.15082 5.731576
v 33.5728 10.75033 4.634977
v 33.70609 10.75033 5.731597
v 33.57281 12.15082 4.634976
v 33.70609 12.15082 5.731597
v 30.97303 10.75033 11.99386
v 30.19117 10.75033 13.41532
v 30.97303 12.15082 11.99386
v 30.19117 12.15082 13.41532
v 33.33728 10.75033 12.21886
v 33.40373 10.75033 13.8398
v 33.33728 12.15082 12.21886
v 33.40373 12.15082 13.8398
v 27.83694 11.34591 8.877176
v 28.03274 11.34591 7.066997
v 27.83694 12.29825 8.877176
v 28.03274 12.29825 7.066997
v 25.5013 13.3814 8.877165
v 25.53628 13.18875 7.066986
v 26.43832 13.55152 8.877165
v 26.4733 13.35887 7.066986
v 22.73113 18.64293 8.877154
v 22.82261 18.46981 7.066976
v 23.57313 19.08788 8.877154
v 23.66461 18.91476 7.066976
v 20.58974 19.77397 8.877144
v 20.77407 19.70792 7.066965
v 20.91099 20.67049 8.877144
v 21.09532 20.60444 7.066965
v 12.27101 20.93664 18.00746
v 11.4927 19.69374 17.80046
v 12.06358 21.54106 17.11633
v 11.19865 20.08916 16.19269
v 15.38754 48.93303 -4.10247
v 16.35942 49.00448 -2.89784
v 13.0515 48.77081 -1.929248
v 15.13692 48.92253 -0.1974363
v 20.77407 19.70792 2.013832
v 21.09532 20.89586 2.389112
v 18.75873 19.87524 2.013762
v 19.65729 21.69957 2.389041
v 18.83826 20.67049 16.03616
v 18.51701 19.77397 16.03616
v 17.45527 21.59209 16.03609
v 16.5567 20.05919 16.03609
v 16.57518 20.97127 18.00743
v 16.52698 19.72837 17.80044
v 16.36774 21.57569 17.11631
v 16.23293 20.12379 16.19267
v 20.58693 22.37903 -1.270625
v 20.58555 23.5169 -0.4589005
v 19.09698 21.33417 -0.3886414
v 19.34533 23.27531 0.5981531
v 16.90807 26.01058 -3.164267
v 17.41295 26.52089 -2.53847
v 15.69451 24.85202 -2.035294
v 16.77787 25.93559 -1.135631
v 15.05989 29.73516 -3.164268
v 15.56477 30.24547 -2.538472
v 13.84633 28.5766 -2.035295
v 14.92969 29.66017 -1.135633
v 15.05982 37.34581 -3.16427
v 15.5647 37.38293 -2.538474
v 13.84626 37.26154 -2.035297
v 14.92962 37.34036 -1.135634
v 15.05981 42.34773 -3.16427
v 15.56469 42.38485 -2.538474
v 13.84625 42.26346 -2.035297
v 14.92961 42.34228 -1.135634
v 15.80981 46.12979 -5.311211
v 17.38335 46.24548 -3.360833
v 12.02759 45.86714 -1.792616
v 15.40403 46.11279 1.011304

vt -5.387339 0.3378248
vt -7.009635 0.3378248
vt -5.387339 1.738321
vt -7.009635 1.738321
vt 3.179828 3.269722
vt 1.368189 3.056964
vt 3.063119 5.042734
vt 1.25148 4.829977
vt 1.762719 0.3378289
vt 0.6580289 0.3378289
vt 1.76272 1.738325
vt 0.6580289 1.738325
vt 1.330065 0.3378248
vt -3.557876 0.3378248
vt 1.330065 1.738321
vt -3.557876 1.738321
vt -0.9196604 3.799966
vt 0.7026347 3.799966
vt -1.842855 -1
vt -0.2205597 -1
vt 1.842855 -1
vt 0.2205603 -1
vt 0.9196604 3.799966
vt -0.7026346 3.799966
vt 2.150547 -2.399887
vt 2.283832 -1.303267
vt -0.7656845 1.738321
vt -0.765685 0.337825
vt -3.149911 1.738321
vt -3.14991 0.337825
vt 2.085086 0.3378248
vt 2.085086 1.738321
vt 2.62028 0.3378248
vt 2.62028 1.738321
vt -2.283832 -1.303267
vt -2.150547 -2.399888
vt 4.525304 -2.399866
vt 4.65859 -1.303247
vt -2.150526 1.738322
vt -2.150526 0.3378256
vt -4.525285 1.738322
vt -4.525284 0.3378256
vt 2.283821 0.3378248
vt 2.283821 1.738321
vt 4.658578 0.3378248
vt 4.658578 1.738321
vt -4.65859 -1.303247
vt -4.525305 -2.399867
vt 1.925531 4.95902
vt 1.143673 6.380477
vt -3.472707 1.738321
vt -3.472707 0.3378248
vt -5.007367 1.738321
vt -5.007367 0.3378248
vt 2.68156 0.337825
vt 2.68156 1.738322
vt 5.854554 0.337825
vt 5.854554 1.738322
vt -1.143673 6.380477
vt -1.925531 4.95902
vt 4.289776 5.184017
vt 4.356232 6.804952
vt -2.386682 1.738321
vt -2.386682 0.3378248
vt -4.761608 1.738321
vt -4.761608 0.3378248
vt 1.969606 0.3378248
vt 1.969606 1.738321
vt 5.210086 0.3378248
vt 5.210086 1.738321
vt -4.356232 6.804952
vt -4.289776 5.184017
vt -0.7715055 3.790216
vt -0.005748828 -1.037369
vt -1.525486 1.821318
vt -1.363073 0.009813095
vt 3.501713 1.738321
vt 3.501713 0.337825
vt 1.479258 1.88575
vt 1.479258 0.9334117
vt -0.8104368 0.337825
vt -0.8104364 1.738321
vt 0.7993321 0.9334118
vt 0.7993322 1.88575
vt 0.02635654 -1.047056
vt 0.9403569 3.75467
vt 1.270128 -0.01452439
vt 1.463982 1.795738
vt -1.525883 1.844195
vt -1.378269 0.02945087
vt -4.624013 1.844185
vt -4.47107 0.04722627
vt -1.210549 1.88575
vt -1.210549 0.9334116
vt -2.609163 3.13902
vt -3.546184 2.968903
vt 1.01476 0.9334116
vt 1.01476 1.88575
vt 3.511221 2.776248
vt 2.5742 2.946365
vt 1.899592 -0.02793349
vt 2.061498 1.785592
vt 3.78553 -0.02794424
vt 3.922797 1.770416
vt 1.710981 4.308986
vt -0.09669568 4.091293
vt 1.609341 10.25434
vt -0.1962632 10.02764
vt -5.474371 8.675376
vt -6.316373 8.230424
vt 6.22489 8.057308
vt 5.382889 8.502258
vt 0.05658479 3.790418
vt -1.751314 4.006265
vt 0.1533844 10.01515
vt -1.652567 10.23903
vt -9.4291 2.102229
vt -9.267355 0.2886897
vt -11.85083 2.102218
vt -11.657 0.2970783
vt -8.136505 10.25798
vt -8.457756 9.361465
vt 8.273433 9.295422
vt 7.95218 10.19194
vt 9.169216 0.2479557
vt 9.340775 2.060593
vt 12.24432 0.247945
vt 12.43462 2.053269
vt -9.717502 2.014399
vt -9.525586 0.2038037
vt -11.69845 2.014388
vt -11.54402 0.2011216
vt 0.9139768 1.2963
vt 0.3398787 -0.06892005
vt 0.04122819 1.960197
vt -1.193943 0.5246557
vt 10.89012 -11.06354
vt 9.915621 -9.858904
vt 13.23179 -8.890309
vt 11.14086 -7.158494
vt 11.91392 -0.05731098
vt 12.10705 1.753156
vt 13.5613 -0.05732171
vt 13.76391 1.750832
vt -0.03212118 5.9597
vt -0.03212118 6.912037
vt 5.021011 5.9597
vt 4.645732 7.186381
vt -11.03644 0.03211045
vt -9.014165 0.03212118
vt -11.03644 -5.021082
vt -9.014165 -5.021011
vt 11.91392 -0.2403635
vt 13.5613 -0.2403743
vt 12.05609 -4.925128
vt 13.70348 -4.925199
vt -0.3105967 4.743874
vt -0.3433888 2.967326
vt -4.985394 5.08162
vt -5.393215 3.060538
vt -4.03243 7.322648
vt -4.121771 6.37451
vt -11.48546 7.322648
vt -11.57481 6.37451
vt 14.12122 1.18104
vt 12.45928 1.181051
vt 15.84607 8.43168
vt 14.18413 8.431748
vt -9.717499 1.505579
vt -11.69845 1.505568
vt -11.76863 8.670812
vt -13.74958 8.670742
vt 4.666954 3.747408
vt 4.417058 5.506597
vt 12.11993 3.747408
vt 11.87004 5.506597
vt -13.60503 10.087
vt -13.85205 9.167254
vt -16.60548 10.39557
vt -16.51021 9.141633
vt 15.846 6.391502
vt 14.18406 6.391582
vt 16.74191 7.635361
vt 16.23413 8.601596
vt -11.76858 7.415064
vt -13.74953 7.414994
vt -13.73132 9.210244
vt -14.07923 7.565682
vt 15.03896 10.14317
vt 14.21438 11.7171
vt 15.3983 10.20949
vt 15.64157 11.82797
vt -12.48708 12.21559
vt -12.535 10.95556
vt -16.79124 12.18048
vt -17.56927 10.92029
vt 12.58957 2.001209
vt 12.38701 3.0789
vt 16.89388 2.001237
vt 16.69132 3.078927
vt -12.45616 8.194901
vt -12.74748 6.538739
vt -17.49055 8.194924
vt -17.78188 6.538763
vt 12.85459 13.07979
vt 12.72382 14.80089
vt 17.88882 13.03874
vt 17.02795 14.76156
vt 6.68343 7.774518
vt 6.247823 8.985093
vt 9.931234 10.49652
vt 9.138815 11.57924
vt -11.03625 -8.777545
vt -9.013981 -8.777463
vt -10.81985 -11.60024
vt -9.421432 -12.96227
vt 12.05593 -6.846439
vt 13.70332 -6.846526
vt 13.77958 -10.34928
vt 14.74435 -9.014824
vt -8.426871 8.649384
vt -9.171641 6.720206
vt -10.16209 10.3157
vt -11.15319 8.555037
vt 11.78658 11.42826
vt 11.15958 12.67747
vt 15.58297 15.41516
vt 14.77893 15.88251
vt 8.677641 13.95067
vt 7.068848 15.17597
vt 11.78327 18.07602
vt 10.40918 19.54814
vt 13.09809 -10.97986
vt 14.1296 -9.695395
vt 17.22464 -13.50683
vt 17.56324 -11.90098
vt -11.33818 13.11783
vt -12.22671 11.11433
vt -14.36075 15.86356
vt -15.75847 14.85617
vt 15.85461 14.83221
vt 15.06687 15.36738
vt 17.27992 18.7382
vt 16.49217 19.27337
vt 6.449836 17.74706
vt 4.820992 18.94558
vt 8.012681 21.60008
vt 6.383836 22.7986
vt 1.583843 20.61598
vt 0.06314724 19.98246
vt 0.5660621 24.6474
vt -0.9546338 24.01388
vt -14.693 14.81316
vt -16.07684 13.69861
vt -16.309 18.64419
vt -17.69283 17.52965
vt 5.135565 -2.399879
vt 5.26885 -1.303259
vt -5.135614 1.738323
vt -5.135613 0.3378265
vt 5.268876 0.3378248
vt 5.268876 1.738321
vt -5.26885 -1.303259
vt -5.135566 -2.39988
vt 5.069751 5.184013
vt 5.136207 6.804947
vt -4.289747 1.738321
vt -4.289747 0.3378248
vt -5.069722 1.738321
vt -5.069722 0.3378248
vt 4.356194 0.3378248
vt 4.356194 1.738321
vt 5.136169 0.3378248
vt 5.136169 1.738321
vt -5.136207 6.804947
vt -5.069751 5.184013
vt 16.72081 19.32269
vt 15.91674 19.833
vt 16.72086 26.93334
vt 15.91679 26.97046
vt 4.951858 18.16419
vt 3.294357 19.32276
vt 4.951907 26.84914
vt 3.294406 26.93341
vt 3.160671 19.83312
vt 1.620772 19.24781
vt 3.160644 26.97058
vt 1.620745 26.92801
vt -16.08093 19.24768
vt -17.48915 18.16411
vt -16.08099 26.92787
vt -17.4892 26.84906
vt 16.72084 31.93524
vt 15.91677 31.97236
vt 4.951847 31.85098
vt 3.294346 31.93525
vt 3.160699 26.97045
vt 1.6208 26.92788
vt 3.160696 31.97237
vt 1.620798 31.9298
vt -16.08098 31.92978
vt -17.48919 31.85096
vt 16.61218 26.33722
vt 15.80833 26.37878
vt 17.85674 30.57124
vt 15.35143 30.70075
vt 5.200435 35.29185
vt 3.543112 35.37955
vt 6.712682 39.04232
vt 1.547416 39.31567
vt 3.31537 24.94104
vt 1.775542 24.896
vt 4.801943 29.02495
vt 0.002861948 28.88459
vt -16.13375 30.80233
vt -17.54166 30.71838
vt -14.42523 34.81882
vt -18.81319 34.55715
vt 17.96409 34.06311
vt 15.45851 34.18737
vt 17.3083 37.07432
vt 15.76075 37.15107
vt 6.256648 31.00185
vt 1.091119 31.27016
vt 5.420306 33.96813
vt 2.229872 34.13386
vt 4.549852 38.4742
vt -0.2493169 38.33688
vt 3.700339 41.32958
vt 0.7361833 41.24477
vt -14.28225 33.40863
vt -18.67066 33.1545
vt -15.27113 36.31538
vt -17.98158 36.15842

vn 0.9991606 0 -0.04096406
vn -0.8572502 0.5025059 -0.1122946
vn 0.9926946 -7.581398E-07 -0.1206542
vn 0.9820017 0 0.1888718
vn 0 1 0
vn 0 -1 0
vn -0.5871454 -2.498871E-07 -0.8094815
vn 0.5666499 0 0.8239587
vn 8.634142E-06 -3.404802E-07 -1
vn -8.634142E-06 0 1
vn 0.755251 0 -0.6554356
vn -0.8132732 -6.922525E-08 0.5818821
vn 0.09473872 0 -0.9955022
vn -0.1309913 0 0.9913836
vn -0.555365 -0.8247183 -0.1068153
vn -0.5115416 -0.8535734 -0.07870381
vn -0.4677183 -0.8824285 -0.05059226
vn -0.9679496 -8.23912E-08 0.2511447
vn -0.6411812 -2.728845E-07 -0.7673896
vn 0.1407278 0.9896783 0.02706666
vn 0.1706825 0.9845518 0.02438462
vn 0.2006373 0.9794252 0.02170257
vn -0.6553531 -0.7519888 -0.0708884
vn -0.6238117 -0.7771639 0.001529619
vn -0.5922702 -0.8023389 0.07394764
vn 0.5613431 0.8253527 0.06071945
vn 0.6136144 0.7842308 -0.002751093
vn 0.6658858 0.7431089 -0.06622164
vn -0.8843858 -0.4656261 0.03246745
vn -0.8869154 -0.4613334 0.01561308
vn -0.889445 -0.4570406 -0.001241296
vn 0.892021 0.4509462 -0.03075779
vn 0.8900681 0.4552832 -0.01491557
vn 0.888115 0.4596202 0.0009266608
vn -0.4661738 -0.8825981 0.06084874
vn -0.4916545 -0.8691167 0.01970507
vn -0.5171351 -0.8556352 -0.02143859
vn 0.5487254 0.8343797 -0.05206633
vn 0.5298123 0.846886 -0.01570017
vn 0.5108991 0.8593922 0.020666
vn -0.1439472 -0.9893531 0.02144152
vn -0.1131569 -0.9907119 0.05818468
vn -0.08236656 -0.9920708 0.09492785
vn -0.7838379 0.4137218 0.4630684
vn -0.838604 0.39202 0.3587684
vn -0.8933702 0.3703182 0.2544685
vn -0.07101014 0.9974738 -0.001872378
vn 0.4877907 0.8727787 0.01782444
vn 0.5208824 0.8520502 -0.01354104
vn 0.5539742 0.8313218 -0.04490653
vn 0.9413863 -0.3373306 0
vn 0.9539241 -0.296822 -0.00798404
vn 0.9664618 -0.2563135 -0.01596808
vn -0.0827397 -0.9965712 0
vn 0.4871482 0.8716295 0.05430168
vn -0.8622785 0.5054545 0.03148892
vn -0.8796824 0.4736549 0.01574446
vn -0.8970863 0.4418553 0
vn 0.9082553 -0.3254565 0.2629645
vn 0.5475206 0.8216396 0.1585234
vn -0.143855 -0.9887219 -0.04164993
vn -0.836992 0.4906309 -0.2423339
vn 0.6231888 -0.2233082 0.7495126
vn 0.6405641 -0.1858896 0.7439014
vn 0.6579393 -0.1484711 0.7382901
vn 0.4815627 0.7226955 0.4957909
vn 0.4748745 0.7503961 0.4572797
vn 0.4681863 0.7780967 0.4187685
vn -0.1414955 -0.9725486 -0.1847381
vn -0.2088122 -0.9581769 -0.1831776
vn -0.2761288 -0.9438052 -0.181617
vn -0.3869717 0.2268364 -0.8937551
vn -0.5085198 0.3422264 -0.7605659
vn -0.630068 0.4576165 -0.6273767
vn 0.001327379 -0.1643291 0.9864047
vn 0.001233341 -0.1646512 0.986351
vn -0.006649615 0.8268579 0.5623717
vn 0.00667656 -0.9707576 -0.239969
vn -0.003697702 0.5369928 -0.8435787
vn -0.004017725 0.5377891 -0.8430692
vn -0.004337747 0.5385854 -0.8425598
vn 0.9583241 -0.1924615 -0.2111245
vn 0.9748229 -0.05766257 -0.1587869
vn 0.9913216 0.07713637 -0.1064493
vn -0.0704018 -0.8481869 -0.5249977
vn 0.04573312 -0.8046234 -0.5765795
vn 0.161868 -0.7610599 -0.6281612
vn 0.396643 0.7097439 0.5821838
vn 0.3752126 0.720828 0.5822718
vn 0.3537821 0.7319121 0.5823597
vn -0.8408968 0.3251896 0.4326018
vn -0.9141768 0.2378653 0.1924965
vn -0.9874567 0.150541 -0.0476087
vn 0.7045512 0.4126933 -0.5773144
vn 0.6865129 0.312655 -0.6450053
vn 0.6684747 0.2126167 -0.7126961
vn -0.1323629 -0.5223383 -0.842403
vn -0.1530304 -0.5551313 -0.8162249
vn -0.1736979 -0.5879243 -0.7900469
vn 0.3380536 0.7503127 0.5681114
vn 0.3846743 0.7483974 0.5374079
vn 0.4312949 0.746482 0.5067044
vn -0.7051702 -0.2475424 0.664423
vn -0.6252844 -0.1941426 0.7453494
vn -0.5453986 -0.1407429 0.8262759
vn 0.6070335 0.3012173 -0.7353764
vn -0.5160031 -0.2560476 -0.8174231
vn 0.7711747 0.382667 0.5087784
vn -0.4717801 -0.2341029 0.8500702
vn 0.7782831 6.961956E-06 -0.6279137
vn -0.681127 -5.620683E-06 -0.7321654
vn 0.9109935 8.995966E-06 0.4124207
vn -0.6388646 -5.600024E-06 0.7693192
vn 0.7080523 -0.4495485 -0.5445806
vn -0.6440878 -0.2770335 -0.7130241
vn 0.864867 -0.3261259 0.3816372
vn -0.5847803 -0.3445734 0.7343714
vn 0.7138262 0.365194 -0.5975664
vn -0.6743215 0.204394 -0.709587
vn 0.8772845 0.257619 0.4049746
vn -0.6285107 0.2561865 0.7343997

usemtl ProBuilderDefault
f 3/3/1 4/4/1 2/2/1 1/1/1
f 7/7/2 8/8/2 6/6/2 5/5/2
f 11/11/3 12/12/3 10/10/3 9/9/3
f 15/15/4 16/16/4 14/14/4 13/13/4
f 15/19/5 18/20/5 17/18/5 16/17/5
f 14/23/6 20/24/6 19/22/6 13/21/6
f 21/25/6 22/26/6 13/21/6 19/22/6
f 23/29/7 21/30/7 19/28/7 18/27/7
f 22/33/8 24/34/8 15/32/8 13/31/8
f 24/35/5 23/36/5 18/20/5 15/19/5
f 25/37/6 26/38/6 22/26/6 21/25/6
f 27/41/9 25/42/9 21/40/9 23/39/9
f 26/45/10 28/46/10 24/44/10 22/43/10
f 28/47/5 27/48/5 23/36/5 24/35/5
f 29/49/6 30/50/6 20/24/6 14/23/6
f 31/53/11 29/54/11 14/52/11 16/51/11
f 30/57/12 32/58/12 17/56/12 20/55/12
f 32/59/5 31/60/5 16/17/5 17/18/5
f 33/61/6 34/62/6 30/50/6 29/49/6
f 35/65/13 33/66/13 29/64/13 31/63/13
f 34/69/14 36/70/14 32/68/14 30/67/14
f 36/71/5 35/72/5 31/60/5 32/59/5
f 37/75/16 38/76/17 19/74/16 20/73/15
f 39/79/18 37/80/18 20/78/18 17/77/18
f 38/83/19 40/84/19 18/82/19 19/81/19
f 40/87/21 39/88/22 17/86/21 18/85/20
f 41/91/24 42/92/25 38/90/24 37/89/23
f 43/95/10 41/96/10 37/94/10 39/93/10
f 42/99/9 44/100/9 40/98/9 38/97/9
f 44/103/27 43/104/28 39/102/27 40/101/26
f 45/107/30 46/108/31 42/106/30 41/105/29
f 47/109/10 45/110/10 41/96/10 43/95/10
f 46/111/9 48/112/9 44/100/9 42/99/9
f 48/115/33 47/116/34 43/114/33 44/113/32
f 49/119/36 50/120/37 46/118/36 45/117/35
f 51/121/10 49/122/10 45/110/10 47/109/10
f 50/123/9 52/124/9 48/112/9 46/111/9
f 52/127/39 51/128/40 47/126/39 48/125/38
f 5/131/42 6/132/43 50/130/42 49/129/41
f 55/135/45 56/136/46 54/134/45 53/133/44
f 59/139/47 60/140/47 58/138/47 57/137/47
f 8/143/49 7/144/50 51/142/49 52/141/48
f 61/147/52 62/148/53 52/146/52 50/145/51
f 63/151/54 61/152/54 50/150/54 6/149/54
f 62/155/55 64/156/55 8/154/55 52/153/55
f 64/159/57 63/160/58 6/158/57 8/157/56
f 65/163/59 66/164/59 49/162/59 51/161/59
f 67/167/60 65/168/60 51/166/60 7/165/60
f 66/171/61 68/172/61 5/170/61 49/169/61
f 68/175/62 67/176/62 7/174/62 5/173/62
f 69/179/64 70/180/65 66/178/64 65/177/63
f 71/183/67 69/184/68 65/182/67 67/181/66
f 70/187/70 72/188/71 68/186/70 66/185/69
f 72/191/73 71/192/74 67/190/73 68/189/72
f 53/195/76 54/196/76 70/194/76 69/193/75
f 55/199/77 53/200/77 69/198/77 71/197/77
f 54/203/78 56/204/78 72/202/78 70/201/78
f 56/207/80 55/208/81 71/206/80 72/205/79
f 73/211/83 74/212/84 62/210/83 61/209/82
f 75/215/86 73/216/87 61/214/86 63/213/85
f 74/219/89 76/220/90 64/218/89 62/217/88
f 76/223/92 75/224/93 63/222/92 64/221/91
f 77/227/95 78/228/96 74/226/95 73/225/94
f 79/231/98 77/232/99 73/230/98 75/229/97
f 78/235/101 80/236/102 76/234/101 74/233/100
f 80/239/104 79/240/105 75/238/104 76/237/103
f 81/243/106 82/244/106 78/242/106 77/241/106
f 83/247/107 81/248/107 77/246/107 79/245/107
f 82/251/108 84/252/108 80/250/108 78/249/108
f 84/255/109 83/256/109 79/254/109 80/253/109
f 9/257/6 10/258/6 26/38/6 25/37/6
f 11/259/9 9/260/9 25/42/9 27/41/9
f 10/261/10 12/262/10 28/46/10 26/45/10
f 12/263/5 11/264/5 27/48/5 28/47/5
f 1/265/6 2/266/6 34/62/6 33/61/6
f 3/269/9 1/270/9 33/268/9 35/267/9
f 2/273/10 4/274/10 36/272/10 34/271/10
f 4/275/5 3/276/5 35/72/5 36/71/5
f 85/279/110 86/280/110 82/278/110 81/277/110
f 87/283/111 85/284/111 81/282/111 83/281/111
f 86/287/112 88/288/112 84/286/112 82/285/112
f 88/291/113 87/292/113 83/290/113 84/289/113
f 89/293/110 90/294/110 86/280/110 85/279/110
f 91/295/111 89/296/111 85/284/111 87/283/111
f 90/299/112 92/300/112 88/298/112 86/297/112
f 92/301/113 91/302/113 87/292/113 88/291/113
f 93/305/114 94/306/114 90/304/114 89/303/114
f 95/309/115 93/310/115 89/308/115 91/307/115
f 94/313/116 96/314/116 92/312/116 90/311/116
f 96/317/117 95/318/117 91/316/117 92/315/117
f 57/321/118 58/322/118 94/320/118 93/319/118
f 59/325/119 57/326/119 93/324/119 95/323/119
f 58/329/120 60/330/120 96/328/120 94/327/120
f 60/333/121 59/334/121 95/332/121 96/331/121

