# ProBuilder 4.1.0
# https://unity3d.com/unity/features/worldbuilding/probuilder
# 5/10/2019 4:44:53 PM

mtllib ./World1Base14.mtl
o World1Base14

g World1Base14
v 33.70064 40.11 6.264278
v 27.12891 40.11 6.264278
v 33.70064 44.3819 6.264278
v 27.12891 44.3819 6.264278
v 25.67226 40.11 -0.83646
v 26.63471 47.4876 -0.83646
v 27.38118 41.16332 -12.16681
v 33.44837 41.16332 -12.16681
v 27.38118 45.10724 -12.16681
v 33.44837 45.10724 -12.16681
v 37.49794 38.7395 -0.8949355
v 36.43488 40.11001 3.080935
v 37.32761 47.48761 -0.8949355
v 36.43488 44.38191 3.080935
v 32.79575 47.4876 -0.83646
v 33.70064 38.73949 -0.83646
v 24.51217 42.84023 -1.948196
v 32.80679 41.46972 -1.948196
v 25.78133 48.54171 -1.948196
v 37.32969 40.50554 -1.517416
v 37.20717 47.50024 -1.517416
v 31.46595 48.54171 -1.948196
v 27.06278 41.16332 -8.202893
v 33.90321 41.16332 -8.202893
v 24.04803 45.43985 -3.157619
v 23.69281 42.58201 -3.157619
v 25.02333 45.87693 -6.993443
v 24.47705 41.55361 -6.993443
v 36.47301 41.16333 -5.019533
v 36.29185 48.21295 -5.019533
v 32.94076 48.21294 -8.202893
v 27.95355 48.21294 -8.202893

vt 5.571735 0
vt -1 0
vt 5.571735 4.2719
vt -1 4.2719
vt 4.554298 0
vt -2.694308 0
vt 4.554298 4.2719
vt -2.5009 7.377602
vt 0.7477264 1.053318
vt -5.319462 1.053318
vt 0.7477264 4.997238
vt -5.319462 4.997238
vt 4.593625 -1.530083
vt 0.4781705 -0.1593298
vt 4.550663 7.219581
vt 0.4781705 4.111813
vt -5.571735 2.735629
vt 1 2.735629
vt -4.666847 -5.014588
vt 1.494196 -5.014588
vt 5.722905 -2.284137
vt -2.421613 -2.284137
vt 5.492284 4.943974
vt -0.9857402 4.737286
vt 2.281877 0.9720796
vt -5.724049 -0.5240251
vt 3.355633 3.952513
vt -4.915789 2.448427
vt -2.671206 7.379627
vt -3.31159 -0.0328772
vt -4.068946 8.438718
vt -4.913405 2.672257
vt 0.2836682 -1.553794
vt 0.3194777 7.195902
vt 0.9276082 0.2125591
vt 0.9533678 7.208273
vt -4.666847 -6.706319
vt 1.494196 -6.706319
vt -3.337046 -8.238341
vt 2.347576 -8.238341
vt -4.013431 -2.885455
vt 4.393651 -2.885455
vt -1.223573 -9.261628
vt 5.52535 -9.044997
vt -3.48866 4.68726
vt -3.405729 1.808625
vt -7.446179 5.127529
vt -7.318643 0.7717018
vt 0.687287 0.2315091
vt 0.7160302 7.227225
vt 4.292644 0.8893994
vt 4.335144 7.940998
vt -3.337046 -2.910981
vt 2.347576 -2.910981
vt -4.811855 -9.174313
vt 0.1753597 -9.174313
vt -1.066124 -9.612893
vt 5.774303 -9.612893
vt -0.7477264 -13.57681
vt 5.319462 -13.57681
vt -9.610956 8.071803
vt -9.65135 0.9662419
vt -13.59675 4.941457
vt -13.59675 1.028586
vt 8.891973 0.1254438
vt 9.001689 7.239615
vt 12.8819 0.1254438
vt 12.8819 4.033579
vt -4.811855 -2.569552
vt 0.1753597 -2.569552
vt -5.319462 -7.605229
vt 0.7477264 -7.605229
vt 5.567633 -2.468618
vt 5.571711 4.763171
vt 9.364915 -2.528173
vt 8.305941 1.635974
vt -4.64723 2.534973
vt -5.551127 -0.4098635
vt -9.173852 1.494997
vt -9.347739 -0.3750306
vt -0.05203721 0
vt -0.05203721 4.2719
vt 4.144361 1.144409E-05
vt 4.144361 4.271912
vt -3.361792 2.557629
vt -1.275658 -4.961197
vt -5.861315 -0.8131486
vt -5.418488 -5.620466
vt -4.577645 -6.714879
vt -3.235244 -8.235872
vt -9.109177 -6.79488
vt -8.988588 -7.257492
vt 5.714694 -9.551332
vt 4.604381 -3.291583
vt 8.281311 -6.365401
vt 9.16968 -2.890785
vt -1.772277 -3.273885
vt -3.282127 -9.528863
vt -7.60719 -2.843086
vt -6.578983 -6.339962
vt 3.131998 7.104649
vt 2.434205 0.02393195
vt -1.490078 7.104661
vt -1.621425 0.07431744
vt -4.076313 8.383378
vt -4.905096 2.601451
vt -6.124139 5.237747
vt -6.356103 2.374953
vt -5.472392 -7.660577
vt -4.129378 -1.168724
vt -1.740092 -6.405269
vt -0.7330625 -2.613697
vt -3.749336 -2.649065
vt -1.117697 -9.092152
vt -4.554692 -3.894916
vt -3.719772 -7.855679
vt -3.041035 0.5685918
vt -3.850597 7.627999
vt -0.1865029 0.9594229
vt -0.6829839 5.288751

vn 0 0 1
vn -0.9796005 0 0.200955
vn -0.9817346 0.06417551 0.162784
vn -0.9838687 0.128351 0.1246129
vn 0 0 -1
vn 0.9674938 0.01883716 0.2521924
vn 0.9716001 0.009418579 0.2356374
vn 0.9757063 0 0.2190824
vn 0 0.9161986 0.4007244
vn -0.1653086 -0.9683697 0.1869046
vn -0.08265432 -0.9841849 0.09345228
vn 0 -1 0
vn -0.06846406 -0.401059 -0.9134902
vn -0.06682833 -0.3978093 -0.9150225
vn -0.06519259 -0.3945595 -0.9165548
vn -0.7429987 0.09692819 0.6622371
vn -0.6358249 0.1073034 0.7514398
vn -0.5286511 0.1176786 0.8406425
vn 0.9774726 0.01903145 -0.2102025
vn 0.9795913 0.01811389 -0.1999036
vn 0.9817099 0.01719634 -0.1896048
vn 0 0.7256657 0.6880475
vn -0.1599128 -0.9678264 0.1942679
vn -0.07995639 -0.9833143 0.1215985
vn 0 -0.9988022 0.04892917
vn -0.9653406 0.1199883 -0.2317768
vn -0.9654148 0.120992 -0.2309404
vn -0.9654891 0.1219957 -0.230104
vn 0.9719529 0.01702543 -0.2345585
vn 0.9701909 0.02095624 -0.2413017
vn 0.9684288 0.02488704 -0.2480449
vn 0 0.9986214 -0.05249057
vn -0.9911067 0.1252326 0.04499118
vn -0.9939482 0.0626163 -0.01753742
vn -0.9967896 0 -0.08006602
vn 0.9844668 0.1344041 -0.112963
vn 0.9881835 0.06720207 0.007028211
vn 0.9919003 0 0.1270195
vn 0 0.7871673 -0.6167396
vn 0.002921285 -0.9818742 0.1895111
vn 0.2325216 -0.8874516 0.2932173
vn 0.462122 -0.793029 0.3969235
vn 0.008410567 -0.3747514 -0.9270872
vn -0.003051835 -0.354187 -0.9348411
vn -0.01451424 -0.3336226 -0.942595
vn 0.7585897 0 0.6515687
vn 0.3828187 0.8633256 0.3288142
vn 0.1953869 0.8252504 0.4727463
vn 0.007955135 0.7871751 0.6166783
vn 0.00880401 0.7308744 0.6824552
vn 0.09417415 0.8572565 0.3338306
vn 0.1795443 0.9836386 -0.01479397
vn -0.04975184 -0.9979536 0.04016634
vn -0.1220124 -0.9847854 -0.04740393
vn -0.194273 -0.9716172 -0.1349742
vn 0.1791687 0.9837729 -0.009463487
vn -0.03088091 0.9602956 0.1220791
vn -0.2409305 0.9368184 0.2536216
vn 0.6857048 0.0936157 -0.7218345
vn 0.731827 0.05680386 -0.6749217
vn 0.7779493 0.01999203 -0.6280089
vn -0.7468045 0.1662399 0.6439312
vn -0.7901877 0.1349249 0.59327
vn -0.833571 0.1036099 0.5426088
vn -0.6657591 0.6964457 -0.2678212
vn -0.7509817 0.611604 -0.2102061
vn -0.8362043 0.5267622 -0.1525909
vn -0.04877215 -0.9695351 0.2400482
vn -0.03803729 -0.9682227 0.2468494
vn -0.02730242 -0.9669105 0.2536508
vn -0.4165669 0.05263586 -0.9075801

usemtl ProBuilderDefault
f 3/3/1 4/4/1 2/2/1 1/1/1
f 4/7/3 6/8/4 5/6/3 2/5/2
f 9/11/5 10/12/5 8/10/5 7/9/5
f 13/15/7 14/16/8 12/14/7 11/13/6
f 15/19/9 6/20/9 4/18/9 3/17/9
f 1/23/11 2/24/12 5/22/11 16/21/10
f 17/27/14 18/28/15 16/26/14 5/25/13
f 19/31/17 17/32/18 5/30/17 6/29/16
f 20/35/20 21/36/21 13/34/20 11/33/19
f 22/39/22 19/40/22 6/38/22 15/37/22
f 23/43/24 24/44/25 18/42/24 17/41/23
f 27/47/27 28/48/28 26/46/27 25/45/26
f 29/51/30 30/52/31 21/50/30 20/49/29
f 31/55/32 32/56/32 19/54/32 22/53/32
f 7/59/12 8/60/12 24/58/12 23/57/12
f 9/63/34 7/64/35 23/62/34 32/61/33
f 8/67/37 10/68/38 31/66/37 24/65/36
f 10/71/39 9/72/39 32/70/39 31/69/39
f 11/75/41 12/76/42 1/74/41 16/73/40
f 20/79/44 11/80/45 16/78/44 18/77/43
f 12/83/46 14/84/46 3/82/46 1/81/46
f 14/87/48 13/88/49 15/86/48 3/85/47
f 13/91/51 21/92/52 22/90/51 15/89/50
f 29/95/54 20/96/55 18/94/54 24/93/53
f 21/99/57 30/100/58 31/98/57 22/97/56
f 30/103/60 29/104/61 24/102/60 31/101/59
f 25/107/63 26/108/64 17/106/63 19/105/62
f 27/111/66 25/112/67 19/110/66 32/109/65
f 26/115/69 28/116/70 23/114/69 17/113/68
f 28/119/71 27/120/71 32/118/71 23/117/71

