# ProBuilder 4.1.0
# https://unity3d.com/unity/features/worldbuilding/probuilder
# 8/10/2019 11:30:40 PM

mtllib ./World1Base31.mtl
o World1Base31

g World1Base31
v 4.092809 2.707878 1.955293
v 3.33095 2.707878 -0.6154122
v 4.092809 3.021336 1.955293
v 3.33095 3.021336 -0.6154122
v 4.276302 2.707878 -0.9414688
v 4.276302 3.021336 -0.9414688
v 41.7852 3.434668 31.25487
v 35.23714 3.434668 41.27563
v 41.7852 3.748125 31.25487
v 35.23714 3.748125 41.27563
v 5.058205 2.707878 1.694508
v 5.058205 3.021336 1.694508
v 4.338525 1.553246 -0.2391597
v 4.209934 1.553246 -0.462332
v 4.178179 1.553246 -0.217177
v 4.0463 1.553246 -0.4479269
v 4.338525 2.539815 -0.2391597
v 4.209934 2.539815 -0.462332
v 4.178179 2.539815 -0.217177
v 4.0463 2.539815 -0.4479269
v 7.413013 2.707878 -1.829183
v 7.230838 2.707878 1.425213
v 7.413013 3.021336 -1.829183
v 7.230838 3.021336 1.425213
v 10.98644 2.707878 -0.129419
v 8.718591 2.707878 1.942513
v 10.98644 3.021336 -0.129419
v 8.718591 3.021336 1.942513
v 12.94825 4.037628 3.980477
v 9.893685 4.037628 4.305564
v 12.94825 4.351086 3.980477
v 9.893685 4.351086 4.305564
v 12.93099 4.950127 5.877673
v 9.876427 4.950127 6.20276
v 12.93099 5.263584 5.877673
v 9.876427 5.263584 6.20276
v 13.04167 5.288361 10.33113
v 9.673173 5.288361 11.9213
v 13.04167 5.601818 10.33113
v 9.673173 5.601818 11.9213
v 15.57045 3.833292 14.85479
v 13.87568 3.833292 18.1719
v 15.57045 4.146749 14.85479
v 13.87568 4.146749 18.1719
v 21.68305 3.434668 20.22737
v 19.98827 3.434668 23.54447
v 21.68305 3.748125 20.22737
v 19.98827 3.748125 23.54447
v 26.2524 3.434668 18.03168
v 19.67098 3.434668 31.71857
v 26.2524 3.748125 18.03168
v 19.67098 3.748125 31.71857
v 39.43075 3.434668 23.68121
v 26.21803 3.434668 40.69081
v 39.43075 3.748125 23.68121
v 26.21803 3.748125 40.69081

vt 0.5318476 0.4678783
vt -2.149374 0.4678783
vt 0.5318476 0.7813358
vt -2.149374 0.7813358
vt -0.1592671 0.4678783
vt -1.159268 0.4678783
vt -0.1592671 0.7813358
vt -1.159268 0.7813358
vt -4.203778 1.194668
vt -16.17426 1.194668
vt -4.203778 1.508125
vt -16.17426 1.508125
vt 1.077652 0.4678783
vt 0.0776527 0.4678783
vt 1.077652 0.7813358
vt 0.0776527 0.7813358
vt -0.489563 -0.2176781
vt 2.0741 0.5675488
vt -0.2200012 -1.18066
vt 2.408749 -0.3747959
vt -1.707035 -0.443409
vt -1.929028 -0.3127918
vt -1.683594 -0.2832699
vt -1.913134 -0.1492958
vt -0.5563851 1.04083
vt 2.193114 1.04083
vt 1.502107 0.8220505
vt 1.752633 0.7837546
vt 0.5244623 -0.226949
vt 0.2557167 -1.190159
vt -1.655183 -0.2925563
vt -1.678553 -0.4526972
vt -2.422406 -0.4195326
vt -2.108266 0.5298455
vt -1.914155 -0.3570657
vt -1.899235 -0.1941153
vt -2.031988 0.7028708
vt 0.5240866 -0.1067169
vt -1.884419 -0.03621316
vt -1.655559 -0.1704526
vt 1.246395 0.2998152
vt 1.503964 0.2998152
vt 1.246395 -0.6867533
vt 1.503964 -0.6867533
vt 0.5241303 0.2998152
vt 0.685976 0.2998152
vt 0.5241303 -0.6867533
vt 0.685976 -0.6867533
vt -0.4979709 0.2998152
vt -0.3337041 0.2998152
vt -0.4979709 -0.6867533
vt -0.3337041 -0.6867533
vt -1.577029 0.2998152
vt -1.311252 0.2998152
vt -1.577029 -0.6867533
vt -1.311252 -0.6867533
vt -2.408749 -0.3747959
vt 0.2200012 -1.18066
vt -3.324978 -3.503296
vt -0.06905937 -3.350752
vt -1.036691 0.7813358
vt -1.036691 0.4678783
vt -4.296597 0.7813358
vt -4.296597 0.4678783
vt 1.141276 0.4678783
vt 1.141276 0.7813358
vt 3.330534 0.4678783
vt 3.330534 0.7813358
vt 0.06905937 -3.350752
vt 3.324978 -3.503296
vt -1.657812 -7.092049
vt 0.4346771 -4.843151
vt -1.776348 0.7813358
vt -1.776348 0.4678783
vt -5.733441 0.7813358
vt -5.733441 0.4678783
vt 3.152693 0.4678783
vt 3.152693 0.7813358
vt 4.727813 0.4678783
vt 4.727813 0.7813358
vt -0.4346771 -4.843151
vt 1.657812 -7.092049
vt -1.51591 -7.113113
vt 0.5262343 -4.818402
vt 2.767444 -9.152976
vt 3.111833 -6.147121
vt -1.623683 0.7813358
vt -1.623683 0.4678783
vt -6.177794 2.111086
vt -6.177794 1.797628
vt 2.583293 0.4678783
vt 2.583293 0.7813358
vt 5.222395 1.797628
vt 5.222395 2.111086
vt -0.68573 -4.776068
vt 1.267884 -7.146605
vt -3.358234 -6.037344
vt -3.028775 -8.972217
vt 2.972685 -9.108073
vt 3.290694 -6.052763
vt 5.077988 -9.108085
vt 5.395998 -6.052774
vt -2.43411 2.111086
vt -2.43411 1.797628
vt -4.331384 3.023584
vt -4.331384 2.710127
vt 2.78697 1.797628
vt 2.78697 2.111086
vt 4.684244 2.710127
vt 4.684244 3.023584
vt -3.426556 -6.066904
vt -3.108546 -9.122214
vt -5.531859 -6.066916
vt -5.213849 -9.122226
vt 4.523477 -9.11158
vt 4.875349 -6.059984
vt 8.98857 -9.262796
vt 10.60472 -5.907975
vt -4.637417 3.023584
vt -4.637417 2.710127
vt -9.092249 3.361818
vt -9.092249 3.048361
vt 4.52299 2.710127
vt 4.52299 3.023584
vt 10.24514 3.048361
vt 10.24514 3.361818
vt -4.855009 -6.058343
vt -4.502749 -9.109895
vt -10.58515 -5.907148
vt -8.96723 -9.261608
vt 7.765729 -8.575351
vt 9.336842 -5.197923
vt 12.48572 -11.16325
vt 15.71602 -9.413858
vt -12.21069 3.361818
vt -12.21069 3.048361
vt -17.39318 1.90675
vt -17.39318 1.593292
vt 11.91096 3.048361
vt 11.91096 3.361818
vt 19.44296 1.593292
vt 19.44296 1.90675
vt -9.664454 -5.441275
vt -8.068203 -8.806894
vt -16.0347 -9.715409
vt -12.75271 -11.4223
vt 13.24469 -11.71475
vt 16.57624 -10.04854
vt 18.56905 -17.88228
vt 21.90059 -16.21607
vt -17.62156 1.90675
vt -17.62156 1.593292
vt -25.75964 1.508125
vt -25.75964 1.194668
vt 18.53848 1.593292
vt 18.53848 1.90675
vt 26.67655 1.194668
vt 26.67655 1.508125
vt -16.56916 -10.03439
vt -13.23762 -11.7006
vt -21.89351 -16.20192
vt -18.56197 -17.86813
vt 18.60076 -17.97351
vt 21.93315 -16.30899
vt 16.36357 -22.52269
vt 30.10981 -16.06612
vt -7.920111 1.508125
vt -7.920111 1.194668
vt -12.98963 1.508125
vt -12.98963 1.194668
vt 21.43926 1.194668
vt 21.43926 1.508125
vt 29.61953 1.194668
vt 29.61953 1.508125
vt -21.93315 -16.30899
vt -18.60076 -17.97351
vt -30.10981 -16.06612
vt -16.36357 -22.52269
vt 21.89291 -35.75191
vt 39.02208 -22.69457
vt -27.09095 1.508125
vt -27.09095 1.194668
vt -41.42923 1.508125
vt -41.42923 1.194668
vt 33.74818 1.194668
vt 33.74818 1.508125
vt 44.85516 1.194668
vt 44.85516 1.508125
vt -39.02208 -22.69457
vt -21.89291 -35.75191
vt 29.44483 -38.1752
vt 39.52477 -31.71863
vt -31.76957 1.508125
vt -31.76957 1.194668
vt -39.70077 1.508125
vt -39.70077 1.194668
vt 24.82983 1.194668
vt 24.82983 1.508125
vt 33.86789 1.194668
vt 33.86789 1.508125
vt -39.52477 -31.71863
vt -29.44483 -38.1752

vn -0.9587812 0 0.284146
vn -0.3260561 0 -0.9453506
vn 0.8371217 0 0.5470169
vn 0.2607853 0 0.9653969
vn 0 1 0
vn 0 -1 0
vn 0.7364676 -0.6402284 -0.2184564
vn 0.5817491 -0.7551724 -0.2322549
vn 0.4270307 -0.8701164 -0.2460535
vn 0.02105285 -0.9967361 0.07793524
vn 0.01617532 -0.9966354 0.08017171
vn 0.01129778 -0.9965346 0.08240817
vn -0.11838 -0.9317632 -0.3432251
vn -0.08509026 -0.8693262 -0.4658261
vn -0.05180049 -0.8068893 -0.5884271
vn -0.2441345 -0.9670386 0.0723521
vn -0.184729 -0.9782828 0.07198878
vn -0.1253236 -0.989527 0.07162546
vn 0.8664581 0 -0.4992501
vn 0.1358249 0 0.990733
vn -0.087693 0 -0.9961477
vn -0.8682075 0 0.4962016
vn -0.2723128 0 -0.9622089
vn 0.1230075 0 0.9924059
vn 0.4295486 0 -0.9030439
vn -0.3284195 0 0.9445322
vn 0.1968703 -0.9564559 0.2154862
vn 0.1234857 -0.9186476 0.3431216
vn 0.05010116 -0.8808393 0.4707569
vn 0.9024583 0 -0.4307775
vn -0.8953999 0 0.4452632
vn -0.3131098 0.8857241 -0.3427171
vn -0.1722065 0.9204886 -0.3184228
vn -0.03130316 0.9552531 -0.2941285
vn 0.04611715 -0.9000582 0.4333227
vn 0.9999588 0 0.009096552
vn -0.9999588 0 -0.009096552
vn -0.04611715 0.9000582 -0.4333227
vn 0.008038361 -0.9971112 0.07552947
vn 0.0181869 -0.997453 0.06777653
vn 0.02833544 -0.9977947 0.06002359
vn 0.9996914 0 -0.02484435
vn -0.9993691 0 -0.03552049
vn -0.006307486 0.9982223 -0.05926595
vn -0.02081173 0.9973972 -0.06703829
vn -0.03531598 0.9965722 -0.07481063
vn -0.1156483 -0.9626059 -0.2449804
vn -0.1538759 -0.9695301 -0.1715649
vn -0.1921035 -0.9764543 -0.09814941
vn 0.8728734 0 -0.487947
vn -0.8298722 0 0.5579537
vn 0.0818688 0.9814385 0.1734245
vn 0.183354 0.9644511 0.1594772
vn 0.2848393 0.9474638 0.14553
vn -0.04494658 -0.9987254 -0.02296408
vn 0.6601773 0 -0.75111
vn -0.6601772 0 0.7511101
vn 0.04494661 0.9987254 0.0229641
vn -0.4331161 0 -0.9013383
vn -0.9992476 0 -0.03878761
vn 0.3940175 0 -0.9191031
vn -0.8078021 0 0.589454
vn 0.9549215 0 -0.2968587
vn -0.06470582 0 0.9979045

usemtl ProBuilderDefault
f 3/3/1 4/4/1 2/2/1 1/1/1
f 4/7/2 6/8/2 5/6/2 2/5/2
f 9/11/3 10/12/3 8/10/3 7/9/3
f 12/15/4 3/16/4 1/14/4 11/13/4
f 12/19/5 6/20/5 4/18/5 3/17/5
f 15/23/6 16/24/6 14/22/6 13/21/6
f 17/27/8 18/28/9 5/26/8 11/25/7
f 19/31/11 17/32/12 11/30/11 1/29/10
f 18/35/14 20/36/15 2/34/14 5/33/13
f 20/39/17 19/40/18 1/38/17 2/37/16
f 13/43/19 14/44/19 18/42/19 17/41/19
f 15/47/20 13/48/20 17/46/20 19/45/20
f 14/51/21 16/52/21 20/50/21 18/49/21
f 16/55/22 15/56/22 19/54/22 20/53/22
f 21/59/6 22/60/6 11/58/6 5/57/6
f 23/63/23 21/64/23 5/62/23 6/61/23
f 22/67/24 24/68/24 12/66/24 11/65/24
f 24/69/5 23/70/5 6/20/5 12/19/5
f 25/71/6 26/72/6 22/60/6 21/59/6
f 27/75/25 25/76/25 21/74/25 23/73/25
f 26/79/26 28/80/26 24/78/26 22/77/26
f 28/81/5 27/82/5 23/70/5 24/69/5
f 29/85/28 30/86/29 26/84/28 25/83/27
f 31/89/30 29/90/30 25/88/30 27/87/30
f 30/93/31 32/94/31 28/92/31 26/91/31
f 32/97/33 31/98/34 27/96/33 28/95/32
f 33/101/35 34/102/35 30/100/35 29/99/35
f 35/105/36 33/106/36 29/104/36 31/103/36
f 34/109/37 36/110/37 32/108/37 30/107/37
f 36/113/38 35/114/38 31/112/38 32/111/38
f 37/117/40 38/118/41 34/116/40 33/115/39
f 39/121/42 37/122/42 33/120/42 35/119/42
f 38/125/43 40/126/43 36/124/43 34/123/43
f 40/129/45 39/130/46 35/128/45 36/127/44
f 41/133/48 42/134/49 38/132/48 37/131/47
f 43/137/50 41/138/50 37/136/50 39/135/50
f 42/141/51 44/142/51 40/140/51 38/139/51
f 44/145/53 43/146/54 39/144/53 40/143/52
f 45/149/55 46/150/55 42/148/55 41/147/55
f 47/153/56 45/154/56 41/152/56 43/151/56
f 46/157/57 48/158/57 44/156/57 42/155/57
f 48/161/58 47/162/58 43/160/58 44/159/58
f 49/165/6 50/166/6 46/164/6 45/163/6
f 51/169/59 49/170/59 45/168/59 47/167/59
f 50/173/60 52/174/60 48/172/60 46/171/60
f 52/177/5 51/178/5 47/176/5 48/175/5
f 53/179/6 54/180/6 50/166/6 49/165/6
f 55/183/61 53/184/61 49/182/61 51/181/61
f 54/187/62 56/188/62 52/186/62 50/185/62
f 56/189/5 55/190/5 51/178/5 52/177/5
f 7/191/6 8/192/6 54/180/6 53/179/6
f 9/195/63 7/196/63 53/194/63 55/193/63
f 8/199/64 10/200/64 56/198/64 54/197/64
f 10/201/5 9/202/5 55/190/5 56/189/5

