# ProBuilder 4.1.0
# https://unity3d.com/unity/features/worldbuilding/probuilder
# 23/08/2019 3:27:12 PM

mtllib ./World1Base2.mtl
o World1Base2

g World1Base2
v -16.23027 12.09056 13.23175
v -18.70488 12.50402 13.86323
v -16.12586 14.0598 11.90092
v -18.60046 14.47326 12.53239
v -20.98853 11.47695 1.170475
v -24.2149 14.09551 -0.1818619
v -20.98853 16.68001 1.438708
v -24.2149 19.38152 -0.1818619
v -21.09 20.81135 -13.49821
v -17.92186 20.81135 -10.19872
v -21.09 23.63794 -13.49821
v -17.92186 22.90773 -10.19872
v -16.78542 14.09551 -2.028553
v -17.40991 11.47695 2.291145
v -16.78542 18.76393 -2.028553
v -17.40991 16.68001 2.559378
v -21.09 14.09551 -7.499413
v -16.78542 14.09551 -7.499413
v -51.3519 21.82817 -1.721599
v -51.44231 19.6676 -1.697391
v -52.51851 21.86079 -3.166837
v -52.60892 19.70022 -3.142629
v -16.78542 19.38952 -7.499413
v -21.09 20.11973 -7.499413
v -27.36329 17.84801 -2.456614
v -27.36329 11.83354 -2.456614
v -27.36329 17.84801 -7.927473
v -27.36329 11.83354 -7.927473
v -21.5698 23.27003 -19.18893
v -21.5698 24.6496 -19.18893
v -24.56895 20.60536 -18.78435
v -24.56895 23.54084 -18.78435
v -37.31594 19.89643 -2.962329
v -37.31594 16.11025 -2.962329
v -37.31594 19.89643 -6.214568
v -37.31594 16.11025 -6.214568
v -44.10102 19.08464 -1.583295
v -44.10102 16.92204 -1.583295
v -44.85483 19.08464 -3.281095
v -44.85483 16.92204 -3.281095
v -16.16763 10.54694 8.276331
v -18.64223 10.54694 9.031118
v -16.06321 14.13658 8.429113
v -18.53782 14.13658 9.183899
v -25.0487 15.35175 -13.09362
v -25.0487 21.36622 -13.09362
v -21.56978 23.27003 -16.62564
v -21.56978 24.6496 -16.62564
v -25.60437 20.60536 -15.26168
v -25.60437 23.54084 -15.26168
v -47.04097 21.49032 -1.583255
v -48.16854 19.64494 -1.583255
v -47.68422 21.88336 -3.281054
v -48.81179 20.03798 -3.281054
v -19.36472 23.27003 -17.31664
v -19.36472 24.6496 -17.31664
v -19.36473 23.27003 -19.18893
v -19.36473 24.6496 -19.18893
v -32.39643 23.79308 -16.22106
v -31.65706 22.5998 -16.22106
v -32.39644 23.79307 -18.78435
v -31.65708 22.59979 -18.78435
v -27.06076 24.06935 -15.69558
v -27.06076 22.66558 -15.69558
v -26.51374 24.06935 -18.78435
v -26.51374 22.66558 -18.78435
v -29.42931 24.75351 -16.22106
v -29.42931 23.34974 -16.22106
v -29.42933 24.75351 -18.78435
v -29.42933 23.34974 -18.78435

vt -2.143379 -11.35158
vt -4.684522 -10.86583
vt -1.589128 -9.037982
vt -4.13027 -8.552229
vt 1.181157 -3.159148
vt -2.315022 -0.5377263
vt 1.293452 2.049612
vt -2.315022 4.742499
vt 7.832357 5.951353
vt 3.258109 5.951353
vt 7.832357 8.777944
vt 3.258109 8.047734
vt -1.082458 -0.7644939
vt -5.447063 -3.383047
vt -1.082458 3.903929
vt -5.712536 1.820013
vt -2.901512 5.083954
vt 0.6442642 3.863339
vt -3.80196 0.0868554
vt 3.475852 1.141834
vt 3.382996 1.464142
vt -3.957374 3.638177
vt 3.170348 6.54955
vt -0.3653502 5.889228
vt -4.124901 3.418138
vt 3.304581 1.571447
vt -1 -3.899413
vt 3.304581 -3.899413
vt -18.19201 5.954352
vt -18.23002 3.79209
vt -20.04935 5.986995
vt -20.08735 3.824735
vt -1.571447 -0.7644939
vt -1.571447 3.903929
vt 3.899413 -0.7644939
vt 3.899413 4.529524
vt -2.851413 1.081919
vt 4.600739 2.940497
vt -2.782058 -4.424156
vt 1.576941 -4.452216
vt -1.341695 4.521515
vt -1.341695 -0.7644939
vt -5.225877 2.988012
vt -5.225877 -3.026457
vt -0.8339486 -3.634969
vt 2.356741 3.691423
vt 5.837968 -4.063547
vt 5.837968 1.400711
vt -3.983692 3.612905
vt -1.244502 -3.857596
vt -7.832104 1.290607
vt -7.832104 -4.068243
vt -0.6175418 8.410028
vt -0.6175418 9.789603
vt 2.408777 5.745358
vt 2.408777 8.680842
vt -7.205898 2.988012
vt -7.205898 -3.026457
vt -17.17139 5.036426
vt -17.17139 1.250255
vt 7.726326 -4.327473
vt 7.726326 1.143386
vt 17.88759 -2.614568
vt 17.88759 0.6376705
vt -5.487619 1.143386
vt -5.487619 -4.327473
vt -16.32023 0.6376705
vt -16.32023 -2.614568
vt 6.433919 -3.026457
vt 6.433919 2.988012
vt 16.5329 1.250255
vt 16.5329 5.036426
vt -17.00782 5.036426
vt -17.00782 1.250255
vt -23.93161 4.22464
vt -23.93161 2.06204
vt 16.58773 -2.614568
vt 16.58773 0.6376705
vt 24.1702 0.3189049
vt 23.42072 2.016705
vt -17.25249 0.6376705
vt -17.25249 -2.614568
vt -24.08595 2.016705
vt -24.83443 0.3189049
vt 15.10534 1.250255
vt 15.10534 5.036426
vt 23.19484 2.06204
vt 23.19484 4.22464
vt 2.500645 6.387591
vt -1.073139 5.251593
vt 3.692911 12.45464
vt 1.221653 13.17819
vt -6.59676 1.805603
vt -6.335037 -3.397789
vt -12.61893 -0.7379941
vt -12.44699 -4.326627
vt 4.317884 -3.350161
vt 4.575038 1.853459
vt 12.52122 -4.28027
vt 12.69738 -0.6918523
vt 0.6863214 4.087154
vt -2.869211 5.279052
vt -1.460126 12.32462
vt -3.918762 11.7105
vt 3.495129 9.952748
vt 1.031708 10.74326
vt 3.579333 15.14272
vt 1.155168 15.93783
vt -11.9573 -0.5968459
vt -11.80636 -4.188076
vt -15.42967 -0.6736537
vt -16.76212 -2.64444
vt 12.59067 -4.257898
vt 12.74078 -0.6666331
vt 17.42283 -2.299936
vt 16.08979 -0.3294556
vt -1.529145 12.64157
vt -4.002571 11.88294
vt -1.476909 16.00712
vt -3.937588 15.32962
vt 1 2.027514
vt -3.304581 2.027514
vt 1 11.03241
vt -2.168144 8.834391
vt -7.876534 -3.857547
vt -1.21092 -3.38478
vt -4.431358 -9.563248
vt 1.256146 -11.46775
vt 2.311636 -0.7644939
vt 2.311636 4.529524
vt 5.240418 5.951353
vt 5.240418 8.047734
vt 3.805606 5.668108
vt -0.4587378 6.60512
vt 3.048002 10.18271
vt 0.3595516 13.07089
vt -1.034647 -5.935906
vt 5.633236 -6.423234
vt -2.347311 -12.76527
vt 2.173121 -12.10846
vt -0.9753977 2.988012
vt -0.9753977 -3.026457
vt -6.636355 6.506223
vt -6.636355 0.4917545
vt 9.935386 5.951353
vt 9.935386 8.777944
vt 13.09941 8.410028
vt 13.09941 9.789603
vt 8.174679 2.706184
vt 4.661352 8.476692
vt 9.507419 8.258965
vt 6.285861 11.6821
vt -3.242771 -12.08749
vt 1.319148 -11.65781
vt -3.294737 -15.4089
vt 0.7875943 -14.43356
vt -10.42749 6.506223
vt -10.42749 0.4917545
vt -12.66562 8.680842
vt -12.66562 5.745358
vt -24.01105 4.22464
vt -24.01105 2.06204
vt -26.951 6.630322
vt -28.07857 4.784944
vt 20.57755 -3.991039
vt 20.04163 -2.212404
vt 24.55729 -3.990997
vt 23.82357 -2.318818
vt -21.10004 -0.8340165
vt -21.72645 -2.582835
vt -25.99482 -0.8339747
vt -26.748 -2.48973
vt 24.76484 2.06204
vt 24.76484 4.22464
vt 28.72179 5.177979
vt 27.59423 7.023356
vt -26.87661 6.576039
vt -28.00364 4.730337
vt -31.18975 6.913949
vt -31.27938 4.753253
vt 27.5998 -1.266346
vt 26.95623 0.4762377
vt 32.43407 -1.149116
vt 31.26743 0.266118
vt -28.07295 0.8760945
vt -28.71574 -0.8667738
vt -31.34669 0.7589287
vt -32.51326 -0.656614
vt 28.71276 5.15801
vt 27.58603 7.003898
vt 32.51241 4.82016
vt 32.42113 6.979643
vt 13.71664 8.410028
vt 13.71664 9.789603
vt 15.58893 8.410028
vt 15.58893 9.789603
vt -1.049253 -10.13755
vt 3.780046 -11.52196
vt -0.2142853 -13.71304
vt 3.780034 -14.04738
vt -1.167259 -13.02566
vt 3.016904 -11.6617
vt -1.167244 -15.58895
vt 2.018503 -15.18437
vt -12.62116 14.07531
vt -12.62115 12.67154
vt -15.18445 14.0753
vt -15.18444 12.67153
vt 2.482999 8.410028
vt 2.482999 9.789603
vt 4.793797 8.410028
vt 4.793797 9.789603
vt -1.479797 -15.58893
vt -1.479782 -13.02564
vt 0.7252655 -15.58893
vt 0.7252808 -13.71664
vt 1.479782 -13.02564
vt 1.479797 -15.58893
vt -0.7252808 -13.71664
vt -0.7252655 -15.58893
vt 1.479797 9.789603
vt 1.479797 8.410028
vt -0.7252655 9.789603
vt -0.7252655 8.410028
vt -8.614512 8.680842
vt -8.614512 5.745358
vt -10.13417 9.209348
vt -10.13417 7.805577
vt 6.598686 -15.69297
vt 7.597864 -12.15985
vt 8.614012 -15.69297
vt 9.141888 -12.60231
vt -9.633334 9.71623
vt -13.30502 9.71623
vt -9.638921 12.27628
vt -12.75659 12.48179
vt 4.478951 5.745358
vt 4.478951 8.680842
vt 6.423744 7.805577
vt 6.423744 9.209348
vt -9.425086 9.209348
vt -9.425086 7.805577
vt -11.85122 9.893514
vt -11.85122 8.489743
vt 8.357771 -15.47506
vt 8.890325 -12.38377
vt 11.35255 -15.47506
vt 11.35253 -12.91387
vt -8.806395 -12.34983
vt -8.279352 -15.44207
vt -11.27165 -12.8759
vt -11.27166 -15.43631
vt 9.339325 8.489743
vt 9.339325 9.893514
vt -9.33931 9.893514
vt -9.33931 8.489743
vt -12.30643 8.933078
vt -11.56706 7.739799
vt 5.838574 -15.18437
vt 5.83856 -12.62108
vt 8.957266 -15.18437
vt 8.957249 -12.62108
vt -6.142628 -12.62108
vt -6.142643 -15.18437
vt -8.493224 -12.62108
vt -8.49324 -15.18437
vt 11.56708 7.739791
vt 12.30644 8.93307

vn 0.2917452 0.5249082 0.7995974
vn -0.4181909 -0.04676636 0.9071546
vn -0.4335199 -0.02338318 0.9003811
vn -0.4488489 0 0.8936077
vn 0.7213176 0 -0.6926044
vn 0.9897111 0 0.1430802
vn 0.9904796 -0.003398289 0.1374587
vn 0.9912481 -0.006796577 0.1318372
vn -0.1241056 0.9096924 0.3963049
vn 0.05223832 0.7982742 0.5431087
vn 0.2285823 0.6868559 0.6899124
vn -0.1311668 -0.8392416 -0.5277014
vn 0.0826925 -0.4814571 -0.7373383
vn 0.2965518 -0.1236727 -0.9469752
vn 0 -1 0
vn -0.7770791 0.03955494 0.6281588
vn 1 0 0
vn 0.110153 0.9874794 0.1129187
vn 0.1375047 0.9796537 0.1406803
vn 0.1648564 0.971828 0.1684418
vn -0.5856451 0 0.8105676
vn -0.337113 0.9401823 -0.04911274
vn -0.3875032 0.9196047 -0.02455637
vn -0.4378934 0.8990269 0
vn 0.471423 -0.858622 0.2013174
vn 0.4053087 -0.8996692 0.1006587
vn 0.3391944 -0.9407163 0
vn -0.1336882 0 -0.9910235
vn -0.05074671 0 0.9987116
vn 0.2015904 0.9794699 0
vn -0.3947996 -0.9187673 0
vn -0.1696118 0 -0.9855109
vn 0.1991731 0 0.9799643
vn -0.1070609 0.9942524 0
vn -0.1080091 0.9935606 0.02418827
vn -0.1089574 0.9928686 0.04837653
vn -0.1187957 -0.9929187 0
vn -0.1050765 -0.9939553 0.02028109
vn -0.09135726 -0.9949917 0.04056217
vn -0.362627 0 -0.9319344
vn 0.05127099 -0.9851732 -0.163723
vn 0.009203 -0.989404 -0.1357361
vn -0.03286499 -0.9936348 -0.1077492
vn 0.9756693 0.01128784 -0.2189569
vn 0.976999 -0.004198532 -0.2125382
vn 0.9783288 -0.01968491 -0.2061196
vn -0.9585955 -0.01466128 0.2843935
vn -0.9552542 1.762528E-06 0.2952056
vn -0.9519129 0.01466481 0.3060176
vn -0.106634 0.9341735 0.3405131
vn 0.00355649 0.9275182 0.3567191
vn 0.113747 0.9208629 0.3729252
vn 0.09065808 -0.9504934 0.2972263
vn 0.01574228 -0.9380008 0.3356513
vn -0.05917352 -0.9255081 0.3740764
vn 0.9994045 -0.02981033 0.01737397
vn 0.9992204 -0.03325981 0.02071925
vn 0.9990362 -0.03670929 0.02406452
vn -0.9992291 0.0301366 -0.02516004
vn -0.9991312 0.03395543 -0.0238242
vn -0.9990333 0.03777426 -0.02248836
vn -0.03067288 0.9944578 -0.1005626
vn 0.07011969 0.9897152 -0.03784874
vn 0.1709123 0.9849725 0.02486509
vn 0 -0.6661705 -0.7457995
vn 0.3563314 -0.4103075 -0.7150468
vn 0.7126629 -0.1544446 -0.6842942
vn 0.3326121 -0.8421311 -0.4244813
vn 0.4884666 -0.6757942 -0.4974176
vn 0.6443211 -0.5094572 -0.5703539
vn 0.9216495 0 -0.3880236
vn 0.106303 0.6266556 0.7720119
vn -0.1027046 0.7231356 0.6263525
vn -0.3117122 0.8196155 0.4806931
vn -0.3277293 0.8149533 0.4779588
vn -0.3813056 0.8189443 0.4217737
vn -0.4348819 0.8229354 0.3655887
vn -0.912593 0 -0.408869
vn 0.9884363 0 -0.1516367
vn 0.3570379 -0.3238133 -0.8761671
vn 0.3163536 -0.5292496 -0.7480203
vn 0.2756692 -0.7346859 -0.6198735
vn -0.4425309 0.8311269 0.336741
vn -0.2002434 0.7709537 0.5194487
vn 0.04204413 0.7107804 0.7021564
vn -0.9686905 0 0.2482714
vn 1.378631E-05 0 1
vn 0.6712792 0.678641 -0.2980447
vn 0.6516959 0.7255698 -0.1793522
vn 0.6321126 0.7724985 -0.06065968
vn -0.5400562 -0.8067489 0.2397823
vn -0.5789366 -0.79566 0.146115
vn -0.6178169 -0.784571 0.05244778
vn -1.025808E-05 0 -1
vn -0.03060536 0.01870049 0.9993566
vn -0.03267884 0.01567586 0.9993362
vn -0.03475232 0.01265124 0.9993159
vn 0.0007742212 0.9743 0.2252533
vn 0.04008247 0.9851375 0.09182324
vn 0.07939073 0.9959749 -0.04160685
vn 0.001134372 -0.9741405 -0.2259406
vn 0.04303852 -0.9831828 -0.158451
vn 0.08494268 -0.9922252 -0.09096143
vn -0.03851125 0.02353117 -0.9989811
vn -0.03104111 0.006658238 -0.9993255
vn -0.02357097 -0.01021469 -0.99967
vn 0.5826242 -0.794495 0.1712502
vn 0.6234072 -0.7710293 0.08562315
vn 0.6641904 -0.7475635 -3.953802E-06
vn -0.2649894 0.9642513 1.577433E-06
vn -0.3111292 0.9461654 -0.05250509
vn -0.3572689 0.9280795 -0.1050118
vn -0.8500521 -0.5266985 6.627868E-06
vn 0.299031 0 0.9542434
vn 0 1 0
vn -0.2855251 0 0.9583713
vn 0.2614675 0.9621478 0.07685291
vn 0.2934036 0.952994 0.06723523
vn 0.3253398 0.9438401 0.05761756
vn -0.7720971 -0.5936022 -0.2269418
vn -0.7466624 -0.6372111 -0.1773355
vn -0.7212276 -0.6808201 -0.1277291
vn -0.2165907 0 0.9762625
vn 0.2282663 0.9727591 0.04042587
vn 0.2528881 0.966741 0.02021211
vn 0.2775098 0.9607228 -1.651964E-06
vn -0.2674835 -0.9623973 -0.04737123
vn -0.2479683 -0.9679761 -0.02368494
vn -0.228453 -0.973555 1.359937E-06
vn -0.3079636 0.9513981 1.833249E-06
vn 0.3190446 -0.9477397 -1.899212E-06

usemtl ProBuilderDefault
f 3/3/1 4/4/1 2/2/1 1/1/1
f 7/7/3 8/8/4 6/6/3 5/5/2
f 11/11/5 12/12/5 10/10/5 9/9/5
f 15/15/7 16/16/8 14/14/7 13/13/6
f 15/19/10 8/20/11 7/18/10 16/17/9
f 14/23/13 5/24/14 6/22/13 13/21/12
f 17/27/15 18/28/15 13/26/15 6/25/15
f 21/31/16 22/32/16 20/30/16 19/29/16
f 18/35/17 23/36/17 15/34/17 13/33/17
f 23/39/19 24/40/20 8/38/19 15/37/18
f 25/43/21 26/44/21 6/42/21 8/41/21
f 27/47/23 25/48/24 8/46/23 24/45/22
f 26/51/26 28/52/27 17/50/26 6/49/25
f 31/55/28 32/56/28 30/54/28 29/53/28
f 33/59/29 34/60/29 26/58/29 25/57/29
f 35/63/30 33/64/30 25/62/30 27/61/30
f 34/67/31 36/68/31 28/66/31 26/65/31
f 36/71/32 35/72/32 27/70/32 28/69/32
f 37/75/33 38/76/33 34/74/33 33/73/33
f 39/79/35 37/80/36 33/78/35 35/77/34
f 38/83/38 40/84/39 36/82/38 34/81/37
f 40/87/40 39/88/40 35/86/40 36/85/40
f 41/91/42 42/92/43 5/90/42 14/89/41
f 43/95/45 41/96/46 14/94/45 16/93/44
f 42/99/48 44/100/49 7/98/48 5/97/47
f 44/103/51 43/104/52 16/102/51 7/101/50
f 1/107/54 2/108/55 42/106/54 41/105/53
f 3/111/57 1/112/58 41/110/57 43/109/56
f 2/115/60 4/116/61 44/114/60 42/113/59
f 4/119/63 3/120/64 43/118/63 44/117/62
f 9/123/66 10/124/67 18/122/66 17/121/65
f 45/127/69 9/128/70 17/126/69 28/125/68
f 10/131/71 12/132/71 23/130/71 18/129/71
f 12/135/73 11/136/74 24/134/73 23/133/72
f 11/139/76 46/140/77 27/138/76 24/137/75
f 46/143/78 45/144/78 28/142/78 27/141/78
f 47/147/79 48/148/79 11/146/79 9/145/79
f 49/151/81 47/152/82 9/150/81 45/149/80
f 48/155/84 50/156/85 46/154/84 11/153/83
f 50/159/86 49/160/86 45/158/86 46/157/86
f 51/163/87 52/164/87 38/162/87 37/161/87
f 53/167/89 51/168/90 37/166/89 39/165/88
f 52/171/92 54/172/93 40/170/92 38/169/91
f 54/175/94 53/176/94 39/174/94 40/173/94
f 19/179/96 20/180/97 52/178/96 51/177/95
f 21/183/99 19/184/100 51/182/99 53/181/98
f 20/187/102 22/188/103 54/186/102 52/185/101
f 22/191/105 21/192/106 53/190/105 54/189/104
f 57/195/17 58/196/17 56/194/17 55/193/17
f 31/199/108 29/200/109 47/198/108 49/197/107
f 30/203/111 32/204/112 50/202/111 48/201/110
f 61/207/113 62/208/113 60/206/113 59/205/113
f 55/211/114 56/212/114 48/210/114 47/209/114
f 57/215/15 55/216/15 47/214/15 29/213/15
f 56/219/115 58/220/115 30/218/115 48/217/115
f 58/223/94 57/224/94 29/222/94 30/221/94
f 63/227/116 64/228/116 49/226/116 50/225/116
f 65/231/118 63/232/119 50/230/118 32/229/117
f 64/235/121 66/236/122 31/234/121 49/233/120
f 66/239/94 65/240/94 32/238/94 31/237/94
f 67/243/123 68/244/123 64/242/123 63/241/123
f 69/247/125 67/248/126 63/246/125 65/245/124
f 68/251/128 70/252/129 66/250/128 64/249/127
f 70/253/94 69/254/94 65/240/94 66/239/94
f 59/257/87 60/258/87 68/256/87 67/255/87
f 61/261/130 59/262/130 67/260/130 69/259/130
f 60/265/131 62/266/131 70/264/131 68/263/131
f 62/267/94 61/268/94 69/254/94 70/253/94

