# ProBuilder 4.1.0
# https://unity3d.com/unity/features/worldbuilding/probuilder
# 5/10/2019 4:03:18 PM

mtllib ./World1Base11.mtl
o World1Base11

g World1Base11
v 72.49818 3.18 -3.98
v 70.42 3.18 -3.98
v 72.49818 4.513155 -3.98
v 70.42 4.513155 -3.98
v 70.42 2.069481 -6.334063
v 70.42 3.402636 -6.334063
v 72.49818 2.069481 -6.334063
v 72.49818 3.402636 -6.334063
v 72.49818 11.7356 -0.1472573
v 70.42 11.7356 -0.1472573
v 72.49818 18.1453 -0.2049789
v 70.42 18.1453 -0.2049789
v 72.49818 9.369943 -4.046031
v 70.42 9.369943 -4.046031
v 72.49818 10.72538 -6.268117
v 70.42 10.72538 -6.268117
v 72.49818 11.73555 -1.394843
v 70.42 11.73555 -1.394843
v 72.49818 14.08603 -2.512945
v 70.42 14.08603 -2.512945
v 72.49818 11.7356 -0.7509329
v 70.42 11.7356 -0.7509329
v 72.49818 18.1453 -0.8086545
v 70.42 18.1453 -0.8086545

vt 1.078186 2.384186E-07
vt -1 0
vt 1.078186 1.333155
vt -1 1.333155
vt 0 0
vt -2.354063 -1.110519
vt 0 1.333155
vt -2.354063 0.2226355
vt 1 -1.110519
vt -1.078186 -1.110519
vt 1 0.2226355
vt -1.078186 0.2226355
vt 2.354063 -1.110519
vt 2.354063 0.2226355
vt 1.078186 8.520737
vt -1 8.520737
vt 1.078186 14.9307
vt -1 14.9307
vt 1.078186 -2.602857
vt -1 -2.602857
vt 1.078186 6.190268
vt -1 6.190268
vt 2.288117 7.545377
vt 0.06603098 6.189942
vt -0.06603098 6.189942
vt -2.288117 7.545377
vt 1 0.2014276
vt -1.078186 0.2014276
vt 1 7.524466
vt -1.078186 7.524466
vt 1.078186 4.071856
vt -1 4.071856
vt 1.078186 7.625011
vt -1 7.625011
vt -1.467055 10.90602
vt -2.585157 8.555553
vt 2.585157 8.555553
vt 1.467055 10.90602
vt 1 3.326821
vt -1.078186 3.326821
vt 1 8.366193
vt -1.078186 8.366193
vt 1.078186 2.585727
vt -1 2.585727
vt 1.078186 3.229637
vt -1 3.229637
vt -3.171345 14.9653
vt -3.229067 8.555596
vt 3.229067 8.555596
vt 3.171345 14.9653
vt 1 10.62361
vt -1.078186 10.62361
vt 1 15.02615
vt -1.078186 15.02615
vt 1.078186 3.229081
vt -1 3.229081
vt 1.078186 3.832756
vt -1 3.832756
vt -3.775021 14.9653
vt -3.832743 8.555597
vt 3.832743 8.555597
vt 3.775021 14.9653
vt 1 3.171345
vt -1.078186 3.171345
vt 1 3.775021
vt -1.078186 3.775021

vn 0 0 1
vn -1 0 0
vn 0 0 -1
vn 1 0 0
vn 0 0.009004988 0.9999595
vn 1.037584E-07 -0.904415 0.426654
vn 0 0.01359435 0.9999076
vn 0 0.009005227 -0.9999595
vn 0 -0.7461503 0.6657776
vn 0 0.7451666 -0.6668783
vn 0 -1 6.664803E-05
vn 0 0.3871159 -0.922031
vn 0 1 0

usemtl ProBuilderDefault
f 3/3/1 4/4/1 2/2/1 1/1/1
f 4/7/2 6/8/2 5/6/2 2/5/2
f 6/11/3 8/12/3 7/10/3 5/9/3
f 8/14/4 3/7/4 1/5/4 7/13/4
f 11/17/5 12/18/5 10/16/5 9/15/5
f 1/1/6 2/2/6 5/20/6 7/19/6
f 13/21/7 14/22/7 4/4/7 3/3/7
f 15/23/4 13/24/4 3/7/4 8/14/4
f 14/25/2 16/26/2 6/8/2 4/7/2
f 16/29/8 15/30/8 8/28/8 6/27/8
f 17/33/9 18/34/9 14/32/9 13/31/9
f 19/35/4 17/36/4 13/24/4 15/23/4
f 18/37/2 20/38/2 16/26/2 14/25/2
f 20/41/10 19/42/10 15/40/10 16/39/10
f 21/45/11 22/46/11 18/44/11 17/43/11
f 23/47/4 21/48/4 17/36/4 19/35/4
f 22/49/2 24/50/2 20/38/2 18/37/2
f 24/53/12 23/54/12 19/52/12 20/51/12
f 9/57/11 10/58/11 22/56/11 21/55/11
f 11/59/4 9/60/4 21/48/4 23/47/4
f 10/61/2 12/62/2 24/50/2 22/49/2
f 12/65/13 11/66/13 23/64/13 24/63/13

