# ProBuilder 4.1.0
# https://unity3d.com/unity/features/worldbuilding/probuilder
# 7/10/2019 9:33:48 PM

mtllib ./World1Base27.mtl
o World1Base27

g World1Base27
v 15.7325 -10.14117 -19.12366
v 7.182805 -7.985109 -16.6716
v 15.44134 -7.400465 -19.63999
v 6.747757 -5.519564 -17.89222
v 0.5322514 -6.812793 -15.05348
v -0.3707619 -6.812793 -17.56365
v 0.8835754 -5.34385 -15.61142
v 0.3706646 -5.34385 -17.0372
v 5.575147 -7.985109 -21.14053
v 14.12484 -10.14117 -23.59258
v 6.039283 -5.519564 -19.86162
v 14.46819 -7.400465 -22.34512
v 43.38149 -9.876545 -13.49146
v 36.05059 -9.876545 -6.583279
v 41.70056 -6.030529 -12.84946
v 35.39598 -6.357723 -6.908424
v 25.41821 -11.91435 -23.29836
v 24.28914 -11.91435 -18.68522
v 24.71414 -9.778185 -22.3843
v 23.95657 -9.778185 -19.28904
v 34.70886 -9.550704 -19.87686
v 28.03204 -9.550704 -16.34555
v 33.49782 -6.027244 -20.29438
v 27.75576 -6.031882 -17.25746
v 2.167646 -7.985109 -14.90639
v 0.559988 -7.985109 -19.37531
v 2.793116 -5.369911 -15.89972
v 1.879967 -5.369911 -18.43806
v 37.62329 -9.876564 -17.55574
v 30.29239 -9.876564 -10.64756
v 53.31618 -5.696651 -37.47914
v 53.82227 -7.431471 -37.16234
v 54.33199 -5.857294 -36.83046
v 55.0372 -7.592112 -36.39519
v 29.63778 -6.357742 -10.97271
v 29.45802 -4.268593 -16.36486
v 33.7982 -4.268593 -18.66034
v 30.88056 -4.514896 -11.61448
v 35.64592 -4.514896 -16.10506
v 56.73359 -5.857275 -35.31664
v 57.4388 -7.592094 -34.88137
v 32.1752 -3.626639 -11.81591
v 35.58728 -3.626639 -15.03123
v 35.29158 -3.626629 -9.616291
v 38.70366 -3.626629 -12.83162
v 35.94235 -6.030529 -16.91374
v 47.5563 -6.030529 -19.55068
v 41.79811 -6.030529 -23.61496
v 43.47904 -9.876533 -24.25696
v 49.23724 -9.876504 -20.19268
v 39.35358 -6.027244 -26.99559
v 40.56462 -9.550683 -26.57807
v 46.37519 -6.027244 -33.01419
v 47.4017 -9.550662 -32.37163
v 48.43561 -6.030529 -31.69845
v 49.86603 -9.876501 -30.81557
v 53.3069 -6.030528 -28.62789
v 54.73733 -9.876465 -27.74501
v 50.92862 -6.023865 -34.55798
v 51.43471 -7.431471 -34.24118
v 51.94443 -6.025484 -33.9093
v 52.64964 -7.592113 -33.47403
v 54.34603 -6.025484 -32.39548
v 55.05125 -7.592094 -31.96021
v 52.66288 -6.608889 -34.30076
v 52.03391 -6.50942 -34.70242
v 54.14127 -6.608889 -36.10954
v 53.51228 -6.50942 -36.5112
v 54.14995 -6.608877 -33.36341
v 55.62833 -6.608877 -35.17219
v 52.4727 -5.834732 -34.19714
v 51.74133 -5.71907 -34.66418
v 54.19175 -5.834732 -36.30037
v 55.9209 -5.834719 -35.21043
v 53.46037 -5.71907 -36.76742
v 54.20185 -5.834719 -33.10719
v 35.23294 -4.514882 -8.542465
v 39.9983 -4.514882 -13.03304

vt 0 -0.2397133
vt -8.882543 1.964573
vt -0.1076247 2.562294
vt -8.897439 4.645736
vt -1.315457 -2.320893
vt -3.983112 -2.320893
vt -1.721539 -0.7628101
vt -3.236768 -0.7628098
vt 9.74948 0.02031565
vt 0.931863 -2.430819
vt 9.478787 2.823292
vt 0.77601 0.59093
vt 16.2597 -4.027715
vt 6.186723 -4.027715
vt 14.59607 -0.1210732
vt 5.933301 -0.44319
vt 0.7789916 -0.3455007
vt 9.672847 1.406682
vt 1.732919 -3.057474
vt 10.36733 -0.5676911
vt -1.512617 -4.502354
vt -10.32779 -2.042435
vt 0.05461411 -0.01909167
vt -8.760556 2.440828
vt -1.549473 -4.489616
vt 0.03836457 -0.01360961
vt 9.882237 -4.194922
vt 8.767087 0.4009791
vt 1.575312 1.041332
vt 2.039796 -1.953622
vt -8.617014 -1.556965
vt -9.227677 -3.906495
vt 0 -0.2408971
vt -0.2975807 2.547342
vt 8.56144 -2.04483
vt 8.221366 0.1651635
vt 0.9606664 -0.2872014
vt 1.896935 -3.005322
vt -7.880235 0.06543534
vt -8.609096 -2.994877
vt 8.973568 -4.399666
vt 7.874043 0.2206013
vt 18.55828 -0.9728835
vt 12.05618 2.637249
vt -8.813527 -1.388111
vt -9.472589 -3.724781
vt -17.68796 2.714908
vt -18.91777 -0.3609141
vt 7.164506 -1.365708
vt 6.539561 0.7901747
vt 11.56675 1.019756
vt 10.8053 4.583689
vt -6.276065 -1.007522
vt -6.847055 -4.142578
vt -11.60165 1.050166
vt -15.93255 -2.546966
vt -8.549695 2.452053
vt -10.15735 -2.016872
vt -13.56485 4.21727
vt -15.17251 -0.2516556
vt -8.524852 5.310233
vt -8.708139 2.530934
vt -12.9524 5.478929
vt -13.96843 2.887616
vt 8.911561 -0.8752103
vt 8.898365 1.940776
vt 14.22831 -0.8752103
vt 13.29438 2.053383
vt 9.82838 -0.6911041
vt 9.120269 1.278421
vt 13.99036 0.7325477
vt 13.07767 3.271061
vt -12.03732 2.754527
vt -13.32912 -1.815714
vt -14.04924 2.604102
vt -14.77484 0.03702298
vt -13.28127 3.90384
vt -14.05207 1.142855
vt -15.21243 3.931354
vt -15.64539 2.380524
vt 11.02958 -3.760174
vt 10.68758 -0.703528
vt 12.93884 -2.389969
vt 12.74674 -0.6730682
vt 13.90996 0.7058278
vt 12.99689 3.244201
vt 15.41947 2.106703
vt 14.9066 3.532496
vt 18.9421 -0.8505601
vt 12.27192 2.693267
vt 21.86816 1.47879
vt 14.54455 8.390005
vt -21.78153 4.083394
vt -22.37856 2.348565
vt -22.98679 3.92275
vt -23.81541 2.1879
vt 7.13032 0.5834376
vt 6.180893 4.103182
vt 13.26026 0.2574921
vt 12.71606 3.764219
vt -13.58849 2.490023
vt -17.92746 0.192247
vt -15.01646 7.245154
vt -19.78049 2.754028
vt 21.89079 1.567917
vt 14.55989 8.476093
vt 27.64899 5.632202
vt 20.31809 12.54038
vt -23.2117 3.878356
vt -24.04039 2.143521
vt -26.05059 3.878375
vt -26.87928 2.143538
vt 16.78304 -0.02721351
vt 16.06073 3.493385
vt 23.83111 -0.02719441
vt 23.10881 3.493404
vt -16.44271 7.307764
vt -19.85479 4.092439
vt -19.55909 9.507379
vt -22.97117 6.292055
vt -25.96806 6.2742
vt -20.20985 2.209915
vt -31.8238 -0.427021
vt -26.06561 -4.491302
vt 27.74654 -5.133301
vt 33.50474 -1.069019
vt 13.95212 -5.233978
vt 12.36263 -1.296589
vt 22.85135 -5.233936
vt 21.26184 -1.296587
vt -12.5713 -0.3573539
vt -13.05377 -4.075274
vt -21.47052 -0.3573538
vt -21.953 -4.075254
vt -20.2075 2.207853
vt -17.76296 -1.17279
vt -26.06325 -4.493366
vt -23.61872 -7.874001
vt 18.91253 -0.8433864
vt 21.84209 1.481567
vt 24.75561 -7.55566
vt 27.68516 -5.230715
vt -23.05739 0.8795797
vt -23.70515 -2.813112
vt -32.30544 0.8795797
vt -32.66665 -2.828289
vt -23.61864 -7.873943
vt -32.70067 -12.5768
vt -30.64025 -13.89254
vt 24.77111 -7.557451
vt 27.69945 -5.230992
vt 31.59686 -13.36435
vt 34.07585 -11.79943
vt -37.5744 -9.504234
vt -32.70311 -12.57479
vt 34.13353 -11.69191
vt 39.00483 -8.621353
vt 20.58826 -6.518501
vt 19.07973 -2.549422
vt 29.9311 -6.518461
vt 29.8027 -2.377622
vt -33.47959 4.593344
vt -34.24561 0.947206
vt -38.28761 4.59684
vt -38.66526 3.117642
vt -32.70285 -12.584
vt -30.64242 -13.89975
vt -36.21167 -14.79486
vt -35.19586 -15.44354
vt 30.82782 -7.787648
vt 33.14208 -5.986376
vt 35.25136 -9.951818
vt 36.39231 -9.063771
vt -37.57717 -9.508606
vt -32.70588 -12.57916
vt -38.61631 -13.2762
vt -36.2147 -14.79002
vt 32.45588 -5.823684
vt 37.0869 -2.401473
vt 35.81079 -8.786605
vt 38.09394 -7.099419
vt 19.94997 -13.48454
vt 20.36192 -9.307566
vt 24.06452 -11.00354
vt 24.26761 -9.247617
vt -34.83635 -2.695029
vt -34.93279 -4.220983
vt -38.60661 -2.340305
vt -38.70304 -4.168095
vt -36.39287 -15.71973
vt -35.75698 -16.12282
vt -37.86334 -17.53495
vt -37.22745 -17.93804
vt 35.35307 -15.47319
vt 36.57737 -14.70411
vt 37.7316 -18.40171
vt 38.9559 -17.63262
vt -38.41746 -14.23974
vt -36.9304 -15.17709
vt -39.89584 -16.04852
vt -38.40878 -16.98587
vt 36.91715 -14.35036
vt 39.31876 -12.83655
vt 39.30471 -17.27152
vt 41.70632 -15.7577
vt 34.82173 -8.324949
vt 34.71246 -6.55602
vt 38.59447 -8.324949
vt 38.4852 -6.407049
vt -36.28598 -13.26555
vt -35.28909 -13.94295
vt -36.84092 -13.56613
vt -36.14498 -14.08624
vt -38.49648 -17.51554
vt -40.89745 -16.00072
vt -38.35575 -16.9851
vt -40.08445 -15.89443
vt -34.0882 -17.02513
vt -36.42475 -20.00526
vt -34.95591 -17.13347
vt -36.55007 -19.32242
vt -36.46253 -18.34935
vt -37.49096 -17.70067
vt -36.60845 -17.63763
vt -37.34892 -17.17058
vt -38.64502 -11.68312
vt -36.28723 -13.26432
vt -38.53974 -12.42651
vt -36.84213 -13.56497
vt -40.80973 -16.63376
vt -38.43068 -13.70085
vt -39.99678 -16.52712
vt -38.27908 -14.42625
vt -21.76034 -4.097373
vt -20.89304 -3.978169
vt -21.8585 -4.895238
vt -21.11263 -4.792724
vt 23.3757 12.22983
vt 25.4197 12.22985
vt 23.43475 11.43309
vt 25.19258 11.4331
vt 34.82069 -0.4292716
vt 37.53707 -0.4292716
vt 35.03545 -1.245112
vt 37.37154 -1.245112
vt 23.4394 12.25766
vt 24.30672 12.13857
vt 23.61481 11.44388
vt 24.3607 11.34146
vt -25.08709 -3.728112
vt -23.04309 -3.728125
vt -24.90656 -4.525024
vt -23.14872 -4.525035
vt -37.88867 9.223443
vt -35.17229 9.223443
vt -37.67392 8.423282
vt -35.33783 8.423281
vt -12.44907 0.0111117
vt -17.54451 -4.017622
vt -14.77319 1.195222
vt -18.62299 -1.851969
vt 12.19867 9.154314
vt 5.642732 9.561766
vt 11.99182 11.45859
vt 7.036466 11.76656
vt -9.456199 -2.086801
vt -13.62807 -2.090347
vt -10.95657 -0.1888907
vt -14.10991 -0.4175012
vt 23.1088 3.694205
vt 16.06073 3.694182
vt 22.03332 5.915934
vt 16.70599 5.915915
vt -17.7856 -1.348664
vt -24.83367 -1.348665
vt -18.00974 0.3801347
vt -23.33708 0.3801466
vt -17.93792 -5.890045
vt -13.20292 1.371517
vt -15.66235 -6.114433
vt -11.92962 -0.7371179
vt -15.11982 3.17671
vt -18.80151 -2.238002
vt -16.68401 2.933834
vt -19.32016 -0.9431881
vt -19.63548 11.46651
vt -15.84153 7.726664
vt -20.12189 10.15925
vt -17.40536 7.481453
vt -14.72138 10.7202
vt -18.51532 14.46005
vt -14.23498 12.02746
vt -16.9515 14.70526
vt -15.33109 -5.880377
vt -11.6494 -0.4656698
vt -13.76691 -5.637502
vt -11.13076 -1.760482

vn 0.3177706 0.2080349 0.925064
vn 0.2939389 0.3365389 0.88407
vn 0.2701072 0.4650429 0.8430761
vn -0.887131 0.3333909 0.3191382
vn -0.129565 0.4756827 -0.8700224
vn -0.1482988 0.4506937 -0.8796671
vn -0.1670327 0.4257047 -0.8893119
vn 0.6751695 0.1754892 0.7164842
vn 0.6715657 0.1831096 0.7179118
vn 0.6679617 0.1907299 0.7193395
vn 0.197279 0.9777752 -0.07096946
vn -0.2221337 -0.971736 0.07991072
vn -0.1562944 -0.9861089 0.05622559
vn -0.1782795 -0.982312 0.003605302
vn -0.2002646 -0.978515 -0.04901498
vn 0.09008852 0.4032111 -0.9106618
vn 0.08952589 0.4098425 -0.9077232
vn 0.08896327 0.4164738 -0.9047846
vn -0.01226009 0.1838648 0.9828751
vn 0.01279642 0.2305647 0.9714614
vn 0.03785294 0.2772645 0.9600477
vn 0.2713892 0.9575052 -0.09763002
vn 0.2486506 0.9650413 -0.02116888
vn 0.2259119 0.9725773 0.05529226
vn 0.2269178 -0.972329 0.0555384
vn 0.2365032 -0.9112951 0.2604152
vn 0.2460887 -0.850261 0.465292
vn 0.04419034 0.4052844 -0.913122
vn 0.1941007 0.2061306 -0.9260309
vn 0.344011 0.006976714 -0.9389398
vn -0.585085 0.1349478 0.7996653
vn -0.5844363 0.1476849 0.7977827
vn -0.5837876 0.160422 0.7959001
vn -0.648865 0.7441462 -0.1588106
vn -0.4491865 0.7952778 -0.3146375
vn -0.249508 0.8464094 -0.4704645
vn 0 -1 0
vn 0.4130285 0.4615564 0.7850943
vn 0.3664179 0.3650918 0.8468496
vn 0.3198074 0.2686271 0.9086049
vn -0.290693 0.4831218 -0.825888
vn -0.2831933 0.4638548 -0.8390703
vn -0.2756936 0.4445878 -0.8522527
vn 0.03201714 0.999421 -0.01151791
vn -0.5820671 -0.7857176 0.2093938
vn 0.1456775 0.3206513 0.9359278
vn -0.5772184 0.5176741 -0.6315318
vn 0.01294355 0.9999054 -0.004656334
vn -0.04441765 -0.9954768 -0.08398265
vn -0.04179038 -0.9969225 -0.06277111
vn -0.03916311 -0.9983682 -0.04155957
vn 0.5385683 0.003249347 -0.8425756
vn 0.536478 0.004205353 -0.8438997
vn 0.5343877 0.005161359 -0.8452237
vn -0.9288399 0.02289848 0.3697729
vn -0.9389728 -0.06406266 0.3230802
vn -0.9491058 -0.1510238 0.2763874
vn 0.0236429 0.9987205 0.04470286
vn 0.03874876 0.9978163 0.05092648
vn 0.05385463 0.9969121 0.0571501
vn 0.5332372 0.004510474 -0.8459538
vn -0.5763608 -0.03176732 0.8165777
vn -1.924638E-06 1 -2.042411E-06
vn 0.7355368 0.2141835 0.6427372
vn -0.7136257 -0.3191726 -0.6235922
vn 0.0006085602 0.9999997 0.0005317809
vn -0.06567469 -0.9961892 -0.05739206
vn -0.6209677 -0.2992789 -0.7244524
vn -0.6176727 -0.3052491 -0.7247461
vn -0.6143777 -0.3112194 -0.7250398
vn 0.0009137701 0.999999 0.00106605
vn -0.05740646 -0.9960494 -0.06775004
vn -0.06937556 -0.994791 -0.07348542
vn -0.08134466 -0.9935327 -0.07922079
vn 0.7832826 0.247123 0.5704373
vn 0.7786673 0.3237946 0.5304075
vn 0.774052 0.4004662 0.4903778
vn -0.3101074 -0.2572584 -0.915233
vn -0.2880117 -0.2794624 -0.9154063
vn -0.265916 -0.3016663 -0.9155797
vn 6.821808E-05 0.9999972 0.002390157
vn 0.2071766 -0.8386568 -0.5037187
vn -0.000719068 0.9999991 0.001140457
vn 0.2783223 -0.8529847 -0.4415357
vn 0.8781426 0.3901606 0.2768401
vn 0.8687404 0.4215065 0.2572293
vn 0.8593382 0.4528523 0.2376186
vn -0.692564 -0.3861322 -0.6093087
vn -0.7126542 -0.3546271 -0.6041028
vn -0.7327445 -0.323122 -0.598897
vn 0.1029853 0.991115 0.08417358
vn -0.08666447 -0.9937162 -0.07083382
vn 0.6857219 0.4643983 0.5604638
vn 0.6868476 0.4456572 0.573675
vn 0.6879733 0.4269161 0.5868862
vn -0.1824714 0.9400573 0.288091
vn -0.2050639 0.8701808 0.4213926
vn -0.2276564 0.8003042 0.5546943
vn 0.0229662 0.9990717 -0.0364473
vn -0.36678 0.9090018 -0.19796
vn -0.16796 0.9541036 -0.08636857
vn 0.03085995 0.9992055 0.0252229
vn 0.1565821 0.9876648 -0.0006109397
vn -0.1820503 0.9399171 0.2888141
vn 0.03931098 0.9952163 0.08943771
vn 0.1440843 0.9710789 0.146419
vn 0.2488576 0.9469416 0.2034002
vn 0.5491058 0.2419673 -0.7999592
vn -0.5181274 0.2364109 0.8219817
vn 0.7500867 0.248019 0.6130714
vn -0.4956797 0.2382032 0.8352011
vn 0.5180151 0.2372547 -0.8218094
vn -0.7491162 0.2528615 -0.6122793
vn -0.3480668 0.6686458 -0.6570862
vn -0.347685 0.6690514 -0.6568751
vn -0.3473032 0.669457 -0.6566641
vn -0.7570511 0.6003302 0.2578322
vn 0.7510568 0.3759874 -0.542722
vn 0.7530187 0.3967323 -0.5242034
vn 0.7549806 0.4174772 -0.5056848
vn -0.4783126 0.558562 0.6776618
vn 0.5055491 0.4810433 -0.7162524
vn 0.5085918 0.6408592 0.5750078
vn 0.5344244 0.608802 0.5847738
vn 0.560257 0.5767447 0.5945398
vn -0.5265415 0.6407337 -0.5587616
vn -0.402542 0.7160343 0.5703112
vn 0.4025392 0.7160339 -0.5703136
vn 0.5265408 0.6407351 0.5587605

usemtl ProBuilderDefault
f 3/3/2 4/4/3 2/2/2 1/1/1
f 7/7/4 8/8/4 6/6/4 5/5/4
f 11/11/6 12/12/7 10/10/6 9/9/5
f 15/15/9 16/16/10 14/14/9 13/13/8
f 12/19/11 11/20/11 4/18/11 3/17/11
f 1/23/12 2/24/12 9/22/12 10/21/12
f 17/27/14 18/28/15 1/26/14 10/25/13
f 19/31/17 17/32/18 10/30/17 12/29/16
f 18/35/20 20/36/21 3/34/20 1/33/19
f 20/39/23 19/40/24 12/38/23 3/37/22
f 21/43/26 22/44/27 18/42/26 17/41/25
f 23/47/29 21/48/30 17/46/29 19/45/28
f 22/51/32 24/52/33 20/50/32 18/49/31
f 24/55/35 23/56/36 19/54/35 20/53/34
f 25/59/37 26/60/37 9/58/37 2/57/37
f 27/63/39 25/64/40 2/62/39 4/61/38
f 26/67/42 28/68/43 11/66/42 9/65/41
f 28/71/44 27/72/44 4/70/44 11/69/44
f 5/75/45 6/76/45 26/74/45 25/73/45
f 7/79/46 5/80/46 25/78/46 27/77/46
f 6/83/47 8/84/47 28/82/47 26/81/47
f 8/87/48 7/88/48 27/86/48 28/85/48
f 29/91/50 30/92/51 22/90/50 21/89/49
f 33/95/53 34/96/54 32/94/53 31/93/52
f 30/99/56 35/100/57 24/98/56 22/97/55
f 38/103/59 39/104/60 37/102/59 36/101/58
f 13/107/37 14/108/37 30/106/37 29/105/37
f 40/111/61 41/112/61 34/110/61 33/109/61
f 14/115/62 16/116/62 35/114/62 30/113/62
f 44/119/63 45/120/63 43/118/63 42/117/63
f 47/123/63 48/124/63 46/122/63 15/121/63
f 49/125/37 50/126/37 13/107/37 29/105/37
f 50/129/64 47/130/64 15/128/64 13/127/64
f 51/133/65 52/134/65 21/132/65 23/131/65
f 48/137/66 51/138/66 23/136/66 46/135/66
f 52/141/67 49/142/67 29/140/67 21/139/67
f 53/145/69 54/146/70 52/144/69 51/143/68
f 55/148/66 53/149/71 51/147/66 48/137/66
f 54/152/73 56/153/74 49/151/73 52/150/72
f 57/154/63 55/155/63 48/124/63 47/123/63
f 56/156/37 58/157/37 50/126/37 49/125/37
f 58/160/76 57/161/77 47/159/76 50/158/75
f 59/164/79 60/165/80 54/163/79 53/162/78
f 61/168/81 59/169/81 53/167/81 55/166/81
f 60/172/82 62/173/82 56/171/82 54/170/82
f 63/176/83 61/177/83 55/175/83 57/174/83
f 62/180/84 64/181/84 58/179/84 56/178/84
f 64/184/86 63/185/87 57/183/86 58/182/85
f 31/188/89 32/189/90 60/187/89 59/186/88
f 67/192/91 68/193/91 66/191/91 65/190/91
f 32/196/92 34/197/92 62/195/92 60/194/92
f 70/200/63 67/201/63 65/199/63 69/198/63
f 34/204/37 41/205/37 64/203/37 62/202/37
f 41/208/94 40/209/95 63/207/94 64/206/93
f 71/212/97 72/213/98 59/211/97 61/210/96
f 73/216/99 74/217/99 40/215/99 33/214/99
f 72/220/101 75/221/102 31/219/101 59/218/100
f 75/224/103 73/225/103 33/223/103 31/222/103
f 76/228/104 71/229/104 61/227/104 63/226/104
f 74/232/106 76/233/107 63/231/106 40/230/105
f 65/236/108 66/237/108 72/235/108 71/234/108
f 67/240/109 70/241/109 74/239/109 73/238/109
f 66/244/110 68/245/110 75/243/110 72/242/110
f 68/248/111 67/249/111 73/247/111 75/246/111
f 69/252/112 65/253/112 71/251/112 76/250/112
f 70/256/113 69/257/113 76/255/113 74/254/113
f 36/260/115 37/261/116 23/259/115 24/258/114
f 38/264/117 36/265/117 24/263/117 35/262/117
f 37/268/119 39/269/120 46/267/119 23/266/118
f 77/272/121 38/273/121 35/271/121 16/270/121
f 39/276/122 78/277/122 15/275/122 46/274/122
f 78/280/124 77/281/125 16/279/124 15/278/123
f 42/284/126 43/285/126 39/283/126 38/282/126
f 44/288/127 42/289/127 38/287/127 77/286/127
f 43/292/128 45/293/128 78/291/128 39/290/128
f 45/296/129 44/297/129 77/295/129 78/294/129

